# Blender 5.0.1
# www.blender.org
mtllib dross_asteroid_1.mtl
o asteroid_01.007_asteroid.001_0
v -1.115832 -0.384838 0.041857
v -0.807416 -0.253781 -0.767163
v -0.583687 -0.780281 -0.530206
v 0.811078 0.433977 -0.925828
v 1.685060 0.805365 0.041857
v 0.905479 -0.147479 -0.530207
v -0.491015 -0.998364 0.041857
v 0.998151 -0.365562 0.041857
v -0.587052 -0.786510 0.618338
v 1.148774 -0.215327 0.771515
v -0.807416 -0.253781 0.850877
v 0.954576 0.494956 1.185590
v 0.671994 1.301706 0.894867
v -1.484721 0.399209 0.907725
v 0.365349 1.123604 0.041857
v -1.231364 0.541979 0.041857
v 0.458021 0.905520 -0.530207
v -1.173746 0.312486 -0.622577
v -0.062833 0.062620 -1.102270
v 0.811078 0.433977 -0.925828
v 0.905479 -0.147479 -0.530207
v 0.253568 -0.681963 -0.767163
v -0.807416 -0.253781 -0.767163
v -0.583687 -0.780281 -0.530206
v 0.998151 -0.365562 0.041857
v 0.384625 -0.990379 0.041857
v 0.253568 -0.681963 -0.767163
v 0.384625 -0.990379 0.041857
v 0.384625 -0.990379 0.041857
v 0.998151 -0.365562 0.041857
v 1.148774 -0.215327 0.771515
v 0.253568 -0.681963 0.850877
v -0.491015 -0.998364 0.041857
v -0.587052 -0.786510 0.618338
v 0.954576 0.494956 1.185590
v -0.062833 0.062620 1.289258
v -0.587052 -0.786510 0.618338
v 0.253568 -0.681963 0.850877
v -0.062833 0.062620 1.289258
v -0.807416 -0.253781 0.850877
v 0.954576 0.494956 1.185590
v 0.671994 1.301706 0.894867
v -0.420568 0.904473 0.956565
v -1.484721 0.399209 0.907725
v -0.510292 1.115619 0.041856
v -1.231364 0.541979 0.041857
v -0.420568 0.904473 0.956565
v -0.510292 1.115619 0.041856
v -1.231364 0.541979 0.041857
v -0.510292 1.115619 0.041856
v -0.379234 0.807203 -0.767163
v -1.173746 0.312486 -0.622577
v 0.365349 1.123604 0.041857
v 0.458021 0.905520 -0.530207
v -0.062833 0.062620 -1.102270
v -0.807416 -0.253781 -0.767163
v -0.379234 0.807203 -0.767163
v 0.458021 0.905520 -0.530207
vn -0.8606 -0.5070 -0.0480
vn -0.5589 -0.3191 -0.7653
vn -0.4032 -0.7465 -0.5293
vn 0.4620 0.1963 -0.8649
vn 0.9209 0.3590 -0.1521
vn 0.6815 -0.4637 -0.5662
vn -0.3161 -0.9487 -0.0038
vn 0.7473 -0.6535 -0.1203
vn -0.4078 -0.7576 0.5097
vn 0.7068 -0.5146 0.4855
vn -0.4854 -0.4469 0.7515
vn 0.4671 0.0861 0.8800
vn 0.1971 0.8543 0.4809
vn -0.8496 0.1648 0.5010
vn 0.0319 0.9771 -0.2102
vn -0.8590 0.4861 -0.1604
vn 0.1392 0.8124 -0.5662
vn -0.8057 0.1928 -0.5601
vn -0.0128 -0.0298 -0.9995
vn 0.4619 0.1963 -0.8649
vn 0.6814 -0.4637 -0.5663
vn 0.2588 -0.6787 -0.6873
vn 0.7472 -0.6536 -0.1203
vn 0.3575 -0.9331 -0.0381
vn 0.7473 -0.6536 -0.1202
vn 0.7067 -0.5146 0.4855
vn 0.1928 -0.7425 0.6415
vn -0.3161 -0.9487 -0.0037
vn -0.0591 -0.1540 0.9863
vn 0.1927 -0.7425 0.6415
vn -0.4853 -0.4469 0.7515
vn 0.4672 0.0861 0.8800
vn -0.3250 0.6780 0.6593
vn -0.8496 0.1647 0.5010
vn -0.3443 0.9293 -0.1337
vn -0.8591 0.4861 -0.1604
vn -0.3442 0.9293 -0.1337
vn -0.2553 0.6678 -0.6992
vn 0.0319 0.9771 -0.2103
vn -0.0129 -0.0298 -0.9995
vn -0.5589 -0.3191 -0.7654
vn -0.2552 0.6678 -0.6992
vn 0.1392 0.8124 -0.5663
vt 0.463138 0.442916
vt 0.615422 0.360410
vt 0.526216 0.276499
vt 0.002095 0.245135
vt 0.154379 0.281298
vt 0.091301 0.161224
vt 0.400060 0.276499
vt 0.217457 0.161224
vt 0.310854 0.360410
vt 0.306663 0.245135
vt 0.310854 0.479078
vt 0.306663 0.363803
vt 0.217457 0.447715
vt 0.400060 0.562990
vt 0.091301 0.447715
vt 0.526216 0.562990
vt 0.002096 0.363803
vt 0.615422 0.479078
vt 0.477455 0.871749
vt 0.653944 0.845621
vt 0.653944 0.719465
vt 0.477455 0.693337
vt 0.346056 0.845621
vt 0.346056 0.719465
vt 0.685826 0.630259
vt 0.522545 0.567181
vt 0.552344 0.161224
vt 0.373932 0.161224
vt 0.927500 0.410706
vt 0.875808 0.239947
vt 0.751012 0.258422
vt 0.751012 0.436834
vt 0.920897 0.544515
vt 0.796101 0.562990
vt 0.658099 0.239947
vt 0.619613 0.410706
vt 0.002095 0.934826
vt 0.165377 0.997905
vt 0.210466 0.871748
vt 0.033978 0.845621
vt 0.341866 0.845621
vt 0.341866 0.719465
vt 0.210466 0.693337
vt 0.033978 0.719465
vt 0.165377 0.567181
vt 0.002095 0.630259
vt 0.243585 0.562990
vt 0.065174 0.562990
vt 0.741710 0.674862
vt 0.690017 0.845621
vt 0.866506 0.871748
vt 0.866505 0.693337
vt 0.696621 0.979429
vt 0.821416 0.997905
vt 0.997905 0.845621
vt 0.959419 0.674862
vt 0.522545 0.997905
vt 0.685826 0.934826
s 1
usemtl asteroid.001
f 1/1/1 2/2/2 3/3/3
f 4/4/4 5/5/5 6/6/6
f 1/1/1 3/3/3 7/7/7
f 6/6/6 5/5/5 8/8/8
f 1/1/1 7/7/7 9/9/9
f 8/8/8 5/5/5 10/10/10
f 1/1/1 9/9/9 11/11/11
f 10/10/10 5/5/5 12/12/12
f 12/12/12 5/5/5 13/13/13
f 1/1/1 11/11/11 14/14/14
f 13/13/13 5/5/5 15/15/15
f 1/1/1 14/14/14 16/16/16
f 15/15/15 5/5/5 17/17/17
f 1/1/1 16/16/16 18/18/18
f 17/17/17 5/5/5 4/4/4
f 1/1/1 18/18/18 2/2/2
f 19/19/19 20/20/20 21/21/21
f 19/19/19 21/21/21 22/22/22
f 23/23/2 19/19/19 22/22/22
f 23/23/2 22/22/22 24/24/3
f 22/22/22 21/21/21 25/25/23
f 22/22/22 25/25/23 26/26/24
f 3/3/3 27/27/22 28/28/24
f 3/3/3 28/28/24 7/7/7
f 29/29/24 30/30/25 31/31/26
f 29/29/24 31/31/26 32/32/27
f 33/33/28 29/29/24 32/32/27
f 33/33/28 32/32/27 34/34/9
f 32/32/27 31/31/26 35/35/12
f 32/32/27 35/35/12 36/36/29
f 37/37/9 38/38/30 39/39/29
f 37/37/9 39/39/29 40/40/31
f 39/39/29 41/41/32 42/42/13
f 39/39/29 42/42/13 43/43/33
f 40/40/31 39/39/29 43/43/33
f 40/40/31 43/43/33 44/44/34
f 44/44/34 43/43/33 45/45/35
f 44/44/34 45/45/35 46/46/36
f 47/47/33 13/13/13 15/15/15
f 47/47/33 15/15/15 48/48/37
f 49/49/16 50/50/37 51/51/38
f 49/49/16 51/51/38 52/52/18
f 50/50/37 53/53/39 54/54/17
f 50/50/37 54/54/17 51/51/38
f 52/52/18 51/51/38 55/55/40
f 52/52/18 55/55/40 56/56/41
f 57/57/42 58/58/43 20/20/20
f 57/57/42 20/20/20 19/19/19
