# Blender 5.0.1
# www.blender.org
mtllib dross_asteroid_2.mtl
o asteroid_01.006_asteroid.001_0
v -0.035940 -1.359120 -0.120690
v -0.035940 -0.885472 -1.225252
v 0.941284 -1.181672 -1.097916
v -0.035940 0.930151 -1.285521
v -0.035940 1.350727 -0.120691
v 0.947997 1.172145 -1.104629
v 1.211879 -1.038411 -0.120690
v 1.331431 1.146383 -0.120691
v 0.919127 -1.148217 0.834377
v 0.924677 1.136936 0.839926
v -0.035940 -0.988921 1.080772
v -0.035940 0.921584 1.036114
v -0.988021 1.124047 0.831389
v -1.008878 -1.175199 0.852247
v -1.085623 0.807222 -0.120691
v -1.301015 -1.056832 -0.120690
v -0.776568 0.804791 -0.861318
v -0.889633 -0.995160 -0.974383
v -0.035940 -0.009831 -1.775056
v -0.035940 0.930151 -1.285521
v 0.947997 1.172145 -1.104629
v 1.058624 -0.009831 -1.215256
v -0.035940 -0.885472 -1.225252
v 0.941284 -1.181672 -1.097916
v 1.331431 1.146383 -0.120691
v 1.745444 -0.009831 -0.120691
v 1.058624 -0.009831 -1.215256
v 1.745444 -0.009831 -0.120691
v 1.745444 -0.009831 -0.120691
v 1.331431 1.146383 -0.120691
v 0.924677 1.136936 0.839926
v 1.213181 -0.009830 1.128431
v 1.211879 -1.038411 -0.120690
v 0.919127 -1.148217 0.834377
v -0.035940 0.921584 1.036114
v -0.035940 -0.009830 1.664570
v 0.919127 -1.148217 0.834377
v 1.213181 -0.009830 1.128431
v -0.035940 -0.009830 1.664570
v -0.035940 -0.988921 1.080772
v -0.035940 0.921584 1.036114
v -0.988021 1.124047 0.831389
v -1.310907 -0.009830 1.154276
v -1.008878 -1.175199 0.852247
v -1.769562 -0.009831 -0.120691
v -1.301015 -1.056832 -0.120690
v -1.310907 -0.009830 1.154276
v -1.769562 -0.009831 -0.120691
v -1.301015 -1.056832 -0.120690
v -1.769562 -0.009831 -0.120691
v -1.125733 -0.009831 -1.210483
v -0.889633 -0.995160 -0.974383
v -1.085623 0.807222 -0.120691
v -0.776568 0.804791 -0.861318
v -0.035940 -0.009831 -1.775056
v -0.035940 -0.885472 -1.225252
v -1.125733 -0.009831 -1.210483
v -0.776568 0.804791 -0.861318
vn -0.0204 -0.9986 -0.0491
vn -0.0737 -0.6497 -0.7566
vn 0.4398 -0.7136 -0.5453
vn -0.1525 0.6711 -0.7255
vn -0.1445 0.9885 -0.0443
vn 0.4383 0.6881 -0.5782
vn 0.7227 -0.6909 -0.0186
vn 0.7150 0.6989 -0.0184
vn 0.4577 -0.7465 0.4829
vn 0.4193 0.7329 0.5357
vn 0.0148 -0.7022 0.7119
vn -0.0000 0.6970 0.7171
vn -0.4777 0.7765 0.4109
vn -0.4557 -0.7494 0.4803
vn -0.6987 0.6960 -0.1654
vn -0.7054 -0.7008 -0.1066
vn -0.5392 0.6957 -0.4746
vn -0.4491 -0.6911 -0.5664
vn -0.0661 0.0097 -0.9978
vn 0.4383 0.6882 -0.5782
vn 0.6550 -0.0290 -0.7551
vn -0.0738 -0.6496 -0.7566
vn 0.9990 -0.0294 -0.0342
vn 0.9990 -0.0293 -0.0343
vn 0.9990 -0.0293 -0.0342
vn 0.4192 0.7330 0.5357
vn 0.6841 -0.0125 0.7293
vn 0.7228 -0.6908 -0.0186
vn -0.0001 0.6970 0.7171
vn 0.0085 0.0129 0.9999
vn 0.4578 -0.7465 0.4829
vn 0.0148 -0.7021 0.7119
vn -0.7171 0.0487 0.6952
vn -0.4557 -0.7494 0.4804
vn -0.9908 0.0795 -0.1097
vn -0.7054 -0.7008 -0.1067
vn -0.9908 0.0794 -0.1097
vn -0.6888 0.0690 -0.7217
vn -0.4491 -0.6910 -0.5664
vn -0.6987 0.6960 -0.1655
vn -0.5393 0.6956 -0.4747
vn -0.0738 -0.6496 -0.7567
vn -0.6887 0.0690 -0.7217
vt 0.463138 0.442916
vt 0.615422 0.360410
vt 0.526216 0.276499
vt 0.002095 0.245135
vt 0.154379 0.281298
vt 0.091301 0.161224
vt 0.400060 0.276499
vt 0.217457 0.161224
vt 0.310854 0.360410
vt 0.306663 0.245135
vt 0.310854 0.479078
vt 0.306663 0.363803
vt 0.217457 0.447715
vt 0.400060 0.562990
vt 0.091301 0.447715
vt 0.526216 0.562990
vt 0.002096 0.363803
vt 0.615422 0.479078
vt 0.477455 0.871749
vt 0.653944 0.845621
vt 0.653944 0.719465
vt 0.477455 0.693337
vt 0.346056 0.845621
vt 0.346056 0.719465
vt 0.685826 0.630259
vt 0.522545 0.567181
vt 0.552344 0.161224
vt 0.373932 0.161224
vt 0.927500 0.410706
vt 0.875808 0.239947
vt 0.751012 0.258422
vt 0.751012 0.436834
vt 0.920897 0.544515
vt 0.796101 0.562990
vt 0.658099 0.239947
vt 0.619613 0.410706
vt 0.002095 0.934826
vt 0.165377 0.997905
vt 0.210466 0.871748
vt 0.033978 0.845621
vt 0.341866 0.845621
vt 0.341866 0.719465
vt 0.210466 0.693337
vt 0.033978 0.719465
vt 0.165377 0.567181
vt 0.002095 0.630259
vt 0.243585 0.562990
vt 0.065174 0.562990
vt 0.741710 0.674862
vt 0.690017 0.845621
vt 0.866506 0.871748
vt 0.866505 0.693337
vt 0.696621 0.979429
vt 0.821416 0.997905
vt 0.997905 0.845621
vt 0.959419 0.674862
vt 0.522545 0.997905
vt 0.685826 0.934826
s 1
usemtl asteroid.001
f 1/1/1 2/2/2 3/3/3
f 4/4/4 5/5/5 6/6/6
f 1/1/1 3/3/3 7/7/7
f 6/6/6 5/5/5 8/8/8
f 1/1/1 7/7/7 9/9/9
f 8/8/8 5/5/5 10/10/10
f 1/1/1 9/9/9 11/11/11
f 10/10/10 5/5/5 12/12/12
f 12/12/12 5/5/5 13/13/13
f 1/1/1 11/11/11 14/14/14
f 13/13/13 5/5/5 15/15/15
f 1/1/1 14/14/14 16/16/16
f 15/15/15 5/5/5 17/17/17
f 1/1/1 16/16/16 18/18/18
f 17/17/17 5/5/5 4/4/4
f 1/1/1 18/18/18 2/2/2
f 19/19/19 20/20/4 21/21/20
f 19/19/19 21/21/20 22/22/21
f 23/23/22 19/19/19 22/22/21
f 23/23/22 22/22/21 24/24/3
f 22/22/21 21/21/20 25/25/8
f 22/22/21 25/25/8 26/26/23
f 3/3/3 27/27/21 28/28/24
f 3/3/3 28/28/24 7/7/7
f 29/29/25 30/30/8 31/31/26
f 29/29/25 31/31/26 32/32/27
f 33/33/28 29/29/25 32/32/27
f 33/33/28 32/32/27 34/34/9
f 32/32/27 31/31/26 35/35/29
f 32/32/27 35/35/29 36/36/30
f 37/37/31 38/38/27 39/39/30
f 37/37/31 39/39/30 40/40/32
f 39/39/30 41/41/29 42/42/13
f 39/39/30 42/42/13 43/43/33
f 40/40/32 39/39/30 43/43/33
f 40/40/32 43/43/33 44/44/34
f 44/44/34 43/43/33 45/45/35
f 44/44/34 45/45/35 46/46/36
f 47/47/33 13/13/13 15/15/15
f 47/47/33 15/15/15 48/48/37
f 49/49/36 50/50/35 51/51/38
f 49/49/36 51/51/38 52/52/39
f 50/50/35 53/53/40 54/54/41
f 50/50/35 54/54/41 51/51/38
f 52/52/39 51/51/38 55/55/19
f 52/52/39 55/55/19 56/56/42
f 57/57/43 58/58/41 20/20/4
f 57/57/43 20/20/4 19/19/19
