# Blender 5.0.1
# www.blender.org
mtllib dross_waste_asteroid.png.mtl
o asteroid_01.005_asteroid.001_0
v 0.015345 -1.640613 -0.049216
v 0.015345 -1.462095 -1.565377
v 0.873791 -1.194504 -0.907662
v 0.015345 1.414487 -1.541611
v 0.015345 1.609397 -0.049217
v 1.027129 1.359997 -1.061001
v 1.071293 -1.054508 -0.049216
v 1.498961 1.406713 -0.049217
v 1.154595 -1.546201 1.090034
v 0.909053 1.212111 0.844491
v 0.015345 -1.430517 1.431291
v 0.015345 1.208588 1.210692
v -0.968145 1.324560 0.934273
v -0.941878 -1.318218 0.908007
v -1.197206 1.166646 -0.049217
v -1.543328 -1.499745 -0.049216
v -0.991767 1.354145 -1.056329
v -1.006005 -1.398537 -1.070567
v 0.015345 -0.013280 -2.031895
v 0.015345 1.414487 -1.541611
v 1.027129 1.359997 -1.061001
v 1.467806 -0.013279 -1.501678
v 0.015345 -1.462095 -1.565377
v 0.873791 -1.194504 -0.907662
v 1.498961 1.406713 -0.049217
v 1.959016 -0.013279 -0.049216
v 1.467806 -0.013279 -1.501678
v 1.959016 -0.013279 -0.049216
v 1.959016 -0.013279 -0.049216
v 1.498961 1.406713 -0.049217
v 0.909053 1.212111 0.844491
v 1.314420 -0.013279 1.249859
v 1.071293 -1.054508 -0.049216
v 1.154595 -1.546201 1.090034
v 0.015345 1.208588 1.210692
v 0.015345 -0.013278 1.603172
v 1.154595 -1.546201 1.090034
v 1.314420 -0.013279 1.249859
v 0.015345 -0.013278 1.603172
v 0.015345 -1.430517 1.431291
v 0.015345 1.208588 1.210692
v -0.968145 1.324560 0.934273
v -1.120397 -0.013279 1.086526
v -0.941878 -1.318218 0.908007
v -1.920292 -0.013279 -0.049216
v -1.543328 -1.499745 -0.049216
v -1.120397 -0.013279 1.086526
v -1.920292 -0.013279 -0.049216
v -1.543328 -1.499745 -0.049216
v -1.920292 -0.013279 -0.049216
v -1.384722 -0.013279 -1.449283
v -1.006005 -1.398537 -1.070567
v -1.197206 1.166646 -0.049217
v -0.991767 1.354145 -1.056329
v 0.015345 -0.013280 -2.031895
v 0.015345 -1.462095 -1.565377
v -1.384722 -0.013279 -1.449283
v -0.991767 1.354145 -1.056329
vn 0.1035 -0.9941 -0.0327
vn 0.0631 -0.7404 -0.6692
vn 0.5909 -0.7286 -0.3465
vn -0.0111 0.7276 -0.6859
vn -0.0365 0.9967 0.0721
vn 0.4950 0.7215 -0.4842
vn 0.7310 -0.6742 -0.1048
vn 0.6828 0.7260 0.0814
vn 0.5543 -0.7102 0.4339
vn 0.4309 0.6760 0.5978
vn -0.1178 -0.6346 0.7638
vn 0.0173 0.6486 0.7609
vn -0.5055 0.6775 0.5343
vn -0.5093 -0.6188 0.5981
vn -0.7282 0.6828 0.0590
vn -0.7039 -0.7060 0.0776
vn -0.5501 0.7277 -0.4097
vn -0.4979 -0.7021 -0.5091
vn 0.0118 -0.0183 -0.9998
vn 0.7434 -0.0813 -0.6639
vn 0.0631 -0.7404 -0.6691
vn 0.5909 -0.7285 -0.3465
vn 0.6828 0.7261 0.0814
vn 0.9979 -0.0628 0.0170
vn 0.9979 -0.0628 0.0171
vn 0.6828 0.7261 0.0813
vn 0.4310 0.6760 0.5978
vn 0.6862 0.0377 0.7264
vn 0.7311 -0.6742 -0.1048
vn -0.0567 0.0749 0.9956
vn 0.5543 -0.7103 0.4339
vn -0.6657 0.0547 0.7442
vn -0.9950 0.0610 0.0788
vn -0.7039 -0.7061 0.0775
vn -0.9950 0.0610 0.0787
vn -0.7039 -0.7061 0.0776
vn -0.7295 0.0435 -0.6826
vn 0.0118 -0.0184 -0.9998
vn 0.0632 -0.7405 -0.6691
vt 0.463138 0.442916
vt 0.615422 0.360410
vt 0.526216 0.276499
vt 0.002095 0.245135
vt 0.154379 0.281298
vt 0.091301 0.161224
vt 0.400060 0.276499
vt 0.217457 0.161224
vt 0.310854 0.360410
vt 0.306663 0.245135
vt 0.310854 0.479078
vt 0.306663 0.363803
vt 0.217457 0.447715
vt 0.400060 0.562990
vt 0.091301 0.447715
vt 0.526216 0.562990
vt 0.002096 0.363803
vt 0.615422 0.479078
vt 0.477455 0.871749
vt 0.653944 0.845621
vt 0.653944 0.719465
vt 0.477455 0.693337
vt 0.346056 0.845621
vt 0.346056 0.719465
vt 0.685826 0.630259
vt 0.522545 0.567181
vt 0.552344 0.161224
vt 0.373932 0.161224
vt 0.927500 0.410706
vt 0.875808 0.239947
vt 0.751012 0.258422
vt 0.751012 0.436834
vt 0.920897 0.544515
vt 0.796101 0.562990
vt 0.658099 0.239947
vt 0.619613 0.410706
vt 0.002095 0.934826
vt 0.165377 0.997905
vt 0.210466 0.871748
vt 0.033978 0.845621
vt 0.341866 0.845621
vt 0.341866 0.719465
vt 0.210466 0.693337
vt 0.033978 0.719465
vt 0.165377 0.567181
vt 0.002095 0.630259
vt 0.243585 0.562990
vt 0.065174 0.562990
vt 0.741710 0.674862
vt 0.690017 0.845621
vt 0.866506 0.871748
vt 0.866505 0.693337
vt 0.696621 0.979429
vt 0.821416 0.997905
vt 0.997905 0.845621
vt 0.959419 0.674862
vt 0.522545 0.997905
vt 0.685826 0.934826
s 1
usemtl asteroid.001
f 1/1/1 2/2/2 3/3/3
f 4/4/4 5/5/5 6/6/6
f 1/1/1 3/3/3 7/7/7
f 6/6/6 5/5/5 8/8/8
f 1/1/1 7/7/7 9/9/9
f 8/8/8 5/5/5 10/10/10
f 1/1/1 9/9/9 11/11/11
f 10/10/10 5/5/5 12/12/12
f 12/12/12 5/5/5 13/13/13
f 1/1/1 11/11/11 14/14/14
f 13/13/13 5/5/5 15/15/15
f 1/1/1 14/14/14 16/16/16
f 15/15/15 5/5/5 17/17/17
f 1/1/1 16/16/16 18/18/18
f 17/17/17 5/5/5 4/4/4
f 1/1/1 18/18/18 2/2/2
f 19/19/19 20/20/4 21/21/6
f 19/19/19 21/21/6 22/22/20
f 23/23/21 19/19/19 22/22/20
f 23/23/21 22/22/20 24/24/22
f 22/22/20 21/21/6 25/25/23
f 22/22/20 25/25/23 26/26/24
f 3/3/3 27/27/20 28/28/24
f 3/3/3 28/28/24 7/7/7
f 29/29/25 30/30/26 31/31/27
f 29/29/25 31/31/27 32/32/28
f 33/33/29 29/29/25 32/32/28
f 33/33/29 32/32/28 34/34/9
f 32/32/28 31/31/27 35/35/12
f 32/32/28 35/35/12 36/36/30
f 37/37/31 38/38/28 39/39/30
f 37/37/31 39/39/30 40/40/11
f 39/39/30 41/41/12 42/42/13
f 39/39/30 42/42/13 43/43/32
f 40/40/11 39/39/30 43/43/32
f 40/40/11 43/43/32 44/44/14
f 44/44/14 43/43/32 45/45/33
f 44/44/14 45/45/33 46/46/34
f 47/47/32 13/13/13 15/15/15
f 47/47/32 15/15/15 48/48/35
f 49/49/36 50/50/35 51/51/37
f 49/49/36 51/51/37 52/52/18
f 50/50/35 53/53/15 54/54/17
f 50/50/35 54/54/17 51/51/37
f 52/52/18 51/51/37 55/55/38
f 52/52/18 55/55/38 56/56/39
f 57/57/37 58/58/17 20/20/4
f 57/57/37 20/20/4 19/19/19
