# Blender 4.2.0
# www.blender.org
mtllib large_pipe_anchor.mtl
o mesh
v -0.750000 1.625000 -0.625000
v 0.625000 1.625000 0.750000
v -0.625000 1.625000 0.750000
v 0.750000 1.625000 -0.625000
v -0.625000 2.875000 -0.750000
v -0.625000 1.625000 -0.750000
v -0.750000 2.875000 0.625000
v -0.750000 1.625000 0.625000
v 0.625000 1.625000 -0.750000
v 0.625000 2.875000 -0.750000
v 0.750000 1.625000 0.625000
v 0.750000 2.875000 0.625000
v 0.625000 3.000000 0.625000
v 0.625000 2.875000 0.750000
v -0.750000 2.875000 -0.625000
v -0.625000 3.000000 -0.625000
v 0.625000 3.000000 -0.625000
v 0.750000 2.875000 -0.625000
v -0.625000 2.875000 0.750000
v -0.625000 3.000000 0.625000
v 0.625000 1.500000 -0.625000
v 0.625000 1.500000 0.625000
v -0.625000 1.500000 0.625000
v -0.625000 1.500000 -0.625000
v 0.000000 1.000001 -0.000000
v 0.353553 1.500001 -0.353553
v 0.353553 1.000001 -0.353553
v 0.500000 1.500001 -0.000000
v 0.500000 1.000001 -0.000000
v 0.353553 1.500001 0.353553
v 0.353553 1.000001 0.353553
v 0.000000 1.500001 0.500000
v 0.000000 1.000001 0.500000
v -0.353553 1.500001 0.353553
v -0.353553 1.000001 0.353553
v -0.500000 1.500001 -0.000000
v -0.500000 1.000001 -0.000000
v -0.353553 1.500001 -0.353553
v -0.353553 1.000001 -0.353553
v 0.000000 1.500001 -0.500000
v 0.000000 1.000001 -0.500000
v 0.353554 1.062497 -0.353554
v 0.287261 1.101331 -0.474762
v 0.298636 1.062499 -0.486137
v 0.474761 1.101331 -0.287262
v 0.579887 1.195081 -0.314722
v 0.486136 1.249997 -0.220971
v 0.447303 1.117416 -0.259804
v 0.486136 1.062499 -0.673637
v 0.419845 1.288831 -0.607346
v 0.541054 1.327662 -0.541054
v 0.618719 1.062499 -0.618719
v 0.259804 1.382581 -0.447303
v 0.353554 1.437497 -0.353554
v 0.607345 1.288831 -0.419846
v 0.447303 1.382579 -0.259804
v 0.314721 1.195081 -0.579887
v 0.220971 1.249997 -0.486136
v 0.259804 1.117416 -0.447303
v 0.673637 1.062499 -0.486136
v 0.618719 1.062499 -0.353554
v 0.486137 1.062499 -0.298636
v 0.353554 1.062499 -0.618719
v 0.220971 1.062497 -0.220971
v 0.127222 1.117416 -0.314721
v 0.088389 1.249997 -0.353554
v 0.127222 1.382581 -0.314721
v 0.220971 1.437497 -0.220971
v 0.314721 1.382579 -0.127222
v 0.353554 1.249997 -0.088389
v 0.314721 1.117416 -0.127222
v 0.486136 0.999999 -0.486136
v 0.618719 1.062499 -0.353554
v 0.618719 0.999999 -0.353554
v 0.673636 1.062499 -0.486136
v 0.673636 0.999999 -0.486136
v 0.618719 1.062499 -0.618719
v 0.618719 0.999999 -0.618719
v 0.486136 1.062499 -0.673636
v 0.486136 0.999999 -0.673636
v 0.353554 1.062499 -0.618719
v 0.353554 0.999999 -0.618719
v 0.298636 1.062499 -0.486136
v 0.298636 0.999999 -0.486136
v 0.353554 1.062499 -0.353554
v 0.353554 0.999999 -0.353554
v 0.486136 1.062499 -0.298636
v 0.486136 0.999999 -0.298636
v -0.353553 1.062497 -0.353553
v -0.474762 1.101331 -0.287261
v -0.486137 1.062499 -0.298636
v -0.287262 1.101331 -0.474761
v -0.314721 1.195081 -0.579886
v -0.220971 1.249997 -0.486136
v -0.259804 1.117416 -0.447303
v -0.673637 1.062499 -0.486136
v -0.607346 1.288831 -0.419845
v -0.541053 1.327662 -0.541053
v -0.618718 1.062499 -0.618719
v -0.447303 1.382581 -0.259804
v -0.353553 1.437497 -0.353554
v -0.419846 1.288831 -0.607345
v -0.259804 1.382579 -0.447303
v -0.579886 1.195081 -0.314721
v -0.486136 1.249997 -0.220971
v -0.447303 1.117416 -0.259804
v -0.486136 1.062499 -0.673637
v -0.353553 1.062499 -0.618719
v -0.298636 1.062499 -0.486137
v -0.618718 1.062499 -0.353553
v -0.220971 1.062497 -0.220971
v -0.314720 1.117416 -0.127221
v -0.353553 1.249997 -0.088388
v -0.314720 1.382581 -0.127221
v -0.220971 1.437497 -0.220971
v -0.127221 1.382579 -0.314721
v -0.088388 1.249997 -0.353553
v -0.127221 1.117416 -0.314721
v -0.486136 0.999999 -0.486136
v -0.353554 1.062499 -0.618719
v -0.353554 0.999999 -0.618719
v -0.486136 1.062499 -0.673636
v -0.486136 0.999999 -0.673636
v -0.618719 1.062499 -0.618719
v -0.618719 0.999999 -0.618719
v -0.673636 1.062499 -0.486136
v -0.673636 0.999999 -0.486136
v -0.618719 1.062499 -0.353554
v -0.618719 0.999999 -0.353554
v -0.486136 1.062499 -0.298636
v -0.486136 0.999999 -0.298636
v -0.353554 1.062499 -0.353554
v -0.353554 0.999999 -0.353554
v -0.298636 1.062499 -0.486136
v -0.298636 0.999999 -0.486136
v -0.486136 0.999999 0.486136
v -0.618719 1.062499 0.353554
v -0.618719 0.999999 0.353554
v -0.673636 1.062499 0.486136
v -0.673636 0.999999 0.486136
v -0.618719 1.062499 0.618719
v -0.618719 0.999999 0.618719
v -0.486136 1.062499 0.673636
v -0.486136 0.999999 0.673636
v -0.353554 1.062499 0.618719
v -0.353554 0.999999 0.618719
v -0.298636 1.062499 0.486136
v -0.298636 0.999999 0.486136
v -0.353554 1.062499 0.353554
v -0.353554 0.999999 0.353554
v -0.486136 1.062499 0.298636
v -0.486136 0.999999 0.298636
v -0.353553 1.062497 0.353553
v -0.287261 1.101331 0.474762
v -0.298636 1.062499 0.486137
v -0.474761 1.101331 0.287262
v -0.579886 1.195081 0.314721
v -0.486136 1.249997 0.220971
v -0.447303 1.117416 0.259804
v -0.486136 1.062499 0.673637
v -0.419845 1.288831 0.607345
v -0.541053 1.327662 0.541053
v -0.618718 1.062499 0.618718
v -0.259804 1.382581 0.447303
v -0.353553 1.437497 0.353553
v -0.607345 1.288831 0.419845
v -0.447303 1.382579 0.259804
v -0.314721 1.195081 0.579886
v -0.220971 1.249997 0.486136
v -0.259804 1.117416 0.447303
v -0.673637 1.062499 0.486136
v -0.618718 1.062499 0.353553
v -0.486137 1.062499 0.298636
v -0.353553 1.062499 0.618718
v -0.220971 1.062497 0.220971
v -0.127221 1.117416 0.314720
v -0.088388 1.249997 0.353553
v -0.127221 1.382581 0.314720
v -0.220971 1.437497 0.220971
v -0.314720 1.382579 0.127221
v -0.353553 1.249997 0.088388
v -0.314720 1.117416 0.127221
v 0.353553 1.062497 0.353553
v 0.474762 1.101331 0.287261
v 0.486137 1.062499 0.298636
v 0.287262 1.101331 0.474761
v 0.314721 1.195081 0.579886
v 0.220971 1.249997 0.486136
v 0.259804 1.117416 0.447303
v 0.673637 1.062499 0.486136
v 0.607346 1.288831 0.419845
v 0.541053 1.327662 0.541053
v 0.618718 1.062499 0.618718
v 0.447303 1.382581 0.259804
v 0.353553 1.437497 0.353553
v 0.419846 1.288831 0.607345
v 0.259804 1.382579 0.447303
v 0.579886 1.195081 0.314721
v 0.486136 1.249997 0.220971
v 0.447303 1.117416 0.259804
v 0.486136 1.062499 0.673637
v 0.353553 1.062499 0.618718
v 0.298636 1.062499 0.486137
v 0.618718 1.062499 0.353553
v 0.220971 1.062497 0.220971
v 0.314720 1.117416 0.127221
v 0.353553 1.249997 0.088388
v 0.314720 1.382581 0.127221
v 0.220971 1.437497 0.220971
v 0.127221 1.382579 0.314720
v 0.088388 1.249997 0.353553
v 0.127221 1.117416 0.314720
v 0.486136 0.999999 0.486136
v 0.353554 1.062499 0.618719
v 0.353554 0.999999 0.618719
v 0.486136 1.062499 0.673636
v 0.486136 0.999999 0.673636
v 0.618719 1.062499 0.618719
v 0.618719 0.999999 0.618719
v 0.673636 1.062499 0.486136
v 0.673636 0.999999 0.486136
v 0.618719 1.062499 0.353554
v 0.618719 0.999999 0.353554
v 0.486136 1.062499 0.298636
v 0.486136 0.999999 0.298636
v 0.353554 1.062499 0.353554
v 0.353554 0.999999 0.353554
v 0.298636 1.062499 0.486136
v 0.298636 0.999999 0.486136
vn 1.0000 -0.0000 -0.0000
vn -1.0000 -0.0000 -0.0000
vn -0.0000 1.0000 -0.0000
vn -0.0000 -1.0000 -0.0000
vn -0.0000 -0.0000 1.0000
vn -0.0000 -0.0000 -1.0000
vn -0.7071 0.7071 -0.0000
vn -0.7071 -0.7071 -0.0000
vn -0.0000 0.7071 0.7071
vn -0.0000 -0.7071 0.7071
vn 0.7071 0.7071 -0.0000
vn 0.7071 -0.7071 -0.0000
vn -0.0000 0.7071 -0.7071
vn -0.0000 -0.7071 -0.7071
vn -0.7071 -0.0000 -0.7071
vn -0.7071 -0.0000 0.7071
vn 0.7071 -0.0000 -0.7071
vn 0.7071 -0.0000 0.7071
vn 0.5774 0.5774 0.5774
vn -0.5774 0.5774 -0.5774
vn 0.5774 0.5774 -0.5774
vn -0.5774 0.5774 0.5774
vn 0.5774 -0.5774 -0.5774
vn 0.5774 -0.5774 0.5774
vn -0.5774 -0.5774 0.5774
vn -0.5774 -0.5774 -0.5774
vn 0.9239 -0.0000 -0.3827
vn 0.9239 -0.0000 0.3827
vn 0.3827 -0.0000 0.9239
vn -0.3827 -0.0000 0.9239
vn -0.9239 -0.0000 0.3827
vn -0.9239 -0.0000 -0.3827
vn -0.3827 -0.0000 -0.9239
vn 0.3827 -0.0000 -0.9239
vn -0.8628 -0.3574 0.3574
vn 0.5345 -0.3780 0.7559
vn 0.3574 0.3574 -0.8629
vn -0.0000 0.8629 -0.5054
vn 0.7559 0.3780 0.5345
vn -0.5345 0.3780 -0.7559
vn -0.7559 -0.3780 -0.5345
vn -0.0000 -0.8629 0.5055
vn 0.5054 0.8629 -0.0000
vn 0.9125 0.1566 0.3780
vn -0.9125 -0.1566 -0.3780
vn -0.3780 0.1566 -0.9125
vn 0.8629 0.3574 -0.3574
vn 0.3780 -0.1566 0.9125
vn 0.3780 -0.1565 0.9125
vn -0.5055 -0.8628 -0.0000
vn -0.2706 -0.9239 -0.2706
vn -0.6533 -0.3827 -0.6533
vn -0.6533 0.3827 -0.6533
vn -0.2706 0.9239 -0.2706
vn 0.2706 0.9239 0.2706
vn 0.6533 0.3827 0.6533
vn 0.6533 -0.3827 0.6533
vn 0.2706 -0.9239 0.2706
vn 0.3574 -0.3574 0.8628
vn 0.7559 -0.3780 -0.5345
vn -0.8629 0.3574 -0.3574
vn -0.5054 0.8629 -0.0000
vn 0.5345 0.3780 -0.7559
vn -0.7559 0.3780 0.5345
vn -0.5345 -0.3780 0.7559
vn 0.5055 -0.8629 -0.0000
vn 0.3780 0.1566 -0.9125
vn -0.3780 -0.1566 0.9125
vn -0.9125 0.1566 0.3780
vn -0.3574 0.3574 -0.8629
vn 0.9125 -0.1566 -0.3780
vn 0.9125 -0.1565 -0.3780
vn -0.0000 -0.8628 0.5055
vn -0.2706 -0.9239 0.2706
vn -0.6533 -0.3827 0.6533
vn -0.6533 0.3827 0.6533
vn -0.2706 0.9239 0.2706
vn 0.2706 0.9239 -0.2706
vn 0.6533 0.3827 -0.6533
vn 0.6533 -0.3827 -0.6533
vn 0.2706 -0.9239 -0.2706
vn 0.8628 -0.3574 -0.3574
vn -0.5345 -0.3780 -0.7559
vn -0.3574 0.3574 0.8629
vn -0.0000 0.8629 0.5054
vn -0.7559 0.3780 -0.5345
vn 0.5345 0.3780 0.7559
vn 0.7559 -0.3780 0.5345
vn -0.0000 -0.8629 -0.5055
vn -0.9125 0.1566 -0.3780
vn 0.9125 -0.1566 0.3780
vn 0.3780 0.1566 0.9125
vn -0.8629 0.3574 0.3574
vn -0.3780 -0.1566 -0.9125
vn -0.3780 -0.1565 -0.9125
vn 0.5055 -0.8628 -0.0000
vn -0.3574 -0.3574 -0.8628
vn -0.7559 -0.3780 0.5345
vn 0.8629 0.3574 0.3574
vn -0.5345 0.3780 0.7559
vn 0.7559 0.3780 -0.5345
vn 0.5345 -0.3780 -0.7559
vn -0.5055 -0.8629 -0.0000
vn -0.3780 0.1566 0.9125
vn 0.3780 -0.1566 -0.9125
vn 0.9125 0.1566 -0.3780
vn 0.3574 0.3574 0.8629
vn -0.9125 -0.1566 0.3780
vn -0.9125 -0.1565 0.3780
vn -0.0000 -0.8628 -0.5055
vt 0.617188 0.953125
vt 0.460938 0.953125
vt 0.460938 0.640625
vt 0.617188 0.640625
vt 0.976562 0.640625
vt 0.976562 0.953125
vt 0.820312 0.953125
vt 0.820312 0.640625
vt 0.820312 0.281250
vt 0.976562 0.281250
vt 0.976562 0.593750
vt 0.820312 0.593750
vt 0.640625 0.281250
vt 0.796875 0.281250
vt 0.796875 0.593750
vt 0.640625 0.593750
vt 0.437500 0.640625
vt 0.437500 0.953125
vt 0.281250 0.953125
vt 0.281250 0.640625
vt 0.796875 0.953125
vt 0.640625 0.953125
vt 0.640625 0.640625
vt 0.796875 0.640625
vt 0.976562 1.000000
vt 0.820312 1.000000
vt 0.437500 1.000000
vt 0.281250 1.000000
vt 0.281250 0.593750
vt 0.437500 0.593750
vt 0.617188 1.000000
vt 0.460938 1.000000
vt 0.460938 0.593750
vt 0.617188 0.596431
vt 0.796875 1.000000
vt 0.640625 1.000000
vt 1.000000 0.953125
vt 1.000000 0.640625
vt 0.449219 1.000000
vt 0.808594 1.000000
vt 0.628906 1.000000
vt 0.988281 1.000000
vt 0.628906 0.593750
vt 0.449219 0.593750
vt 0.988281 0.593750
vt 0.808594 0.593750
vt 0.046875 0.375000
vt 0.000000 0.375000
vt 0.000000 0.250000
vt 0.046875 0.250000
vt 0.153569 0.213388
vt 0.171875 0.125000
vt 0.109375 0.125000
vt 0.046875 0.500000
vt 0.000000 0.500000
vt 0.153569 0.036612
vt 0.046875 0.625000
vt 0.000000 0.625000
vt 0.109375 0.000000
vt 0.046875 0.750000
vt 0.000000 0.750000
vt 0.065181 0.036612
vt 0.046875 0.875000
vt 0.000000 0.875000
vt 0.046875 0.125000
vt 0.046875 1.000000
vt 0.000000 1.000000
vt 0.065181 0.213388
vt 0.000000 0.125000
vt 0.000000 0.000000
vt 0.046875 0.000000
vt 0.109375 0.250000
vt 0.351562 0.132969
vt 0.335938 0.138125
vt 0.335938 0.127813
vt 0.242188 0.205781
vt 0.257812 0.192969
vt 0.257812 0.228906
vt 0.242188 0.216250
vt 0.304688 0.101562
vt 0.304688 0.164062
vt 0.289062 0.168750
vt 0.289062 0.096875
vt 0.304688 0.179688
vt 0.304688 0.242188
vt 0.289062 0.246875
vt 0.289062 0.175000
vt 0.273438 0.179688
vt 0.273438 0.242188
vt 0.257813 0.228906
vt 0.320312 0.192969
vt 0.320312 0.228906
vt 0.335938 0.205675
vt 0.335937 0.216201
vt 0.320312 0.228906
vt 0.242188 0.216250
vt 0.226562 0.211091
vt 0.242188 0.205938
vt 0.273438 0.101562
vt 0.273438 0.164062
vt 0.257812 0.150781
vt 0.257812 0.114844
vt 0.226562 0.132969
vt 0.242188 0.138125
vt 0.242188 0.127813
vt 0.335937 0.127549
vt 0.335938 0.138075
vt 0.320312 0.150781
vt 0.320312 0.114844
vt 0.320312 0.150781
vt 0.242188 0.127548
vt 0.351562 0.211095
vt 0.335938 0.216250
vt 0.335938 0.205938
vt 0.195312 0.140625
vt 0.195312 0.187500
vt 0.179688 0.187500
vt 0.179688 0.140625
vt 0.210938 0.093750
vt 0.210938 0.140625
vt 0.195312 0.093750
vt 0.179688 0.093750
vt 0.210938 0.234375
vt 0.210938 0.281250
vt 0.195312 0.281250
vt 0.195312 0.234375
vt 0.179688 0.281250
vt 0.179688 0.234375
vt 0.210938 0.187500
vt 0.210938 0.031250
vt 0.210938 0.046875
vt 0.195312 0.046875
vt 0.195312 0.031250
vt 0.234375 0.000000
vt 0.250948 0.013729
vt 0.234375 0.046875
vt 0.195312 0.062500
vt 0.179688 0.062500
vt 0.179688 0.046875
vt 0.217802 0.013729
vt 0.210938 0.062500
vt 0.195312 0.000000
vt 0.195312 0.015625
vt 0.179688 0.015625
vt 0.179688 0.000000
vt 0.217802 0.080021
vt 0.210938 0.000000
vt 0.210938 0.015625
vt 0.234375 0.093750
vt 0.179688 0.031250
vt 0.250948 0.080021
vt 0.257812 0.046875
s 0
usemtl m_9034d714-b7bc-5202-8e96-288162a2ba2f
f 18/1/1 12/2/1 11/3/1
f 18/1/1 11/3/1 4/4/1
f 8/5/2 7/6/2 15/7/2
f 8/5/2 15/7/2 1/8/2
f 20/9/3 13/10/3 17/11/3
f 20/9/3 17/11/3 16/12/3
f 21/13/4 22/14/4 23/15/4
f 21/13/4 23/15/4 24/16/4
f 2/17/5 14/18/5 19/19/5
f 2/17/5 19/19/5 3/20/5
f 5/21/6 10/22/6 9/23/6
f 5/21/6 9/23/6 6/24/6
f 15/7/7 7/6/7 20/25/7
f 15/7/7 20/25/7 16/26/7
f 8/5/8 1/8/8 24/12/8
f 8/5/8 24/12/8 23/11/8
f 19/19/9 14/18/9 13/27/9
f 19/19/9 13/27/9 20/28/9
f 2/17/10 3/20/10 23/29/10
f 2/17/10 23/29/10 22/30/10
f 12/2/11 18/1/11 17/31/11
f 12/2/11 17/31/11 13/32/11
f 4/4/12 11/3/12 22/33/12
f 4/4/12 22/33/12 21/34/12
f 10/22/13 5/21/13 16/35/13
f 10/22/13 16/35/13 17/36/13
f 6/24/14 9/23/14 21/16/14
f 6/24/14 21/16/14 24/15/14
f 15/7/15 5/21/15 6/24/15
f 15/7/15 6/24/15 1/8/15
f 19/37/16 7/6/16 8/5/16
f 19/37/16 8/5/16 3/38/16
f 4/4/17 9/23/17 10/22/17
f 4/4/17 10/22/17 18/1/17
f 2/17/18 11/3/18 12/2/18
f 2/17/18 12/2/18 14/18/18
f 13/39/19 14/18/19 12/2/19
f 15/7/20 16/40/20 5/21/20
f 17/41/21 18/1/21 10/22/21
f 19/37/22 20/42/22 7/6/22
f 4/4/23 21/43/23 9/23/23
f 2/17/24 22/44/24 11/3/24
f 8/5/25 23/45/25 3/38/25
f 6/24/26 24/46/26 1/8/26
f 26/47/27 28/48/27 29/49/27
f 26/47/27 29/49/27 27/50/27
f 27/51/4 29/52/4 25/53/4
f 28/54/28 30/55/28 31/48/28
f 28/54/28 31/48/28 29/47/28
f 29/52/4 31/56/4 25/53/4
f 30/57/29 32/58/29 33/55/29
f 30/57/29 33/55/29 31/54/29
f 31/56/4 33/59/4 25/53/4
f 32/60/30 34/61/30 35/58/30
f 32/60/30 35/58/30 33/57/30
f 33/59/4 35/62/4 25/53/4
f 34/63/31 36/64/31 37/61/31
f 34/63/31 37/61/31 35/60/31
f 35/62/4 37/65/4 25/53/4
f 36/66/32 38/67/32 39/64/32
f 36/66/32 39/64/32 37/63/32
f 37/65/4 39/68/4 25/53/4
f 38/65/33 40/69/33 41/70/33
f 38/65/33 41/70/33 39/71/33
f 39/68/4 41/72/4 25/53/4
f 40/50/34 26/49/34 27/69/34
f 40/50/34 27/69/34 41/65/34
f 41/72/4 27/51/4 25/53/4
f 42/73/35 43/74/35 44/75/35
f 45/76/36 46/77/36 47/78/36
f 45/76/36 47/78/36 48/79/36
f 49/80/37 50/81/37 51/82/37
f 49/80/37 51/82/37 52/83/37
f 50/84/38 53/85/38 54/86/38
f 50/84/38 54/86/38 51/87/38
f 46/77/39 55/88/39 56/89/39
f 46/77/39 56/89/39 47/90/39
f 57/91/40 58/92/40 53/85/40
f 57/91/40 53/85/40 50/84/40
f 43/93/41 59/94/41 58/95/41
f 43/93/41 58/95/41 57/91/41
f 48/96/42 42/97/42 45/98/42
f 55/88/43 51/87/43 54/86/43
f 55/88/43 54/86/43 56/89/43
f 60/99/44 55/100/44 46/101/44
f 60/99/44 46/101/44 61/102/44
f 42/103/37 45/104/37 62/105/37
f 44/106/45 43/107/45 57/108/45
f 44/106/45 57/108/45 63/109/45
f 49/80/46 63/109/46 57/110/46
f 49/80/46 57/110/46 50/81/46
f 52/83/47 51/82/47 55/100/47
f 52/83/47 55/100/47 60/99/47
f 62/111/48 61/102/48 46/101/48
f 62/111/49 46/101/49 45/104/49
f 42/112/50 59/113/50 43/114/50
f 42/115/51 64/116/51 65/117/51
f 42/115/51 65/117/51 59/118/51
f 59/119/52 65/120/52 66/115/52
f 59/119/52 66/115/52 58/121/52
f 58/121/53 66/115/53 67/118/53
f 58/121/53 67/118/53 53/122/53
f 53/123/54 67/124/54 68/125/54
f 53/123/54 68/125/54 54/126/54
f 54/126/55 68/125/55 69/127/55
f 54/126/55 69/127/55 56/128/55
f 56/129/56 69/123/56 70/126/56
f 56/129/56 70/126/56 47/116/56
f 47/116/57 70/126/57 71/128/57
f 47/116/57 71/128/57 48/117/57
f 48/120/58 71/129/58 64/116/58
f 48/120/58 64/116/58 42/115/58
f 76/130/28 75/131/28 73/132/28
f 76/130/28 73/132/28 74/133/28
f 76/134/4 74/135/4 72/136/4
f 78/132/27 77/137/27 75/138/27
f 78/132/27 75/138/27 76/139/27
f 78/140/4 76/134/4 72/136/4
f 80/131/34 79/141/34 77/137/34
f 80/131/34 77/137/34 78/132/34
f 80/131/4 78/140/4 72/136/4
f 82/142/33 81/143/33 79/144/33
f 82/142/33 79/144/33 80/145/33
f 82/146/4 80/131/4 72/136/4
f 84/147/32 83/148/32 81/143/32
f 84/147/32 81/143/32 82/142/32
f 84/149/4 82/146/4 72/136/4
f 86/143/31 85/133/31 83/150/31
f 86/143/31 83/150/31 84/144/31
f 86/151/4 84/149/4 72/136/4
f 88/148/30 87/130/30 85/133/30
f 88/148/30 85/133/30 86/143/30
f 88/152/4 86/151/4 72/136/4
f 74/133/29 73/132/29 87/139/29
f 74/133/29 87/139/29 88/150/29
f 74/135/4 88/152/4 72/136/4
f 89/73/59 90/74/59 91/75/59
f 92/76/60 93/77/60 94/78/60
f 92/76/60 94/78/60 95/79/60
f 96/80/61 97/81/61 98/82/61
f 96/80/61 98/82/61 99/83/61
f 97/84/62 100/85/62 101/86/62
f 97/84/62 101/86/62 98/87/62
f 93/77/63 102/88/63 103/89/63
f 93/77/63 103/89/63 94/90/63
f 104/91/64 105/92/64 100/85/64
f 104/91/64 100/85/64 97/84/64
f 90/93/65 106/94/65 105/95/65
f 90/93/65 105/95/65 104/91/65
f 95/96/66 89/97/66 92/98/66
f 102/88/38 98/87/38 101/86/38
f 102/88/38 101/86/38 103/89/38
f 107/99/67 102/100/67 93/101/67
f 107/99/67 93/101/67 108/102/67
f 89/103/61 92/104/61 109/105/61
f 91/106/68 90/107/68 104/108/68
f 91/106/68 104/108/68 110/109/68
f 96/80/69 110/109/69 104/110/69
f 96/80/69 104/110/69 97/81/69
f 99/83/70 98/82/70 102/100/70
f 99/83/70 102/100/70 107/99/70
f 109/111/71 108/102/71 93/101/71
f 109/111/72 93/101/72 92/104/72
f 89/112/73 106/113/73 90/114/73
f 89/115/74 111/116/74 112/117/74
f 89/115/74 112/117/74 106/118/74
f 106/119/75 112/120/75 113/115/75
f 106/119/75 113/115/75 105/121/75
f 105/121/76 113/115/76 114/118/76
f 105/121/76 114/118/76 100/122/76
f 100/123/77 114/124/77 115/125/77
f 100/123/77 115/125/77 101/126/77
f 101/126/78 115/125/78 116/127/78
f 101/126/78 116/127/78 103/128/78
f 103/129/79 116/123/79 117/126/79
f 103/129/79 117/126/79 94/116/79
f 94/116/80 117/126/80 118/128/80
f 94/116/80 118/128/80 95/117/80
f 95/120/81 118/129/81 111/116/81
f 95/120/81 111/116/81 89/115/81
f 123/130/34 122/131/34 120/132/34
f 123/130/34 120/132/34 121/133/34
f 123/134/4 121/135/4 119/136/4
f 125/132/33 124/137/33 122/138/33
f 125/132/33 122/138/33 123/139/33
f 125/140/4 123/134/4 119/136/4
f 127/131/32 126/141/32 124/137/32
f 127/131/32 124/137/32 125/132/32
f 127/131/4 125/140/4 119/136/4
f 129/142/31 128/143/31 126/144/31
f 129/142/31 126/144/31 127/145/31
f 129/146/4 127/131/4 119/136/4
f 131/147/30 130/148/30 128/143/30
f 131/147/30 128/143/30 129/142/30
f 131/149/4 129/146/4 119/136/4
f 133/143/29 132/133/29 130/150/29
f 133/143/29 130/150/29 131/144/29
f 133/151/4 131/149/4 119/136/4
f 135/148/28 134/130/28 132/133/28
f 135/148/28 132/133/28 133/143/28
f 135/152/4 133/151/4 119/136/4
f 121/133/27 120/132/27 134/139/27
f 121/133/27 134/139/27 135/150/27
f 121/135/4 135/152/4 119/136/4
f 140/130/32 139/131/32 137/132/32
f 140/130/32 137/132/32 138/133/32
f 140/134/4 138/135/4 136/136/4
f 142/132/31 141/137/31 139/138/31
f 142/132/31 139/138/31 140/139/31
f 142/140/4 140/134/4 136/136/4
f 144/131/30 143/141/30 141/137/30
f 144/131/30 141/137/30 142/132/30
f 144/131/4 142/140/4 136/136/4
f 146/142/29 145/143/29 143/144/29
f 146/142/29 143/144/29 144/145/29
f 146/146/4 144/131/4 136/136/4
f 148/147/28 147/148/28 145/143/28
f 148/147/28 145/143/28 146/142/28
f 148/149/4 146/146/4 136/136/4
f 150/143/27 149/133/27 147/150/27
f 150/143/27 147/150/27 148/144/27
f 150/151/4 148/149/4 136/136/4
f 152/148/34 151/130/34 149/133/34
f 152/148/34 149/133/34 150/143/34
f 152/152/4 150/151/4 136/136/4
f 138/133/33 137/132/33 151/139/33
f 138/133/33 151/139/33 152/150/33
f 138/135/4 152/152/4 136/136/4
f 153/73/82 154/74/82 155/75/82
f 156/76/83 157/77/83 158/78/83
f 156/76/83 158/78/83 159/79/83
f 160/80/84 161/81/84 162/82/84
f 160/80/84 162/82/84 163/83/84
f 161/84/85 164/85/85 165/86/85
f 161/84/85 165/86/85 162/87/85
f 157/77/86 166/88/86 167/89/86
f 157/77/86 167/89/86 158/90/86
f 168/91/87 169/92/87 164/85/87
f 168/91/87 164/85/87 161/84/87
f 154/93/88 170/94/88 169/95/88
f 154/93/88 169/95/88 168/91/88
f 159/96/89 153/97/89 156/98/89
f 166/88/62 162/87/62 165/86/62
f 166/88/62 165/86/62 167/89/62
f 171/99/90 166/100/90 157/101/90
f 171/99/90 157/101/90 172/102/90
f 153/103/84 156/104/84 173/105/84
f 155/106/91 154/107/91 168/108/91
f 155/106/91 168/108/91 174/109/91
f 160/80/92 174/109/92 168/110/92
f 160/80/92 168/110/92 161/81/92
f 163/83/93 162/82/93 166/100/93
f 163/83/93 166/100/93 171/99/93
f 173/111/94 172/102/94 157/101/94
f 173/111/95 157/101/95 156/104/95
f 153/112/96 170/113/96 154/114/96
f 153/115/58 175/116/58 176/117/58
f 153/115/58 176/117/58 170/118/58
f 170/119/57 176/120/57 177/115/57
f 170/119/57 177/115/57 169/121/57
f 169/121/56 177/115/56 178/118/56
f 169/121/56 178/118/56 164/122/56
f 164/123/55 178/124/55 179/125/55
f 164/123/55 179/125/55 165/126/55
f 165/126/54 179/125/54 180/127/54
f 165/126/54 180/127/54 167/128/54
f 167/129/53 180/123/53 181/126/53
f 167/129/53 181/126/53 158/116/53
f 158/116/52 181/126/52 182/128/52
f 158/116/52 182/128/52 159/117/52
f 159/120/51 182/129/51 175/116/51
f 159/120/51 175/116/51 153/115/51
f 183/73/97 184/74/97 185/75/97
f 186/76/98 187/77/98 188/78/98
f 186/76/98 188/78/98 189/79/98
f 190/80/99 191/81/99 192/82/99
f 190/80/99 192/82/99 193/83/99
f 191/84/43 194/85/43 195/86/43
f 191/84/43 195/86/43 192/87/43
f 187/77/100 196/88/100 197/89/100
f 187/77/100 197/89/100 188/90/100
f 198/91/101 199/92/101 194/85/101
f 198/91/101 194/85/101 191/84/101
f 184/93/102 200/94/102 199/95/102
f 184/93/102 199/95/102 198/91/102
f 189/96/103 183/97/103 186/98/103
f 196/88/85 192/87/85 195/86/85
f 196/88/85 195/86/85 197/89/85
f 201/99/104 196/100/104 187/101/104
f 201/99/104 187/101/104 202/102/104
f 183/103/99 186/104/99 203/105/99
f 185/106/105 184/107/105 198/108/105
f 185/106/105 198/108/105 204/109/105
f 190/80/106 204/109/106 198/110/106
f 190/80/106 198/110/106 191/81/106
f 193/83/107 192/82/107 196/100/107
f 193/83/107 196/100/107 201/99/107
f 203/111/108 202/102/108 187/101/108
f 203/111/109 187/101/109 186/104/109
f 183/112/110 200/113/110 184/114/110
f 183/115/81 205/116/81 206/117/81
f 183/115/81 206/117/81 200/118/81
f 200/119/80 206/120/80 207/115/80
f 200/119/80 207/115/80 199/121/80
f 199/121/79 207/115/79 208/118/79
f 199/121/79 208/118/79 194/122/79
f 194/123/78 208/124/78 209/125/78
f 194/123/78 209/125/78 195/126/78
f 195/126/77 209/125/77 210/127/77
f 195/126/77 210/127/77 197/128/77
f 197/129/76 210/123/76 211/126/76
f 197/129/76 211/126/76 188/116/76
f 188/116/75 211/126/75 212/128/75
f 188/116/75 212/128/75 189/117/75
f 189/120/74 212/129/74 205/116/74
f 189/120/74 205/116/74 183/115/74
f 217/130/30 216/131/30 214/132/30
f 217/130/30 214/132/30 215/133/30
f 217/134/4 215/135/4 213/136/4
f 219/132/29 218/137/29 216/138/29
f 219/132/29 216/138/29 217/139/29
f 219/140/4 217/134/4 213/136/4
f 221/131/28 220/141/28 218/137/28
f 221/131/28 218/137/28 219/132/28
f 221/131/4 219/140/4 213/136/4
f 223/142/27 222/143/27 220/144/27
f 223/142/27 220/144/27 221/145/27
f 223/146/4 221/131/4 213/136/4
f 225/147/34 224/148/34 222/143/34
f 225/147/34 222/143/34 223/142/34
f 225/149/4 223/146/4 213/136/4
f 227/143/33 226/133/33 224/150/33
f 227/143/33 224/150/33 225/144/33
f 227/151/4 225/149/4 213/136/4
f 229/148/32 228/130/32 226/133/32
f 229/148/32 226/133/32 227/143/32
f 229/152/4 227/151/4 213/136/4
f 215/133/31 214/132/31 228/139/31
f 215/133/31 228/139/31 229/150/31
f 215/135/4 229/152/4 213/136/4
o pipe
v 0.250000 3.000000 0.433012
v 0.250000 5.750000 0.433012
v 0.433012 3.000000 0.250000
v 0.433012 5.750000 0.250000
v 0.500000 3.000000 -0.000000
v 0.500000 5.750000 -0.000000
v 0.433012 3.000000 -0.250000
v 0.433012 5.750000 -0.250000
v 0.250000 3.000000 -0.433013
v 0.250000 5.750000 -0.433013
v 0.000000 3.000000 -0.500000
v 0.000000 5.750000 -0.500000
v -0.250000 3.000000 -0.433013
v -0.250000 5.750000 -0.433013
v -0.433012 3.000000 -0.250000
v -0.433012 5.750000 -0.250000
v -0.500000 3.000000 -0.000000
v -0.500000 5.750000 -0.000000
v -0.433012 3.000000 0.250000
v -0.433012 5.750000 0.250000
v -0.250000 3.000000 0.433012
v -0.250000 5.750000 0.433012
v 0.000000 3.000000 0.500000
v 0.000000 5.750000 0.500000
vn 0.5000 -0.0000 0.8660
vn 0.8660 -0.0000 0.5000
vn 0.8661 0.0001 0.5000
vn 1.0000 -0.0000 0.0001
vn 0.8661 -0.0000 0.5000
vn 1.0000 -0.0001 0.0001
vn 1.0000 0.0001 -0.0001
vn 0.8661 -0.0000 -0.5000
vn 1.0000 -0.0000 -0.0001
vn 0.8661 -0.0001 -0.5000
vn 0.8660 -0.0000 -0.5000
vn 0.5000 -0.0000 -0.8660
vn 0.5000 -0.0000 -0.8661
vn 0.0001 -0.0000 -1.0000
vn -0.0001 -0.0000 -1.0000
vn -0.5000 -0.0000 -0.8661
vn -0.5000 -0.0000 -0.8660
vn -0.8660 -0.0000 -0.5000
vn -0.8661 0.0001 -0.5000
vn -1.0000 -0.0000 -0.0001
vn -0.8661 -0.0000 -0.5000
vn -1.0000 -0.0001 -0.0001
vn -1.0000 0.0001 0.0001
vn -0.8661 -0.0000 0.5000
vn -1.0000 -0.0000 0.0001
vn -0.8661 -0.0001 0.5000
vn -0.8660 -0.0000 0.5000
vn -0.5000 -0.0000 0.8660
vn -0.5000 -0.0000 0.8661
vn -0.0001 -0.0000 1.0000
vn 0.0001 -0.0000 1.0000
vn 0.5000 -0.0000 0.8661
vt 0.054688 0.312500
vt 0.085938 0.312500
vt 0.085938 1.000000
vt 0.054688 1.000000
vt 0.117188 0.312500
vt 0.117188 1.000000
s 0
usemtl m_9034d714-b7bc-5202-8e96-288162a2ba2f
f 230/153/111 232/154/112 233/155/112
f 230/153/111 233/155/112 231/156/111
f 232/154/113 234/157/114 235/158/114
f 232/154/115 235/158/116 233/155/115
f 234/153/117 236/154/118 237/155/118
f 234/153/119 237/155/120 235/156/119
f 236/154/121 238/157/122 239/158/122
f 236/154/121 239/158/122 237/155/121
f 238/153/123 240/154/124 241/155/124
f 238/153/123 241/155/124 239/156/123
f 240/154/125 242/157/126 243/158/126
f 240/154/125 243/158/126 241/155/125
f 242/153/127 244/154/128 245/155/128
f 242/153/127 245/155/128 243/156/127
f 244/154/129 246/157/130 247/158/130
f 244/154/131 247/158/132 245/155/131
f 246/153/133 248/154/134 249/155/134
f 246/153/135 249/155/136 247/156/135
f 248/154/137 250/157/138 251/158/138
f 248/154/137 251/158/138 249/155/137
f 250/153/139 252/154/140 253/155/140
f 250/153/139 253/155/140 251/156/139
f 252/154/141 230/157/142 231/158/142
f 252/154/141 231/158/142 253/155/141
o ring
v 0.000000 6.000000 -0.500000
v 0.062500 6.000000 -0.562500
v 0.000000 6.046875 -0.500000
v 0.062500 6.046875 -0.562500
v -0.062500 6.000000 -0.562500
v 0.000000 6.000000 -0.625000
v -0.062500 6.046875 -0.562500
v 0.000000 6.046875 -0.625000
v 0.000000 5.750000 -0.500000
v 0.062500 5.750000 -0.562500
v 0.000000 5.703125 -0.500000
v 0.062500 5.703125 -0.562500
v -0.062500 5.750000 -0.562500
v 0.000000 5.750000 -0.625000
v -0.062500 5.703125 -0.562500
v 0.000000 5.703125 -0.625000
v 0.250000 5.750000 -0.433013
v 0.335377 5.750000 -0.455890
v 0.250000 5.703125 -0.433013
v 0.335377 5.703125 -0.455890
v 0.227123 5.750000 -0.518390
v 0.312500 5.750000 -0.541266
v 0.227123 5.703125 -0.518390
v 0.312500 5.703125 -0.541266
v 0.433013 5.750000 -0.250000
v 0.518389 5.750000 -0.227124
v 0.433013 5.703125 -0.250000
v 0.518389 5.703125 -0.227124
v 0.455889 5.750000 -0.335377
v 0.541266 5.750000 -0.312500
v 0.455889 5.703125 -0.335377
v 0.541266 5.703125 -0.312500
v 0.500000 5.750000 -0.000000
v 0.562500 5.750000 0.062500
v 0.500000 5.703125 -0.000000
v 0.562500 5.703125 0.062500
v 0.562500 5.750000 -0.062500
v 0.625000 5.750000 -0.000000
v 0.562500 5.703125 -0.062500
v 0.625000 5.703125 -0.000000
v 0.433013 5.750000 0.250000
v 0.455889 5.750000 0.335376
v 0.433013 5.703125 0.250000
v 0.455889 5.703125 0.335376
v 0.518389 5.750000 0.227123
v 0.541266 5.750000 0.312500
v 0.518389 5.703125 0.227123
v 0.541266 5.703125 0.312500
v 0.250000 5.750000 0.433012
v 0.227123 5.750000 0.518389
v 0.250000 5.703125 0.433012
v 0.227123 5.703125 0.518389
v 0.335377 5.750000 0.455889
v 0.312500 5.750000 0.541265
v 0.335377 5.703125 0.455889
v 0.312500 5.703125 0.541265
v 0.000000 5.750000 0.500000
v -0.062500 5.750000 0.562500
v 0.000000 5.703125 0.500000
v -0.062500 5.703125 0.562500
v 0.062500 5.750000 0.562500
v 0.000000 5.750000 0.625000
v 0.062500 5.703125 0.562500
v 0.000000 5.703125 0.625000
v -0.250000 5.750000 0.433012
v -0.335377 5.750000 0.455889
v -0.250000 5.703125 0.433012
v -0.335377 5.703125 0.455889
v -0.227123 5.750000 0.518389
v -0.312500 5.750000 0.541265
v -0.227123 5.703125 0.518389
v -0.312500 5.703125 0.541265
v -0.433013 5.750000 0.250000
v -0.518389 5.750000 0.227123
v -0.433013 5.703125 0.250000
v -0.518389 5.703125 0.227123
v -0.455889 5.750000 0.335376
v -0.541266 5.750000 0.312500
v -0.455889 5.703125 0.335376
v -0.541266 5.703125 0.312500
v -0.500000 5.750000 -0.000000
v -0.562500 5.750000 -0.062500
v -0.500000 5.703125 -0.000000
v -0.562500 5.703125 -0.062500
v -0.562500 5.750000 0.062500
v -0.625000 5.750000 -0.000000
v -0.562500 5.703125 0.062500
v -0.625000 5.703125 -0.000000
v -0.433013 5.750000 -0.250000
v -0.455889 5.750000 -0.335377
v -0.433013 5.703125 -0.250000
v -0.455889 5.703125 -0.335377
v -0.518389 5.750000 -0.227124
v -0.541266 5.750000 -0.312500
v -0.518389 5.703125 -0.227124
v -0.541266 5.703125 -0.312500
v -0.250000 5.750000 -0.433013
v -0.227123 5.750000 -0.518390
v -0.250000 5.703125 -0.433013
v -0.227123 5.703125 -0.518390
v -0.335377 5.750000 -0.455890
v -0.312500 5.750000 -0.541266
v -0.335377 5.703125 -0.455890
v -0.312500 5.703125 -0.541266
v -0.250000 6.000000 -0.433013
v -0.227123 6.000000 -0.518390
v -0.250000 6.046875 -0.433013
v -0.227123 6.046875 -0.518390
v -0.335377 6.000000 -0.455890
v -0.312500 6.000000 -0.541266
v -0.335377 6.046875 -0.455890
v -0.312500 6.046875 -0.541266
v -0.433013 6.000000 -0.250000
v -0.455889 6.000000 -0.335377
v -0.433013 6.046875 -0.250000
v -0.455889 6.046875 -0.335377
v -0.518389 6.000000 -0.227124
v -0.541266 6.000000 -0.312500
v -0.518389 6.046875 -0.227124
v -0.541266 6.046875 -0.312500
v -0.500000 6.000000 -0.000000
v -0.562500 6.000000 -0.062500
v -0.500000 6.046875 -0.000000
v -0.562500 6.046875 -0.062500
v -0.562500 6.000000 0.062500
v -0.625000 6.000000 -0.000000
v -0.562500 6.046875 0.062500
v -0.625000 6.046875 -0.000000
v -0.433013 6.000000 0.250000
v -0.518389 6.000000 0.227123
v -0.433013 6.046875 0.250000
v -0.518389 6.046875 0.227123
v -0.455889 6.000000 0.335376
v -0.541266 6.000000 0.312500
v -0.455889 6.046875 0.335376
v -0.541266 6.046875 0.312500
v -0.250000 6.000000 0.433012
v -0.335377 6.000000 0.455889
v -0.250000 6.046875 0.433012
v -0.335377 6.046875 0.455889
v -0.227123 6.000000 0.518389
v -0.312500 6.000000 0.541265
v -0.227123 6.046875 0.518389
v -0.312500 6.046875 0.541265
v 0.000000 6.000000 0.500000
v -0.062500 6.000000 0.562500
v 0.000000 6.046875 0.500000
v -0.062500 6.046875 0.562500
v 0.062500 6.000000 0.562500
v 0.000000 6.000000 0.625000
v 0.062500 6.046875 0.562500
v 0.000000 6.046875 0.625000
v 0.250000 6.000000 0.433012
v 0.227123 6.000000 0.518389
v 0.250000 6.046875 0.433012
v 0.227123 6.046875 0.518389
v 0.335377 6.000000 0.455889
v 0.312500 6.000000 0.541265
v 0.335377 6.046875 0.455889
v 0.312500 6.046875 0.541265
v 0.433013 6.000000 0.250000
v 0.455889 6.000000 0.335376
v 0.433013 6.046875 0.250000
v 0.455889 6.046875 0.335376
v 0.518389 6.000000 0.227123
v 0.541266 6.000000 0.312500
v 0.518389 6.046875 0.227123
v 0.541266 6.046875 0.312500
v 0.500000 6.000000 -0.000000
v 0.562500 6.000000 0.062500
v 0.500000 6.046875 -0.000000
v 0.562500 6.046875 0.062500
v 0.562500 6.000000 -0.062500
v 0.625000 6.000000 -0.000000
v 0.562500 6.046875 -0.062500
v 0.625000 6.046875 -0.000000
v 0.433013 6.000000 -0.250000
v 0.518389 6.000000 -0.227124
v 0.433013 6.046875 -0.250000
v 0.518389 6.046875 -0.227124
v 0.455889 6.000000 -0.335377
v 0.541266 6.000000 -0.312500
v 0.455889 6.046875 -0.335377
v 0.541266 6.046875 -0.312500
v 0.250000 6.000000 -0.433013
v 0.335377 6.000000 -0.455890
v 0.250000 6.046875 -0.433013
v 0.335377 6.046875 -0.455890
v 0.227123 6.000000 -0.518390
v 0.312500 6.000000 -0.541266
v 0.227123 6.046875 -0.518390
v 0.312500 6.046875 -0.541266
v 0.312500 5.750000 0.541265
v 0.312500 6.000000 0.541265
v 0.541266 5.750000 0.312500
v 0.541266 6.000000 0.312500
v 0.625000 5.750000 -0.000000
v 0.625000 6.000000 -0.000000
v 0.541266 5.750000 -0.312500
v 0.541266 6.000000 -0.312500
v 0.312500 5.750000 -0.541266
v 0.312500 6.000000 -0.541266
v 0.000000 5.750000 -0.625000
v 0.000000 6.000000 -0.625000
v -0.312500 5.750000 -0.541266
v -0.312500 6.000000 -0.541266
v -0.541266 5.750000 -0.312500
v -0.541266 6.000000 -0.312500
v -0.625000 5.750000 -0.000000
v -0.625000 6.000000 -0.000000
v -0.541266 5.750000 0.312500
v -0.541266 6.000000 0.312500
v -0.312500 5.750000 0.541265
v -0.312500 6.000000 0.541265
v 0.000000 5.750000 0.625000
v 0.000000 6.000000 0.625000
v -0.250000 6.000000 -0.433013
v 0.000000 6.000000 -0.500000
v 0.250000 5.750000 0.433012
v 0.433012 5.750000 0.250000
v 0.433012 6.000000 0.250000
v 0.250000 6.000000 0.433012
v 0.500000 5.750000 -0.000000
v 0.500000 6.000000 -0.000000
v 0.433012 5.750000 -0.250000
v 0.433012 6.000000 -0.250000
v 0.250000 5.750000 -0.433013
v 0.250000 6.000000 -0.433013
v 0.000000 5.750000 -0.500000
v -0.250000 5.750000 -0.433013
v -0.433012 5.750000 -0.250000
v -0.433012 6.000000 -0.250000
v -0.500000 5.750000 -0.000000
v -0.500000 6.000000 -0.000000
v -0.433012 5.750000 0.250000
v -0.433012 6.000000 0.250000
v -0.250000 5.750000 0.433012
v -0.250000 6.000000 0.433012
v 0.000000 5.750000 0.500000
v 0.000000 6.000000 0.500000
vn 0.7071 -0.0000 0.7071
vn -0.7071 -0.0000 -0.7071
vn -0.0000 1.0000 -0.0000
vn -0.7071 -0.0000 0.7071
vn 0.7071 -0.0000 -0.7071
vn -0.0000 -1.0000 -0.0000
vn 0.2588 -0.0000 0.9659
vn -0.2588 -0.0000 -0.9659
vn -0.9659 -0.0000 0.2588
vn 0.9659 -0.0000 -0.2588
vn -0.2588 -0.0000 0.9659
vn 0.2588 -0.0000 -0.9659
vn -0.9659 -0.0000 -0.2588
vn 0.9659 -0.0000 0.2588
vt 0.226562 0.953125
vt 0.218750 0.953125
vt 0.218750 0.984375
vt 0.226562 0.984375
vt 0.250000 0.984375
vt 0.250000 0.953125
vt 0.242188 0.953125
vt 0.242188 0.984375
vt 0.226562 0.937500
vt 0.242188 0.937500
vt 0.226562 1.000000
vt 0.242188 1.000000
vt 0.132812 0.937500
vt 0.171875 0.937500
vt 0.171875 1.000000
vt 0.132812 1.000000
vt 0.132812 0.875000
vt 0.171875 0.875000
vt 0.175781 0.968750
vt 0.207031 0.968750
vt 0.210938 1.000000
s 0
usemtl m_9034d714-b7bc-5202-8e96-288162a2ba2f
f 256/159/143 254/160/143 255/161/143
f 256/159/143 255/161/143 257/162/143
f 259/163/144 258/164/144 260/165/144
f 259/163/144 260/165/144 261/166/144
f 260/165/145 256/159/145 257/162/145
f 260/165/145 257/162/145 261/166/145
f 258/165/146 254/159/146 256/167/146
f 258/165/146 256/167/146 260/168/146
f 257/162/147 255/169/147 259/170/147
f 257/162/147 259/170/147 261/166/147
f 263/161/143 262/160/143 264/159/143
f 263/161/143 264/159/143 265/162/143
f 268/165/144 266/164/144 267/163/144
f 268/165/144 267/163/144 269/166/144
f 265/162/148 264/159/148 268/165/148
f 265/162/148 268/165/148 269/166/148
f 264/167/146 262/159/146 266/165/146
f 264/167/146 266/165/146 268/168/146
f 267/170/147 263/169/147 265/162/147
f 267/170/147 265/162/147 269/166/147
f 271/161/149 270/160/149 272/159/149
f 271/161/149 272/159/149 273/162/149
f 276/165/150 274/164/150 275/163/150
f 276/165/150 275/163/150 277/166/150
f 273/162/148 272/159/148 276/165/148
f 273/162/148 276/165/148 277/166/148
f 272/167/151 270/159/151 274/165/151
f 272/167/151 274/165/151 276/168/151
f 275/170/152 271/169/152 273/162/152
f 275/170/152 273/162/152 277/166/152
f 279/161/153 278/160/153 280/159/153
f 279/161/153 280/159/153 281/162/153
f 284/165/154 282/164/154 283/163/154
f 284/165/154 283/163/154 285/166/154
f 281/162/148 280/159/148 284/165/148
f 281/162/148 284/165/148 285/166/148
f 280/167/155 278/159/155 282/165/155
f 280/167/155 282/165/155 284/168/155
f 283/170/156 279/169/156 281/162/156
f 283/170/156 281/162/156 285/166/156
f 287/161/146 286/160/146 288/159/146
f 287/161/146 288/159/146 289/162/146
f 292/165/147 290/164/147 291/163/147
f 292/165/147 291/163/147 293/166/147
f 289/162/148 288/159/148 292/165/148
f 289/162/148 292/165/148 293/166/148
f 288/167/144 286/159/144 290/165/144
f 288/167/144 290/165/144 292/168/144
f 291/170/143 287/169/143 289/162/143
f 291/170/143 289/162/143 293/166/143
f 295/161/151 294/160/151 296/159/151
f 295/161/151 296/159/151 297/162/151
f 300/165/152 298/164/152 299/163/152
f 300/165/152 299/163/152 301/166/152
f 297/162/148 296/159/148 300/165/148
f 297/162/148 300/165/148 301/166/148
f 296/167/150 294/159/150 298/165/150
f 296/167/150 298/165/150 300/168/150
f 299/170/149 295/169/149 297/162/149
f 299/170/149 297/162/149 301/166/149
f 303/161/155 302/160/155 304/159/155
f 303/161/155 304/159/155 305/162/155
f 308/165/156 306/164/156 307/163/156
f 308/165/156 307/163/156 309/166/156
f 305/162/148 304/159/148 308/165/148
f 305/162/148 308/165/148 309/166/148
f 304/167/154 302/159/154 306/165/154
f 304/167/154 306/165/154 308/168/154
f 307/170/153 303/169/153 305/162/153
f 307/170/153 305/162/153 309/166/153
f 311/161/144 310/160/144 312/159/144
f 311/161/144 312/159/144 313/162/144
f 316/165/143 314/164/143 315/163/143
f 316/165/143 315/163/143 317/166/143
f 313/162/148 312/159/148 316/165/148
f 313/162/148 316/165/148 317/166/148
f 312/167/147 310/159/147 314/165/147
f 312/167/147 314/165/147 316/168/147
f 315/170/146 311/169/146 313/162/146
f 315/170/146 313/162/146 317/166/146
f 319/161/150 318/160/150 320/159/150
f 319/161/150 320/159/150 321/162/150
f 324/165/149 322/164/149 323/163/149
f 324/165/149 323/163/149 325/166/149
f 321/162/148 320/159/148 324/165/148
f 321/162/148 324/165/148 325/166/148
f 320/167/152 318/159/152 322/165/152
f 320/167/152 322/165/152 324/168/152
f 323/170/151 319/169/151 321/162/151
f 323/170/151 321/162/151 325/166/151
f 327/161/154 326/160/154 328/159/154
f 327/161/154 328/159/154 329/162/154
f 332/165/153 330/164/153 331/163/153
f 332/165/153 331/163/153 333/166/153
f 329/162/148 328/159/148 332/165/148
f 329/162/148 332/165/148 333/166/148
f 328/167/156 326/159/156 330/165/156
f 328/167/156 330/165/156 332/168/156
f 331/170/155 327/169/155 329/162/155
f 331/170/155 329/162/155 333/166/155
f 335/161/147 334/160/147 336/159/147
f 335/161/147 336/159/147 337/162/147
f 340/165/146 338/164/146 339/163/146
f 340/165/146 339/163/146 341/166/146
f 337/162/148 336/159/148 340/165/148
f 337/162/148 340/165/148 341/166/148
f 336/167/143 334/159/143 338/165/143
f 336/167/143 338/165/143 340/168/143
f 339/170/144 335/169/144 337/162/144
f 339/170/144 337/162/144 341/166/144
f 343/161/152 342/160/152 344/159/152
f 343/161/152 344/159/152 345/162/152
f 348/165/151 346/164/151 347/163/151
f 348/165/151 347/163/151 349/166/151
f 345/162/148 344/159/148 348/165/148
f 345/162/148 348/165/148 349/166/148
f 344/167/149 342/159/149 346/165/149
f 344/167/149 346/165/149 348/168/149
f 347/170/150 343/169/150 345/162/150
f 347/170/150 345/162/150 349/166/150
f 351/161/156 350/160/156 352/159/156
f 351/161/156 352/159/156 353/162/156
f 356/165/155 354/164/155 355/163/155
f 356/165/155 355/163/155 357/166/155
f 353/162/148 352/159/148 356/165/148
f 353/162/148 356/165/148 357/166/148
f 352/167/153 350/159/153 354/165/153
f 352/167/153 354/165/153 356/168/153
f 355/170/154 351/169/154 353/162/154
f 355/170/154 353/162/154 357/166/154
f 360/159/156 358/160/156 359/161/156
f 360/159/156 359/161/156 361/162/156
f 363/163/155 362/164/155 364/165/155
f 363/163/155 364/165/155 365/166/155
f 364/165/145 360/159/145 361/162/145
f 364/165/145 361/162/145 365/166/145
f 362/165/153 358/159/153 360/167/153
f 362/165/153 360/167/153 364/168/153
f 361/162/154 359/169/154 363/170/154
f 361/162/154 363/170/154 365/166/154
f 368/159/152 366/160/152 367/161/152
f 368/159/152 367/161/152 369/162/152
f 371/163/151 370/164/151 372/165/151
f 371/163/151 372/165/151 373/166/151
f 372/165/145 368/159/145 369/162/145
f 372/165/145 369/162/145 373/166/145
f 370/165/149 366/159/149 368/167/149
f 370/165/149 368/167/149 372/168/149
f 369/162/150 367/169/150 371/170/150
f 369/162/150 371/170/150 373/166/150
f 376/159/147 374/160/147 375/161/147
f 376/159/147 375/161/147 377/162/147
f 379/163/146 378/164/146 380/165/146
f 379/163/146 380/165/146 381/166/146
f 380/165/145 376/159/145 377/162/145
f 380/165/145 377/162/145 381/166/145
f 378/165/143 374/159/143 376/167/143
f 378/165/143 376/167/143 380/168/143
f 377/162/144 375/169/144 379/170/144
f 377/162/144 379/170/144 381/166/144
f 384/159/154 382/160/154 383/161/154
f 384/159/154 383/161/154 385/162/154
f 387/163/153 386/164/153 388/165/153
f 387/163/153 388/165/153 389/166/153
f 388/165/145 384/159/145 385/162/145
f 388/165/145 385/162/145 389/166/145
f 386/165/156 382/159/156 384/167/156
f 386/165/156 384/167/156 388/168/156
f 385/162/155 383/169/155 387/170/155
f 385/162/155 387/170/155 389/166/155
f 392/159/150 390/160/150 391/161/150
f 392/159/150 391/161/150 393/162/150
f 395/163/149 394/164/149 396/165/149
f 395/163/149 396/165/149 397/166/149
f 396/165/145 392/159/145 393/162/145
f 396/165/145 393/162/145 397/166/145
f 394/165/152 390/159/152 392/167/152
f 394/165/152 392/167/152 396/168/152
f 393/162/151 391/169/151 395/170/151
f 393/162/151 395/170/151 397/166/151
f 400/159/144 398/160/144 399/161/144
f 400/159/144 399/161/144 401/162/144
f 403/163/143 402/164/143 404/165/143
f 403/163/143 404/165/143 405/166/143
f 404/165/145 400/159/145 401/162/145
f 404/165/145 401/162/145 405/166/145
f 402/165/147 398/159/147 400/167/147
f 402/165/147 400/167/147 404/168/147
f 401/162/146 399/169/146 403/170/146
f 401/162/146 403/170/146 405/166/146
f 408/159/155 406/160/155 407/161/155
f 408/159/155 407/161/155 409/162/155
f 411/163/156 410/164/156 412/165/156
f 411/163/156 412/165/156 413/166/156
f 412/165/145 408/159/145 409/162/145
f 412/165/145 409/162/145 413/166/145
f 410/165/154 406/159/154 408/167/154
f 410/165/154 408/167/154 412/168/154
f 409/162/153 407/169/153 411/170/153
f 409/162/153 411/170/153 413/166/153
f 416/159/151 414/160/151 415/161/151
f 416/159/151 415/161/151 417/162/151
f 419/163/152 418/164/152 420/165/152
f 419/163/152 420/165/152 421/166/152
f 420/165/145 416/159/145 417/162/145
f 420/165/145 417/162/145 421/166/145
f 418/165/150 414/159/150 416/167/150
f 418/165/150 416/167/150 420/168/150
f 417/162/149 415/169/149 419/170/149
f 417/162/149 419/170/149 421/166/149
f 424/159/146 422/160/146 423/161/146
f 424/159/146 423/161/146 425/162/146
f 427/163/147 426/164/147 428/165/147
f 427/163/147 428/165/147 429/166/147
f 428/165/145 424/159/145 425/162/145
f 428/165/145 425/162/145 429/166/145
f 426/165/144 422/159/144 424/167/144
f 426/165/144 424/167/144 428/168/144
f 425/162/143 423/169/143 427/170/143
f 425/162/143 427/170/143 429/166/143
f 432/159/153 430/160/153 431/161/153
f 432/159/153 431/161/153 433/162/153
f 435/163/154 434/164/154 436/165/154
f 435/163/154 436/165/154 437/166/154
f 436/165/145 432/159/145 433/162/145
f 436/165/145 433/162/145 437/166/145
f 434/165/155 430/159/155 432/167/155
f 434/165/155 432/167/155 436/168/155
f 433/162/156 431/169/156 435/170/156
f 433/162/156 435/170/156 437/166/156
f 440/159/149 438/160/149 439/161/149
f 440/159/149 439/161/149 441/162/149
f 443/163/150 442/164/150 444/165/150
f 443/163/150 444/165/150 445/166/150
f 444/165/145 440/159/145 441/162/145
f 444/165/145 441/162/145 445/166/145
f 442/165/151 438/159/151 440/167/151
f 442/165/151 440/167/151 444/168/151
f 441/162/152 439/169/152 443/170/152
f 441/162/152 443/170/152 445/166/152
f 446/171/143 448/172/143 449/173/143
f 446/171/143 449/173/143 447/174/143
f 448/175/156 450/176/156 451/172/156
f 448/175/156 451/172/156 449/171/156
f 450/171/152 452/172/152 453/173/152
f 450/171/152 453/173/152 451/174/152
f 452/175/147 454/176/147 455/172/147
f 452/175/147 455/172/147 453/171/147
f 454/171/154 456/172/154 457/173/154
f 454/171/154 457/173/154 455/174/154
f 456/175/150 458/176/150 459/172/150
f 456/175/150 459/172/150 457/171/150
f 458/171/144 460/172/144 461/173/144
f 458/171/144 461/173/144 459/174/144
f 460/175/155 462/176/155 463/172/155
f 460/175/155 463/172/155 461/171/155
f 462/171/151 464/172/151 465/173/151
f 462/171/151 465/173/151 463/174/151
f 464/175/146 466/176/146 467/172/146
f 464/175/146 467/172/146 465/171/146
f 466/171/153 468/172/153 469/173/153
f 466/171/153 469/173/153 467/174/153
f 468/175/149 446/176/149 447/172/149
f 468/175/149 447/172/149 469/171/149
f 473/177/145 472/178/145 446/179/145
f 473/177/145 446/179/145 448/173/145
f 449/173/145 474/177/145 475/178/145
f 449/173/145 475/178/145 447/179/145
f 476/177/145 473/178/145 448/179/145
f 476/177/145 448/179/145 450/173/145
f 451/173/145 477/177/145 474/178/145
f 451/173/145 474/178/145 449/179/145
f 478/177/145 476/178/145 450/179/145
f 478/177/145 450/179/145 452/173/145
f 453/173/145 479/177/145 477/178/145
f 453/173/145 477/178/145 451/179/145
f 480/177/145 478/178/145 452/179/145
f 480/177/145 452/179/145 454/173/145
f 455/173/145 481/177/145 479/178/145
f 455/173/145 479/178/145 453/179/145
f 482/177/145 480/178/145 454/179/145
f 482/177/145 454/179/145 456/173/145
f 457/173/145 471/177/145 481/178/145
f 457/173/145 481/178/145 455/179/145
f 483/177/145 482/178/145 456/179/145
f 483/177/145 456/179/145 458/173/145
f 484/177/145 483/178/145 458/179/145
f 484/177/145 458/179/145 460/173/145
f 461/173/145 485/177/145 470/178/145
f 461/173/145 470/178/145 459/179/145
f 486/177/145 484/178/145 460/179/145
f 486/177/145 460/179/145 462/173/145
f 463/173/145 487/177/145 485/178/145
f 463/173/145 485/178/145 461/179/145
f 488/177/145 486/178/145 462/179/145
f 488/177/145 462/179/145 464/173/145
f 465/173/145 489/177/145 487/178/145
f 465/173/145 487/178/145 463/179/145
f 490/177/145 488/178/145 464/179/145
f 490/177/145 464/179/145 466/173/145
f 467/173/145 491/177/145 489/178/145
f 467/173/145 489/178/145 465/179/145
f 492/177/145 490/178/145 466/179/145
f 492/177/145 466/179/145 468/173/145
f 469/173/145 493/177/145 491/178/145
f 469/173/145 491/178/145 467/179/145
f 472/177/145 492/178/145 468/179/145
f 472/177/145 468/179/145 446/173/145
f 447/173/145 475/177/145 493/178/145
f 447/173/145 493/178/145 469/179/145
f 459/173/145 470/177/145 471/178/145
f 459/173/145 471/178/145 457/179/145
