# Blender 4.2.0
# www.blender.org
mtllib pressurizer.mtl
o pressurizer
v 0.750000 1.625000 -0.500000
v 0.750000 1.625000 -0.750000
v 0.750000 1.375000 -0.500000
v 0.750000 1.375000 -0.750000
v 0.500000 1.625000 -0.500000
v 0.500000 1.625000 -0.750000
v 0.500000 1.375000 -0.500000
v 0.500000 1.375000 -0.750000
v 0.750000 1.625000 0.750000
v 0.750000 1.625000 0.500000
v 0.750000 1.375000 0.750000
v 0.750000 1.375000 0.500000
v 0.500000 1.625000 0.750000
v 0.500000 1.625000 0.500000
v 0.500000 1.375000 0.750000
v 0.500000 1.375000 0.500000
v -0.500000 1.625000 -0.500000
v -0.500000 1.625000 -0.750000
v -0.500000 1.375000 -0.500000
v -0.500000 1.375000 -0.750000
v -0.750000 1.625000 -0.500000
v -0.750000 1.625000 -0.750000
v -0.750000 1.375000 -0.500000
v -0.750000 1.375000 -0.750000
v -0.500000 1.625000 0.750000
v -0.500000 1.625000 0.500000
v -0.500000 1.375000 0.750000
v -0.500000 1.375000 0.500000
v -0.750000 1.625000 0.750000
v -0.750000 1.625000 0.500000
v -0.750000 1.375000 0.750000
v -0.750000 1.375000 0.500000
v -0.625000 1.625000 -0.500000
v -0.750000 1.625000 -0.500000
v -0.625000 1.500000 -0.500000
v -0.750000 1.500000 -0.500000
v -0.625000 1.625000 0.500000
v -0.750000 1.625000 0.500000
v -0.625000 1.500000 0.500000
v -0.750000 1.500000 0.500000
v 0.500000 1.625000 -0.625000
v 0.500000 1.625000 -0.750000
v 0.500000 1.500000 -0.625000
v 0.500000 1.500000 -0.750000
v -0.500000 1.625000 -0.625000
v -0.500000 1.625000 -0.750000
v -0.500000 1.500000 -0.625000
v -0.500000 1.500000 -0.750000
v 0.625000 1.625000 0.500000
v 0.750000 1.625000 0.500000
v 0.625000 1.500000 0.500000
v 0.750000 1.500000 0.500000
v 0.625000 1.625000 -0.500000
v 0.750000 1.625000 -0.500000
v 0.625000 1.500000 -0.500000
v 0.750000 1.500000 -0.500000
v -0.500000 1.625000 0.625000
v -0.500000 1.625000 0.750000
v -0.500000 1.500000 0.625000
v -0.500000 1.500000 0.750000
v 0.500000 1.625000 0.625000
v 0.500000 1.625000 0.750000
v 0.500000 1.500000 0.625000
v 0.500000 1.500000 0.750000
v -0.750000 1.375000 0.625000
v -0.750000 1.375000 0.750000
v -1.000000 0.250000 0.875000
v -1.000000 0.250000 1.000000
v -0.625000 1.375000 0.625000
v -0.625000 1.375000 0.750000
v -0.880750 0.197000 0.880750
v -0.875000 0.250000 1.000000
v 0.625000 1.375000 0.750000
v 0.750000 1.375000 0.750000
v 0.875000 0.250000 1.000000
v 1.000000 0.250000 1.000000
v 0.625000 1.375000 0.625000
v 0.750000 1.375000 0.625000
v 0.880750 0.197000 0.880750
v 1.000000 0.250000 0.875000
v 0.750000 1.375000 -0.625000
v 0.750000 1.375000 -0.750000
v 1.000000 0.250000 -0.875000
v 1.000000 0.250000 -1.000000
v 0.625000 1.375000 -0.625000
v 0.625000 1.375000 -0.750000
v 0.880750 0.197000 -0.880750
v 0.875000 0.250000 -1.000000
v -0.625000 1.375000 -0.750000
v -0.750000 1.375000 -0.750000
v -0.875000 0.250000 -1.000000
v -1.000000 0.250000 -1.000000
v -0.625000 1.375000 -0.625000
v -0.750000 1.375000 -0.625000
v -0.880750 0.197000 -0.880750
v -1.000000 0.250000 -0.875000
v -0.750000 0.125000 0.875000
v -0.750000 0.125000 1.000000
v -0.750000 0.000000 0.875000
v -0.750000 0.000000 1.000000
v 0.750000 0.125000 0.875000
v 0.750000 0.125000 1.000000
v 0.750000 0.000000 0.875000
v 0.750000 0.000000 1.000000
v 0.875000 0.125000 0.750000
v 1.000000 0.125000 0.750000
v 0.875000 0.000000 0.750000
v 1.000000 0.000000 0.750000
v 0.875000 0.125000 -0.750000
v 1.000000 0.125000 -0.750000
v 0.875000 -0.000000 -0.750000
v 1.000000 -0.000000 -0.750000
v 0.750000 0.125000 -0.875000
v 0.750000 0.125000 -1.000000
v 0.750000 -0.000000 -0.875000
v 0.750000 -0.000000 -1.000000
v -0.750000 0.125000 -0.875000
v -0.750000 0.125000 -1.000000
v -0.750000 -0.000000 -0.875000
v -0.750000 -0.000000 -1.000000
v -0.875000 0.125000 -0.750000
v -1.000000 0.125000 -0.750000
v -0.875000 -0.000000 -0.750000
v -1.000000 -0.000000 -0.750000
v -0.875000 0.125000 0.750000
v -1.000000 0.125000 0.750000
v -0.875000 0.000000 0.750000
v -1.000000 0.000000 0.750000
v -0.750000 0.250000 1.000000
v -0.750000 0.250000 0.750000
v -0.750000 0.000000 1.000000
v -0.750000 0.000000 0.750000
v -1.000000 0.250000 1.000000
v -1.000000 0.250000 0.750000
v -1.000000 0.000000 1.000000
v -1.000000 0.000000 0.750000
v -0.750000 0.250000 -0.750000
v -0.750000 0.250000 -1.000000
v -0.750000 -0.000000 -0.750000
v -0.750000 -0.000000 -1.000000
v -1.000000 0.250000 -0.750000
v -1.000000 0.250000 -1.000000
v -1.000000 -0.000000 -0.750000
v -1.000000 -0.000000 -1.000000
v 1.000000 0.250000 1.000000
v 1.000000 0.250000 0.750000
v 1.000000 0.000000 1.000000
v 1.000000 0.000000 0.750000
v 0.750000 0.250000 1.000000
v 0.750000 0.250000 0.750000
v 0.750000 0.000000 1.000000
v 0.750000 0.000000 0.750000
v 1.000000 0.250000 -0.750000
v 1.000000 0.250000 -1.000000
v 1.000000 -0.000000 -0.750000
v 1.000000 -0.000000 -1.000000
v 0.750000 0.250000 -0.750000
v 0.750000 0.250000 -1.000000
v 0.750000 -0.000000 -0.750000
v 0.750000 -0.000000 -1.000000
v 0.812500 0.281250 0.125000
v 0.968750 0.125000 0.125000
v 0.718750 0.187500 0.125000
v 0.812500 0.281250 -0.125000
v 0.968750 0.125000 -0.125000
v 0.718750 0.187500 -0.125000
v 0.875000 0.031250 0.125000
v 0.875000 0.031250 -0.125000
v 0.125000 0.281250 -0.812500
v 0.125000 0.125000 -0.968750
v 0.125000 0.187500 -0.718750
v -0.125000 0.281250 -0.812500
v -0.125000 0.125000 -0.968750
v -0.125000 0.187500 -0.718750
v 0.125000 0.031250 -0.875000
v -0.125000 0.031250 -0.875000
v -0.812500 0.281250 -0.125000
v -0.968750 0.125000 -0.125000
v -0.718750 0.187500 -0.125000
v -0.812500 0.281250 0.125000
v -0.968750 0.125000 0.125000
v -0.718750 0.187500 0.125000
v -0.875000 0.031250 -0.125000
v -0.875000 0.031250 0.125000
v -0.125000 0.281250 0.812500
v -0.125000 0.125000 0.968750
v -0.125000 0.187500 0.718750
v 0.125000 0.281250 0.812500
v 0.125000 0.125000 0.968750
v 0.125000 0.187500 0.718750
v -0.125000 0.031250 0.875000
v 0.125000 0.031250 0.875000
v 0.486136 0.999999 -0.486136
v 0.618718 0.749999 -0.353553
v 0.618718 0.999999 -0.353553
v 0.673636 0.749999 -0.486136
v 0.673636 0.999999 -0.486136
v 0.618718 0.749999 -0.618718
v 0.618718 0.999999 -0.618718
v 0.486136 0.749999 -0.673636
v 0.486136 0.999999 -0.673636
v 0.353553 0.749999 -0.618718
v 0.353553 0.999999 -0.618718
v 0.298636 0.749999 -0.486136
v 0.298636 0.999999 -0.486136
v 0.353553 0.749999 -0.353553
v 0.353553 0.999999 -0.353553
v 0.486136 0.749999 -0.298636
v 0.486136 0.999999 -0.298636
v -0.486136 0.999999 -0.486136
v -0.353553 0.749999 -0.618718
v -0.353553 0.999999 -0.618718
v -0.486136 0.749999 -0.673636
v -0.486136 0.999999 -0.673636
v -0.618718 0.749999 -0.618718
v -0.618718 0.999999 -0.618718
v -0.673636 0.749999 -0.486136
v -0.673636 0.999999 -0.486136
v -0.618718 0.749999 -0.353553
v -0.618718 0.999999 -0.353553
v -0.486136 0.749999 -0.298636
v -0.486136 0.999999 -0.298636
v -0.353553 0.749999 -0.353553
v -0.353553 0.999999 -0.353553
v -0.298636 0.749999 -0.486136
v -0.298636 0.999999 -0.486136
v -0.486136 0.999999 0.486136
v -0.618718 0.749999 0.353553
v -0.618718 0.999999 0.353553
v -0.673636 0.749999 0.486136
v -0.673636 0.999999 0.486136
v -0.618718 0.749999 0.618718
v -0.618718 0.999999 0.618718
v -0.486136 0.749999 0.673636
v -0.486136 0.999999 0.673636
v -0.353553 0.749999 0.618718
v -0.353553 0.999999 0.618718
v -0.298636 0.749999 0.486136
v -0.298636 0.999999 0.486136
v -0.353553 0.749999 0.353553
v -0.353553 0.999999 0.353553
v -0.486136 0.749999 0.298636
v -0.486136 0.999999 0.298636
v 0.486136 0.999999 0.486136
v 0.353553 0.749999 0.618718
v 0.353553 0.999999 0.618718
v 0.486136 0.749999 0.673636
v 0.486136 0.999999 0.673636
v 0.618718 0.749999 0.618718
v 0.618718 0.999999 0.618718
v 0.673636 0.749999 0.486136
v 0.673636 0.999999 0.486136
v 0.618718 0.749999 0.353553
v 0.618718 0.999999 0.353553
v 0.486136 0.749999 0.298636
v 0.486136 0.999999 0.298636
v 0.353553 0.749999 0.353553
v 0.353553 0.999999 0.353553
v 0.298636 0.749999 0.486136
v 0.298636 0.999999 0.486136
v 0.000000 0.875001 0.500001
v 0.353553 0.875001 0.353554
v 0.500000 0.875001 0.000001
v 0.353553 0.875001 -0.353553
v 0.000000 0.875001 -0.499999
v -0.353553 0.875001 0.353554
v -0.500000 0.875001 0.000001
v -0.353553 0.875001 -0.353553
v -0.500000 1.000000 -0.000027
v -0.353539 1.000000 0.353521
v 0.000000 1.000000 -0.000046
v -0.353567 1.000000 -0.353586
v 0.000019 1.000000 0.499954
v 0.353567 1.000000 0.353494
v 0.500000 1.000000 -0.000065
v 0.353539 1.000000 -0.353613
v -0.000019 1.000000 -0.500046
v 0.312500 0.687500 0.937500
v 0.312500 0.687500 1.000000
v 0.312500 0.312500 0.937500
v 0.312500 0.312500 1.000000
v 0.687500 0.687500 0.937500
v 0.687500 0.687500 1.000000
v 0.687500 0.312500 0.937500
v 0.687500 0.312500 1.000000
v 0.625000 0.375000 0.875000
v 0.625000 0.375000 0.625000
v -0.687500 0.687500 0.937500
v -0.687500 0.687500 1.000000
v -0.687500 0.312500 0.937500
v -0.687500 0.312500 1.000000
v -0.312500 0.687500 0.937500
v -0.312500 0.687500 1.000000
v -0.312500 0.312500 0.937500
v -0.312500 0.312500 1.000000
v -0.625000 0.375000 0.875000
v -0.625000 0.625000 0.875000
v -0.375000 0.625000 0.875000
v -0.375000 0.375000 0.875000
v -0.625000 0.625000 0.875000
v -0.625000 0.375000 0.875000
v 0.625000 0.625000 0.625000
v 0.625000 0.625000 0.875000
v 0.375000 0.375000 0.875000
v 0.375000 0.625000 0.875000
v -0.625000 0.375000 0.625000
v -0.625000 0.625000 0.625000
v 0.687500 0.687500 -0.875000
v 0.687500 0.687500 -1.000000
v 0.687500 0.312500 -0.875000
v 0.687500 0.312500 -1.000000
v 0.312500 0.687500 -0.875000
v 0.312500 0.687500 -1.000000
v 0.312500 0.312500 -0.875000
v 0.312500 0.312500 -1.000000
v 0.625000 0.375000 -0.812500
v 0.375000 0.375000 -0.812500
v 0.625000 0.625000 -0.812500
v 0.375000 0.625000 -0.812500
v 0.625000 0.625000 -0.562500
v 0.375000 0.625000 -0.562500
v 0.625000 0.375000 -0.562500
v 0.375000 0.375000 -0.562500
v -0.312500 0.687500 -0.875000
v -0.312500 0.687500 -1.000000
v -0.312500 0.312500 -0.875000
v -0.312500 0.312500 -1.000000
v -0.687500 0.687500 -0.875000
v -0.687500 0.687500 -1.000000
v -0.687500 0.312500 -0.875000
v -0.687500 0.312500 -1.000000
v -0.375000 0.375000 -0.812500
v -0.625000 0.375000 -0.812500
v -0.375000 0.625000 -0.812500
v -0.625000 0.625000 -0.812500
v -0.375000 0.625000 -0.562500
v -0.625000 0.625000 -0.562500
v -0.375000 0.375000 -0.562500
v -0.625000 0.375000 -0.562500
v -0.687500 0.062500 -0.312500
v -0.312500 0.062500 -0.312500
v -0.687500 -0.000000 -0.312500
v -0.312500 -0.000000 -0.312500
v -0.687500 0.062500 -0.687500
v -0.312500 0.062500 -0.687500
v -0.687500 -0.000000 -0.687500
v -0.312500 -0.000000 -0.687500
v -0.625000 0.125000 -0.375000
v -0.375000 0.125000 -0.375000
v -0.625000 0.125000 -0.625000
v -0.375000 0.125000 -0.625000
v 0.312500 0.062500 -0.312500
v 0.687500 0.062500 -0.312500
v 0.312500 -0.000000 -0.312500
v 0.687500 -0.000000 -0.312500
v 0.312500 0.062500 -0.687500
v 0.687500 0.062500 -0.687500
v 0.312500 -0.000000 -0.687500
v 0.687500 -0.000000 -0.687500
v 0.375000 0.125000 -0.375000
v 0.625000 0.125000 -0.375000
v 0.375000 0.125000 -0.625000
v 0.625000 0.125000 -0.625000
v -0.687500 0.062500 0.687500
v -0.312500 0.062500 0.687500
v -0.687500 0.000000 0.687500
v -0.312500 0.000000 0.687500
v -0.687500 0.062500 0.312500
v -0.312500 0.062500 0.312500
v -0.687500 0.000000 0.312500
v -0.312500 0.000000 0.312500
v -0.625000 0.125000 0.625000
v -0.375000 0.125000 0.625000
v -0.625000 0.125000 0.375000
v -0.375000 0.125000 0.375000
v 0.312500 0.062500 0.687500
v 0.687500 0.062500 0.687500
v 0.312500 0.000000 0.687500
v 0.687500 0.000000 0.687500
v 0.312500 0.062500 0.312500
v 0.687500 0.062500 0.312500
v 0.312500 0.000000 0.312500
v 0.687500 0.000000 0.312500
v 0.375000 0.125000 0.625000
v 0.625000 0.125000 0.625000
v 0.375000 0.125000 0.375000
v 0.625000 0.125000 0.375000
v 0.334848 0.250000 0.808394
v 0.334848 0.750000 0.808394
v 0.618718 0.250000 0.618718
v 0.618718 0.750000 0.618718
v 0.808394 0.250000 0.334848
v 0.808394 0.750000 0.334848
v 0.875000 0.250000 -0.000000
v 0.875000 0.750000 -0.000000
v 0.808394 0.250000 -0.334848
v 0.808394 0.750000 -0.334848
v 0.618718 0.250000 -0.618718
v 0.618718 0.750000 -0.618718
v 0.334848 0.250000 -0.808394
v 0.334848 0.750000 -0.808394
v 0.000000 0.250000 -0.875000
v 0.000000 0.750000 -0.875000
v -0.334848 0.250000 -0.808394
v -0.334848 0.750000 -0.808394
v -0.618718 0.250000 -0.618718
v -0.618718 0.750000 -0.618718
v -0.808394 0.250000 -0.334848
v -0.808394 0.750000 -0.334848
v -0.875000 0.250000 -0.000000
v -0.875000 0.750000 -0.000000
v -0.808394 0.250000 0.334848
v -0.808394 0.750000 0.334848
v -0.618718 0.250000 0.618718
v -0.618718 0.750000 0.618718
v -0.334848 0.250000 0.808394
v -0.334848 0.750000 0.808394
v 0.000000 0.250000 0.875000
v 0.000000 0.750000 0.875000
v -0.287012 0.875000 -0.692909
v -0.530330 0.875000 -0.530330
v 0.000000 0.875000 -0.000000
v 0.000000 0.875000 -0.750000
v 0.287012 0.875000 -0.692909
v 0.530330 0.875000 -0.530330
v 0.692909 0.875000 -0.287013
v 0.750000 0.875000 -0.000000
v 0.692909 0.875000 0.287012
v 0.530330 0.875000 0.530330
v 0.287012 0.875000 0.692909
v 0.000000 0.875000 0.750000
v -0.287012 0.875000 0.692909
v -0.530330 0.875000 0.530330
v -0.692909 0.875000 0.287012
v -0.750000 0.875000 -0.000000
v -0.692909 0.875000 -0.287013
v 0.287012 0.125000 0.692909
v 0.000000 0.125000 0.750000
v 0.000000 0.125000 -0.000000
v -0.287012 0.125000 0.692909
v -0.530330 0.125000 0.530330
v -0.692909 0.125000 0.287012
v -0.750000 0.125000 -0.000000
v -0.692909 0.125000 -0.287012
v -0.530330 0.125000 -0.530330
v -0.287012 0.125000 -0.692909
v 0.000000 0.125000 -0.750000
v 0.287012 0.125000 -0.692909
v 0.530330 0.125000 -0.530330
v 0.692909 0.125000 -0.287012
v 0.750000 0.125000 -0.000000
v 0.692909 0.125000 0.287012
v 0.530330 0.125000 0.530330
v 0.110485 0.125000 -0.243068
v 0.243068 0.125000 -0.110485
v 0.110485 0.062500 -0.243068
v 0.243068 0.062500 -0.110485
v 0.375650 0.125000 -0.508233
v 0.508233 0.125000 -0.375650
v 0.375650 0.062500 -0.508233
v 0.508233 0.062500 -0.375650
v -0.508233 0.125000 0.375650
v -0.375650 0.125000 0.508233
v -0.508233 0.062500 0.375650
v -0.375650 0.062500 0.508233
v -0.243068 0.125000 0.110485
v -0.110485 0.125000 0.243068
v -0.243068 0.062500 0.110485
v -0.110485 0.062500 0.243068
v -0.375650 0.125000 -0.508233
v -0.508233 0.125000 -0.375650
v -0.375650 0.062500 -0.508233
v -0.508233 0.062500 -0.375650
v -0.110485 0.125000 -0.243068
v -0.243068 0.125000 -0.110485
v -0.110485 0.062500 -0.243068
v -0.243068 0.062500 -0.110485
v 0.243068 0.125000 0.110485
v 0.110485 0.125000 0.243068
v 0.243068 0.062500 0.110485
v 0.110485 0.062500 0.243068
v 0.508233 0.125000 0.375650
v 0.375650 0.125000 0.508233
v 0.508233 0.062500 0.375650
v 0.375650 0.062500 0.508233
v 0.000000 0.062500 -0.000000
v 0.103553 0.062500 0.250000
v 0.103553 0.125000 0.250000
v 0.250000 0.062500 0.103553
v 0.250000 0.125000 0.103553
v 0.250000 0.062500 -0.103553
v 0.250000 0.125000 -0.103553
v 0.103553 0.062500 -0.250000
v 0.103553 0.125000 -0.250000
v -0.103553 0.062500 -0.250000
v -0.103553 0.125000 -0.250000
v -0.250000 0.062500 -0.103553
v -0.250000 0.125000 -0.103553
v -0.250000 0.062500 0.103553
v -0.250000 0.125000 0.103553
v -0.103553 0.062500 0.250000
v -0.103553 0.125000 0.250000
vn 1.0000 -0.0000 -0.0000
vn -1.0000 -0.0000 -0.0000
vn -0.0000 1.0000 -0.0000
vn -0.0000 -1.0000 -0.0000
vn -0.0000 -0.0000 1.0000
vn -0.0000 -0.0000 -1.0000
vn -0.9762 0.2169 -0.0000
vn 0.9772 -0.2122 -0.0000
vn -0.0000 -0.2169 -0.9762
vn -0.0000 0.2169 0.9762
vn -0.0000 -0.2122 -0.9772
vn -0.9762 -0.2169 -0.0000
vn 0.9762 0.2169 -0.0000
vn -0.9772 -0.2122 -0.0000
vn -0.0000 -0.2169 0.9762
vn -0.0000 0.2169 -0.9762
vn -0.0000 -0.2122 0.9772
vn 0.9762 -0.2169 -0.0000
vn 0.7071 0.7071 -0.0000
vn -0.7071 -0.7071 -0.0000
vn -0.0000 0.7071 -0.7071
vn -0.0000 -0.7071 0.7071
vn -0.7071 0.7071 -0.0000
vn 0.7071 -0.7071 -0.0000
vn -0.0000 0.7071 0.7071
vn -0.0000 -0.7071 -0.7071
vn 0.9239 -0.0000 0.3827
vn 0.9239 -0.0000 -0.3827
vn 0.3827 -0.0000 -0.9239
vn -0.3827 -0.0000 -0.9239
vn -0.9239 -0.0000 -0.3827
vn -0.9239 -0.0000 0.3827
vn -0.3827 -0.0000 0.9239
vn 0.3827 -0.0000 0.9239
vn -0.9239 0.0001 0.3827
vn -0.9239 0.0002 0.3827
vn -0.9239 -0.0002 -0.3826
vn -0.9239 -0.0001 -0.3827
vn -0.3826 0.0003 0.9239
vn -0.3827 0.0004 0.9239
vn 0.3827 0.0003 0.9239
vn 0.3827 0.0004 0.9239
vn 0.9239 0.0001 0.3826
vn 0.9239 0.0002 0.3827
vn 0.9239 -0.0002 -0.3827
vn 0.9239 -0.0001 -0.3827
vn 0.3826 -0.0004 -0.9239
vn 0.3827 -0.0003 -0.9239
vn -0.3827 -0.0004 -0.9239
vn -0.3827 -0.0003 -0.9239
vn -0.7071 -0.0000 -0.7071
vn 0.7071 -0.0000 -0.7071
vn 0.7071 -0.0000 0.7071
vn -0.7071 -0.0000 0.7071
vn 0.5556 -0.0000 0.8315
vn 0.8315 -0.0000 0.5556
vn 0.9808 -0.0000 0.1951
vn 0.9808 -0.0000 -0.1951
vn 0.8315 -0.0000 -0.5556
vn 0.5556 -0.0000 -0.8315
vn 0.1951 -0.0000 -0.9808
vn -0.1951 -0.0000 -0.9808
vn -0.5556 -0.0000 -0.8315
vn -0.8315 -0.0000 -0.5556
vn -0.9808 -0.0000 -0.1951
vn -0.9808 -0.0000 0.1951
vn -0.8315 -0.0000 0.5556
vn -0.5556 -0.0000 0.8315
vn -0.1951 -0.0000 0.9808
vn 0.1951 -0.0000 0.9808
vn -0.3966 0.7002 -0.5936
vn -0.1393 0.7002 -0.7002
vn 0.1393 0.7002 -0.7002
vn 0.3966 0.7002 -0.5936
vn 0.5936 0.7002 -0.3966
vn 0.7002 0.7002 -0.1393
vn 0.7002 0.7002 0.1393
vn 0.5936 0.7002 0.3966
vn 0.3966 0.7002 0.5936
vn 0.1393 0.7002 0.7002
vn -0.1393 0.7002 0.7002
vn -0.3966 0.7002 0.5936
vn -0.5936 0.7002 0.3966
vn -0.7002 0.7002 0.1393
vn -0.7002 0.7002 -0.1393
vn -0.5936 0.7002 -0.3966
vn 0.1393 -0.7002 0.7002
vn -0.1393 -0.7002 0.7002
vn -0.3966 -0.7002 0.5936
vn -0.5936 -0.7002 0.3966
vn -0.7002 -0.7002 0.1393
vn -0.7002 -0.7002 -0.1393
vn -0.5936 -0.7002 -0.3966
vn -0.3966 -0.7002 -0.5936
vn -0.1393 -0.7002 -0.7002
vn 0.1393 -0.7002 -0.7002
vn 0.3966 -0.7002 -0.5936
vn 0.5936 -0.7002 -0.3966
vn 0.7002 -0.7002 -0.1393
vn 0.7002 -0.7002 0.1393
vn 0.5936 -0.7002 0.3966
vn 0.3966 -0.7002 0.5936
vt 0.000000 1.000000
vt 0.031250 1.000000
vt 0.031250 0.937500
vt 0.000000 0.937500
vt 0.031250 0.968750
vt 0.156250 0.968750
vt 0.156250 1.000000
vt 0.215488 1.000000
vt 0.218750 0.968750
vt 0.073575 0.968750
vt 0.070312 1.000000
vt 0.218750 1.000000
vt 0.215625 0.968750
vt 0.073579 0.968750
vt 0.073574 1.000000
vt 0.215625 1.000000
vt 0.070312 0.968750
vt 0.215488 0.968750
vt 0.073575 1.000000
vt 0.062500 1.000000
vt 0.062500 0.968750
vt 0.031250 0.875000
vt 0.000000 0.875000
vt 0.015625 0.375000
vt 0.031250 0.375000
vt 0.031250 0.437500
vt 0.015625 0.437500
vt 0.071260 0.263729
vt 0.078125 0.296875
vt 0.054688 0.296875
vt 0.000000 0.437500
vt 0.015625 0.500000
vt 0.000000 0.500000
vt 0.071260 0.330021
vt 0.031250 0.500000
vt 0.054688 0.343750
vt 0.000000 0.250000
vt 0.015625 0.250000
vt 0.015625 0.312500
vt 0.000000 0.312500
vt 0.038115 0.330021
vt 0.031250 0.250000
vt 0.031250 0.312500
vt 0.031250 0.296875
vt 0.000000 0.375000
vt 0.038115 0.263729
vt 0.054688 0.250000
vt 0.153571 0.036615
vt 0.171875 0.125005
vt 0.109375 0.125000
vt 0.153567 0.213392
vt 0.109373 0.250000
vt 0.065179 0.213385
vt 0.046875 0.124995
vt 0.065183 0.036608
vt 0.109377 0.000000
vt 0.046875 0.187500
vt 0.000000 0.187500
vt 0.000000 0.156250
vt 0.046875 0.156250
vt 0.046875 0.218750
vt 0.000000 0.218750
vt 0.000000 0.125000
vt 0.046875 0.125000
vt 0.000000 0.093750
vt 0.046875 0.093750
vt 0.000000 0.062500
vt 0.046875 0.062500
vt 0.000000 0.031250
vt 0.046875 0.031250
vt 0.000000 0.000000
vt 0.046875 0.000000
vt 0.046875 0.250000
vt 0.937500 0.125000
vt 0.929688 0.125000
vt 0.929688 0.031250
vt 0.937500 0.031250
vt 0.992188 0.031250
vt 0.992188 0.125000
vt 0.984375 0.125000
vt 0.984375 0.031250
vt 0.984375 0.140625
vt 0.937500 0.140625
vt 0.984375 0.015625
vt 0.937500 0.015625
vt 0.921875 0.109375
vt 0.921875 0.046875
vt 0.945312 0.156250
vt 0.976562 0.156250
vt 1.000000 0.046875
vt 1.000000 0.109375
vt 0.976562 0.000000
vt 0.945312 0.000000
vt 0.765625 0.218750
vt 0.734375 0.218750
vt 0.734375 0.156250
vt 0.765625 0.156250
vt 0.703125 0.125000
vt 0.695312 0.125000
vt 0.695312 0.031250
vt 0.703125 0.031250
vt 0.757812 0.031250
vt 0.757812 0.125000
vt 0.750000 0.125000
vt 0.750000 0.031250
vt 0.750000 0.140625
vt 0.703125 0.140625
vt 0.750000 0.015625
vt 0.703125 0.015625
vt 0.687500 0.109375
vt 0.687500 0.046875
vt 0.710938 0.156250
vt 0.742188 0.156250
vt 0.765625 0.046875
vt 0.765625 0.109375
vt 0.742188 0.000000
vt 0.710938 0.000000
vt 0.921875 0.218750
vt 0.921875 0.156250
vt 0.921875 0.031250
vt 0.765625 0.031250
vt 0.765625 0.093750
vt 0.921875 0.093750
vt 0.953125 0.218750
vt 0.953125 0.156250
vt 0.796875 0.093750
vt 0.890625 0.093750
vt 0.890625 0.156250
vt 0.796875 0.156250
vt 0.765625 0.281250
vt 0.921875 0.281250
vt 0.617188 0.140625
vt 0.601562 0.140625
vt 0.601562 0.046875
vt 0.617188 0.046875
vt 0.679688 0.046875
vt 0.679688 0.140625
vt 0.664062 0.140625
vt 0.664062 0.046875
vt 0.664062 0.171875
vt 0.617188 0.171875
vt 0.664062 0.015625
vt 0.617188 0.015625
vt 0.593750 0.125000
vt 0.593750 0.062500
vt 0.625000 0.187500
vt 0.656250 0.187500
vt 0.687500 0.062500
vt 0.687500 0.125000
vt 0.656250 0.000000
vt 0.625000 0.000000
vt 0.562500 0.125000
vt 0.562500 0.062500
vt 0.562500 0.187500
vt 0.593750 0.187500
vt 0.562500 0.250000
vt 0.593750 0.250000
vt 0.562500 0.000000
vt 0.593750 0.000000
vt 0.414062 0.031250
vt 0.367188 0.031250
vt 0.367188 0.015625
vt 0.414062 0.015625
vt 0.414062 0.125000
vt 0.414062 0.140625
vt 0.367188 0.140625
vt 0.367188 0.125000
vt 0.375000 0.156250
vt 0.406250 0.156250
vt 0.406250 0.218750
vt 0.375000 0.218750
vt 0.421875 0.031250
vt 0.421875 0.125000
vt 0.359375 0.125000
vt 0.359375 0.031250
vt 0.429688 0.046875
vt 0.429688 0.109375
vt 0.406250 0.000000
vt 0.375000 0.000000
vt 0.351562 0.109375
vt 0.351562 0.046875
vt 0.762891 0.609375
vt 0.729297 0.609375
vt 0.746094 0.437500
vt 0.726562 0.656250
vt 0.765625 0.656250
vt 0.765625 0.781250
vt 0.726562 0.781250
vt 0.729297 0.828125
vt 0.762891 0.828126
vt 0.746093 1.000000
vt 0.801953 0.609375
vt 0.768359 0.609375
vt 0.785156 0.437500
vt 0.804688 0.656250
vt 0.804688 0.781250
vt 0.768359 0.828125
vt 0.801953 0.828125
vt 0.785155 1.000000
vt 0.841016 0.609375
vt 0.807422 0.609375
vt 0.824219 0.437500
vt 0.843750 0.656250
vt 0.843750 0.781250
vt 0.807422 0.828125
vt 0.841016 0.828125
vt 0.824219 1.000000
vt 0.880078 0.609375
vt 0.846484 0.609375
vt 0.863281 0.437500
vt 0.882812 0.656250
vt 0.882812 0.781250
vt 0.846484 0.828125
vt 0.880078 0.828125
vt 0.863281 1.000000
vt 0.919141 0.609375
vt 0.885547 0.609375
vt 0.902344 0.437500
vt 0.921875 0.656250
vt 0.921875 0.781250
vt 0.885547 0.828125
vt 0.919141 0.828125
vt 0.902344 1.000000
vt 0.958203 0.609375
vt 0.924609 0.609375
vt 0.941406 0.437500
vt 0.960938 0.656250
vt 0.960938 0.781250
vt 0.924609 0.828125
vt 0.958203 0.828125
vt 0.941406 1.000000
vt 0.997266 0.609375
vt 0.963672 0.609375
vt 0.980469 0.437500
vt 1.000000 0.656250
vt 1.000000 0.781250
vt 0.963672 0.828125
vt 0.997266 0.828125
vt 0.980470 1.000000
vt 0.411328 0.609375
vt 0.377734 0.609375
vt 0.394531 0.437500
vt 0.375000 0.656250
vt 0.414062 0.656250
vt 0.414062 0.781250
vt 0.375000 0.781250
vt 0.377734 0.828124
vt 0.411328 0.828124
vt 0.394530 0.999999
vt 0.450391 0.609375
vt 0.416797 0.609375
vt 0.433594 0.437500
vt 0.453125 0.656250
vt 0.453125 0.781250
vt 0.416797 0.828124
vt 0.450391 0.828125
vt 0.433594 0.999999
vt 0.489453 0.609375
vt 0.455859 0.609375
vt 0.472656 0.437500
vt 0.492188 0.656250
vt 0.492188 0.781250
vt 0.455859 0.828125
vt 0.489453 0.828125
vt 0.472656 1.000000
vt 0.528516 0.609375
vt 0.494922 0.609375
vt 0.511719 0.437500
vt 0.531250 0.656250
vt 0.531250 0.781250
vt 0.494922 0.828125
vt 0.528516 0.828125
vt 0.511719 1.000000
vt 0.567578 0.609375
vt 0.533984 0.609375
vt 0.550781 0.437500
vt 0.570312 0.656250
vt 0.570312 0.781250
vt 0.533984 0.828125
vt 0.567578 0.828125
vt 0.550781 1.000000
vt 0.606641 0.609375
vt 0.573047 0.609375
vt 0.589844 0.437500
vt 0.609375 0.656250
vt 0.609375 0.781250
vt 0.573047 0.828125
vt 0.606641 0.828125
vt 0.589844 1.000000
vt 0.645703 0.609375
vt 0.612109 0.609375
vt 0.628906 0.437500
vt 0.648438 0.656250
vt 0.648438 0.781250
vt 0.612109 0.828125
vt 0.645703 0.828125
vt 0.628906 1.000000
vt 0.684766 0.609375
vt 0.651172 0.609375
vt 0.667969 0.437500
vt 0.687500 0.656250
vt 0.687500 0.781250
vt 0.651172 0.828125
vt 0.684766 0.828125
vt 0.667970 1.000000
vt 0.723828 0.609375
vt 0.690234 0.609375
vt 0.707031 0.437500
vt 0.690234 0.828125
vt 0.723828 0.828125
vt 0.707030 1.000000
vt 0.450335 0.828125
vt 0.416853 0.828125
vt 0.411272 0.828125
vt 0.377790 0.828125
vt 0.997210 0.828125
vt 0.963728 0.828125
vt 0.958147 0.828125
vt 0.924665 0.828125
vt 0.919085 0.828125
vt 0.885603 0.828125
vt 0.880022 0.828125
vt 0.846540 0.828125
vt 0.840960 0.828125
vt 0.807478 0.828125
vt 0.801897 0.828125
vt 0.768415 0.828125
vt 0.762835 0.828125
vt 0.729353 0.828125
vt 0.723772 0.828125
vt 0.690290 0.828125
vt 0.684710 0.828125
vt 0.651228 0.828125
vt 0.645647 0.828125
vt 0.612165 0.828125
vt 0.606585 0.828125
vt 0.573103 0.828125
vt 0.567522 0.828125
vt 0.534040 0.828125
vt 0.528460 0.828125
vt 0.494978 0.828125
vt 0.489397 0.828125
vt 0.455915 0.828125
vt 0.690290 0.609375
vt 0.723772 0.609375
vt 0.651228 0.609375
vt 0.684710 0.609375
vt 0.612165 0.609375
vt 0.645647 0.609375
vt 0.573103 0.609375
vt 0.606585 0.609375
vt 0.534040 0.609375
vt 0.567522 0.609375
vt 0.494978 0.609375
vt 0.528460 0.609375
vt 0.455915 0.609375
vt 0.489397 0.609375
vt 0.416853 0.609375
vt 0.450335 0.609375
vt 0.377790 0.609375
vt 0.411272 0.609375
vt 0.963728 0.609375
vt 0.997210 0.609375
vt 0.924665 0.609375
vt 0.958147 0.609375
vt 0.885603 0.609375
vt 0.919085 0.609375
vt 0.846540 0.609375
vt 0.880022 0.609375
vt 0.807478 0.609375
vt 0.840960 0.609375
vt 0.768415 0.609375
vt 0.801897 0.609375
vt 0.729353 0.609375
vt 0.762835 0.609375
vt 0.476562 0.015625
vt 0.476562 0.062500
vt 0.429688 0.062500
vt 0.429688 0.015625
vt 0.476562 0.078125
vt 0.429688 0.078125
vt 0.429688 0.000000
vt 0.476562 0.000000
vt 0.476562 0.046875
vt 0.500000 0.036612
vt 0.518306 0.000000
vt 0.531250 0.062500
vt 0.500000 0.078125
vt 0.500000 0.093750
vt 0.476562 0.093750
vt 0.500000 0.088388
vt 0.500000 0.109375
vt 0.476562 0.109375
vt 0.518306 0.125000
vt 0.500000 0.125000
vt 0.476562 0.125000
vt 0.544194 0.125000
vt 0.500000 0.000000
vt 0.500000 0.015625
vt 0.562500 0.088388
vt 0.500000 0.031250
vt 0.476562 0.031250
vt 0.562500 0.036612
vt 0.500000 0.046875
vt 0.544194 0.000000
vt 0.500000 0.062500
s 0
usemtl m_78d02a81-a949-84ef-d6b6-316d99801ee3
f 2/1/1 1/2/1 3/3/1
f 2/1/1 3/3/1 4/4/1
f 7/3/2 5/2/2 6/1/2
f 7/3/2 6/1/2 8/4/2
f 5/4/3 1/3/3 2/2/3
f 5/4/3 2/2/3 6/1/3
f 4/4/4 3/3/4 7/2/4
f 4/4/4 7/2/4 8/1/4
f 3/3/5 1/2/5 5/1/5
f 3/3/5 5/1/5 7/4/5
f 6/1/6 2/2/6 4/3/6
f 6/1/6 4/3/6 8/4/6
f 10/1/1 9/2/1 11/3/1
f 10/1/1 11/3/1 12/4/1
f 15/3/2 13/2/2 14/1/2
f 15/3/2 14/1/2 16/4/2
f 13/4/3 9/3/3 10/2/3
f 13/4/3 10/2/3 14/1/3
f 12/4/4 11/3/4 15/2/4
f 12/4/4 15/2/4 16/1/4
f 11/3/5 9/2/5 13/1/5
f 11/3/5 13/1/5 15/4/5
f 14/1/6 10/2/6 12/3/6
f 14/1/6 12/3/6 16/4/6
f 18/1/1 17/2/1 19/3/1
f 18/1/1 19/3/1 20/4/1
f 23/3/2 21/2/2 22/1/2
f 23/3/2 22/1/2 24/4/2
f 21/4/3 17/3/3 18/2/3
f 21/4/3 18/2/3 22/1/3
f 20/4/4 19/3/4 23/2/4
f 20/4/4 23/2/4 24/1/4
f 19/3/5 17/2/5 21/1/5
f 19/3/5 21/1/5 23/4/5
f 22/1/6 18/2/6 20/3/6
f 22/1/6 20/3/6 24/4/6
f 26/1/1 25/2/1 27/3/1
f 26/1/1 27/3/1 28/4/1
f 31/3/2 29/2/2 30/1/2
f 31/3/2 30/1/2 32/4/2
f 29/4/3 25/3/3 26/2/3
f 29/4/3 26/2/3 30/1/3
f 28/4/4 27/3/4 31/2/4
f 28/4/4 31/2/4 32/1/4
f 27/3/5 25/2/5 29/1/5
f 27/3/5 29/1/5 31/4/5
f 30/1/6 26/2/6 28/3/6
f 30/1/6 28/3/6 32/4/6
f 37/5/3 33/6/3 34/7/3
f 37/5/3 34/7/3 38/2/3
f 36/6/4 35/7/4 39/2/4
f 36/6/4 39/2/4 40/5/4
f 35/6/1 33/7/1 37/2/1
f 35/6/1 37/2/1 39/5/1
f 38/7/2 34/2/2 36/5/2
f 38/7/2 36/5/2 40/6/2
f 45/5/3 41/6/3 42/7/3
f 45/5/3 42/7/3 46/2/3
f 44/6/4 43/7/4 47/2/4
f 44/6/4 47/2/4 48/5/4
f 43/6/5 41/7/5 45/2/5
f 43/6/5 45/2/5 47/5/5
f 46/7/6 42/2/6 44/5/6
f 46/7/6 44/5/6 48/6/6
f 53/5/3 49/6/3 50/7/3
f 53/5/3 50/7/3 54/2/3
f 52/6/4 51/7/4 55/2/4
f 52/6/4 55/2/4 56/5/4
f 51/6/2 49/7/2 53/2/2
f 51/6/2 53/2/2 55/5/2
f 54/7/1 50/2/1 52/5/1
f 54/7/1 52/5/1 56/6/1
f 61/5/3 57/6/3 58/7/3
f 61/5/3 58/7/3 62/2/3
f 60/6/4 59/7/4 63/2/4
f 60/6/4 63/2/4 64/5/4
f 59/6/6 57/7/6 61/2/6
f 59/6/6 61/2/6 63/5/6
f 62/7/5 58/2/5 60/5/5
f 62/7/5 60/5/5 64/6/5
f 66/8/7 65/9/7 67/10/7
f 66/8/7 67/10/7 68/11/7
f 71/11/8 69/12/8 70/13/8
f 71/11/8 70/13/8 72/14/8
f 67/15/9 65/16/9 69/9/9
f 67/15/9 69/9/9 71/17/9
f 70/12/10 66/18/10 68/17/10
f 70/12/10 68/17/10 72/19/10
f 74/8/10 73/9/10 75/10/10
f 74/8/10 75/10/10 76/11/10
f 79/11/11 77/12/11 78/13/11
f 79/11/11 78/13/11 80/14/11
f 75/15/12 73/16/12 77/9/12
f 75/15/12 77/9/12 79/17/12
f 78/12/13 74/18/13 76/17/13
f 78/12/13 76/17/13 80/19/13
f 82/8/13 81/9/13 83/10/13
f 82/8/13 83/10/13 84/11/13
f 87/11/14 85/12/14 86/13/14
f 87/11/14 86/13/14 88/14/14
f 83/15/15 81/16/15 85/9/15
f 83/15/15 85/9/15 87/17/15
f 86/12/16 82/18/16 84/17/16
f 86/12/16 84/17/16 88/19/16
f 90/8/16 89/9/16 91/10/16
f 90/8/16 91/10/16 92/11/16
f 95/11/17 93/12/17 94/13/17
f 95/11/17 94/13/17 96/14/17
f 91/15/18 89/16/18 93/9/18
f 91/15/18 93/9/18 95/17/18
f 94/12/7 90/18/7 92/17/7
f 94/12/7 92/17/7 96/19/7
f 101/2/3 97/12/3 98/9/3
f 101/2/3 98/9/3 102/5/3
f 100/12/4 99/9/4 103/5/4
f 100/12/4 103/5/4 104/2/4
f 99/12/6 97/9/6 101/5/6
f 99/12/6 101/5/6 103/2/6
f 102/12/5 98/2/5 100/5/5
f 102/12/5 100/5/5 104/9/5
f 109/2/3 105/12/3 106/9/3
f 109/2/3 106/9/3 110/5/3
f 108/12/4 107/9/4 111/5/4
f 108/12/4 111/5/4 112/2/4
f 107/12/2 105/9/2 109/5/2
f 107/12/2 109/5/2 111/2/2
f 110/12/1 106/2/1 108/5/1
f 110/12/1 108/5/1 112/9/1
f 117/2/3 113/12/3 114/9/3
f 117/2/3 114/9/3 118/5/3
f 116/12/4 115/9/4 119/5/4
f 116/12/4 119/5/4 120/2/4
f 115/12/5 113/9/5 117/5/5
f 115/12/5 117/5/5 119/2/5
f 118/12/6 114/2/6 116/5/6
f 118/12/6 116/5/6 120/9/6
f 125/2/3 121/12/3 122/9/3
f 125/2/3 122/9/3 126/5/3
f 124/12/4 123/9/4 127/5/4
f 124/12/4 127/5/4 128/2/4
f 123/12/1 121/9/1 125/5/1
f 123/12/1 125/5/1 127/2/1
f 126/12/2 122/2/2 124/5/2
f 126/12/2 124/5/2 128/9/2
f 130/1/1 129/2/1 131/3/1
f 130/1/1 131/3/1 132/4/1
f 135/3/2 133/2/2 134/1/2
f 135/3/2 134/1/2 136/4/2
f 133/4/3 129/3/3 130/2/3
f 133/4/3 130/2/3 134/1/3
f 132/4/4 131/3/4 135/2/4
f 132/4/4 135/2/4 136/1/4
f 131/3/5 129/2/5 133/1/5
f 131/3/5 133/1/5 135/4/5
f 134/1/6 130/2/6 132/3/6
f 134/1/6 132/3/6 136/4/6
f 138/1/1 137/2/1 139/3/1
f 138/1/1 139/3/1 140/4/1
f 143/3/2 141/2/2 142/1/2
f 143/3/2 142/1/2 144/4/2
f 141/4/3 137/3/3 138/2/3
f 141/4/3 138/2/3 142/1/3
f 140/4/4 139/3/4 143/2/4
f 140/4/4 143/2/4 144/1/4
f 139/3/5 137/2/5 141/1/5
f 139/3/5 141/1/5 143/4/5
f 142/1/6 138/2/6 140/3/6
f 142/1/6 140/3/6 144/4/6
f 146/1/1 145/2/1 147/3/1
f 146/1/1 147/3/1 148/4/1
f 151/3/2 149/2/2 150/1/2
f 151/3/2 150/1/2 152/4/2
f 149/4/3 145/3/3 146/2/3
f 149/4/3 146/2/3 150/1/3
f 148/4/4 147/3/4 151/2/4
f 148/4/4 151/2/4 152/1/4
f 147/3/5 145/2/5 149/1/5
f 147/3/5 149/1/5 151/4/5
f 150/1/6 146/2/6 148/3/6
f 150/1/6 148/3/6 152/4/6
f 154/1/1 153/2/1 155/3/1
f 154/1/1 155/3/1 156/4/1
f 159/3/2 157/2/2 158/1/2
f 159/3/2 158/1/2 160/4/2
f 157/4/3 153/3/3 154/2/3
f 157/4/3 154/2/3 158/1/3
f 156/4/4 155/3/4 159/2/4
f 156/4/4 159/2/4 160/1/4
f 155/3/5 153/2/5 157/1/5
f 155/3/5 157/1/5 159/4/5
f 158/1/6 154/2/6 156/3/6
f 158/1/6 156/3/6 160/4/6
f 162/2/5 161/20/5 163/21/5
f 162/2/5 163/21/5 167/5/5
f 166/5/6 164/2/6 165/20/6
f 166/5/6 165/20/6 168/21/6
f 164/22/19 161/3/19 162/4/19
f 164/22/19 162/4/19 165/23/19
f 167/23/20 163/22/20 166/3/20
f 167/23/20 166/3/20 168/4/20
f 170/2/1 169/20/1 171/21/1
f 170/2/1 171/21/1 175/5/1
f 174/5/2 172/2/2 173/20/2
f 174/5/2 173/20/2 176/21/2
f 172/22/21 169/3/21 170/4/21
f 172/22/21 170/4/21 173/23/21
f 175/23/22 171/22/22 174/3/22
f 175/23/22 174/3/22 176/4/22
f 178/2/6 177/20/6 179/21/6
f 178/2/6 179/21/6 183/5/6
f 182/5/5 180/2/5 181/20/5
f 182/5/5 181/20/5 184/21/5
f 180/22/23 177/3/23 178/4/23
f 180/22/23 178/4/23 181/23/23
f 183/23/24 179/22/24 182/3/24
f 183/23/24 182/3/24 184/4/24
f 186/2/2 185/20/2 187/21/2
f 186/2/2 187/21/2 191/5/2
f 190/5/1 188/2/1 189/20/1
f 190/5/1 189/20/1 192/21/1
f 188/22/25 185/3/25 186/4/25
f 188/22/25 186/4/25 189/23/25
f 191/23/26 187/22/26 190/3/26
f 191/23/26 190/3/26 192/4/26
f 194/24/27 196/25/27 197/26/27
f 194/24/27 197/26/27 195/27/27
f 195/28/3 197/29/3 193/30/3
f 196/31/28 198/27/28 199/32/28
f 196/31/28 199/32/28 197/33/28
f 197/29/3 199/34/3 193/30/3
f 198/27/29 200/26/29 201/35/29
f 198/27/29 201/35/29 199/32/29
f 199/34/3 201/36/3 193/30/3
f 200/37/30 202/38/30 203/39/30
f 200/37/30 203/39/30 201/40/30
f 201/36/3 203/41/3 193/30/3
f 202/38/31 204/42/31 205/43/31
f 202/38/31 205/43/31 203/39/31
f 203/41/3 205/44/3 193/30/3
f 204/40/32 206/39/32 207/24/32
f 204/40/32 207/24/32 205/45/32
f 205/44/3 207/46/3 193/30/3
f 206/39/33 208/43/33 209/25/33
f 206/39/33 209/25/33 207/24/33
f 207/46/3 209/47/3 193/30/3
f 208/45/34 194/24/34 195/27/34
f 208/45/34 195/27/34 209/31/34
f 209/47/3 195/28/3 193/30/3
f 211/24/29 213/25/29 214/26/29
f 211/24/29 214/26/29 212/27/29
f 212/28/3 214/29/3 210/30/3
f 213/31/30 215/27/30 216/32/30
f 213/31/30 216/32/30 214/33/30
f 214/29/3 216/34/3 210/30/3
f 215/27/31 217/26/31 218/35/31
f 215/27/31 218/35/31 216/32/31
f 216/34/3 218/36/3 210/30/3
f 217/37/32 219/38/32 220/39/32
f 217/37/32 220/39/32 218/40/32
f 218/36/3 220/41/3 210/30/3
f 219/38/33 221/42/33 222/43/33
f 219/38/33 222/43/33 220/39/33
f 220/41/3 222/44/3 210/30/3
f 221/40/34 223/39/34 224/24/34
f 221/40/34 224/24/34 222/45/34
f 222/44/3 224/46/3 210/30/3
f 223/39/27 225/43/27 226/25/27
f 223/39/27 226/25/27 224/24/27
f 224/46/3 226/47/3 210/30/3
f 225/45/28 211/24/28 212/27/28
f 225/45/28 212/27/28 226/31/28
f 226/47/3 212/28/3 210/30/3
f 228/24/31 230/25/31 231/26/31
f 228/24/31 231/26/31 229/27/31
f 229/28/3 231/29/3 227/30/3
f 230/31/32 232/27/32 233/32/32
f 230/31/32 233/32/32 231/33/32
f 231/29/3 233/34/3 227/30/3
f 232/27/33 234/26/33 235/35/33
f 232/27/33 235/35/33 233/32/33
f 233/34/3 235/36/3 227/30/3
f 234/37/34 236/38/34 237/39/34
f 234/37/34 237/39/34 235/40/34
f 235/36/3 237/41/3 227/30/3
f 236/38/27 238/42/27 239/43/27
f 236/38/27 239/43/27 237/39/27
f 237/41/3 239/44/3 227/30/3
f 238/40/28 240/39/28 241/24/28
f 238/40/28 241/24/28 239/45/28
f 239/44/3 241/46/3 227/30/3
f 240/39/29 242/43/29 243/25/29
f 240/39/29 243/25/29 241/24/29
f 241/46/3 243/47/3 227/30/3
f 242/45/30 228/24/30 229/27/30
f 242/45/30 229/27/30 243/31/30
f 243/47/3 229/28/3 227/30/3
f 245/24/33 247/25/33 248/26/33
f 245/24/33 248/26/33 246/27/33
f 246/28/3 248/29/3 244/30/3
f 247/31/34 249/27/34 250/32/34
f 247/31/34 250/32/34 248/33/34
f 248/29/3 250/34/3 244/30/3
f 249/27/27 251/26/27 252/35/27
f 249/27/27 252/35/27 250/32/27
f 250/34/3 252/36/3 244/30/3
f 251/37/28 253/38/28 254/39/28
f 251/37/28 254/39/28 252/40/28
f 252/36/3 254/41/3 244/30/3
f 253/38/29 255/42/29 256/43/29
f 253/38/29 256/43/29 254/39/29
f 254/41/3 256/44/3 244/30/3
f 255/40/30 257/39/30 258/24/30
f 255/40/30 258/24/30 256/45/30
f 256/44/3 258/46/3 244/30/3
f 257/39/31 259/43/31 260/25/31
f 257/39/31 260/25/31 258/24/31
f 258/46/3 260/47/3 244/30/3
f 259/45/32 245/24/32 246/27/32
f 259/45/32 246/27/32 260/31/32
f 260/47/3 246/28/3 244/30/3
f 274/48/3 275/49/3 271/50/3
f 275/49/3 276/51/3 271/50/3
f 276/51/3 277/52/3 271/50/3
f 277/52/3 272/53/3 271/50/3
f 272/53/3 269/54/3 271/50/3
f 269/54/3 270/55/3 271/50/3
f 270/55/3 273/56/3 271/50/3
f 273/56/3 274/48/3 271/50/3
f 270/57/35 269/58/35 267/59/35
f 270/57/36 267/59/36 266/60/36
f 269/61/37 272/62/37 268/58/37
f 269/61/38 268/58/38 267/57/38
f 273/60/39 270/59/39 266/63/39
f 273/60/40 266/63/40 261/64/40
f 274/64/41 273/63/41 261/65/41
f 274/64/42 261/65/42 262/66/42
f 275/66/43 274/65/43 262/67/43
f 275/66/44 262/67/44 263/68/44
f 276/68/45 275/67/45 263/69/45
f 276/68/46 263/69/46 264/70/46
f 277/70/47 276/69/47 264/71/47
f 277/70/48 264/71/48 265/72/48
f 272/73/49 277/37/49 265/62/49
f 272/73/50 265/62/50 268/61/50
f 279/74/2 278/75/2 280/76/2
f 279/74/2 280/76/2 281/77/2
f 284/78/1 282/79/1 283/80/1
f 284/78/1 283/80/1 285/81/1
f 282/74/3 278/80/3 279/82/3
f 282/74/3 279/82/3 283/83/3
f 281/84/4 280/81/4 284/77/4
f 281/84/4 284/77/4 285/85/4
f 283/80/5 279/74/5 281/77/5
f 283/80/5 281/77/5 285/81/5
f 305/86/51 304/87/51 280/76/51
f 305/86/51 280/76/51 278/75/51
f 303/88/21 305/89/21 278/82/21
f 303/88/21 278/82/21 282/83/21
f 286/90/52 303/91/52 282/79/52
f 286/90/52 282/79/52 284/78/52
f 304/92/26 286/93/26 284/85/26
f 304/92/26 284/85/26 280/84/26
f 300/94/2 307/95/2 306/96/2
f 300/94/2 306/96/2 301/97/2
f 289/98/2 288/99/2 290/100/2
f 289/98/2 290/100/2 291/101/2
f 294/102/1 292/103/1 293/104/1
f 294/102/1 293/104/1 295/105/1
f 292/98/3 288/104/3 289/106/3
f 292/98/3 289/106/3 293/107/3
f 291/108/4 290/105/4 294/101/4
f 291/108/4 294/101/4 295/109/4
f 293/104/5 289/98/5 291/101/5
f 293/104/5 291/101/5 295/105/5
f 297/110/51 296/111/51 290/100/51
f 297/110/51 290/100/51 288/99/51
f 298/112/21 297/113/21 288/106/21
f 298/112/21 288/106/21 292/107/21
f 299/114/52 298/115/52 292/103/52
f 299/114/52 292/103/52 294/102/52
f 296/116/26 299/117/26 294/109/26
f 296/116/26 294/109/26 290/108/26
f 302/118/3 307/94/3 300/97/3
f 302/118/3 300/97/3 303/119/3
f 286/120/4 301/121/4 306/122/4
f 286/120/4 306/122/4 287/123/4
f 287/119/1 302/118/1 303/124/1
f 287/119/1 303/124/1 286/125/1
f 299/126/5 304/127/5 305/128/5
f 299/126/5 305/128/5 298/129/5
f 287/118/6 306/94/6 307/130/6
f 287/118/6 307/130/6 302/131/6
f 309/132/1 308/133/1 310/134/1
f 309/132/1 310/134/1 311/135/1
f 314/136/2 312/137/2 313/138/2
f 314/136/2 313/138/2 315/139/2
f 312/132/3 308/138/3 309/140/3
f 312/132/3 309/140/3 313/141/3
f 311/142/4 310/139/4 314/135/4
f 311/142/4 314/135/4 315/143/4
f 313/138/6 309/132/6 311/135/6
f 313/138/6 311/135/6 315/139/6
f 318/144/53 316/145/53 310/134/53
f 318/144/53 310/134/53 308/133/53
f 319/146/25 318/147/25 308/140/25
f 319/146/25 308/140/25 312/141/25
f 317/148/54 319/149/54 312/137/54
f 317/148/54 312/137/54 314/136/54
f 316/150/22 317/151/22 314/143/22
f 316/150/22 314/143/22 310/142/22
f 320/152/1 322/153/1 316/145/1
f 320/152/1 316/145/1 318/144/1
f 321/154/3 320/152/3 318/144/3
f 321/154/3 318/144/3 319/155/3
f 323/154/2 321/156/2 319/157/2
f 323/154/2 319/157/2 317/155/2
f 322/153/4 323/158/4 317/159/4
f 322/153/4 317/159/4 316/145/4
f 325/132/1 324/133/1 326/134/1
f 325/132/1 326/134/1 327/135/1
f 330/136/2 328/137/2 329/138/2
f 330/136/2 329/138/2 331/139/2
f 328/132/3 324/138/3 325/140/3
f 328/132/3 325/140/3 329/141/3
f 327/142/4 326/139/4 330/135/4
f 327/142/4 330/135/4 331/143/4
f 329/138/6 325/132/6 327/135/6
f 329/138/6 327/135/6 331/139/6
f 334/144/53 332/145/53 326/134/53
f 334/144/53 326/134/53 324/133/53
f 335/146/25 334/147/25 324/140/25
f 335/146/25 324/140/25 328/141/25
f 333/148/54 335/149/54 328/137/54
f 333/148/54 328/137/54 330/136/54
f 332/150/22 333/151/22 330/143/22
f 332/150/22 330/143/22 326/142/22
f 336/152/1 338/153/1 332/145/1
f 336/152/1 332/145/1 334/144/1
f 337/154/3 336/152/3 334/144/3
f 337/154/3 334/144/3 335/155/3
f 339/154/2 337/156/2 335/157/2
f 339/154/2 335/157/2 333/155/2
f 338/153/4 339/158/4 333/159/4
f 338/153/4 333/159/4 332/145/4
f 341/160/5 340/161/5 342/162/5
f 341/160/5 342/162/5 343/163/5
f 346/164/6 344/165/6 345/166/6
f 346/164/6 345/166/6 347/167/6
f 350/168/3 348/169/3 349/170/3
f 350/168/3 349/170/3 351/171/3
f 343/160/4 342/164/4 346/167/4
f 343/160/4 346/167/4 347/161/4
f 342/160/2 340/172/2 344/173/2
f 342/160/2 344/173/2 346/164/2
f 345/174/1 341/175/1 343/161/1
f 345/174/1 343/161/1 347/167/1
f 348/176/23 350/177/23 344/173/23
f 348/176/23 344/173/23 340/172/23
f 349/178/25 348/179/25 340/162/25
f 349/178/25 340/162/25 341/163/25
f 351/180/19 349/181/19 341/175/19
f 351/180/19 341/175/19 345/174/19
f 350/169/21 351/168/21 345/166/21
f 350/169/21 345/166/21 344/165/21
f 353/160/5 352/161/5 354/162/5
f 353/160/5 354/162/5 355/163/5
f 358/164/6 356/165/6 357/166/6
f 358/164/6 357/166/6 359/167/6
f 362/168/3 360/169/3 361/170/3
f 362/168/3 361/170/3 363/171/3
f 355/160/4 354/164/4 358/167/4
f 355/160/4 358/167/4 359/161/4
f 354/160/2 352/172/2 356/173/2
f 354/160/2 356/173/2 358/164/2
f 357/174/1 353/175/1 355/161/1
f 357/174/1 355/161/1 359/167/1
f 360/176/23 362/177/23 356/173/23
f 360/176/23 356/173/23 352/172/23
f 361/178/25 360/179/25 352/162/25
f 361/178/25 352/162/25 353/163/25
f 363/180/19 361/181/19 353/175/19
f 363/180/19 353/175/19 357/174/19
f 362/169/21 363/168/21 357/166/21
f 362/169/21 357/166/21 356/165/21
f 365/160/5 364/161/5 366/162/5
f 365/160/5 366/162/5 367/163/5
f 370/164/6 368/165/6 369/166/6
f 370/164/6 369/166/6 371/167/6
f 374/168/3 372/169/3 373/170/3
f 374/168/3 373/170/3 375/171/3
f 367/160/4 366/164/4 370/167/4
f 367/160/4 370/167/4 371/161/4
f 366/160/2 364/172/2 368/173/2
f 366/160/2 368/173/2 370/164/2
f 369/174/1 365/175/1 367/161/1
f 369/174/1 367/161/1 371/167/1
f 372/176/23 374/177/23 368/173/23
f 372/176/23 368/173/23 364/172/23
f 373/178/25 372/179/25 364/162/25
f 373/178/25 364/162/25 365/163/25
f 375/180/19 373/181/19 365/175/19
f 375/180/19 365/175/19 369/174/19
f 374/169/21 375/168/21 369/166/21
f 374/169/21 369/166/21 368/165/21
f 377/160/5 376/161/5 378/162/5
f 377/160/5 378/162/5 379/163/5
f 382/164/6 380/165/6 381/166/6
f 382/164/6 381/166/6 383/167/6
f 386/168/3 384/169/3 385/170/3
f 386/168/3 385/170/3 387/171/3
f 379/160/4 378/164/4 382/167/4
f 379/160/4 382/167/4 383/161/4
f 378/160/2 376/172/2 380/173/2
f 378/160/2 380/173/2 382/164/2
f 381/174/1 377/175/1 379/161/1
f 381/174/1 379/161/1 383/167/1
f 384/176/23 386/177/23 380/173/23
f 384/176/23 380/173/23 376/172/23
f 385/178/25 384/179/25 376/162/25
f 385/178/25 376/162/25 377/163/25
f 387/180/19 385/181/19 377/175/19
f 387/180/19 377/175/19 381/174/19
f 386/169/21 387/168/21 381/166/21
f 386/169/21 381/166/21 380/165/21
f 453/182/4 437/183/4 439/184/4
f 388/185/55 390/186/55 391/187/55
f 388/185/55 391/187/55 389/188/55
f 430/189/3 429/190/3 422/191/3
f 452/192/4 453/193/4 439/194/4
f 390/186/56 392/195/56 393/196/56
f 390/186/56 393/196/56 391/187/56
f 429/197/3 428/198/3 422/199/3
f 451/200/4 452/201/4 439/202/4
f 392/195/57 394/203/57 395/204/57
f 392/195/57 395/204/57 393/196/57
f 428/205/3 427/206/3 422/207/3
f 450/208/4 451/209/4 439/210/4
f 394/203/58 396/211/58 397/212/58
f 394/203/58 397/212/58 395/204/58
f 427/213/3 426/214/3 422/215/3
f 449/216/4 450/217/4 439/218/4
f 396/211/59 398/219/59 399/220/59
f 396/211/59 399/220/59 397/212/59
f 426/221/3 425/222/3 422/223/3
f 448/224/4 449/225/4 439/226/4
f 398/219/60 400/227/60 401/228/60
f 398/219/60 401/228/60 399/220/60
f 425/229/3 424/230/3 422/231/3
f 447/232/4 448/233/4 439/234/4
f 400/227/61 402/235/61 403/236/61
f 400/227/61 403/236/61 401/228/61
f 424/237/3 423/238/3 422/239/3
f 446/240/4 447/241/4 439/242/4
f 402/243/62 404/244/62 405/245/62
f 402/243/62 405/245/62 403/246/62
f 423/247/3 420/248/3 422/249/3
f 445/250/4 446/251/4 439/252/4
f 404/244/63 406/253/63 407/254/63
f 404/244/63 407/254/63 405/245/63
f 420/255/3 421/256/3 422/257/3
f 444/258/4 445/259/4 439/260/4
f 406/253/64 408/261/64 409/262/64
f 406/253/64 409/262/64 407/254/64
f 421/263/3 436/264/3 422/265/3
f 443/266/4 444/267/4 439/268/4
f 408/261/65 410/269/65 411/270/65
f 408/261/65 411/270/65 409/262/65
f 436/271/3 435/272/3 422/273/3
f 442/274/4 443/275/4 439/276/4
f 410/269/66 412/277/66 413/278/66
f 410/269/66 413/278/66 411/270/66
f 435/279/3 434/280/3 422/281/3
f 441/282/4 442/283/4 439/284/4
f 412/277/67 414/285/67 415/286/67
f 412/277/67 415/286/67 413/278/67
f 434/287/3 433/288/3 422/289/3
f 440/290/4 441/291/4 439/292/4
f 414/285/68 416/293/68 417/294/68
f 414/285/68 417/294/68 415/286/68
f 433/295/3 432/296/3 422/297/3
f 438/298/4 440/299/4 439/300/4
f 416/293/69 418/301/69 419/302/69
f 416/293/69 419/302/69 417/294/69
f 432/303/3 431/304/3 422/305/3
f 437/306/4 438/307/4 439/308/4
f 418/301/70 388/185/70 389/188/70
f 418/301/70 389/188/70 419/302/70
f 431/309/3 430/310/3 422/311/3
f 421/312/71 420/313/71 405/245/71
f 421/312/71 405/245/71 407/254/71
f 420/314/72 423/315/72 403/246/72
f 420/314/72 403/246/72 405/245/72
f 423/316/73 424/317/73 401/228/73
f 423/316/73 401/228/73 403/236/73
f 424/318/74 425/319/74 399/220/74
f 424/318/74 399/220/74 401/228/74
f 425/320/75 426/321/75 397/212/75
f 425/320/75 397/212/75 399/220/75
f 426/322/76 427/323/76 395/204/76
f 426/322/76 395/204/76 397/212/76
f 427/324/77 428/325/77 393/196/77
f 427/324/77 393/196/77 395/204/77
f 428/326/78 429/327/78 391/187/78
f 428/326/78 391/187/78 393/196/78
f 429/328/79 430/329/79 389/188/79
f 429/328/79 389/188/79 391/187/79
f 430/330/80 431/331/80 419/302/80
f 430/330/80 419/302/80 389/188/80
f 431/332/81 432/333/81 417/294/81
f 431/332/81 417/294/81 419/302/81
f 432/334/82 433/335/82 415/286/82
f 432/334/82 415/286/82 417/294/82
f 433/336/83 434/337/83 413/278/83
f 433/336/83 413/278/83 415/286/83
f 434/338/84 435/339/84 411/270/84
f 434/338/84 411/270/84 413/278/84
f 435/340/85 436/341/85 409/262/85
f 435/340/85 409/262/85 411/270/85
f 436/342/86 421/343/86 407/254/86
f 436/342/86 407/254/86 409/262/86
f 438/344/87 437/345/87 388/185/87
f 438/344/87 388/185/87 418/301/87
f 440/346/88 438/347/88 418/301/88
f 440/346/88 418/301/88 416/293/88
f 441/348/89 440/349/89 416/293/89
f 441/348/89 416/293/89 414/285/89
f 442/350/90 441/351/90 414/285/90
f 442/350/90 414/285/90 412/277/90
f 443/352/91 442/353/91 412/277/91
f 443/352/91 412/277/91 410/269/91
f 444/354/92 443/355/92 410/269/92
f 444/354/92 410/269/92 408/261/92
f 445/356/93 444/357/93 408/261/93
f 445/356/93 408/261/93 406/253/93
f 446/358/94 445/359/94 406/253/94
f 446/358/94 406/253/94 404/244/94
f 447/360/95 446/361/95 404/244/95
f 447/360/95 404/244/95 402/243/95
f 448/362/96 447/363/96 402/235/96
f 448/362/96 402/235/96 400/227/96
f 449/364/97 448/365/97 400/227/97
f 449/364/97 400/227/97 398/219/97
f 450/366/98 449/367/98 398/219/98
f 450/366/98 398/219/98 396/211/98
f 451/368/99 450/369/99 396/211/99
f 451/368/99 396/211/99 394/203/99
f 452/370/100 451/371/100 394/203/100
f 452/370/100 394/203/100 392/195/100
f 453/372/101 452/373/101 392/195/101
f 453/372/101 392/195/101 390/186/101
f 437/374/102 453/375/102 390/186/102
f 437/374/102 390/186/102 388/185/102
f 457/376/4 456/377/4 460/378/4
f 457/376/4 460/378/4 461/379/4
f 456/377/51 454/380/51 458/381/51
f 456/377/51 458/381/51 460/378/51
f 459/376/53 455/379/53 457/382/53
f 459/376/53 457/382/53 461/383/53
f 465/378/4 464/379/4 468/376/4
f 465/378/4 468/376/4 469/377/4
f 464/383/51 462/376/51 466/379/51
f 464/383/51 466/379/51 468/382/51
f 467/377/53 463/378/53 465/176/53
f 467/377/53 465/176/53 469/384/53
f 473/378/4 472/379/4 476/376/4
f 473/378/4 476/376/4 477/377/4
f 472/383/52 470/376/52 474/379/52
f 472/383/52 474/379/52 476/382/52
f 475/380/54 471/381/54 473/378/54
f 475/380/54 473/378/54 477/377/54
f 481/376/4 480/377/4 484/378/4
f 481/376/4 484/378/4 485/379/4
f 480/377/52 478/380/52 482/381/52
f 480/377/52 482/381/52 484/378/52
f 483/383/54 479/382/54 481/379/54
f 483/383/54 481/379/54 485/376/54
f 489/385/4 487/386/4 486/387/4
f 487/380/53 489/388/53 490/389/53
f 487/380/53 490/389/53 488/390/53
f 491/391/4 489/385/4 486/387/4
f 489/390/1 491/389/1 492/392/1
f 489/390/1 492/392/1 490/393/1
f 493/394/4 491/391/4 486/387/4
f 491/393/52 493/392/52 494/395/52
f 491/393/52 494/395/52 492/396/52
f 495/397/4 493/394/4 486/387/4
f 493/383/6 495/398/6 496/399/6
f 493/383/6 496/399/6 494/376/6
f 497/400/4 495/397/4 486/387/4
f 495/376/51 497/399/51 498/401/51
f 495/376/51 498/401/51 496/402/51
f 499/403/4 497/400/4 486/387/4
f 497/402/2 499/401/2 500/404/2
f 497/402/2 500/404/2 498/384/2
f 501/405/4 499/403/4 486/387/4
f 499/384/54 501/404/54 502/406/54
f 499/384/54 502/406/54 500/377/54
f 487/386/4 501/405/4 486/387/4
f 501/377/5 487/406/5 488/388/5
f 501/377/5 488/388/5 502/380/5
