# Blender 5.1.2
# www.blender.org
mtllib turret_railgun.mtl
o Base
v -2.500000 0.000000 2.500000
v -2.500000 0.500000 2.500000
v -2.500000 0.000000 -2.500000
v -2.500000 0.500000 -2.500000
v 2.500000 0.000000 2.500000
v 2.500000 0.500000 2.500000
v 2.500000 0.000000 -2.500000
v 2.500000 0.500000 -2.500000
vn -1.0000 -0.0000 -0.0000
vn -0.0000 -0.0000 -1.0000
vn 1.0000 -0.0000 -0.0000
vn -0.0000 -0.0000 1.0000
vn -0.0000 -1.0000 -0.0000
vn -0.0000 1.0000 -0.0000
vt 0.031247 0.656277
vt 0.000003 0.968723
vt 0.000003 0.656277
vt 0.031247 0.656277
vt 0.000003 0.968723
vt 0.000003 0.656277
vt 0.031250 0.656250
vt 0.000000 0.968750
vt 0.000000 0.656250
vt 0.031247 0.656277
vt 0.000003 0.656277
vt 0.343723 0.656277
vt 0.031277 0.968723
vt 0.031277 0.656277
vt 0.031247 0.968723
vt 0.031247 0.968723
vt 0.031250 0.968750
vt 0.343723 0.968723
s 0
usemtl Material.001
f 2/1/1 3/2/1 1/3/1
f 4/4/2 7/5/2 3/6/2
f 8/7/3 5/8/3 7/9/3
f 6/10/4 1/5/4 5/11/4
f 7/12/5 1/13/5 3/14/5
f 4/12/6 6/13/6 8/14/6
f 2/1/1 4/15/1 3/2/1
f 4/4/2 8/16/2 7/5/2
f 8/7/3 6/17/3 5/8/3
f 6/10/4 2/16/4 1/5/4
f 7/12/5 5/18/5 1/13/5
f 4/12/6 2/18/6 6/13/6
o Carriage
v 0.000000 0.500000 -2.000000
v 0.000000 1.000000 -2.000000
v 0.517638 0.500000 -1.931852
v 0.517638 1.000000 -1.931852
v 1.000000 0.500000 -1.732051
v 1.000000 1.000000 -1.732051
v 1.414214 0.500000 -1.414214
v 1.414214 1.000000 -1.414214
v 1.732051 0.500000 -1.000000
v 1.732051 1.000000 -1.000000
v 1.931852 0.500000 -0.517638
v 1.931852 1.000000 -0.517638
v 2.000000 0.500000 0.000000
v 2.000000 1.000000 0.000000
v 1.931852 0.500000 0.517638
v 1.931852 1.000000 0.517638
v 1.732051 0.500000 1.000000
v 1.732051 1.000000 1.000000
v 1.414214 0.500000 1.414214
v 1.414214 1.000000 1.414214
v 1.000000 0.500000 1.732051
v 1.000000 1.000000 1.732051
v 0.517638 0.500000 1.931852
v 0.517638 1.000000 1.931852
v 0.000000 0.500000 2.000000
v 0.000000 1.000000 2.000000
v -0.517638 0.500000 1.931852
v -0.517638 1.000000 1.931852
v -1.000000 0.500000 1.732051
v -1.000000 1.000000 1.732051
v -1.414214 0.500000 1.414214
v -1.414214 1.000000 1.414214
v -1.732051 0.500000 1.000000
v -1.732051 1.000000 1.000000
v -1.931852 0.500000 0.517638
v -1.931852 1.000000 0.517638
v -2.000000 0.500000 0.000000
v -2.000000 1.000000 0.000000
v -1.931852 0.500000 -0.517638
v -1.931852 1.000000 -0.517638
v -1.732051 0.500000 -1.000000
v -1.732051 1.000000 -1.000000
v -1.414214 0.500000 -1.414214
v -1.414214 1.000000 -1.414214
v -1.000000 0.500000 -1.732051
v -1.000000 1.000000 -1.732051
v -0.517638 0.500000 -1.931852
v -0.517638 1.000000 -1.931852
v -0.500000 1.000000 1.000000
v -0.500000 3.000000 1.000000
v -0.500000 1.000000 0.500000
v -0.500000 3.000000 0.500000
v 0.500000 1.000000 1.000000
v 0.500000 3.000000 1.000000
v 0.500000 1.000000 0.500000
v 0.500000 3.000000 0.500000
v -0.500000 1.000000 -0.500000
v -0.500000 3.000000 -0.500000
v -0.500000 1.000000 -1.000000
v -0.500000 3.000000 -1.000000
v 0.500000 1.000000 -0.500000
v 0.500000 3.000000 -0.500000
v 0.500000 1.000000 -1.000000
v 0.500000 3.000000 -1.000000
vn -0.0000 0.9910 -0.1340
vn 0.2588 -0.0000 -0.9659
vn -0.0000 -0.0000 -1.0000
vn 0.0347 0.9910 -0.1294
vn 0.5000 -0.0000 -0.8660
vn 0.0670 0.9910 -0.1160
vn 0.7071 -0.0000 -0.7071
vn 0.0947 0.9910 -0.0947
vn 0.8660 -0.0000 -0.5000
vn 0.1160 0.9910 -0.0670
vn 0.9659 -0.0000 -0.2588
vn 0.1294 0.9910 -0.0347
vn 1.0000 -0.0000 -0.0000
vn 0.1340 0.9910 -0.0000
vn 0.9659 -0.0000 0.2588
vn 0.1294 0.9910 0.0347
vn 0.8660 -0.0000 0.5000
vn 0.1160 0.9910 0.0670
vn 0.7071 -0.0000 0.7071
vn 0.0947 0.9910 0.0947
vn 0.5000 -0.0000 0.8660
vn 0.0670 0.9910 0.1160
vn 0.2588 -0.0000 0.9659
vn 0.0347 0.9910 0.1294
vn -0.0000 -0.0000 1.0000
vn -0.0000 0.9910 0.1340
vn -0.2588 -0.0000 0.9659
vn -0.0347 0.9910 0.1294
vn -0.5000 -0.0000 0.8660
vn -0.0670 0.9910 0.1160
vn -0.7071 -0.0000 0.7071
vn -0.0947 0.9910 0.0947
vn -0.8660 -0.0000 0.5000
vn -0.1160 0.9910 0.0670
vn -0.9659 -0.0000 0.2588
vn -0.1294 0.9910 0.0347
vn -1.0000 -0.0000 -0.0000
vn -0.1340 0.9910 -0.0000
vn -0.9659 -0.0000 -0.2588
vn -0.1294 0.9910 -0.0347
vn -0.8660 -0.0000 -0.5000
vn -0.1160 0.9910 -0.0670
vn -0.7071 -0.0000 -0.7071
vn -0.0947 0.9910 -0.0947
vn -0.5000 -0.0000 -0.8660
vn -0.0670 0.9910 -0.1160
vn -0.2588 -0.0000 -0.9659
vn -0.0347 0.9910 -0.1294
vn -0.0000 1.0000 -0.0000
vt 0.125000 1.000000
vt 0.083333 0.968750
vt 0.125000 0.968750
vt 0.083333 1.000000
vt 0.041667 0.968750
vt 0.041667 1.000000
vt -0.000000 0.968750
vt 0.125000 1.000000
vt 0.083333 0.968750
vt 0.125000 0.968750
vt 0.083333 1.000000
vt 0.041667 0.968750
vt 0.041667 1.000000
vt -0.000000 0.968750
vt 0.083333 0.968750
vt 0.083333 1.000000
vt -0.000000 0.968750
vt 0.083333 0.968750
vt 0.083333 1.000000
vt 0.041667 0.968750
vt 0.041667 1.000000
vt 0.000000 0.968750
vt 0.125000 1.000000
vt 0.125000 0.968750
vt 0.041667 0.968750
vt 0.041667 1.000000
vt 0.000000 0.968750
vt 0.125000 1.000000
vt 0.083333 0.968750
vt 0.125000 0.968750
vt 0.000002 0.531250
vt 0.187499 0.422999
vt 0.187499 0.639501
vt 0.083333 1.000000
vt 0.041666 0.968750
vt 0.041666 1.000000
vt -0.000000 0.968750
vt 0.343750 0.968750
vt 0.218750 1.000000
vt 0.218750 0.968750
vt 0.468750 0.937500
vt 0.343750 1.000000
vt 0.343750 0.937500
vt 0.156250 1.000000
vt 0.156250 0.968750
vt -0.000000 1.000000
vt -0.000000 1.000000
vt -0.000000 1.000000
vt 0.000000 1.000000
vt 0.000000 1.000000
vt 0.157352 0.651989
vt 0.125000 0.656248
vt 0.092648 0.651989
vt 0.062501 0.639501
vt 0.036613 0.619637
vt 0.016749 0.593749
vt 0.004261 0.563602
vt 0.004261 0.498898
vt 0.016749 0.468751
vt 0.036613 0.442863
vt 0.062501 0.422999
vt 0.092648 0.410511
vt 0.125000 0.406252
vt 0.157352 0.410511
vt 0.213387 0.442863
vt 0.233251 0.468751
vt 0.245739 0.498898
vt 0.249998 0.531250
vt 0.245739 0.563602
vt 0.233251 0.593749
vt 0.213387 0.619637
vt -0.000000 1.000000
vt 0.468750 1.000000
s 1
usemtl Material
f 10/19/7 11/20/8 9/21/9
f 12/22/10 13/23/11 11/20/8
f 14/24/12 15/25/13 13/23/11
f 16/19/14 17/20/15 15/21/13
f 18/22/16 19/23/17 17/20/15
f 20/24/18 21/25/19 19/23/17
f 22/19/20 23/20/21 21/21/19
f 24/22/22 25/23/23 23/20/21
f 26/24/24 27/25/25 25/23/23
f 28/26/26 29/27/27 27/28/25
f 30/29/28 31/30/29 29/27/27
f 32/31/30 33/32/31 31/30/29
f 34/26/32 35/33/33 33/28/31
f 36/34/34 37/23/35 35/33/33
f 38/24/36 39/35/37 37/23/35
f 40/19/38 41/36/39 39/21/37
f 42/37/40 43/38/41 41/36/39
f 44/39/42 45/40/43 43/38/41
f 46/41/44 47/36/45 45/42/43
f 48/37/46 49/43/47 47/36/45
f 50/44/48 51/45/49 49/43/47
f 52/46/50 53/47/51 51/48/49
f 46/49/44 30/50/28 14/51/12
f 54/52/52 55/53/53 53/47/51
f 56/54/54 9/55/9 55/53/53
s 0
f 58/56/43 59/57/43 57/58/43
f 60/59/9 63/60/9 59/61/9
f 64/56/19 61/57/19 63/58/19
f 62/59/31 57/60/31 61/61/31
f 60/58/55 62/62/55 64/63/55
f 66/56/43 67/57/43 65/58/43
f 68/59/9 71/60/9 67/61/9
f 72/56/19 69/57/19 71/58/19
f 70/59/31 65/60/31 69/61/31
f 68/58/55 70/62/55 72/63/55
s 1
f 10/19/7 12/22/10 11/20/8
f 12/22/10 14/24/12 13/23/11
f 14/24/12 16/64/14 15/25/13
f 16/19/14 18/22/16 17/20/15
f 18/22/16 20/24/18 19/23/17
f 20/24/18 22/64/20 21/25/19
f 22/19/20 24/22/22 23/20/21
f 24/22/22 26/24/24 25/23/23
f 26/24/24 28/64/26 27/25/25
f 28/26/26 30/29/28 29/27/27
f 30/29/28 32/31/30 31/30/29
f 32/31/30 34/65/32 33/32/31
f 34/26/32 36/34/34 35/33/33
f 36/34/34 38/24/36 37/23/35
f 38/24/36 40/66/38 39/35/37
f 40/19/38 42/37/40 41/36/39
f 42/37/40 44/39/42 43/38/41
f 44/39/42 46/67/44 45/40/43
f 46/41/44 48/37/46 47/36/45
f 48/37/46 50/44/48 49/43/47
f 50/44/48 52/68/50 51/45/49
f 52/46/50 54/52/52 53/47/51
f 14/51/12 12/69/10 10/70/7
f 10/70/7 56/71/54 54/72/52
f 54/72/52 52/73/50 50/74/48
f 50/74/48 48/75/46 46/49/44
f 46/49/44 44/76/42 42/77/40
f 42/77/40 40/78/38 38/79/36
f 38/79/36 36/80/34 34/81/32
f 34/81/32 32/82/30 30/50/28
f 30/50/28 28/83/26 26/84/24
f 26/84/24 24/85/22 22/86/20
f 22/86/20 20/87/18 18/88/16
f 18/88/16 16/89/14 14/51/12
f 14/51/12 10/70/7 54/72/52
f 54/72/52 50/74/48 46/49/44
f 46/49/44 42/77/40 38/79/36
f 38/79/36 34/81/32 30/50/28
f 30/50/28 26/84/24 22/86/20
f 22/86/20 18/88/16 14/51/12
f 14/51/12 54/72/52 46/49/44
f 46/49/44 38/79/36 30/50/28
f 30/50/28 22/86/20 14/51/12
f 54/52/52 56/54/54 55/53/53
f 56/54/54 10/90/7 9/55/9
s 0
f 58/56/43 60/60/43 59/57/43
f 60/59/9 64/91/9 63/60/9
f 64/56/19 62/60/19 61/57/19
f 62/59/31 58/91/31 57/60/31
f 60/58/55 58/57/55 62/62/55
f 66/56/43 68/60/43 67/57/43
f 68/59/9 72/91/9 71/60/9
f 72/56/19 70/60/19 69/57/19
f 70/59/31 66/91/31 65/60/31
f 68/58/55 66/57/55 70/62/55
o Barrel
v -1.000000 1.500000 0.500000
v -1.000000 2.500000 0.500000
v -1.000000 1.500000 -0.500000
v -1.000000 2.500000 -0.500000
v 1.000000 1.500000 0.500000
v 1.000000 2.500000 0.500000
v 1.000000 1.500000 -0.500000
v 1.000000 2.500000 -0.500000
v 1.000000 2.000000 -0.500000
v 5.000000 2.000000 -0.500000
v 1.000000 1.808658 -0.461940
v 5.000000 1.808658 -0.461940
v 1.000000 1.646447 -0.353553
v 5.000000 1.646446 -0.353553
v 1.000000 1.538060 -0.191342
v 5.000000 1.538060 -0.191342
v 1.000000 1.500000 0.000000
v 5.000000 1.500000 0.000000
v 1.000000 1.538060 0.191342
v 5.000000 1.538060 0.191342
v 1.000000 1.646447 0.353553
v 5.000000 1.646446 0.353553
v 1.000000 1.808658 0.461940
v 5.000000 1.808658 0.461940
v 1.000000 2.000000 0.500000
v 5.000000 2.000000 0.500000
v 1.000000 2.191342 0.461940
v 5.000000 2.191342 0.461940
v 1.000000 2.353554 0.353553
v 5.000000 2.353553 0.353553
v 1.000000 2.461940 0.191342
v 5.000000 2.461940 0.191342
v 1.000000 2.500000 0.000000
v 5.000000 2.500000 0.000000
v 1.000000 2.461940 -0.191342
v 5.000000 2.461940 -0.191342
v 1.000000 2.353554 -0.353553
v 5.000000 2.353553 -0.353553
v 1.000000 2.191342 -0.461940
v 5.000000 2.191342 -0.461940
vn -1.0000 -0.0000 -0.0000
vn -0.0000 -0.0000 -1.0000
vn 1.0000 -0.0000 -0.0000
vn -0.0000 -0.0000 1.0000
vn -0.0000 -1.0000 -0.0000
vn -0.0000 1.0000 -0.0000
vn 0.4074 -0.0000 -0.9133
vn -0.0000 -0.3827 -0.9239
vn 0.4074 -0.3495 -0.8437
vn -0.0000 -0.7071 -0.7071
vn 0.4074 -0.6458 -0.6458
vn -0.0000 -0.9239 -0.3827
vn 0.4074 -0.8437 -0.3495
vn 0.4074 -0.8437 0.3495
vn -0.0000 -0.9239 0.3827
vn -0.0000 -0.7071 0.7071
vn 0.4074 -0.6458 0.6458
vn -0.0000 -0.3827 0.9239
vn 0.4074 -0.3495 0.8437
vn 0.4074 -0.0000 0.9133
vn -0.0000 0.3827 0.9239
vn 0.4074 0.3495 0.8437
vn -0.0000 0.7071 0.7071
vn 0.4074 0.6458 0.6458
vn -0.0000 0.9239 0.3827
vn 0.4074 0.8437 0.3495
vn 0.4074 0.9133 -0.0000
vn -0.0000 0.9239 -0.3827
vn 0.4074 0.8437 -0.3495
vn -0.0000 0.7071 -0.7071
vn 0.4074 0.6458 -0.6458
vn -0.0000 0.3827 -0.9239
vn 0.4074 0.3495 -0.8437
vn 0.4074 -0.9133 -0.0000
vt 0.468750 0.875000
vt 0.406250 0.937500
vt 0.406250 0.875000
vt 0.531250 0.875000
vt 0.468750 1.000000
vt 0.531250 0.812500
vt 0.406250 0.812500
vt 1.000000 1.000000
vt 0.984375 0.750000
vt 1.000000 0.750000
vt 0.984375 1.000000
vt 0.968750 0.750000
vt 0.968750 1.000000
vt 0.953125 0.750000
vt 0.953125 1.000000
vt 0.937500 0.750000
vt 0.921875 1.000000
vt 0.921875 0.750000
vt 0.906250 0.750000
vt 0.906250 1.000000
vt 0.890625 0.750000
vt 0.890625 1.000000
vt 0.875000 0.750000
vt 0.875000 1.000000
vt 0.859375 0.750000
vt 0.859375 1.000000
vt 0.843750 0.750000
vt 0.843750 1.000000
vt 0.828125 0.750000
vt 0.828125 1.000000
vt 0.812500 0.750000
vt 0.812500 1.000000
vt 0.796875 0.750000
vt 0.796875 1.000000
vt 0.781250 0.750000
vt 0.353787 0.822537
vt 0.396213 0.822537
vt 0.396213 0.864963
vt 0.781250 1.000000
vt 0.765625 0.750000
vt 0.765625 1.000000
vt 0.750000 0.750000
vt 0.468750 0.937500
vt 0.531250 1.000000
vt 0.937500 1.000000
vt 0.386481 0.871466
vt 0.375000 0.873750
vt 0.363519 0.871466
vt 0.353787 0.864963
vt 0.347284 0.855231
vt 0.345000 0.843750
vt 0.347284 0.832269
vt 0.363519 0.816034
vt 0.375000 0.813750
vt 0.386481 0.816034
vt 0.402716 0.832269
vt 0.405000 0.843750
vt 0.402716 0.855231
vt 0.750000 1.000000
s 0
usemtl Material.002
f 74/92/56 75/93/56 73/94/56
f 76/95/57 79/96/57 75/92/57
f 80/92/58 77/93/58 79/94/58
f 78/95/59 73/96/59 77/92/59
f 79/97/60 73/94/60 75/98/60
f 76/97/61 78/94/61 80/98/61
s 1
f 82/99/62 83/100/63 81/101/57
f 84/102/64 85/103/65 83/100/63
f 86/104/66 87/105/67 85/103/65
f 88/106/68 89/107/60 87/105/67
f 89/107/60 92/108/69 91/109/70
f 92/108/69 93/110/71 91/109/70
f 94/111/72 95/112/73 93/110/71
f 96/113/74 97/114/59 95/112/73
f 98/115/75 99/116/76 97/114/59
f 100/117/77 101/118/78 99/116/76
f 102/119/79 103/120/80 101/118/78
f 104/121/81 105/122/61 103/120/80
f 106/123/82 107/124/83 105/122/61
f 108/125/84 109/126/85 107/124/83
f 102/127/79 94/128/72 86/129/66
f 110/130/86 111/131/87 109/126/85
f 112/132/88 81/133/57 111/131/87
s 0
f 74/92/56 76/134/56 75/93/56
f 76/95/57 80/135/57 79/96/57
f 80/92/58 78/134/58 77/93/58
f 78/95/59 74/135/59 73/96/59
f 79/97/60 77/95/60 73/94/60
f 76/97/61 74/95/61 78/94/61
s 1
f 82/99/62 84/102/64 83/100/63
f 84/102/64 86/104/66 85/103/65
f 86/104/66 88/106/68 87/105/67
f 88/106/68 90/136/89 89/107/60
f 89/107/60 90/136/89 92/108/69
f 92/108/69 94/111/72 93/110/71
f 94/111/72 96/113/74 95/112/73
f 96/113/74 98/115/75 97/114/59
f 98/115/75 100/117/77 99/116/76
f 100/117/77 102/119/79 101/118/78
f 102/119/79 104/121/81 103/120/80
f 104/121/81 106/123/82 105/122/61
f 106/123/82 108/125/84 107/124/83
f 108/125/84 110/130/86 109/126/85
f 86/129/66 84/137/64 82/138/62
f 82/138/62 112/139/88 110/140/86
f 110/140/86 108/141/84 106/142/82
f 106/142/82 104/143/81 102/127/79
f 102/127/79 100/144/77 98/145/75
f 98/145/75 96/146/74 94/128/72
f 94/128/72 92/147/69 90/148/89
f 90/148/89 88/149/68 86/129/66
f 86/129/66 82/138/62 110/140/86
f 110/140/86 106/142/82 102/127/79
f 102/127/79 98/145/75 94/128/72
f 94/128/72 90/148/89 86/129/66
f 86/129/66 110/140/86 102/127/79
f 110/130/86 112/132/88 111/131/87
f 112/132/88 82/150/62 81/133/57
o Cog
v 1.750000 0.500000 -2.250000
v 1.750000 0.750000 -2.250000
v 2.000000 0.500000 -2.183013
v 2.000000 0.750000 -2.183013
v 2.183013 0.500000 -2.000000
v 2.183013 0.750000 -2.000000
v 2.250000 0.500000 -1.750000
v 2.250000 0.750000 -1.750000
v 2.183013 0.500000 -1.500000
v 2.183013 0.750000 -1.500000
v 2.000000 0.500000 -1.316987
v 2.000000 0.750000 -1.316987
v 1.750000 0.500000 -1.250000
v 1.750000 0.750000 -1.250000
v 1.500000 0.500000 -1.316987
v 1.500000 0.750000 -1.316987
v 1.316987 0.500000 -1.500000
v 1.316987 0.750000 -1.500000
v 1.250000 0.500000 -1.750000
v 1.250000 0.750000 -1.750000
v 1.316987 0.500000 -2.000000
v 1.316987 0.750000 -2.000000
v 1.500000 0.500000 -2.183013
v 1.500000 0.750000 -2.183013
vn -0.0000 -0.0000 -1.0000
vn -0.0000 0.9605 -0.2783
vn 0.5000 -0.0000 -0.8660
vn 0.1392 0.9605 -0.2410
vn 0.8660 -0.0000 -0.5000
vn 0.2410 0.9605 -0.1392
vn 1.0000 -0.0000 -0.0000
vn 0.2783 0.9605 -0.0000
vn 0.8660 -0.0000 0.5000
vn 0.2410 0.9605 0.1392
vn 0.5000 -0.0000 0.8660
vn 0.1392 0.9605 0.2410
vn -0.0000 -0.0000 1.0000
vn -0.0000 0.9605 0.2783
vn -0.5000 -0.0000 0.8660
vn -0.1392 0.9605 0.2410
vn -0.8660 -0.0000 0.5000
vn -0.2410 0.9605 0.1392
vn -1.0000 -0.0000 -0.0000
vn -0.2783 0.9605 -0.0000
vn -0.8660 -0.0000 -0.5000
vn -0.2410 0.9605 -0.1392
vn -0.5000 -0.0000 -0.8660
vn -0.1392 0.9605 -0.2410
vt 0.062500 0.992188
vt 0.041667 0.976562
vt 0.062500 0.976562
vt 0.041667 0.992188
vt 0.020833 0.976562
vt 0.020833 0.992188
vt 0.000000 0.976562
vt 0.062500 0.992188
vt 0.041667 0.976562
vt 0.062500 0.976562
vt 0.041667 0.992188
vt 0.020833 0.976562
vt 0.020833 0.992188
vt -0.000000 0.976562
vt 0.020833 0.976562
vt 0.020833 0.992188
vt 0.062500 0.992188
vt 0.041667 0.976562
vt 0.062500 0.976562
vt 0.349019 0.921250
vt 0.375000 0.876250
vt 0.400981 0.921250
vt 0.041667 0.992188
vt 0.020833 0.976562
vt 0.020833 0.992188
vt 0.000000 0.976562
vt 0.000000 0.992188
vt -0.000000 0.992188
vt 0.390000 0.932231
vt 0.375000 0.936250
vt 0.360000 0.932231
vt 0.345000 0.906250
vt 0.349019 0.891250
vt 0.360000 0.880269
vt 0.390000 0.880269
vt 0.400981 0.891250
vt 0.405000 0.906250
vt 0.000000 0.992188
s 1
usemtl Material.004
f 114/151/91 115/152/92 113/153/90
f 116/154/93 117/155/94 115/152/92
f 118/156/95 119/157/96 117/155/94
f 120/158/97 121/159/98 119/160/96
f 122/161/99 123/162/100 121/159/98
f 124/163/101 125/164/102 123/162/100
f 126/151/103 127/152/104 125/153/102
f 128/154/105 129/165/106 127/152/104
f 130/166/107 131/164/108 129/165/106
f 132/167/109 133/168/110 131/169/108
f 134/170/111 126/171/103 118/172/95
f 134/173/111 135/174/112 133/168/110
f 136/175/113 113/176/90 135/174/112
f 114/151/91 116/154/93 115/152/92
f 116/154/93 118/156/95 117/155/94
f 118/156/95 120/177/97 119/157/96
f 120/158/97 122/161/99 121/159/98
f 122/161/99 124/163/101 123/162/100
f 124/163/101 126/178/103 125/164/102
f 126/151/103 128/154/105 127/152/104
f 128/154/105 130/166/107 129/165/106
f 130/166/107 132/178/109 131/164/108
f 132/167/109 134/173/111 133/168/110
f 118/172/95 116/179/93 114/180/91
f 114/180/91 136/181/113 134/170/111
f 134/170/111 132/182/109 130/183/107
f 130/183/107 128/184/105 126/171/103
f 126/171/103 124/185/101 122/186/99
f 122/186/99 120/187/97 118/172/95
f 118/172/95 114/180/91 134/170/111
f 134/170/111 130/183/107 126/171/103
f 126/171/103 122/186/99 118/172/95
f 134/173/111 136/175/113 135/174/112
f 136/175/113 114/188/91 113/176/90
