# Blender 4.2.0
# www.blender.org
mtllib paintert.mtl
o conveyor
v 0.375000 1.187500 0.500000
v 0.375000 1.187500 -0.500000
v -0.375000 1.187500 0.500000
v -0.375000 1.187500 -0.500000
v 0.375000 1.000000 -0.500000
v -0.375000 1.000000 -0.500000
v 0.375000 1.000000 0.500000
v -0.375000 1.000000 0.500000
vn -0.0000 1.0000 -0.0000
vn -0.0000 -0.0000 1.0000
vn -0.0000 -0.0000 -1.0000
vt 0.125000 1.000000
vt 0.875000 1.000000
vt 0.875000 0.937500
vt 0.125000 0.937500
vt 0.875000 0.984375
vt 0.125000 0.984375
vt 0.875000 0.953125
vt 0.125000 0.953125
s 0
usemtl m_26841053-9625-ba52-156e-cc22ad945553
f 3/1/1 1/2/1 2/3/1
f 3/1/1 2/3/1 4/4/1
f 7/2/2 1/5/2 3/6/2
f 7/2/2 3/6/2 8/1/2
f 4/7/3 2/8/3 5/4/3
f 4/7/3 5/4/3 6/3/3
o mesh
v 0.500000 1.625000 0.500000
v 0.500000 1.625000 -0.500000
v 0.500000 1.000000 0.500000
v 0.500000 1.000000 -0.500000
v 0.375000 1.625000 0.500000
v 0.375000 1.625000 -0.500000
v 0.375000 1.000000 0.500000
v 0.375000 1.000000 -0.500000
v 0.375000 1.187500 -0.500000
v 0.375000 1.187500 0.500000
v -0.375000 1.625000 0.500000
v -0.375000 1.625000 -0.500000
v -0.375000 1.000000 0.500000
v -0.375000 1.000000 -0.500000
v -0.500000 1.625000 0.500000
v -0.500000 1.625000 -0.500000
v -0.500000 1.000000 0.500000
v -0.500000 1.000000 -0.500000
v -0.375000 1.187500 0.500000
v -0.375000 1.187500 -0.500000
v 0.062500 2.000000 0.062500
v 0.062500 2.000000 -0.062500
v 0.062500 1.750000 0.062500
v 0.062500 1.750000 -0.062500
v -0.062500 2.000000 0.062500
v -0.062500 2.000000 -0.062500
v -0.062500 1.750000 0.062500
v -0.062500 1.750000 -0.062500
v 0.031250 1.750000 0.031250
v 0.031250 1.750000 -0.031250
v 0.031250 1.687500 0.031250
v 0.031250 1.687500 -0.031250
v -0.031250 1.750000 0.031250
v -0.031250 1.750000 -0.031250
v -0.031250 1.687500 0.031250
v -0.031250 1.687500 -0.031250
v 0.375000 1.625000 0.500000
v 0.375000 1.625000 0.375000
v 0.375000 1.500000 0.500000
v 0.375000 1.500000 0.375000
v -0.375000 1.625000 0.500000
v -0.375000 1.625000 0.375000
v -0.375000 1.500000 0.500000
v -0.375000 1.500000 0.375000
v 0.375000 1.625000 -0.375000
v 0.375000 1.625000 -0.500000
v 0.375000 1.500000 -0.375000
v 0.375000 1.500000 -0.500000
v -0.375000 1.625000 -0.375000
v -0.375000 1.625000 -0.500000
v -0.375000 1.500000 -0.375000
v -0.375000 1.500000 -0.500000
v 0.187500 2.000000 0.187500
v 0.187500 2.000000 -0.187500
v 0.500000 1.625000 0.500000
v 0.500000 1.625000 -0.500000
v -0.187500 2.000000 0.187500
v -0.187500 2.000000 -0.187500
v -0.500000 1.625000 0.500000
v -0.500000 1.625000 -0.500000
v 0.500000 1.000000 0.500000
v 0.500000 1.000000 -0.500000
v 0.500000 0.000000 0.500000
v 0.500000 -0.000000 -0.500000
v -0.500000 1.000000 0.500000
v -0.500000 1.000000 -0.500000
v -0.500000 0.000000 0.500000
v -0.500000 -0.000000 -0.500000
v 0.500000 0.875000 0.375000
v 0.500000 0.000000 0.375000
v 0.500000 0.875000 -0.375000
v 0.500000 -0.000000 -0.375000
v 0.437500 0.875000 0.375000
v 0.437500 0.000000 0.375000
v 0.437500 0.875000 -0.375000
v 0.437500 -0.000000 -0.375000
v 0.375000 0.875000 0.500000
v -0.375000 0.875000 0.500000
v 0.375000 0.875000 0.437500
v -0.375000 0.875000 0.437500
v 0.375000 0.000000 0.437500
v -0.375000 0.000000 0.437500
v -0.500000 0.875000 0.375000
v -0.500000 0.875000 -0.375000
v -0.500000 0.000000 0.375000
v -0.500000 -0.000000 -0.375000
v -0.437500 0.875000 0.375000
v -0.437500 0.875000 -0.375000
v -0.437500 0.000000 0.375000
v -0.437500 -0.000000 -0.375000
v 0.375000 0.875000 -0.500000
v -0.375000 0.875000 -0.500000
v 0.375000 0.875000 -0.437500
v -0.375000 0.875000 -0.437500
v 0.375000 -0.000000 -0.500000
v 0.375000 0.000000 0.500000
v -0.375000 -0.000000 -0.500000
v -0.375000 0.000000 0.500000
v 0.375000 0.000000 0.375000
v 0.375000 -0.000000 -0.375000
v -0.375000 -0.000000 -0.375000
v -0.375000 0.000000 0.375000
v -0.375000 -0.000000 -0.437500
v 0.375000 -0.000000 -0.437500
v 0.187500 0.687500 -0.500000
v 0.187500 0.312500 -0.500000
v -0.187500 0.687500 -0.500000
v -0.187500 0.312500 -0.500000
v 0.187500 0.687500 -0.437500
v -0.187500 0.687500 -0.437500
v 0.187500 0.312500 -0.437500
v -0.187500 0.312500 -0.437500
v -0.500000 0.687500 -0.187500
v -0.500000 0.312500 -0.187500
v -0.500000 0.687500 0.187500
v -0.500000 0.312500 0.187500
v -0.437500 0.687500 -0.187500
v -0.437500 0.687500 0.187500
v -0.437500 0.312500 -0.187500
v -0.437500 0.312500 0.187500
v -0.187500 0.687500 0.500000
v -0.187500 0.312500 0.500000
v 0.187500 0.687500 0.500000
v 0.187500 0.312500 0.500000
v -0.187500 0.687500 0.437500
v 0.187500 0.687500 0.437500
v -0.187500 0.312500 0.437500
v 0.187500 0.312500 0.437500
v 0.500000 0.687500 0.187500
v 0.500000 0.312500 0.187500
v 0.500000 0.687500 -0.187500
v 0.500000 0.312500 -0.187500
v 0.437500 0.687500 0.187500
v 0.437500 0.687500 -0.187500
v 0.437500 0.312500 0.187500
v 0.437500 0.312500 -0.187500
vn 1.0000 -0.0000 -0.0000
vn -0.0000 1.0000 -0.0000
vn -0.0000 -0.0000 1.0000
vn -0.0000 -0.0000 -1.0000
vn -1.0000 -0.0000 -0.0000
vn -0.0000 -1.0000 -0.0000
vn 0.7682 0.6402 -0.0000
vn -0.7682 0.6402 -0.0000
vn -0.0000 0.6402 0.7682
vn -0.0000 0.6402 -0.7682
vt 1.000000 0.656250
vt 0.500000 0.656250
vt 0.500000 0.500000
vt 1.000000 0.500000
vt 0.500000 0.687500
vt 1.000000 0.687500
vt 0.375000 0.906250
vt 0.375000 0.750000
vt 0.437500 0.750000
vt 0.437500 0.906250
vt 0.250000 0.750000
vt 0.312500 0.750000
vt 0.312500 0.906250
vt 0.250000 0.906250
vt 0.500000 0.390625
vt 1.000000 0.390625
vt 0.500000 0.359375
vt 1.000000 0.359375
vt 0.468750 0.484375
vt 0.406250 0.484375
vt 0.406250 0.421875
vt 0.468750 0.421875
vt 0.468750 0.390625
vt 0.406250 0.390625
vt 0.531250 0.343750
vt 0.500000 0.343750
vt 0.500000 0.328125
vt 0.531250 0.328125
vt 0.531250 0.296875
vt 0.531250 0.312500
vt 0.500000 0.312500
vt 0.500000 0.296875
vt 0.562500 0.312500
vt 0.562500 0.328125
vt 0.468750 0.328125
vt 0.468750 0.312500
vt 0.968750 0.328125
vt 0.593750 0.328125
vt 0.593750 0.296875
vt 0.968750 0.296875
vt 0.562500 0.718750
vt 0.562500 0.687500
vt 0.937500 0.687500
vt 0.937500 0.718750
vt 0.968750 0.359375
vt 0.593750 0.359375
vt 0.000000 0.921875
vt 0.000000 0.828125
vt 0.187500 0.750000
vt 0.187500 1.000000
vt 0.437500 1.000000
vt 0.250000 1.000000
vt 0.906250 0.953125
vt 0.531250 0.953125
vt 0.531250 0.734375
vt 0.906250 0.734375
vt 0.531250 0.968750
vt 0.906250 0.968750
vt 0.968750 1.000000
vt 0.468750 1.000000
vt 0.500000 0.750000
vt 0.500000 0.968750
vt 0.937500 0.968750
vt 0.937500 0.750000
vt 1.000000 0.750000
vt 1.000000 1.000000
vt 0.500000 0.953125
vt 0.500000 0.734375
vt 0.937500 0.734375
vt 0.937500 0.953125
vt 0.500000 0.531250
vt 0.437500 0.531250
vt 0.437500 0.500000
vt 0.437500 0.718750
vt 0.500000 0.718750
vt 0.000000 0.500000
vt 0.062500 0.500000
vt 0.062500 0.531250
vt 0.000000 0.531250
vt 0.000000 0.718750
vt 0.062500 0.718750
vt 0.062500 0.750000
vt 0.000000 0.750000
vt 0.468750 0.718750
vt 0.468750 0.531250
vt 0.031250 0.531250
vt 0.031250 0.718750
vt 0.062500 0.734375
vt 0.062500 0.515625
vt 0.437500 0.515625
vt 0.437500 0.734375
vt 0.343750 0.468750
vt 0.156250 0.468750
vt 0.156250 0.375000
vt 0.343750 0.375000
vt 0.375000 0.375000
vt 0.375000 0.468750
vt 0.343750 0.484375
vt 0.156250 0.484375
vt 0.125000 0.468750
vt 0.125000 0.375000
vt 0.156250 0.359375
vt 0.343750 0.359375
s 0
usemtl m_b3508613-89fd-39a2-8f8f-28c6f63281f4.001
f 10/9/4 9/10/4 11/11/4
f 10/9/4 11/11/4 12/12/4
f 13/13/5 9/10/5 10/9/5
f 13/13/5 10/9/5 14/14/5
f 11/15/6 9/16/6 13/17/6
f 11/15/6 13/17/6 15/18/6
f 14/19/7 10/20/7 12/21/7
f 14/19/7 12/21/7 16/22/7
f 14/11/8 17/23/8 18/24/8
f 14/11/8 18/24/8 13/12/8
f 25/12/8 23/9/8 24/10/8
f 25/12/8 24/10/8 26/11/8
f 23/23/5 19/25/5 20/26/5
f 23/23/5 20/26/5 24/24/5
f 21/22/6 19/19/6 23/20/6
f 21/22/6 23/20/6 25/21/6
f 24/16/7 20/17/7 22/18/7
f 24/16/7 22/18/7 26/15/7
f 19/11/4 27/23/4 28/24/4
f 19/11/4 28/24/4 20/12/4
f 30/27/4 29/28/4 31/29/4
f 30/27/4 31/29/4 32/30/4
f 35/30/8 33/27/8 34/28/8
f 35/30/8 34/28/8 36/29/8
f 32/31/9 31/30/9 35/29/9
f 32/31/9 35/29/9 36/32/9
f 31/30/6 29/27/6 33/28/6
f 31/30/6 33/28/6 35/29/6
f 34/27/7 30/28/7 32/29/7
f 34/27/7 32/29/7 36/30/7
f 38/33/4 37/34/4 39/35/4
f 38/33/4 39/35/4 40/36/4
f 43/37/8 41/38/8 42/39/8
f 43/37/8 42/39/8 44/40/8
f 40/38/9 39/36/9 43/35/9
f 40/38/9 43/35/9 44/39/9
f 39/41/6 37/42/6 41/36/6
f 39/41/6 41/36/6 43/38/6
f 42/35/7 38/43/7 40/44/7
f 42/35/7 40/44/7 44/39/7
f 49/45/5 45/46/5 46/47/5
f 49/45/5 46/47/5 50/48/5
f 48/49/9 47/50/9 51/51/9
f 48/49/9 51/51/9 52/52/9
f 47/49/6 45/50/6 49/51/6
f 47/49/6 49/51/6 51/52/6
f 50/50/7 46/51/7 48/52/7
f 50/50/7 48/52/7 52/49/7
f 57/46/5 53/45/5 54/53/5
f 57/46/5 54/53/5 58/54/5
f 56/51/9 55/52/9 59/49/9
f 56/51/9 59/49/9 60/50/9
f 55/52/6 53/51/6 57/50/6
f 55/52/6 57/50/6 59/49/6
f 58/51/7 54/50/7 56/49/7
f 58/51/7 56/49/7 60/52/7
f 62/55/10 61/56/10 63/57/10
f 62/55/10 63/57/10 64/58/10
f 67/58/11 65/55/11 66/56/11
f 67/58/11 66/56/11 68/57/11
f 65/22/5 61/18/5 62/59/5
f 65/22/5 62/59/5 66/60/5
f 63/58/12 61/55/12 65/56/12
f 63/58/12 65/56/12 67/57/12
f 66/55/13 62/56/13 64/57/13
f 66/55/13 64/57/13 68/58/13
f 83/61/4 81/62/4 82/63/4
f 83/61/4 82/63/4 84/64/4
f 97/64/8 95/61/8 96/62/8
f 97/64/8 96/62/8 98/63/8
f 89/64/6 87/61/6 88/62/6
f 89/64/6 88/62/6 90/63/6
f 102/61/7 101/62/7 112/63/7
f 102/61/7 112/63/7 111/64/7
f 77/65/4 79/66/4 70/67/4
f 77/65/4 70/67/4 69/68/4
f 78/69/4 77/70/4 69/59/4
f 78/69/4 69/59/4 71/17/4
f 79/71/4 80/72/4 72/73/4
f 79/71/4 72/73/4 70/74/4
f 81/66/9 83/65/9 79/62/9
f 81/66/9 79/62/9 77/61/9
f 82/63/7 81/62/7 77/75/7
f 82/63/7 77/75/7 78/76/7
f 83/61/6 84/64/6 80/77/6
f 83/61/6 80/77/6 79/78/6
f 85/71/6 104/72/6 71/73/6
f 85/71/6 71/73/6 69/74/6
f 86/65/6 85/66/6 69/67/6
f 86/65/6 69/67/6 73/68/6
f 106/69/6 86/70/6 73/59/6
f 106/69/6 73/59/6 75/17/6
f 87/61/8 89/64/8 104/77/8
f 87/61/8 104/77/8 85/78/8
f 88/62/9 87/61/9 85/66/9
f 88/62/9 85/66/9 86/65/9
f 90/63/4 88/62/4 86/75/4
f 90/63/4 86/75/4 106/76/4
f 91/71/8 93/72/8 75/73/8
f 91/71/8 75/73/8 73/74/8
f 92/65/8 91/66/8 73/67/8
f 92/65/8 73/67/8 74/68/8
f 94/69/8 92/70/8 74/59/8
f 94/69/8 74/59/8 76/17/8
f 95/61/7 97/64/7 93/77/7
f 95/61/7 93/77/7 91/78/7
f 96/62/9 95/61/9 91/66/9
f 96/62/9 91/66/9 92/65/9
f 98/63/6 96/62/6 92/75/6
f 98/63/6 92/75/6 94/76/6
f 99/65/7 100/66/7 74/67/7
f 99/65/7 74/67/7 70/68/7
f 103/69/7 99/70/7 70/59/7
f 103/69/7 70/59/7 72/17/7
f 100/71/7 105/72/7 76/73/7
f 100/71/7 76/73/7 74/74/7
f 101/66/9 102/65/9 100/62/9
f 101/66/9 100/62/9 99/61/9
f 112/63/8 101/62/8 99/75/8
f 112/63/8 99/75/8 103/76/8
f 102/61/4 111/64/4 105/77/4
f 102/61/4 105/77/4 100/78/4
f 80/79/9 108/80/9 103/81/9
f 80/79/9 103/81/9 72/11/9
f 71/69/9 104/17/9 107/82/9
f 71/69/9 107/82/9 78/83/9
f 76/84/9 105/85/9 109/86/9
f 76/84/9 109/86/9 94/87/9
f 93/88/9 110/89/9 106/90/9
f 93/88/9 106/90/9 75/91/9
f 82/92/9 107/82/9 108/80/9
f 82/92/9 108/80/9 84/93/9
f 98/94/9 109/86/9 110/89/9
f 98/94/9 110/89/9 97/95/9
f 90/96/9 111/97/9 112/98/9
f 90/96/9 112/98/9 89/99/9
f 115/100/7 113/101/7 114/102/7
f 115/100/7 114/102/7 116/103/7
f 117/100/4 119/103/4 114/104/4
f 117/100/4 114/104/4 113/105/4
f 118/101/5 117/100/5 113/106/5
f 118/101/5 113/106/5 115/107/5
f 120/102/8 118/101/8 115/108/8
f 120/102/8 115/108/8 116/109/8
f 119/103/9 120/102/9 116/110/9
f 119/103/9 116/110/9 114/111/9
f 123/100/8 121/101/8 122/102/8
f 123/100/8 122/102/8 124/103/8
f 125/100/7 127/103/7 122/104/7
f 125/100/7 122/104/7 121/105/7
f 126/101/5 125/100/5 121/106/5
f 126/101/5 121/106/5 123/107/5
f 128/102/6 126/101/6 123/108/6
f 128/102/6 123/108/6 124/109/6
f 127/103/9 128/102/9 124/110/9
f 127/103/9 124/110/9 122/111/9
f 131/100/6 129/101/6 130/102/6
f 131/100/6 130/102/6 132/103/6
f 133/100/8 135/103/8 130/104/8
f 133/100/8 130/104/8 129/105/8
f 134/101/5 133/100/5 129/106/5
f 134/101/5 129/106/5 131/107/5
f 136/102/4 134/101/4 131/108/4
f 136/102/4 131/108/4 132/109/4
f 135/103/9 136/102/9 132/110/9
f 135/103/9 132/110/9 130/111/9
f 139/100/4 137/101/4 138/102/4
f 139/100/4 138/102/4 140/103/4
f 141/100/6 143/103/6 138/104/6
f 141/100/6 138/104/6 137/105/6
f 142/101/5 141/100/5 137/106/5
f 142/101/5 137/106/5 139/107/5
f 144/102/7 142/101/7 139/108/7
f 144/102/7 139/108/7 140/109/7
f 143/103/9 144/102/9 140/110/9
f 143/103/9 140/110/9 138/111/9
