# Blender 5.0.1
# www.blender.org
mtllib Untitled.mtl
o flap
v 0.106694 1.294194 -0.062500
v 0.106694 1.294194 -0.312500
v 0.062500 1.250000 -0.062500
v 0.062500 1.250000 -0.312500
vn -0.7071 0.7071 -0.0000
vt 0.875000 0.475000
vt 0.925000 0.475000
vt 0.925000 0.487500
vt 0.875000 0.487500
s 1
usemtl m_123c5fea-2662-31a7-d9f6-006eda25ab36
f 1/1/1 2/2/1 4/3/1
f 1/1/1 4/3/1 3/4/1
o sloppy_disk
v 0.175000 0.875000 -0.000000
v 0.175000 0.875000 -0.250000
v 0.425000 0.875000 -0.000000
v 0.425000 0.875000 -0.250000
v 0.425000 0.937500 -0.250000
v 0.425000 0.937500 -0.000000
v 0.175000 0.937500 -0.000000
v 0.175000 0.937500 -0.250000
v -0.500000 0.000000 1.500000
v 0.500000 0.000000 1.500000
v 0.500000 0.625000 1.125000
v 0.125000 1.000000 1.125000
v 0.125000 0.625000 1.125000
v 0.125000 0.625000 0.250000
v 0.500000 0.625000 0.250000
v 0.125000 1.000000 0.250000
v 0.500000 0.625000 -0.500000
v 0.125000 1.000000 -0.500000
v 0.500000 -0.000000 -0.500000
v -0.500000 -0.000000 -0.500000
v -0.500000 1.000000 -0.500000
v 0.500000 0.625000 1.500000
v 0.125000 1.000000 1.500000
v -0.500000 0.625000 1.500000
v -0.500000 1.000000 1.500000
v 0.125000 0.750000 -0.375000
v 0.125000 0.750000 0.125000
v 0.500000 0.625000 0.125000
v 0.500000 0.625000 -0.375000
v 0.125000 1.000000 0.125000
v 0.375000 0.750000 0.125000
v 0.375000 0.750000 -0.375000
v 0.125000 1.000000 -0.375000
v 0.062500 1.375000 0.312500
v 0.062500 1.375000 -0.437500
v 0.062500 1.000000 0.312500
v 0.062500 1.000000 -0.437500
v -0.437500 1.375000 0.312500
v -0.437500 1.375000 -0.437500
v -0.437500 1.000000 0.312500
v -0.437500 1.000000 -0.437500
v 0.062500 1.250000 -0.062500
v 0.062500 1.187500 -0.062500
v 0.062500 1.250000 -0.312500
v 0.062500 1.187500 -0.312500
v -0.187500 1.250000 -0.062500
v -0.187500 1.187500 -0.062500
v -0.187500 1.250000 -0.312500
v -0.187500 1.187500 -0.312500
v 0.062500 1.812500 1.312500
v 0.062500 1.312500 1.375000
v 0.062500 1.375000 1.312500
v 0.000000 1.812500 1.312500
v 0.062500 1.375000 0.437500
v 0.000000 1.375000 1.312500
v 0.062500 1.312500 0.375000
v 0.062500 1.750000 1.250000
v 0.062500 1.437500 1.250000
v 0.000000 1.375000 0.437500
v 0.062500 1.437500 0.500000
v 0.000000 1.812500 0.437500
v 0.062500 1.750000 0.500000
v 0.062500 1.812500 0.437500
v 0.062500 1.875000 0.375000
v 0.062500 1.875000 1.375000
v -0.312500 1.875000 0.375000
v -0.312500 1.312500 0.375000
v -0.312500 1.875000 1.375000
v -0.312500 1.312500 1.375000
v -0.312500 1.812500 1.250000
v -0.312500 1.812500 0.500000
v -0.312500 1.312500 1.250000
v -0.500000 1.750000 1.250000
v -0.500000 1.312500 1.250000
v -0.500000 1.312500 0.500000
v -0.312500 1.312500 0.500000
v -0.500000 1.750000 0.500000
v -0.500000 1.000000 0.500000
v 0.125000 1.000000 1.250000
v -0.500000 1.000000 1.250000
v 0.125000 1.187500 1.250000
v 0.125000 1.187500 0.500000
v 0.125000 1.000000 0.500000
v -0.500000 1.187500 0.500000
v -0.500000 1.187500 1.250000
v -0.312500 1.312500 0.875000
v -0.250000 1.250000 0.766747
v -0.312500 1.250000 0.875000
v -0.250000 1.312500 0.983253
v -0.250000 1.250000 0.983253
v -0.125000 1.312500 0.983253
v -0.125000 1.250000 0.983253
v -0.062500 1.312500 0.875000
v -0.062500 1.250000 0.875000
v -0.125000 1.312500 0.766747
v -0.125000 1.250000 0.766747
v -0.250000 1.312500 0.766747
v 0.000000 1.250000 1.125000
v -0.437500 1.187500 1.187500
v 0.062500 1.187500 1.187500
v 0.000000 1.250000 0.625000
v 0.062500 1.187500 0.562500
v -0.375000 1.250000 0.625000
v -0.437500 1.187500 0.562500
v -0.375000 1.250000 1.125000
v -0.125000 1.062500 0.375000
v -0.125000 1.062500 0.312500
v -0.125000 1.000000 0.312500
v -0.187500 1.062500 0.375000
v -0.187500 1.062500 0.312500
v -0.187500 1.000000 0.375000
v -0.187500 1.000000 0.312500
v -0.125000 1.062500 0.437500
v -0.125000 1.000000 0.437500
v -0.250000 1.062500 0.375000
v -0.250000 1.062500 0.437500
v -0.250000 1.000000 0.437500
v -0.312500 1.000000 0.375000
v -0.312500 1.062500 0.375000
v -0.312500 1.062500 0.500000
v -0.312500 1.000000 0.500000
v -0.250000 1.062500 0.500000
v -0.250000 1.000000 0.500000
v 0.163408 0.750000 -0.030018
v 0.217518 0.750000 -0.274092
v 0.407482 0.750000 0.024092
v 0.461592 0.750000 -0.219982
v 0.461592 0.812500 -0.219982
v 0.407482 0.812500 0.024092
v 0.163408 0.812500 -0.030018
v 0.217518 0.812500 -0.274092
v 0.193071 0.812500 0.005333
v 0.182167 0.812500 -0.244429
v 0.442833 0.812500 -0.005571
v 0.431929 0.812500 -0.255334
v 0.431929 0.875000 -0.255334
v 0.442833 0.875000 -0.005571
v 0.193071 0.875000 0.005333
v 0.182167 0.875000 -0.244429
vn 0.5773 -0.5774 0.5773
vn 0.5773 -0.5774 -0.5773
vn 0.5773 0.5774 -0.5773
vn 0.5773 0.5774 0.5773
vn -0.5774 -0.5774 -0.5773
vn -0.5773 0.5774 -0.5773
vn -0.5774 0.5774 0.5773
vn -0.5773 -0.5774 0.5773
vn 0.5773 0.5774 -0.5774
vn 0.8125 0.3366 -0.4759
vn 0.2380 0.9111 -0.3365
vn 0.4083 0.8165 0.4083
vn 0.3366 0.8125 0.4759
vn 0.8125 0.3366 0.4759
vn -0.3015 -0.3015 -0.9045
vn 0.2596 0.6270 -0.7345
vn 0.6270 0.2597 -0.7345
vn 0.5774 -0.5774 -0.5774
vn -0.5773 0.5774 -0.5774
vn -0.5774 0.5773 0.5773
vn 0.3365 0.8125 0.4760
vn -0.5773 -0.5774 0.5774
vn 0.5773 -0.5773 0.5774
vn 0.6270 0.2597 0.7345
vn -0.0000 -0.0000 1.0000
vn 0.7071 0.7071 -0.0000
vn 0.8125 0.3365 -0.4760
vn 0.8125 0.3365 0.4760
vn 0.5773 0.5774 0.5774
vn 0.5774 0.5773 -0.5774
vn 0.3366 0.8125 -0.4759
vn -0.7071 -0.0000 0.7071
vn -0.5773 0.5773 0.5774
vn -0.5773 0.5773 -0.5774
vn -0.7071 -0.0000 -0.7071
vn 0.8165 0.4083 0.4082
vn 0.8165 0.4083 -0.4083
vn 0.8944 -0.0000 0.4472
vn 0.8944 0.0002 -0.4472
vn 0.8165 -0.4082 -0.4082
vn 0.8165 -0.4082 0.4083
vn 0.8165 0.4082 -0.4082
vn 0.8165 0.4082 0.4082
vn 0.9597 0.1988 -0.1988
vn 0.9597 -0.1987 -0.1988
vn 0.9239 -0.2706 0.2706
vn 0.9597 0.1988 0.1988
vn 0.9239 -0.2706 -0.2706
vn 0.9597 -0.1988 0.1988
vn 0.9239 0.2706 -0.2706
vn 0.8165 -0.4082 0.4082
vn -0.8165 0.4084 -0.4082
vn 0.8165 0.4082 -0.4083
vn 0.8165 -0.4083 -0.4083
vn -0.5773 -0.5773 -0.5774
vn -0.8165 0.4084 0.4082
vn 0.8165 0.4083 0.4083
vn -0.8594 0.3520 0.3710
vn -0.5774 -0.5773 0.5773
vn -0.8594 0.3520 -0.3710
vn -0.6906 0.4978 -0.5247
vn -0.6906 0.4978 0.5247
vn -0.5774 -0.5773 -0.5774
vn -0.5774 -0.5774 0.5774
vn 0.5774 0.5774 0.5773
vn -0.5773 0.5774 0.5773
vn 0.7071 -0.0000 0.7071
vn 0.7071 -0.0000 -0.7071
vn -0.5774 0.5774 -0.5773
vn -1.0000 -0.0000 -0.0000
vn -0.5000 -0.0000 -0.8660
vn -0.5000 -0.0000 0.8660
vn 0.5000 -0.0000 0.8660
vn 1.0000 -0.0000 -0.0000
vn 0.5000 -0.0000 -0.8660
vn 0.2706 0.9239 0.2706
vn -0.2706 0.9239 0.2706
vn -0.4083 0.8165 0.4082
vn 0.4082 0.8165 0.4082
vn 0.2706 0.9239 -0.2706
vn 0.4083 0.8165 -0.4082
vn -0.2706 0.9239 -0.2706
vn -0.4082 0.8165 -0.4082
vn 0.9239 0.2706 0.2706
vn -0.7071 0.7071 -0.0000
vn -0.0000 1.0000 -0.0000
vn 0.5774 0.5773 0.5773
vn 0.5774 0.5774 0.5774
vn -0.5774 0.5773 -0.5773
vn 0.4387 -0.5774 0.6886
vn 0.6886 -0.5774 -0.4387
vn 0.6886 0.5774 -0.4387
vn 0.4387 0.5774 0.6886
vn -0.4387 -0.5774 -0.6886
vn -0.4387 0.5774 -0.6886
vn -0.6886 0.5774 0.4387
vn -0.6886 -0.5774 0.4387
vn 0.6020 -0.5774 0.5516
vn 0.5516 -0.5774 -0.6020
vn 0.5516 0.5774 -0.6020
vn 0.6020 0.5774 0.5516
vn -0.6020 -0.5774 -0.5516
vn -0.6020 0.5774 -0.5516
vn -0.5516 0.5774 0.6020
vn -0.5516 -0.5774 0.6020
vt 0.875000 0.337500
vt 0.925000 0.337500
vt 0.925000 0.350000
vt 0.875000 0.350000
vt 0.825000 0.350000
vt 0.825000 0.337500
vt 0.975000 0.337500
vt 0.975000 0.350000
vt 0.925000 0.400000
vt 0.925000 0.412500
vt 0.875000 0.412500
vt 0.875000 0.400000
vt 0.925000 0.287500
vt 0.875000 0.287500
vt 0.400000 0.600000
vt 0.475000 0.600000
vt 0.400000 0.675000
vt 0.550000 0.600000
vt 0.550000 0.675000
vt 0.475000 0.400000
vt 0.650000 0.475000
vt 0.475000 0.475000
vt 0.800000 0.200000
vt 0.675000 0.400000
vt 0.600000 0.325000
vt 0.650000 0.400000
vt 0.600000 0.200000
vt 0.800000 0.400000
vt 0.400000 0.475000
vt 0.800000 0.475000
vt 0.800000 0.600000
vt 0.400000 0.400000
vt 0.000000 0.400000
vt 0.000000 0.600000
vt 0.000000 0.800000
vt 0.400000 0.800000
vt 0.000000 0.325000
vt 0.075000 0.325000
vt 0.075000 0.400000
vt 0.250000 0.400000
vt 0.250000 0.325000
vt 0.000000 0.200000
vt 0.400000 0.200000
vt 0.400000 0.325000
vt 0.525000 0.400000
vt 0.275000 0.325000
vt 0.275000 0.400000
vt 0.375000 0.400000
vt 0.375000 0.325000
vt 0.762500 0.412500
vt 0.762500 0.462500
vt 0.662500 0.462500
vt 0.662500 0.412500
vt 0.375000 0.350000
vt 0.275000 0.350000
vt 0.425000 0.475000
vt 0.475000 0.425000
vt 0.450000 0.400000
vt 0.400000 0.450000
vt 0.950000 0.800000
vt 0.900000 0.800000
vt 0.900000 0.787500
vt 0.950000 0.787500
vt 0.975000 0.925000
vt 0.975000 1.000000
vt 0.825000 1.000000
vt 0.825000 0.925000
vt 0.825000 0.825000
vt 0.975000 0.825000
vt 0.950000 0.675000
vt 0.950000 0.750000
vt 0.850000 0.750000
vt 0.850000 0.675000
vt 0.850000 0.600000
vt 0.950000 0.600000
vt 0.825000 0.750000
vt 0.975000 0.750000
vt 0.925000 0.550000
vt 0.875000 0.550000
vt 0.875000 0.500000
vt 0.925000 0.500000
vt 0.862500 0.550000
vt 0.875000 0.600000
vt 0.862500 0.600000
vt 0.925000 0.600000
vt 0.937500 0.600000
vt 0.937500 0.550000
vt 0.600000 0.825000
vt 0.612500 0.825000
vt 0.612500 0.912500
vt 0.600000 0.912500
vt 0.625000 0.837500
vt 0.787500 0.825000
vt 0.775000 0.837500
vt 0.787500 0.912500
vt 0.775000 0.900000
vt 0.787500 0.925000
vt 0.612500 0.925000
vt 0.525000 0.925000
vt 0.450000 0.925000
vt 0.450000 0.812500
vt 0.525000 0.812500
vt 0.600000 1.000000
vt 0.600000 0.925000
vt 0.800000 0.925000
vt 0.800000 1.000000
vt 0.600000 0.812500
vt 0.187500 0.975000
vt 0.187500 0.875000
vt 0.212500 0.875000
vt 0.212500 0.987500
vt 0.012500 0.987500
vt 0.037500 0.975000
vt 0.250000 0.975000
vt 0.250000 0.937500
vt 0.400000 0.937500
vt 0.400000 0.975000
vt 0.250000 0.850000
vt 0.400000 0.850000
vt 0.212500 0.850000
vt 0.212500 0.950000
vt 0.400000 0.812500
vt 0.250000 0.812500
vt 0.012500 0.875000
vt 0.037500 0.875000
vt 0.600000 0.737500
vt 0.800000 0.737500
vt 0.800000 0.812500
vt 0.800000 0.725000
vt 0.675000 0.725000
vt 0.675000 0.687500
vt 0.800000 0.687500
vt 0.650000 0.687500
vt 0.650000 0.650000
vt 0.800000 0.650000
vt 0.550000 0.725000
vt 0.550000 0.687500
vt 0.400000 0.687500
vt 0.550000 0.812500
vt 0.650000 0.612500
vt 0.800000 0.612500
vt 0.162500 0.875000
vt 0.137500 0.875000
vt 0.137500 0.862500
vt 0.162500 0.862500
vt 0.187500 0.862500
vt 0.062500 0.875000
vt 0.037500 0.862500
vt 0.062500 0.862500
vt 0.087500 0.875000
vt 0.087500 0.862500
vt 0.112500 0.875000
vt 0.112500 0.862500
vt 0.062500 0.887500
vt 0.062500 0.962500
vt 0.050000 0.975000
vt 0.050000 0.875000
vt 0.162500 0.887500
vt 0.175000 0.875000
vt 0.162500 0.962500
vt 0.175000 0.975000
vt 0.612500 0.812500
vt 0.787500 0.812500
vt 0.625000 0.900000
vt 0.800000 0.825000
vt 0.800000 0.912500
vt 0.437500 0.850000
vt 0.437500 0.950000
vt 0.912500 0.425000
vt 0.912500 0.437500
vt 0.900000 0.437500
vt 0.900000 0.425000
vt 0.887500 0.425000
vt 0.887500 0.437500
vt 0.887500 0.450000
vt 0.875000 0.450000
vt 0.875000 0.425000
vt 0.912500 0.450000
vt 0.875000 0.462500
vt 0.900000 0.462500
vt 0.900000 0.450000
vt 0.937500 0.425000
vt 0.937500 0.437500
vt 0.912500 0.462500
vt 0.925000 0.462500
vt 0.925000 0.437500
vt 0.937500 0.462500
s 1
usemtl m_123c5fea-2662-31a7-d9f6-006eda25ab36
f 7/5/2 8/6/3 9/7/4
f 7/5/2 9/7/4 10/8/5
f 9/9/4 8/10/3 6/5/6
f 9/9/4 6/5/6 12/8/7
f 7/11/2 10/12/5 11/7/8
f 7/11/2 11/7/8 5/6/9
f 5/13/9 11/14/8 12/15/7
f 5/13/9 12/15/7 6/16/6
f 10/17/5 9/6/4 12/5/7
f 10/17/5 12/5/7 11/18/8
f 8/8/3 7/7/2 5/13/9
f 8/8/3 5/13/9 6/16/6
f 17/19/10 16/20/11 15/21/12
f 18/22/13 19/20/14 20/23/15
f 15/24/12 18/25/13 17/26/10
f 24/27/16 22/28/17 21/29/18
f 15/24/12 19/30/14 18/25/13
f 21/29/18 23/31/19 24/27/16
f 24/27/16 25/32/20 22/28/17
f 29/19/21 27/33/22 22/34/17
f 29/19/21 22/34/17 25/35/20
f 25/19/20 24/36/16 13/37/23
f 25/19/20 13/37/23 29/38/21
f 14/38/24 13/39/23 24/40/16
f 14/38/24 24/40/16 23/19/19
f 26/41/25 15/42/12 16/43/11
f 26/41/25 16/43/11 27/37/22
f 20/44/15 16/43/11 17/42/10
f 20/44/15 17/42/10 18/45/13
f 14/46/24 23/47/19 21/48/18
f 14/46/24 21/48/18 26/41/25
f 14/31/24 26/29/25 28/48/26
f 14/31/24 28/48/26 13/47/23
f 26/29/25 27/49/22 29/36/21
f 26/29/25 29/36/21 28/48/26
f 19/45/14 32/50/27 34/51/28
f 19/45/14 34/51/28 20/44/15
f 22/36/17 37/52/29 33/53/27
f 22/36/17 33/53/27 21/48/18
f 36/54/14 30/55/30 31/56/31
f 36/54/14 31/56/31 35/57/32
f 30/58/30 37/52/29 34/51/28
f 30/58/30 34/51/28 31/59/31
f 35/59/32 32/50/27 33/53/27
f 35/59/32 33/53/27 36/58/14
f 34/60/28 35/61/32 31/26/31
f 36/62/14 37/63/29 30/36/30
f 52/64/2 50/65/3 51/66/4
f 52/64/2 51/66/4 53/67/5
f 44/68/33 42/69/34 43/70/35
f 44/68/33 43/70/35 45/71/36
f 42/71/34 38/72/37 39/73/38
f 42/71/34 39/73/38 43/68/35
f 40/74/39 38/75/37 42/76/34
f 40/74/39 42/76/34 44/77/33
f 43/74/35 39/77/38 41/78/40
f 43/74/35 41/78/40 45/79/36
f 46/65/41 48/64/42 39/73/38
f 46/65/41 39/73/38 38/72/37
f 47/66/43 46/65/41 38/72/37
f 47/66/43 38/72/37 40/80/39
f 49/67/44 47/66/43 40/80/39
f 49/67/44 40/80/39 41/81/40
f 48/64/42 49/67/44 41/81/40
f 48/64/42 41/81/40 39/73/38
f 50/82/3 52/83/2 48/84/42
f 50/82/3 48/84/42 46/85/41
f 51/86/4 50/83/3 46/87/41
f 51/86/4 46/87/41 47/88/43
f 53/87/5 51/83/4 47/82/43
f 53/87/5 47/82/43 49/89/44
f 52/90/2 53/89/5 49/82/44
f 52/90/2 49/82/44 48/91/42
f 56/92/43 59/93/45 57/94/46
f 56/92/43 57/94/46 54/95/41
f 62/96/47 59/93/45 63/97/48
f 62/96/47 63/97/48 64/98/49
f 64/98/49 63/97/48 65/99/50
f 64/98/49 65/99/50 66/100/51
f 54/99/41 57/101/46 65/102/50
f 54/99/41 65/102/50 67/94/52
f 70/103/53 68/104/54 60/105/55
f 70/103/53 60/105/55 71/106/56
f 72/107/57 69/108/58 68/109/54
f 72/107/57 68/109/54 70/110/53
f 69/108/58 72/103/57 73/106/23
f 69/108/58 73/106/23 55/111/42
f 74/112/59 76/113/60 73/114/23
f 74/112/59 73/114/23 72/115/57
f 74/112/59 72/115/57 70/116/53
f 74/112/59 70/116/53 75/117/61
f 75/118/61 81/119/62 77/120/63
f 75/118/61 77/120/63 74/121/59
f 77/120/63 81/119/62 79/122/64
f 77/120/63 79/122/64 78/123/65
f 80/124/6 79/122/64 81/119/62
f 80/124/6 81/119/62 75/125/61
f 76/126/60 78/123/65 79/122/64
f 76/126/60 79/122/64 80/127/6
f 75/117/61 70/116/53 71/128/56
f 75/117/61 71/128/56 80/129/6
f 71/111/56 60/130/55 55/131/42
f 71/111/56 55/131/42 73/132/23
f 85/133/66 89/134/67 84/135/33
f 85/133/66 84/135/33 83/136/68
f 86/136/4 85/137/66 83/138/68
f 86/136/4 83/138/68 87/139/69
f 88/134/70 86/140/4 87/141/69
f 88/134/70 87/141/69 82/135/36
f 89/126/67 85/142/66 86/141/4
f 89/126/67 86/141/4 88/143/70
f 89/139/67 88/138/70 82/144/36
f 89/139/67 82/144/36 84/145/33
f 90/146/71 101/147/72 91/148/72
f 90/146/71 91/148/72 92/149/71
f 93/113/73 90/146/71 92/149/71
f 93/113/73 92/149/71 94/150/73
f 95/151/74 93/129/73 94/152/73
f 95/151/74 94/152/73 96/153/74
f 97/154/75 95/151/74 96/153/74
f 97/154/75 96/153/74 98/155/75
f 99/156/76 97/154/75 98/155/75
f 99/156/76 98/155/75 100/157/76
f 101/147/72 99/156/76 100/157/76
f 101/147/72 100/157/76 91/148/72
f 102/158/77 109/159/78 103/160/79
f 102/158/77 103/160/79 104/161/80
f 105/162/81 102/158/77 104/161/80
f 105/162/81 104/161/80 106/163/82
f 107/164/83 105/162/81 106/163/82
f 107/164/83 106/163/82 108/165/84
f 109/159/78 102/158/77 105/162/81
f 109/159/78 105/162/81 107/164/83
f 109/159/78 107/164/83 108/165/84
f 109/159/78 108/165/84 103/160/79
f 55/111/42 56/93/43 54/94/41
f 55/111/42 54/94/41 69/108/58
f 59/93/45 56/166/43 58/167/44
f 59/93/45 58/167/44 63/97/48
f 60/132/55 58/97/44 56/93/43
f 60/132/55 56/93/43 55/111/42
f 59/93/45 62/96/47 61/168/85
f 59/93/45 61/168/85 57/94/46
f 61/168/85 62/96/47 64/98/49
f 61/168/85 64/98/49 66/100/51
f 57/94/46 61/168/85 66/100/51
f 57/94/46 66/100/51 65/99/50
f 63/97/48 58/169/44 67/170/52
f 63/97/48 67/170/52 65/99/50
f 68/109/54 67/99/52 58/97/44
f 68/109/54 58/97/44 60/132/55
f 69/108/58 54/94/41 67/99/52
f 69/108/58 67/99/52 68/109/54
f 77/120/63 78/123/65 76/171/60
f 77/120/63 76/171/60 74/172/59
f 115/173/36 113/174/7 114/175/86
f 115/173/36 114/175/86 116/176/71
f 113/177/7 110/176/87 111/175/27
f 113/177/7 111/175/27 114/178/86
f 111/177/27 117/179/88 118/180/68
f 111/177/27 118/180/68 112/181/75
f 119/182/87 120/174/89 117/178/88
f 119/182/87 117/178/88 110/179/87
f 117/183/88 120/184/89 121/185/68
f 117/183/88 121/185/68 118/180/68
f 115/173/36 122/186/36 123/187/90
f 115/173/36 123/187/90 113/174/7
f 123/174/90 124/188/86 126/189/27
f 123/174/90 126/189/27 119/190/87
f 122/190/36 125/189/71 124/191/86
f 122/190/36 124/191/86 123/187/90
f 126/184/27 127/185/75 121/182/68
f 126/184/27 121/182/68 120/188/89
f 130/5/91 131/6/92 132/7/93
f 130/5/91 132/7/93 133/8/94
f 132/9/93 131/10/92 129/5/95
f 132/9/93 129/5/95 135/8/96
f 130/11/91 133/12/94 134/7/97
f 130/11/91 134/7/97 128/6/98
f 128/13/98 134/14/97 135/15/96
f 128/13/98 135/15/96 129/16/95
f 133/17/94 132/6/93 135/5/96
f 133/17/94 135/5/96 134/18/97
f 131/8/92 130/7/91 128/13/98
f 131/8/92 128/13/98 129/16/95
f 138/5/99 139/6/100 140/7/101
f 138/5/99 140/7/101 141/8/102
f 140/9/101 139/10/100 137/5/103
f 140/9/101 137/5/103 143/8/104
f 138/11/99 141/12/102 142/7/105
f 138/11/99 142/7/105 136/6/106
f 136/13/106 142/14/105 143/15/104
f 136/13/106 143/15/104 137/16/103
f 141/17/102 140/6/101 143/5/104
f 141/17/102 143/5/104 142/18/105
f 139/8/100 138/7/99 136/13/106
f 139/8/100 136/13/106 137/16/103
o sloppy_disk.001
v -0.125000 1.187500 -0.062500
v -0.125000 1.187500 -0.312500
v 0.125000 1.187500 -0.062500
v 0.125000 1.187500 -0.312500
v 0.125000 1.250000 -0.312500
v 0.125000 1.250000 -0.062500
v -0.125000 1.250000 -0.062500
v -0.125000 1.250000 -0.312500
vn 0.5773 -0.5774 0.5773
vn 0.5773 -0.5774 -0.5773
vn 0.5773 0.5774 -0.5773
vn 0.5773 0.5774 0.5773
vn -0.5774 -0.5774 -0.5773
vn -0.5773 0.5774 -0.5773
vn -0.5774 0.5774 0.5773
vn -0.5773 -0.5774 0.5773
vt 0.875000 0.337500
vt 0.925000 0.337500
vt 0.925000 0.350000
vt 0.875000 0.350000
vt 0.825000 0.350000
vt 0.825000 0.337500
vt 0.975000 0.337500
vt 0.975000 0.350000
vt 0.925000 0.400000
vt 0.925000 0.412500
vt 0.875000 0.412500
vt 0.875000 0.400000
vt 0.925000 0.287500
vt 0.875000 0.287500
s 1
usemtl m_123c5fea-2662-31a7-d9f6-006eda25ab36
f 146/192/107 147/193/108 148/194/109
f 146/192/107 148/194/109 149/195/110
f 148/196/109 147/197/108 145/192/111
f 148/196/109 145/192/111 151/195/112
f 146/198/107 149/199/110 150/194/113
f 146/198/107 150/194/113 144/193/114
f 144/200/114 150/201/113 151/202/112
f 144/200/114 151/202/112 145/203/111
f 149/204/110 148/193/109 151/192/112
f 149/204/110 151/192/112 150/205/113
f 147/195/108 146/194/107 144/200/114
f 147/195/108 144/200/114 145/203/111
