# Blender 4.2.0
# www.blender.org
mtllib magsep.mtl
o base
v 0.000000 -0.500000 0.000000
v 0.000000 0.000000 0.000000
v 0.669873 -0.500000 2.500000
v 0.669873 0.000000 2.500000
v 1.830127 -0.500000 1.830127
v 1.830127 0.000000 1.830127
v 2.500000 -0.500000 0.669873
v 2.500000 0.000000 0.669873
v 2.500000 -0.500000 -0.669873
v 2.500000 -0.000000 -0.669873
v 1.830127 -0.500000 -1.830127
v 1.830127 -0.000000 -1.830127
v 0.669873 -0.500000 -2.500000
v 0.669873 -0.000000 -2.500000
v -0.669873 -0.500000 -2.500000
v -0.669873 -0.000000 -2.500000
v -1.830127 -0.500000 -1.830127
v -1.830127 -0.000000 -1.830127
v -2.500000 -0.500000 -0.669873
v -2.500000 -0.000000 -0.669873
v -2.500000 -0.500000 0.669873
v -2.500000 0.000000 0.669873
v -1.830127 -0.500000 1.830127
v -1.830127 0.000000 1.830127
v -0.669873 -0.500000 2.500000
v -0.669873 0.000000 2.500000
v 0.500000 0.250000 -2.500000
v -0.500000 0.250000 -2.500000
v 0.500000 -0.000000 -2.000000
v -0.500000 -0.000000 -2.000000
v 0.250000 0.500000 -2.500000
v -0.250000 0.500000 -2.500000
v 0.250000 0.500000 -2.000000
v -0.250000 0.500000 -2.000000
v 0.500000 -0.000000 -2.500000
v 0.500000 0.250000 -2.000000
v -0.500000 -0.000000 -2.500000
v -0.500000 0.250000 -2.000000
v 0.500000 -0.250000 -2.500000
v -0.500000 -0.250000 -2.500000
v -2.500000 0.250000 -0.500000
v -2.500000 0.250000 0.500000
v -2.000000 -0.000000 -0.500000
v -2.000000 0.000000 0.500000
v -2.500000 0.500000 -0.250000
v -2.500000 0.500000 0.250000
v -2.000000 0.500000 -0.250000
v -2.000000 0.500000 0.250000
v -2.500000 -0.000000 -0.500000
v -2.000000 0.250000 -0.500000
v -2.500000 0.000000 0.500000
v -2.000000 0.250000 0.500000
v -2.500000 -0.250000 -0.500000
v -2.500000 -0.250000 0.500000
v -0.500000 0.250000 2.500000
v 0.500000 0.250000 2.500000
v -0.500000 0.000000 2.000000
v 0.500000 0.000000 2.000000
v -0.250000 0.500000 2.500000
v 0.250000 0.500000 2.500000
v -0.250000 0.500000 2.000000
v 0.250000 0.500000 2.000000
v -0.500000 0.000000 2.500000
v -0.500000 0.250000 2.000000
v 0.500000 0.000000 2.500000
v 0.500000 0.250000 2.000000
v -0.500000 -0.250000 2.500000
v 0.500000 -0.250000 2.500000
v 2.500000 0.250000 0.500000
v 2.500000 0.250000 -0.500000
v 2.000000 0.000000 0.500000
v 2.000000 -0.000000 -0.500000
v 2.500000 0.500000 0.250000
v 2.500000 0.500000 -0.250000
v 2.000000 0.500000 0.250000
v 2.000000 0.500000 -0.250000
v 2.500000 0.000000 0.500000
v 2.000000 0.250000 0.500000
v 2.500000 -0.000000 -0.500000
v 2.000000 0.250000 -0.500000
v 2.500000 -0.250000 0.500000
v 2.500000 -0.250000 -0.500000
vn -0.0000 -1.0000 -0.0000
vn 0.5000 -0.0000 0.8660
vn -0.0000 1.0000 -0.0000
vn 0.8660 -0.0000 0.5000
vn 1.0000 -0.0000 -0.0000
vn 0.8660 -0.0000 -0.5000
vn 0.5000 -0.0000 -0.8660
vn -0.0000 -0.0000 -1.0000
vn -0.5000 -0.0000 -0.8660
vn -0.8660 -0.0000 -0.5000
vn -1.0000 -0.0000 -0.0000
vn -0.8660 -0.0000 0.5000
vn -0.5000 -0.0000 0.8660
vn -0.0000 -0.0000 1.0000
vn 0.7071 0.7071 -0.0000
vn -0.7071 0.7071 -0.0000
vn -0.0000 0.7071 -0.7071
vn -0.0000 0.7071 0.7071
vt 0.000000 0.020834
vt 0.082031 0.020834
vt 0.041015 0.298611
vt 0.082031 0.020833
vt 0.160156 0.020833
vt 0.160156 0.076389
vt 0.082031 0.076389
vt 0.041016 0.298611
vt 0.000000 0.020833
vt 0.082031 0.020834
vt 0.041015 0.298611
vt 0.000000 0.020834
vt 0.041016 0.298611
vt 0.000000 0.020834
vt 0.082031 0.020834
vt 0.041016 0.298611
vt 0.238281 0.020833
vt 0.238281 0.076389
vt 0.351562 0.104167
vt 0.351562 0.131944
vt 0.289062 0.131944
vt 0.289062 0.104167
vt 0.304688 0.159722
vt 0.335938 0.159722
vt 0.335938 0.215278
vt 0.304688 0.215278
vt 0.195312 0.173611
vt 0.164062 0.173611
vt 0.164062 0.131944
vt 0.195312 0.131944
vt 0.242188 0.159722
vt 0.210938 0.159722
vt 0.257812 0.131944
vt 0.289062 0.173611
vt 0.257812 0.173611
vt 0.164062 0.104167
vt 0.195312 0.104167
vt 0.257812 0.104167
vt 0.195312 0.076389
vt 0.257812 0.076389
s 0
usemtl m_136fef01-34a2-3584-8702-df4d1715b62c
f 5/1/1 3/2/1 1/3/1
f 3/4/2 5/5/2 6/6/2
f 3/4/2 6/6/2 4/7/2
f 4/1/3 6/2/3 2/8/3
f 7/9/1 5/10/1 1/11/1
f 5/4/4 7/5/4 8/6/4
f 5/4/4 8/6/4 6/7/4
f 6/12/3 8/4/3 2/13/3
f 9/14/1 7/15/1 1/16/1
f 7/5/5 9/17/5 10/18/5
f 7/5/5 10/18/5 8/6/5
f 8/14/3 10/15/3 2/16/3
f 11/12/1 9/4/1 1/13/1
f 9/4/6 11/5/6 12/6/6
f 9/4/6 12/6/6 10/7/6
f 10/9/3 12/10/3 2/11/3
f 13/1/1 11/2/1 1/8/1
f 11/4/7 13/5/7 14/6/7
f 11/4/7 14/6/7 12/7/7
f 12/1/3 14/2/3 2/3/3
f 15/14/1 13/15/1 1/16/1
f 13/5/8 15/17/8 16/18/8
f 13/5/8 16/18/8 14/6/8
f 14/15/3 16/14/3 2/16/3
f 17/1/1 15/2/1 1/3/1
f 15/4/9 17/5/9 18/6/9
f 15/4/9 18/6/9 16/7/9
f 16/1/3 18/2/3 2/8/3
f 19/9/1 17/10/1 1/11/1
f 17/4/10 19/5/10 20/6/10
f 17/4/10 20/6/10 18/7/10
f 18/12/3 20/4/3 2/13/3
f 21/14/1 19/15/1 1/16/1
f 19/5/11 21/17/11 22/18/11
f 19/5/11 22/18/11 20/6/11
f 20/14/3 22/15/3 2/16/3
f 23/12/1 21/4/1 1/13/1
f 21/4/12 23/5/12 24/6/12
f 21/4/12 24/6/12 22/7/12
f 22/9/3 24/10/3 2/11/3
f 25/1/1 23/2/1 1/8/1
f 23/4/13 25/5/13 26/6/13
f 23/4/13 26/6/13 24/7/13
f 24/1/3 26/2/3 2/3/3
f 3/15/1 25/14/1 1/16/1
f 25/5/14 3/17/14 4/18/14
f 25/5/14 4/18/14 26/6/14
f 26/14/3 4/15/3 2/16/3
f 29/19/14 36/20/14 38/21/14
f 29/19/14 38/21/14 30/22/14
f 33/23/3 31/24/3 32/25/3
f 33/23/3 32/25/3 34/26/3
f 31/27/15 33/28/15 36/29/15
f 31/27/15 36/29/15 27/30/15
f 32/31/8 31/32/8 27/30/8
f 32/31/8 27/30/8 28/33/8
f 34/34/16 32/35/16 28/33/16
f 34/34/16 28/33/16 38/21/16
f 33/24/14 34/23/14 38/21/14
f 33/24/14 38/21/14 36/20/14
f 36/29/5 29/36/5 35/37/5
f 36/29/5 35/37/5 27/30/5
f 38/21/11 28/33/11 37/38/11
f 38/21/11 37/38/11 30/22/11
f 27/30/8 39/39/8 40/40/8
f 27/30/8 40/40/8 28/33/8
f 43/19/5 50/20/5 52/21/5
f 43/19/5 52/21/5 44/22/5
f 47/23/3 45/24/3 46/25/3
f 47/23/3 46/25/3 48/26/3
f 45/27/17 47/28/17 50/29/17
f 45/27/17 50/29/17 41/30/17
f 46/31/11 45/32/11 41/30/11
f 46/31/11 41/30/11 42/33/11
f 48/34/18 46/35/18 42/33/18
f 48/34/18 42/33/18 52/21/18
f 47/24/5 48/23/5 52/21/5
f 47/24/5 52/21/5 50/20/5
f 50/29/8 43/36/8 49/37/8
f 50/29/8 49/37/8 41/30/8
f 52/21/14 42/33/14 51/38/14
f 52/21/14 51/38/14 44/22/14
f 41/30/11 53/39/11 54/40/11
f 41/30/11 54/40/11 42/33/11
f 57/19/8 64/20/8 66/21/8
f 57/19/8 66/21/8 58/22/8
f 61/23/3 59/24/3 60/25/3
f 61/23/3 60/25/3 62/26/3
f 59/27/16 61/28/16 64/29/16
f 59/27/16 64/29/16 55/30/16
f 60/31/14 59/32/14 55/30/14
f 60/31/14 55/30/14 56/33/14
f 62/34/15 60/35/15 56/33/15
f 62/34/15 56/33/15 66/21/15
f 61/24/8 62/23/8 66/21/8
f 61/24/8 66/21/8 64/20/8
f 64/29/11 57/36/11 63/37/11
f 64/29/11 63/37/11 55/30/11
f 66/21/5 56/33/5 65/38/5
f 66/21/5 65/38/5 58/22/5
f 55/30/14 67/39/14 68/40/14
f 55/30/14 68/40/14 56/33/14
f 71/19/11 78/20/11 80/21/11
f 71/19/11 80/21/11 72/22/11
f 75/23/3 73/24/3 74/25/3
f 75/23/3 74/25/3 76/26/3
f 73/27/18 75/28/18 78/29/18
f 73/27/18 78/29/18 69/30/18
f 74/31/5 73/32/5 69/30/5
f 74/31/5 69/30/5 70/33/5
f 76/34/17 74/35/17 70/33/17
f 76/34/17 70/33/17 80/21/17
f 75/24/11 76/23/11 80/21/11
f 75/24/11 80/21/11 78/20/11
f 78/29/14 71/36/14 77/37/14
f 78/29/14 77/37/14 69/30/14
f 80/21/8 70/33/8 79/38/8
f 80/21/8 79/38/8 72/22/8
f 69/30/5 81/39/5 82/40/5
f 69/30/5 82/40/5 70/33/5
o hull
v 0.000000 1.875000 -0.000000
v 0.274588 1.732274 0.662912
v 0.507371 1.325825 1.224902
v 0.662912 0.717531 1.600412
v 0.717531 0.000000 1.732274
v 0.507371 1.732274 0.507371
v 0.937500 1.325825 0.937500
v 1.224903 0.717531 1.224903
v 1.325825 0.000000 1.325825
v 0.662912 1.732274 0.274587
v 1.224903 1.325825 0.507371
v 1.600412 0.717531 0.662912
v 1.732274 0.000000 0.717531
v 0.717531 1.732274 -0.000000
v 1.325825 1.325825 -0.000000
v 1.732274 0.717531 -0.000000
v 1.875000 0.000000 0.000000
v 0.662912 1.732274 -0.274588
v 1.224903 1.325825 -0.507371
v 1.600412 0.717531 -0.662913
v 1.732274 -0.000000 -0.717531
v 0.507371 1.732274 -0.507371
v 0.937500 1.325825 -0.937500
v 1.224903 0.717531 -1.224903
v 1.325825 -0.000000 -1.325825
v 0.274588 1.732274 -0.662913
v 0.507371 1.325825 -1.224903
v 0.662912 0.717531 -1.600412
v 0.717531 -0.000000 -1.732274
v 0.000000 1.732274 -0.717531
v 0.000000 1.325825 -1.325825
v 0.000000 0.717531 -1.732274
v 0.000000 -0.000000 -1.875000
v -0.274588 1.732274 -0.662913
v -0.507371 1.325825 -1.224903
v -0.662912 0.717531 -1.600412
v -0.717531 -0.000000 -1.732274
v -0.507371 1.732274 -0.507371
v -0.937500 1.325825 -0.937500
v -1.224903 0.717531 -1.224903
v -1.325825 -0.000000 -1.325825
v -0.662912 1.732274 -0.274588
v -1.224903 1.325825 -0.507371
v -1.600412 0.717531 -0.662913
v -1.732274 -0.000000 -0.717531
v -0.717531 1.732274 -0.000000
v -1.325825 1.325825 -0.000000
v -1.732274 0.717531 -0.000000
v -1.875000 0.000000 0.000000
v -0.662912 1.732274 0.274587
v -1.224903 1.325825 0.507371
v -1.600412 0.717531 0.662912
v -1.732274 0.000000 0.717531
v -0.507371 1.732274 0.507371
v -0.937500 1.325825 0.937500
v -1.224903 0.717531 1.224903
v -1.325825 0.000000 1.325825
v -0.274588 1.732274 0.662912
v -0.507371 1.325825 1.224902
v -0.662912 0.717531 1.600412
v -0.717531 0.000000 1.732274
v 0.000000 1.732274 0.717531
v 0.000000 1.325825 1.325825
v 0.000000 0.717531 1.732274
v 0.000000 0.000000 1.875000
v 0.000000 2.000000 -0.000000
v 0.298631 1.847759 0.720960
v 0.551799 1.414214 1.332160
v 0.720960 0.765367 1.740551
v 0.780362 0.000000 1.883959
v 0.551799 1.847759 0.551799
v 1.019591 1.414214 1.019591
v 1.332160 0.765367 1.332160
v 1.441919 0.000000 1.441920
v 0.720960 1.847759 0.298631
v 1.332160 1.414214 0.551798
v 1.740551 0.765367 0.720960
v 1.883959 0.000000 0.780361
v 0.780361 1.847759 -0.000000
v 1.441920 1.414214 -0.000000
v 1.883959 0.765367 -0.000000
v 2.039182 0.000000 0.000000
v 0.720960 1.847759 -0.298631
v 1.332160 1.414214 -0.551799
v 1.740551 0.765367 -0.720960
v 1.883959 -0.000000 -0.780362
v 0.551799 1.847759 -0.551799
v 1.019591 1.414214 -1.019591
v 1.332160 0.765367 -1.332160
v 1.441920 -0.000000 -1.441919
v 0.298631 1.847759 -0.720960
v 0.551799 1.414214 -1.332160
v 0.720960 0.765367 -1.740551
v 0.780361 -0.000000 -1.883959
v -0.000000 1.847759 -0.780361
v -0.000000 1.414214 -1.441920
v -0.000000 0.765367 -1.883959
v 0.000000 -0.000000 -2.039182
v -0.298631 1.847759 -0.720960
v -0.551799 1.414214 -1.332160
v -0.720960 0.765367 -1.740551
v -0.780362 -0.000000 -1.883959
v -0.551799 1.847759 -0.551799
v -1.019591 1.414214 -1.019591
v -1.332160 0.765367 -1.332160
v -1.441919 -0.000000 -1.441920
v -0.720960 1.847759 -0.298632
v -1.332160 1.414214 -0.551799
v -1.740551 0.765367 -0.720960
v -1.883959 -0.000000 -0.780361
v -0.780361 1.847759 0.000000
v -1.441920 1.414214 0.000000
v -1.883959 0.765367 0.000000
v -2.039182 -0.000000 -0.000000
v -0.720960 1.847759 0.298631
v -1.332160 1.414214 0.551798
v -1.740551 0.765367 0.720960
v -1.883959 0.000000 0.780362
v -0.551799 1.847759 0.551799
v -1.019591 1.414214 1.019591
v -1.332160 0.765367 1.332160
v -1.441920 0.000000 1.441919
v -0.298631 1.847759 0.720960
v -0.551799 1.414214 1.332160
v -0.720960 0.765367 1.740551
v -0.780361 0.000000 1.883959
v 0.000000 1.847759 0.780361
v 0.000000 1.414214 1.441920
v 0.000000 0.765367 1.883959
v -0.000000 0.000000 2.039182
v -0.000000 0.000000 1.875000
v 0.717532 0.000000 1.732274
v -0.717532 0.000000 1.732274
v -1.325825 0.000000 1.325825
v -1.732274 0.000000 0.717532
v -1.875000 -0.000000 -0.000000
v -1.732274 -0.000000 -0.717532
v -1.325825 -0.000000 -1.325825
v -0.717532 -0.000000 -1.732274
v 0.000000 -0.000000 -1.875000
v 0.717532 -0.000000 -1.732274
v 1.325825 -0.000000 -1.325825
v 1.732274 -0.000000 -0.717532
v 1.875000 0.000000 0.000000
v 1.732274 0.000000 0.717532
v 1.325825 0.000000 1.325825
vn -0.2702 -0.9241 -0.2702
vn -0.1463 -0.9241 -0.3530
vn -0.0000 -1.0000 -0.0000
vn -0.4996 -0.7077 -0.4996
vn -0.2704 -0.7077 -0.6528
vn -0.1463 -0.9241 -0.3531
vn -0.4996 -0.7076 -0.4996
vn -0.2703 -0.9241 -0.2703
vn -0.6531 -0.3832 -0.6532
vn -0.3535 -0.3832 -0.8533
vn -0.2704 -0.7076 -0.6528
vn -0.4996 -0.7076 -0.4997
vn -0.6935 -0.1951 -0.6936
vn -0.3754 -0.1951 -0.9061
vn -0.3535 -0.3831 -0.8534
vn -0.6531 -0.3831 -0.6532
vn -0.3531 -0.9241 -0.1462
vn -0.6528 -0.7077 -0.2704
vn -0.6528 -0.7076 -0.2704
vn -0.3531 -0.9241 -0.1463
vn -0.8533 -0.3832 -0.3535
vn -0.6531 -0.3832 -0.6531
vn -0.4997 -0.7076 -0.4996
vn -0.9061 -0.1951 -0.3754
vn -0.6936 -0.1951 -0.6935
vn -0.6532 -0.3831 -0.6531
vn -0.8534 -0.3831 -0.3535
vn -0.3821 -0.9241 -0.0000
vn -0.7066 -0.7077 -0.0000
vn -0.7066 -0.7076 -0.0000
vn -0.3822 -0.9241 -0.0000
vn -0.9237 -0.3832 -0.0000
vn -0.8534 -0.3832 -0.3535
vn -0.9808 -0.1951 -0.0001
vn -0.9061 -0.1951 -0.3753
vn -0.8534 -0.3831 -0.3534
vn -0.9237 -0.3831 -0.0000
vn -0.3531 -0.9241 0.1462
vn -0.6528 -0.7077 0.2704
vn -0.6528 -0.7076 0.2704
vn -0.3531 -0.9241 0.1463
vn -0.8534 -0.3832 0.3534
vn -0.9061 -0.1951 0.3753
vn -0.9808 -0.1951 0.0001
vn -0.8534 -0.3831 0.3535
vn -0.2702 -0.9241 0.2702
vn -0.3530 -0.9241 0.1463
vn -0.4996 -0.7077 0.4996
vn -0.4996 -0.7076 0.4996
vn -0.2703 -0.9241 0.2703
vn -0.6532 -0.3832 0.6531
vn -0.8533 -0.3832 0.3535
vn -0.4997 -0.7076 0.4996
vn -0.6936 -0.1951 0.6935
vn -0.9061 -0.1951 0.3754
vn -0.6532 -0.3831 0.6531
vn -0.1462 -0.9241 0.3531
vn -0.2704 -0.7077 0.6528
vn -0.2704 -0.7076 0.6528
vn -0.1463 -0.9241 0.3531
vn -0.3535 -0.3832 0.8533
vn -0.6531 -0.3832 0.6531
vn -0.4996 -0.7076 0.4997
vn -0.3754 -0.1951 0.9061
vn -0.6935 -0.1951 0.6936
vn -0.6531 -0.3831 0.6532
vn -0.3535 -0.3831 0.8534
vn -0.0000 -0.9241 0.3821
vn -0.0000 -0.7077 0.7066
vn -0.0000 -0.7076 0.7066
vn -0.0000 -0.9241 0.3822
vn -0.0000 -0.3832 0.9237
vn -0.3535 -0.3832 0.8534
vn -0.0001 -0.1951 0.9808
vn -0.3753 -0.1951 0.9061
vn -0.3534 -0.3831 0.8534
vn -0.0000 -0.3831 0.9237
vn 0.1462 -0.9241 0.3531
vn 0.2704 -0.7077 0.6528
vn 0.2704 -0.7076 0.6528
vn 0.1463 -0.9241 0.3531
vn 0.3534 -0.3832 0.8534
vn 0.3753 -0.1951 0.9061
vn 0.0001 -0.1951 0.9808
vn 0.3535 -0.3831 0.8534
vn 0.2702 -0.9241 0.2702
vn 0.1463 -0.9241 0.3530
vn 0.4996 -0.7077 0.4996
vn 0.4996 -0.7076 0.4996
vn 0.2703 -0.9241 0.2703
vn 0.6531 -0.3832 0.6532
vn 0.3535 -0.3832 0.8533
vn 0.4996 -0.7076 0.4997
vn 0.6935 -0.1951 0.6936
vn 0.3754 -0.1951 0.9061
vn 0.6531 -0.3831 0.6532
vn 0.3531 -0.9241 0.1462
vn 0.6528 -0.7077 0.2704
vn 0.6528 -0.7076 0.2704
vn 0.3531 -0.9241 0.1463
vn 0.8533 -0.3832 0.3535
vn 0.6531 -0.3832 0.6531
vn 0.4997 -0.7076 0.4996
vn 0.9061 -0.1951 0.3754
vn 0.6936 -0.1951 0.6935
vn 0.6532 -0.3831 0.6531
vn 0.8534 -0.3831 0.3535
vn 0.3821 -0.9241 -0.0000
vn 0.7066 -0.7077 -0.0000
vn 0.7066 -0.7076 -0.0000
vn 0.3822 -0.9241 -0.0000
vn 0.9237 -0.3832 -0.0000
vn 0.8534 -0.3832 0.3535
vn 0.9808 -0.1951 0.0001
vn 0.9061 -0.1951 0.3753
vn 0.8534 -0.3831 0.3534
vn 0.9237 -0.3831 -0.0000
vn 0.3531 -0.9241 -0.1462
vn 0.6528 -0.7077 -0.2704
vn 0.6528 -0.7076 -0.2704
vn 0.3531 -0.9241 -0.1463
vn 0.8534 -0.3832 -0.3534
vn 0.9061 -0.1951 -0.3753
vn 0.9808 -0.1951 -0.0001
vn 0.8534 -0.3831 -0.3535
vn 0.2702 -0.9241 -0.2702
vn 0.3530 -0.9241 -0.1463
vn 0.4996 -0.7077 -0.4996
vn 0.4996 -0.7076 -0.4996
vn 0.2703 -0.9241 -0.2703
vn 0.6532 -0.3832 -0.6531
vn 0.8533 -0.3832 -0.3535
vn 0.4997 -0.7076 -0.4996
vn 0.6936 -0.1951 -0.6935
vn 0.9061 -0.1951 -0.3754
vn 0.6532 -0.3831 -0.6531
vn 0.1462 -0.9241 -0.3531
vn 0.2704 -0.7077 -0.6528
vn 0.2704 -0.7076 -0.6528
vn 0.1463 -0.9241 -0.3531
vn 0.3535 -0.3832 -0.8533
vn 0.6531 -0.3832 -0.6531
vn 0.4996 -0.7076 -0.4997
vn 0.3754 -0.1951 -0.9061
vn 0.6935 -0.1951 -0.6936
vn 0.6531 -0.3831 -0.6532
vn 0.3535 -0.3831 -0.8534
vn -0.0000 -0.9241 -0.3821
vn -0.0000 -0.7077 -0.7066
vn -0.0000 -0.7076 -0.7066
vn -0.0000 -0.9241 -0.3822
vn -0.0000 -0.3832 -0.9237
vn 0.3535 -0.3832 -0.8534
vn 0.0001 -0.1951 -0.9808
vn 0.3753 -0.1951 -0.9062
vn 0.3534 -0.3831 -0.8534
vn -0.0000 -0.3831 -0.9237
vn -0.1462 -0.9241 -0.3531
vn -0.3534 -0.3832 -0.8534
vn -0.3753 -0.1951 -0.9061
vn -0.0001 -0.1951 -0.9808
vn 0.1440 0.9265 0.3477
vn 0.2661 0.9265 0.2661
vn -0.0000 1.0000 -0.0000
vn 0.1441 0.9264 0.3478
vn 0.2680 0.7139 0.6469
vn 0.4951 0.7139 0.4951
vn 0.4951 0.7140 0.4951
vn 0.2662 0.9264 0.2662
vn 0.3526 0.3891 0.8511
vn 0.6514 0.3891 0.6514
vn 0.3526 0.3890 0.8511
vn 0.2934 -0.6417 0.7086
vn 0.5423 -0.6418 0.5423
vn 0.5422 -0.6418 0.5423
vn 0.6514 0.3890 0.6514
vn 0.3477 0.9265 0.1440
vn 0.6469 0.7139 0.2680
vn 0.6469 0.7140 0.2679
vn 0.3478 0.9264 0.1441
vn 0.8511 0.3891 0.3526
vn 0.8511 0.3891 0.3525
vn 0.5423 -0.6417 0.5423
vn 0.7085 -0.6418 0.2935
vn 0.8511 0.3890 0.3526
vn 0.3763 0.9265 -0.0000
vn 0.3478 0.9264 0.1440
vn 0.6469 0.7139 0.2679
vn 0.7002 0.7139 -0.0000
vn 0.3764 0.9264 -0.0000
vn 0.9212 0.3891 -0.0000
vn 0.8511 0.3890 0.3525
vn 0.7085 -0.6417 0.2935
vn 0.7669 -0.6418 -0.0000
vn 0.7669 -0.6418 0.0001
vn 0.9212 0.3890 -0.0000
vn 0.3477 0.9265 -0.1440
vn 0.6469 0.7139 -0.2679
vn 0.6469 0.7140 -0.2680
vn 0.3478 0.9264 -0.1440
vn 0.8511 0.3891 -0.3525
vn 0.6469 0.7139 -0.2680
vn 0.7669 -0.6417 -0.0000
vn 0.7085 -0.6418 -0.2934
vn 0.8511 0.3890 -0.3525
vn 0.2661 0.9265 -0.2661
vn 0.3478 0.9264 -0.1441
vn 0.4951 0.7139 -0.4951
vn 0.4951 0.7140 -0.4951
vn 0.2662 0.9264 -0.2662
vn 0.8511 0.3891 -0.3526
vn 0.6514 0.3891 -0.6514
vn 0.8511 0.3890 -0.3526
vn 0.7086 -0.6417 -0.2934
vn 0.5423 -0.6418 -0.5423
vn 0.5423 -0.6418 -0.5422
vn 0.6514 0.3890 -0.6514
vn 0.1440 0.9265 -0.3477
vn 0.2680 0.7139 -0.6469
vn 0.2679 0.7140 -0.6469
vn 0.1441 0.9264 -0.3478
vn 0.3526 0.3891 -0.8511
vn 0.3525 0.3891 -0.8511
vn 0.5423 -0.6417 -0.5423
vn 0.2935 -0.6418 -0.7085
vn 0.3526 0.3890 -0.8511
vn -0.0000 0.9265 -0.3763
vn 0.1440 0.9264 -0.3478
vn 0.2679 0.7139 -0.6469
vn -0.0000 0.7139 -0.7002
vn -0.0000 0.9264 -0.3764
vn -0.0000 0.3891 -0.9212
vn 0.3525 0.3890 -0.8511
vn 0.2935 -0.6417 -0.7085
vn -0.0000 -0.6418 -0.7669
vn 0.0001 -0.6418 -0.7669
vn -0.0000 0.3890 -0.9212
vn -0.1440 0.9265 -0.3477
vn -0.2679 0.7139 -0.6469
vn -0.2680 0.7140 -0.6469
vn -0.1440 0.9264 -0.3478
vn -0.3525 0.3891 -0.8511
vn -0.2680 0.7139 -0.6469
vn -0.0000 -0.6417 -0.7669
vn -0.2934 -0.6418 -0.7085
vn -0.3525 0.3890 -0.8511
vn -0.2661 0.9265 -0.2661
vn -0.1441 0.9264 -0.3478
vn -0.4951 0.7139 -0.4951
vn -0.4951 0.7140 -0.4951
vn -0.2662 0.9264 -0.2662
vn -0.3526 0.3891 -0.8511
vn -0.6514 0.3891 -0.6514
vn -0.3526 0.3890 -0.8511
vn -0.2934 -0.6417 -0.7086
vn -0.5423 -0.6418 -0.5423
vn -0.5422 -0.6418 -0.5423
vn -0.6514 0.3890 -0.6514
vn -0.3477 0.9265 -0.1440
vn -0.6469 0.7139 -0.2680
vn -0.6469 0.7140 -0.2679
vn -0.3478 0.9264 -0.1441
vn -0.8511 0.3891 -0.3526
vn -0.8511 0.3891 -0.3525
vn -0.5423 -0.6417 -0.5423
vn -0.7085 -0.6418 -0.2935
vn -0.8511 0.3890 -0.3526
vn -0.3763 0.9265 -0.0000
vn -0.3478 0.9264 -0.1440
vn -0.6469 0.7139 -0.2679
vn -0.7002 0.7139 -0.0000
vn -0.3764 0.9264 -0.0000
vn -0.9212 0.3891 -0.0000
vn -0.8511 0.3890 -0.3525
vn -0.7085 -0.6417 -0.2935
vn -0.7669 -0.6418 -0.0000
vn -0.7669 -0.6418 -0.0001
vn -0.9212 0.3890 -0.0000
vn -0.3477 0.9265 0.1440
vn -0.6469 0.7139 0.2679
vn -0.6469 0.7140 0.2680
vn -0.3478 0.9264 0.1440
vn -0.8511 0.3891 0.3525
vn -0.6469 0.7139 0.2680
vn -0.7669 -0.6417 -0.0000
vn -0.7085 -0.6418 0.2934
vn -0.8511 0.3890 0.3525
vn -0.2661 0.9265 0.2661
vn -0.3478 0.9264 0.1441
vn -0.4951 0.7139 0.4951
vn -0.4951 0.7140 0.4951
vn -0.2662 0.9264 0.2662
vn -0.8511 0.3891 0.3526
vn -0.6514 0.3891 0.6514
vn -0.8511 0.3890 0.3526
vn -0.7086 -0.6417 0.2934
vn -0.5423 -0.6418 0.5423
vn -0.5423 -0.6418 0.5422
vn -0.6514 0.3890 0.6514
vn -0.1440 0.9265 0.3477
vn -0.2680 0.7139 0.6469
vn -0.2679 0.7140 0.6469
vn -0.1441 0.9264 0.3478
vn -0.3526 0.3891 0.8511
vn -0.3525 0.3891 0.8511
vn -0.5423 -0.6417 0.5423
vn -0.2935 -0.6418 0.7085
vn -0.3526 0.3890 0.8511
vn -0.0000 0.9265 0.3763
vn -0.1440 0.9264 0.3478
vn -0.2679 0.7139 0.6469
vn -0.0000 0.7139 0.7002
vn -0.0000 0.9264 0.3764
vn -0.0000 0.3891 0.9212
vn -0.3525 0.3890 0.8511
vn -0.2935 -0.6417 0.7085
vn -0.0000 -0.6418 0.7669
vn -0.0001 -0.6418 0.7669
vn -0.0000 0.3890 0.9212
vn 0.2679 0.7139 0.6469
vn 0.2680 0.7140 0.6469
vn 0.1440 0.9264 0.3478
vn 0.3525 0.3891 0.8511
vn -0.0000 -0.6417 0.7669
vn 0.2934 -0.6418 0.7085
vn 0.3525 0.3890 0.8511
vn 0.2935 -0.6417 0.7086
vn -0.2935 -0.6417 0.7086
vn -0.7086 -0.6417 0.2933
vn -0.7086 -0.6417 0.2935
vn -0.7086 -0.6417 -0.2935
vn -0.2933 -0.6417 -0.7086
vn -0.2935 -0.6417 -0.7086
vn 0.2935 -0.6417 -0.7086
vn 0.7086 -0.6417 -0.2933
vn 0.7086 -0.6417 -0.2935
vn 0.7086 -0.6417 0.2935
vn 0.2933 -0.6417 0.7086
vt 0.454297 0.375000
vt 0.436328 0.375000
vt 0.445312 0.298611
vt 0.461914 0.458333
vt 0.428711 0.458333
vt 0.436328 0.375000
vt 0.454297 0.375000
vt 0.466992 0.541667
vt 0.423633 0.541667
vt 0.428720 0.458333
vt 0.461905 0.458333
vt 0.468750 0.625000
vt 0.421875 0.625000
vt 0.423659 0.541667
vt 0.466966 0.541667
vt 0.501172 0.375000
vt 0.483203 0.375000
vt 0.492188 0.298611
vt 0.508789 0.458333
vt 0.475586 0.458333
vt 0.483203 0.375000
vt 0.501172 0.375000
vt 0.513867 0.541667
vt 0.470508 0.541667
vt 0.475595 0.458333
vt 0.508780 0.458333
vt 0.515625 0.625000
vt 0.470534 0.541667
vt 0.513841 0.541667
vt 0.548047 0.375000
vt 0.530078 0.375000
vt 0.539062 0.298611
vt 0.555664 0.458333
vt 0.522461 0.458333
vt 0.530078 0.375000
vt 0.548047 0.375000
vt 0.560742 0.541667
vt 0.517383 0.541667
vt 0.522470 0.458333
vt 0.555655 0.458333
vt 0.562500 0.625000
vt 0.517409 0.541667
vt 0.560716 0.541667
vt 0.594922 0.375000
vt 0.576953 0.375000
vt 0.585938 0.298611
vt 0.602539 0.458333
vt 0.569336 0.458333
vt 0.576953 0.375000
vt 0.594922 0.375000
vt 0.607617 0.541667
vt 0.564258 0.541667
vt 0.569345 0.458333
vt 0.602530 0.458333
vt 0.609375 0.625000
vt 0.564284 0.541667
vt 0.607591 0.541667
vt 0.641797 0.375000
vt 0.623828 0.375000
vt 0.632812 0.298611
vt 0.649414 0.458333
vt 0.616211 0.458333
vt 0.623828 0.375000
vt 0.641797 0.375000
vt 0.654492 0.541667
vt 0.611133 0.541667
vt 0.616220 0.458333
vt 0.649405 0.458333
vt 0.656250 0.625000
vt 0.611159 0.541667
vt 0.654466 0.541667
vt 0.688672 0.375000
vt 0.670703 0.375000
vt 0.679688 0.298611
vt 0.696289 0.458333
vt 0.663086 0.458333
vt 0.670703 0.375000
vt 0.688672 0.375000
vt 0.701367 0.541667
vt 0.658008 0.541667
vt 0.663095 0.458333
vt 0.696280 0.458333
vt 0.703125 0.625000
vt 0.658034 0.541667
vt 0.701341 0.541667
vt 0.735547 0.375000
vt 0.717578 0.375000
vt 0.726562 0.298611
vt 0.743164 0.458333
vt 0.709961 0.458333
vt 0.717578 0.375000
vt 0.735547 0.375000
vt 0.748242 0.541667
vt 0.704883 0.541667
vt 0.709970 0.458333
vt 0.743155 0.458333
vt 0.750000 0.625000
vt 0.704909 0.541667
vt 0.748216 0.541667
vt 0.032422 0.375000
vt 0.014453 0.375000
vt 0.023438 0.298611
vt 0.040039 0.458333
vt 0.006836 0.458333
vt 0.014453 0.375000
vt 0.032422 0.375000
vt 0.045117 0.541667
vt 0.001758 0.541667
vt 0.006845 0.458333
vt 0.040030 0.458333
vt 0.046875 0.625000
vt 0.000000 0.625000
vt 0.001784 0.541667
vt 0.045091 0.541667
vt 0.079297 0.375000
vt 0.061328 0.375000
vt 0.070312 0.298611
vt 0.086914 0.458333
vt 0.053711 0.458333
vt 0.061328 0.375000
vt 0.079297 0.375000
vt 0.091992 0.541667
vt 0.048633 0.541667
vt 0.053720 0.458333
vt 0.086905 0.458333
vt 0.093750 0.625000
vt 0.048659 0.541667
vt 0.091966 0.541667
vt 0.126172 0.375000
vt 0.108203 0.375000
vt 0.117188 0.298611
vt 0.133789 0.458333
vt 0.100586 0.458333
vt 0.108203 0.375000
vt 0.126172 0.375000
vt 0.138867 0.541667
vt 0.095508 0.541667
vt 0.100595 0.458333
vt 0.133780 0.458333
vt 0.140625 0.625000
vt 0.095534 0.541667
vt 0.138841 0.541667
vt 0.173047 0.375000
vt 0.155078 0.375000
vt 0.164062 0.298611
vt 0.180664 0.458333
vt 0.147461 0.458333
vt 0.155078 0.375000
vt 0.173047 0.375000
vt 0.185742 0.541667
vt 0.142383 0.541667
vt 0.147470 0.458333
vt 0.180655 0.458333
vt 0.187500 0.625000
vt 0.142409 0.541667
vt 0.185716 0.541667
vt 0.219922 0.375000
vt 0.201953 0.375000
vt 0.210938 0.298611
vt 0.227539 0.458333
vt 0.194336 0.458333
vt 0.201953 0.375000
vt 0.219922 0.375000
vt 0.232617 0.541667
vt 0.189258 0.541667
vt 0.194345 0.458333
vt 0.227530 0.458333
vt 0.234375 0.625000
vt 0.189284 0.541667
vt 0.232591 0.541667
vt 0.266797 0.375000
vt 0.248828 0.375000
vt 0.257812 0.298611
vt 0.274414 0.458333
vt 0.241211 0.458333
vt 0.248828 0.375000
vt 0.266797 0.375000
vt 0.279492 0.541667
vt 0.236133 0.541667
vt 0.241220 0.458333
vt 0.274405 0.458333
vt 0.281250 0.625000
vt 0.236159 0.541667
vt 0.279466 0.541667
vt 0.313672 0.375000
vt 0.295703 0.375000
vt 0.304688 0.298611
vt 0.321289 0.458333
vt 0.288086 0.458333
vt 0.295703 0.375000
vt 0.313672 0.375000
vt 0.326367 0.541667
vt 0.283008 0.541667
vt 0.288095 0.458333
vt 0.321280 0.458333
vt 0.328125 0.625000
vt 0.283034 0.541667
vt 0.326341 0.541667
vt 0.360547 0.375000
vt 0.342578 0.375000
vt 0.351562 0.298611
vt 0.368164 0.458333
vt 0.334961 0.458333
vt 0.342578 0.375000
vt 0.360547 0.375000
vt 0.373242 0.541667
vt 0.329883 0.541667
vt 0.334970 0.458333
vt 0.368155 0.458333
vt 0.375000 0.625000
vt 0.329909 0.541667
vt 0.373216 0.541667
vt 0.407422 0.375000
vt 0.389453 0.375000
vt 0.398438 0.298611
vt 0.415039 0.458333
vt 0.381836 0.458333
vt 0.389453 0.375000
vt 0.407422 0.375000
vt 0.420117 0.541667
vt 0.376758 0.541667
vt 0.381845 0.458333
vt 0.415030 0.458333
vt 0.376784 0.541667
vt 0.420091 0.541667
vt 0.472656 0.909722
vt 0.492188 0.909722
vt 0.482422 1.000000
vt 0.472697 0.909722
vt 0.464453 0.819444
vt 0.500391 0.819444
vt 0.492147 0.909722
vt 0.464484 0.819444
vt 0.458984 0.729167
vt 0.505859 0.729167
vt 0.500360 0.819444
vt 0.458964 0.729167
vt 0.457031 0.638889
vt 0.507812 0.638889
vt 0.505880 0.729167
vt 0.523438 0.909722
vt 0.542969 0.909722
vt 0.533203 1.000000
vt 0.523478 0.909722
vt 0.515234 0.819444
vt 0.551172 0.819444
vt 0.542928 0.909722
vt 0.515265 0.819444
vt 0.509766 0.729167
vt 0.556641 0.729167
vt 0.551141 0.819444
vt 0.509745 0.729167
vt 0.558594 0.638889
vt 0.556661 0.729167
vt 0.574219 0.909722
vt 0.593750 0.909722
vt 0.583984 1.000000
vt 0.574260 0.909722
vt 0.566016 0.819444
vt 0.601953 0.819444
vt 0.593709 0.909722
vt 0.566046 0.819444
vt 0.560547 0.729167
vt 0.607422 0.729167
vt 0.601923 0.819444
vt 0.560526 0.729167
vt 0.609375 0.638889
vt 0.607442 0.729167
vt 0.625000 0.909722
vt 0.644531 0.909722
vt 0.634766 1.000000
vt 0.625041 0.909722
vt 0.616797 0.819444
vt 0.652734 0.819444
vt 0.644490 0.909722
vt 0.616827 0.819444
vt 0.611328 0.729167
vt 0.658203 0.729167
vt 0.652704 0.819444
vt 0.611308 0.729167
vt 0.660156 0.638889
vt 0.658224 0.729167
vt 0.675781 0.909722
vt 0.695312 0.909722
vt 0.685547 1.000000
vt 0.675822 0.909722
vt 0.667578 0.819444
vt 0.703516 0.819444
vt 0.695272 0.909722
vt 0.667609 0.819444
vt 0.662109 0.729167
vt 0.708984 0.729167
vt 0.703485 0.819444
vt 0.662089 0.729167
vt 0.710938 0.638889
vt 0.709005 0.729167
vt 0.726562 0.909722
vt 0.746094 0.909722
vt 0.736328 1.000000
vt 0.726603 0.909722
vt 0.718359 0.819444
vt 0.754297 0.819444
vt 0.746053 0.909722
vt 0.718390 0.819444
vt 0.712891 0.729167
vt 0.759766 0.729167
vt 0.754266 0.819444
vt 0.712870 0.729167
vt 0.761719 0.638889
vt 0.759786 0.729167
vt 0.777344 0.909722
vt 0.796875 0.909722
vt 0.787109 1.000000
vt 0.777385 0.909722
vt 0.769141 0.819444
vt 0.805078 0.819444
vt 0.796834 0.909722
vt 0.769171 0.819444
vt 0.763672 0.729167
vt 0.810547 0.729167
vt 0.805048 0.819444
vt 0.763651 0.729167
vt 0.812500 0.638889
vt 0.810567 0.729167
vt 0.015625 0.909722
vt 0.035156 0.909722
vt 0.025391 1.000000
vt 0.015666 0.909722
vt 0.007422 0.819444
vt 0.043359 0.819444
vt 0.035115 0.909722
vt 0.007452 0.819444
vt 0.001953 0.729167
vt 0.048828 0.729167
vt 0.043329 0.819444
vt 0.001933 0.729167
vt 0.000000 0.638889
vt 0.050781 0.638889
vt 0.048849 0.729167
vt 0.066406 0.909722
vt 0.085938 0.909722
vt 0.076172 1.000000
vt 0.066447 0.909722
vt 0.058203 0.819444
vt 0.094141 0.819444
vt 0.085897 0.909722
vt 0.058234 0.819444
vt 0.052734 0.729167
vt 0.099609 0.729167
vt 0.094110 0.819444
vt 0.052714 0.729167
vt 0.101562 0.638889
vt 0.099630 0.729167
vt 0.117188 0.909722
vt 0.136719 0.909722
vt 0.126953 1.000000
vt 0.117228 0.909722
vt 0.108984 0.819444
vt 0.144922 0.819444
vt 0.136678 0.909722
vt 0.109015 0.819444
vt 0.103516 0.729167
vt 0.150391 0.729167
vt 0.144891 0.819444
vt 0.103495 0.729167
vt 0.152344 0.638889
vt 0.150411 0.729167
vt 0.167969 0.909722
vt 0.187500 0.909722
vt 0.177734 1.000000
vt 0.168010 0.909722
vt 0.159766 0.819444
vt 0.195703 0.819444
vt 0.187459 0.909722
vt 0.159796 0.819444
vt 0.154297 0.729167
vt 0.201172 0.729167
vt 0.195673 0.819444
vt 0.154276 0.729167
vt 0.203125 0.638889
vt 0.201192 0.729167
vt 0.218750 0.909722
vt 0.238281 0.909722
vt 0.228516 1.000000
vt 0.218791 0.909722
vt 0.210547 0.819444
vt 0.246484 0.819444
vt 0.238240 0.909722
vt 0.210577 0.819444
vt 0.205078 0.729167
vt 0.251953 0.729167
vt 0.246454 0.819444
vt 0.205058 0.729167
vt 0.253906 0.638889
vt 0.251974 0.729167
vt 0.269531 0.909722
vt 0.289062 0.909722
vt 0.279297 1.000000
vt 0.269572 0.909722
vt 0.261328 0.819444
vt 0.297266 0.819444
vt 0.289022 0.909722
vt 0.261359 0.819444
vt 0.255859 0.729167
vt 0.302734 0.729167
vt 0.297235 0.819444
vt 0.255839 0.729167
vt 0.304688 0.638889
vt 0.302755 0.729167
vt 0.320312 0.909722
vt 0.339844 0.909722
vt 0.330078 1.000000
vt 0.320353 0.909722
vt 0.312109 0.819444
vt 0.348047 0.819444
vt 0.339803 0.909722
vt 0.312140 0.819444
vt 0.306641 0.729167
vt 0.353516 0.729167
vt 0.348016 0.819444
vt 0.306620 0.729167
vt 0.355469 0.638889
vt 0.353536 0.729167
vt 0.371094 0.909722
vt 0.390625 0.909722
vt 0.380859 1.000000
vt 0.371135 0.909722
vt 0.362891 0.819444
vt 0.398828 0.819444
vt 0.390584 0.909722
vt 0.362921 0.819444
vt 0.357422 0.729167
vt 0.404297 0.729167
vt 0.398798 0.819444
vt 0.357401 0.729167
vt 0.406250 0.638889
vt 0.404317 0.729167
vt 0.421875 0.909722
vt 0.441406 0.909722
vt 0.431641 1.000000
vt 0.421916 0.909722
vt 0.413672 0.819444
vt 0.449609 0.819444
vt 0.441365 0.909722
vt 0.413702 0.819444
vt 0.408203 0.729167
vt 0.455078 0.729167
vt 0.449579 0.819444
vt 0.408183 0.729167
vt 0.455099 0.729167
vt 0.408294 0.625000
vt 0.454987 0.625000
vt 0.357513 0.625000
vt 0.404206 0.625000
vt 0.306732 0.625000
vt 0.353424 0.625000
vt 0.255951 0.625000
vt 0.302643 0.625000
vt 0.205169 0.625000
vt 0.251862 0.625000
vt 0.154388 0.625000
vt 0.201081 0.625000
vt 0.103607 0.625000
vt 0.150299 0.625000
vt 0.052826 0.625000
vt 0.099518 0.625000
vt 0.002044 0.625000
vt 0.048737 0.625000
vt 0.763763 0.625000
vt 0.810456 0.625000
vt 0.712982 0.625000
vt 0.759674 0.625000
vt 0.662201 0.625000
vt 0.708893 0.625000
vt 0.611419 0.625000
vt 0.658112 0.625000
vt 0.560638 0.625000
vt 0.607331 0.625000
vt 0.509857 0.625000
vt 0.556549 0.625000
vt 0.459076 0.625000
vt 0.505768 0.625000
s 0
usemtl m_136fef01-34a2-3584-8702-df4d1715b62c
f 88/41/19 84/42/20 83/43/21
f 89/44/22 85/45/23 84/46/24
f 89/44/25 84/46/24 88/47/26
f 90/48/27 86/49/28 85/50/29
f 90/48/27 85/50/29 89/51/30
f 91/52/31 87/53/32 86/54/33
f 91/52/31 86/54/33 90/55/34
f 92/56/35 88/57/19 83/58/21
f 93/59/36 89/60/22 88/61/26
f 93/59/37 88/61/26 92/62/38
f 94/63/39 90/64/40 89/65/41
f 94/63/39 89/65/41 93/66/37
f 95/67/42 91/52/43 90/68/44
f 95/67/42 90/68/44 94/69/45
f 96/70/46 92/71/35 83/72/21
f 97/73/47 93/74/36 92/75/38
f 97/73/48 92/75/35 96/76/49
f 98/77/50 94/78/51 93/79/37
f 98/77/50 93/79/37 97/80/48
f 99/81/52 95/67/53 94/82/45
f 99/81/52 94/82/54 98/83/55
f 100/84/56 96/85/46 83/86/21
f 101/87/57 97/88/47 96/89/49
f 101/87/58 96/89/49 100/90/59
f 102/91/60 98/92/50 97/93/48
f 102/91/60 97/93/48 101/94/58
f 103/95/61 99/81/62 98/96/55
f 103/95/61 98/96/55 102/97/63
f 104/98/64 100/99/65 83/100/21
f 105/101/66 101/102/57 100/103/59
f 105/101/67 100/103/59 104/104/68
f 106/105/69 102/106/70 101/107/58
f 106/105/69 101/107/58 105/108/71
f 107/109/72 103/95/73 102/110/63
f 107/109/72 102/110/63 106/111/74
f 108/112/75 104/113/64 83/114/21
f 109/115/76 105/116/66 104/117/68
f 109/115/77 104/117/68 108/118/78
f 110/119/79 106/120/80 105/121/81
f 110/119/79 105/121/81 109/122/77
f 111/123/82 107/109/83 106/124/84
f 111/123/82 106/124/84 110/125/85
f 112/126/86 108/127/75 83/128/21
f 113/129/87 109/130/76 108/131/78
f 113/129/88 108/131/75 112/132/89
f 114/133/90 110/134/91 109/135/77
f 114/133/90 109/135/77 113/136/88
f 115/137/92 111/123/93 110/138/85
f 115/137/92 110/138/94 114/139/95
f 116/140/96 112/141/86 83/142/21
f 117/143/97 113/144/87 112/145/89
f 117/143/98 112/145/89 116/146/99
f 118/147/100 114/148/90 113/149/88
f 118/147/100 113/149/88 117/150/98
f 119/151/101 115/152/102 114/153/95
f 119/151/101 114/153/95 118/154/103
f 120/155/104 116/156/105 83/157/21
f 121/158/106 117/159/97 116/160/99
f 121/158/107 116/160/99 120/161/108
f 122/162/109 118/163/110 117/164/98
f 122/162/109 117/164/98 121/165/111
f 123/166/112 119/151/113 118/167/103
f 123/166/112 118/167/103 122/168/114
f 124/169/115 120/170/104 83/171/21
f 125/172/116 121/173/106 120/174/108
f 125/172/117 120/174/108 124/175/118
f 126/176/119 122/177/120 121/178/121
f 126/176/119 121/178/121 125/179/117
f 127/180/122 123/166/123 122/181/124
f 127/180/122 122/181/124 126/182/125
f 128/183/126 124/184/115 83/185/21
f 129/186/127 125/187/116 124/188/118
f 129/186/128 124/188/115 128/189/129
f 130/190/130 126/191/131 125/192/117
f 130/190/130 125/192/117 129/193/128
f 131/194/132 127/180/133 126/195/125
f 131/194/132 126/195/134 130/196/135
f 132/197/136 128/198/126 83/199/21
f 133/200/137 129/201/127 128/202/129
f 133/200/138 128/202/129 132/203/139
f 134/204/140 130/205/130 129/206/128
f 134/204/140 129/206/128 133/207/138
f 135/208/141 131/194/142 130/209/135
f 135/208/141 130/209/135 134/210/143
f 136/211/144 132/212/145 83/213/21
f 137/214/146 133/215/137 132/216/139
f 137/214/147 132/216/139 136/217/148
f 138/218/149 134/219/150 133/220/138
f 138/218/149 133/220/138 137/221/151
f 139/222/152 135/208/153 134/223/143
f 139/222/152 134/223/143 138/224/154
f 140/225/155 136/226/144 83/227/21
f 141/228/156 137/229/146 136/230/148
f 141/228/157 136/230/148 140/231/158
f 142/232/159 138/233/160 137/234/161
f 142/232/159 137/234/161 141/235/157
f 143/236/162 139/222/163 138/237/164
f 143/236/162 138/237/164 142/238/165
f 144/239/166 140/240/155 83/241/21
f 145/242/167 141/243/156 140/244/158
f 145/242/168 140/244/155 144/245/169
f 146/246/170 142/247/171 141/248/157
f 146/246/170 141/248/157 145/249/168
f 147/250/172 143/236/173 142/251/165
f 147/250/172 142/251/174 146/252/175
f 84/253/176 144/254/166 83/255/21
f 85/256/23 145/257/167 144/258/169
f 85/256/29 144/258/169 84/259/24
f 86/260/177 146/261/170 145/262/168
f 86/260/177 145/262/168 85/263/29
f 87/53/178 147/250/179 146/264/175
f 87/53/178 146/264/170 86/265/33
f 149/266/180 153/267/181 148/268/182
f 149/269/183 150/270/184 154/271/185
f 149/269/183 154/271/186 153/272/187
f 150/273/184 151/274/188 155/275/189
f 150/273/184 155/275/189 154/276/185
f 151/277/190 152/278/191 156/279/192
f 151/277/190 156/279/193 155/280/194
f 153/281/181 157/282/195 148/283/182
f 153/284/187 154/285/185 158/286/196
f 153/284/187 158/286/197 157/287/198
f 154/288/185 155/289/189 159/290/199
f 154/288/185 159/290/200 158/291/196
f 155/292/194 156/279/201 160/293/202
f 155/292/194 160/293/202 159/294/203
f 157/295/195 161/296/204 148/297/182
f 157/298/205 158/299/206 162/300/207
f 157/298/205 162/300/207 161/301/208
f 158/302/196 159/303/200 163/304/209
f 158/302/196 163/304/209 162/305/207
f 159/306/210 160/293/211 164/307/212
f 159/306/210 164/307/213 163/308/214
f 161/309/204 165/310/215 148/311/182
f 161/312/208 162/313/207 166/314/216
f 161/312/208 166/314/217 165/315/218
f 162/316/207 163/317/209 167/318/219
f 162/316/207 167/318/219 166/319/220
f 163/320/214 164/307/221 168/321/222
f 163/320/214 168/321/222 167/322/223
f 165/323/215 169/324/224 148/325/182
f 165/326/225 166/327/220 170/328/226
f 165/326/225 170/328/227 169/329/228
f 166/330/220 167/331/229 171/332/230
f 166/330/220 171/332/230 170/333/226
f 167/334/231 168/321/232 172/335/233
f 167/334/231 172/335/234 171/336/235
f 169/337/224 173/338/236 148/339/182
f 169/340/228 170/341/226 174/342/237
f 169/340/228 174/342/238 173/343/239
f 170/344/226 171/345/230 175/346/240
f 170/344/226 175/346/241 174/347/237
f 171/348/235 172/335/242 176/349/243
f 171/348/235 176/349/243 175/350/244
f 173/351/236 177/352/245 148/353/182
f 173/354/246 174/355/247 178/356/248
f 173/354/246 178/356/248 177/357/249
f 174/358/237 175/359/241 179/360/250
f 174/358/237 179/360/250 178/361/248
f 175/362/251 176/349/252 180/363/253
f 175/362/251 180/363/254 179/364/255
f 177/365/245 181/366/256 148/367/182
f 177/368/249 178/369/248 182/370/257
f 177/368/249 182/370/258 181/371/259
f 178/372/248 179/373/250 183/374/260
f 178/372/248 183/374/260 182/375/261
f 179/376/255 180/377/262 184/378/263
f 179/376/255 184/378/263 183/379/264
f 181/380/256 185/381/265 148/382/182
f 181/383/266 182/384/261 186/385/267
f 181/383/266 186/385/268 185/386/269
f 182/387/261 183/388/270 187/389/271
f 182/387/261 187/389/271 186/390/267
f 183/391/272 184/378/273 188/392/274
f 183/391/272 188/392/275 187/393/276
f 185/394/265 189/395/277 148/396/182
f 185/397/269 186/398/267 190/399/278
f 185/397/269 190/399/279 189/400/280
f 186/401/267 187/402/271 191/403/281
f 186/401/267 191/403/282 190/404/278
f 187/405/276 188/392/283 192/406/284
f 187/405/276 192/406/284 191/407/285
f 189/408/277 193/409/286 148/410/182
f 189/411/287 190/412/288 194/413/289
f 189/411/287 194/413/289 193/414/290
f 190/415/278 191/416/282 195/417/291
f 190/415/278 195/417/291 194/418/289
f 191/419/292 192/406/293 196/420/294
f 191/419/292 196/420/295 195/421/296
f 193/422/286 197/423/297 148/424/182
f 193/425/290 194/426/289 198/427/298
f 193/425/290 198/427/299 197/428/300
f 194/429/289 195/430/291 199/431/301
f 194/429/289 199/431/301 198/432/302
f 195/433/296 196/420/303 200/434/304
f 195/433/296 200/434/304 199/435/305
f 197/436/297 201/437/306 148/438/182
f 197/439/307 198/440/302 202/441/308
f 197/439/307 202/441/309 201/442/310
f 198/443/302 199/444/311 203/445/312
f 198/443/302 203/445/312 202/446/308
f 199/447/313 200/434/314 204/448/315
f 199/447/313 204/448/316 203/449/317
f 201/450/306 205/451/318 148/452/182
f 201/453/310 202/454/308 206/455/319
f 201/453/310 206/455/320 205/456/321
f 202/457/308 203/458/312 207/459/322
f 202/457/308 207/459/323 206/460/319
f 203/461/317 204/448/324 208/462/325
f 203/461/317 208/462/325 207/463/326
f 205/464/318 209/465/327 148/466/182
f 205/467/328 206/468/329 210/469/330
f 205/467/328 210/469/330 209/470/331
f 206/471/319 207/472/323 211/473/332
f 206/471/319 211/473/332 210/474/330
f 207/475/333 208/462/334 212/476/335
f 207/475/333 212/476/336 211/477/337
f 209/478/327 149/479/180 148/480/182
f 209/481/331 210/482/330 150/483/338
f 209/481/331 150/483/339 149/484/340
f 210/485/330 211/486/332 151/487/341
f 210/485/330 151/487/341 150/488/184
f 211/489/337 212/476/342 152/278/343
f 211/489/337 152/278/343 151/490/344
f 212/476/342 213/491/21 214/492/21
f 212/476/342 214/492/21 152/278/345
f 208/462/346 215/493/21 213/494/21
f 208/462/346 213/494/21 212/476/342
f 204/448/324 216/495/21 215/496/21
f 204/448/324 215/496/21 208/462/346
f 200/434/347 217/497/21 216/498/21
f 200/434/348 216/498/21 204/448/324
f 196/420/303 218/499/21 217/500/21
f 196/420/303 217/500/21 200/434/348
f 192/406/349 219/501/21 218/502/21
f 192/406/349 218/502/21 196/420/303
f 188/392/283 220/503/21 219/504/21
f 188/392/283 219/504/21 192/406/349
f 184/378/350 221/505/21 220/506/21
f 184/378/351 220/506/21 188/392/283
f 180/377/262 222/507/21 221/508/21
f 180/377/262 221/508/21 184/378/351
f 176/349/352 223/509/21 222/510/21
f 176/349/352 222/510/21 180/363/262
f 172/335/242 224/511/21 223/512/21
f 172/335/242 223/512/21 176/349/352
f 168/321/353 225/513/21 224/514/21
f 168/321/354 224/514/21 172/335/242
f 164/307/221 226/515/21 225/516/21
f 164/307/221 225/516/21 168/321/354
f 160/293/355 227/517/21 226/518/21
f 160/293/355 226/518/21 164/307/221
f 156/279/201 228/519/21 227/520/21
f 156/279/201 227/520/21 160/293/355
f 152/278/356 214/521/21 228/522/21
f 152/278/345 228/522/21 156/279/201
o innercover
v 0.500000 0.382683 0.923879
v -0.500000 0.382683 0.923879
v 0.500000 0.707107 0.707107
v -0.500000 0.707107 0.707107
v 0.500000 0.923879 0.382683
v -0.500000 0.923879 0.382683
v 0.500000 1.000000 -0.000000
v -0.500000 1.000000 -0.000000
v 0.500000 0.923879 -0.382683
v -0.500000 0.923879 -0.382683
v 0.500000 0.707107 -0.707107
v -0.500000 0.707107 -0.707107
v 0.500000 0.382683 -0.923879
v -0.500000 0.382683 -0.923879
v 0.500000 -0.000000 -1.000000
v -0.500000 -0.000000 -1.000000
v 0.500000 -0.382683 -0.923879
v -0.500000 -0.382683 -0.923879
v 0.500000 -0.707107 -0.707107
v -0.500000 -0.707107 -0.707107
v 0.500000 -0.923879 -0.382683
v -0.500000 -0.923879 -0.382683
v 0.500000 -1.000000 0.000000
v -0.500000 -1.000000 0.000000
v 0.500000 -0.923879 0.382683
v -0.500000 -0.923879 0.382683
v 0.500000 -0.707107 0.707107
v -0.500000 -0.707107 0.707107
v 0.500000 -0.382683 0.923879
v -0.500000 -0.382683 0.923879
v 0.500000 0.000000 1.000000
v -0.500000 0.000000 1.000000
vn -0.0000 0.3827 0.9239
vn -0.0000 0.7071 0.7071
vn -0.0000 0.9239 0.3827
vn -0.0000 0.9239 0.3826
vn -0.0000 1.0000 -0.0000
vn 0.0001 1.0000 -0.0000
vn -0.0001 1.0000 -0.0000
vn -0.0000 0.9239 -0.3826
vn -0.0000 0.9239 -0.3827
vn -0.0000 0.7071 -0.7071
vn -0.0000 0.3827 -0.9239
vn -0.0000 0.3826 -0.9239
vn -0.0000 -0.0000 -1.0000
vn 0.0001 -0.0000 -1.0000
vn -0.0001 -0.0000 -1.0000
vn -0.0000 -0.3826 -0.9239
vn -0.0000 -0.3827 -0.9239
vn -0.0000 -0.7071 -0.7071
vn -0.0000 -0.9239 -0.3827
vn -0.0000 -0.9239 -0.3826
vn -0.0000 -1.0000 -0.0000
vn 0.0001 -1.0000 -0.0000
vn -0.0001 -1.0000 -0.0000
vn -0.0000 -0.9239 0.3826
vn -0.0000 -0.9239 0.3827
vn -0.0000 -0.7071 0.7071
vn -0.0000 -0.3827 0.9239
vn -0.0000 -0.3826 0.9239
vn -0.0000 -0.0000 1.0000
vn 0.0001 -0.0000 1.0000
vn -0.0001 -0.0000 1.0000
vn -0.0000 0.3826 0.9239
vt 0.937500 0.625000
vt 0.937500 0.583333
vt 1.000000 0.583333
vt 1.000000 0.625000
vt 0.937500 0.541667
vt 1.000000 0.541667
vt 0.937500 0.500000
vt 1.000000 0.500000
vt 0.937500 0.458333
vt 1.000000 0.458333
vt 0.937500 0.416667
vt 1.000000 0.416667
vt 0.937500 0.375000
vt 1.000000 0.375000
vt 0.937500 0.333333
vt 1.000000 0.333333
vt 0.937500 1.000000
vt 0.937500 0.958333
vt 1.000000 0.958333
vt 1.000000 1.000000
vt 0.937500 0.916667
vt 1.000000 0.916667
vt 0.937500 0.875000
vt 1.000000 0.875000
vt 0.937500 0.833333
vt 1.000000 0.833333
vt 0.937500 0.791667
vt 1.000000 0.791667
vt 0.937500 0.750000
vt 1.000000 0.750000
vt 0.937500 0.708333
vt 1.000000 0.708333
vt 0.937500 0.666667
vt 1.000000 0.666667
s 0
usemtl m_136fef01-34a2-3584-8702-df4d1715b62c
f 229/523/357 231/524/358 232/525/358
f 229/523/357 232/525/358 230/526/357
f 231/524/358 233/527/359 234/528/359
f 231/524/358 234/528/359 232/525/358
f 233/527/360 235/529/361 236/530/361
f 233/527/360 236/530/362 234/528/360
f 235/529/363 237/531/364 238/532/364
f 235/529/361 238/532/364 236/530/361
f 237/531/365 239/533/366 240/534/366
f 237/531/365 240/534/366 238/532/365
f 239/533/366 241/535/367 242/536/367
f 239/533/366 242/536/367 240/534/366
f 241/535/368 243/537/369 244/538/369
f 241/535/368 244/538/370 242/536/368
f 243/539/371 245/540/372 246/541/372
f 243/539/369 246/541/372 244/542/369
f 245/540/373 247/543/374 248/544/374
f 245/540/373 248/544/374 246/541/373
f 247/543/374 249/545/375 250/546/375
f 247/543/374 250/546/375 248/544/374
f 249/545/376 251/547/377 252/548/377
f 249/545/376 252/548/378 250/546/376
f 251/547/379 253/549/380 254/550/380
f 251/547/377 254/550/380 252/548/377
f 253/549/381 255/551/382 256/552/382
f 253/549/381 256/552/382 254/550/381
f 255/551/382 257/553/383 258/554/383
f 255/551/382 258/554/383 256/552/382
f 257/553/384 259/555/385 260/556/385
f 257/553/384 260/556/386 258/554/384
f 259/555/387 229/523/388 230/526/388
f 259/555/385 230/526/388 260/556/385
o outer_cover
v -1.875000 -0.000000 -0.000000
v -0.717531 -1.600412 -0.662912
v -1.325825 -1.224903 -0.507371
v -1.732274 -0.662912 -0.274587
v -0.717531 -1.224903 -1.224902
v -1.325825 -0.937500 -0.937500
v -1.732274 -0.507371 -0.507371
v -0.717531 -0.662913 -1.600412
v -1.325825 -0.507371 -1.224903
v -1.732274 -0.274588 -0.662912
v -0.717531 -0.000000 -1.732274
v -1.325825 -0.000000 -1.325825
v -1.732274 -0.000000 -0.717531
v -0.717531 0.000000 1.732274
v -1.325825 0.000000 1.325825
v -1.732274 0.000000 0.717531
v -0.717531 -0.662912 1.600412
v -1.325825 -0.507371 1.224903
v -1.732274 -0.274587 0.662912
v -0.717531 -1.224902 1.224903
v -1.325825 -0.937500 0.937500
v -1.732274 -0.507371 0.507371
v -0.717531 -1.600412 0.662913
v -1.325825 -1.224903 0.507371
v -1.732274 -0.662912 0.274588
v -0.717531 -1.732274 0.000000
v -1.325825 -1.325825 0.000000
v -1.732274 -0.717531 0.000000
v -0.499920 -1.640403 -0.679477
v -0.499920 -1.255511 -1.255510
v -0.499920 -0.679478 -1.640403
v -0.499920 -0.000000 -1.775560
v -0.499920 -1.775560 0.000000
v -0.499920 -1.640403 0.679478
v -0.499920 -1.255510 1.255511
v -0.499920 -0.679477 1.640403
v -0.499920 0.000000 1.775560
v -0.500000 -0.000000 -0.000000
v 1.875000 -0.000000 -0.000000
v 0.717531 -1.600412 -0.662912
v 1.325825 -1.224903 -0.507371
v 1.732274 -0.662912 -0.274587
v 0.717531 -1.224903 -1.224902
v 1.325825 -0.937500 -0.937500
v 1.732274 -0.507371 -0.507371
v 0.717531 -0.662913 -1.600412
v 1.325825 -0.507371 -1.224903
v 1.732274 -0.274588 -0.662912
v 0.717531 -0.000000 -1.732274
v 1.325825 -0.000000 -1.325825
v 1.732274 -0.000000 -0.717531
v 0.717531 0.000000 1.732274
v 1.325825 0.000000 1.325825
v 1.732274 0.000000 0.717531
v 0.717531 -0.662912 1.600412
v 1.325825 -0.507371 1.224903
v 1.732274 -0.274587 0.662912
v 0.717531 -1.224902 1.224903
v 1.325825 -0.937500 0.937500
v 1.732274 -0.507371 0.507371
v 0.717531 -1.600412 0.662913
v 1.325825 -1.224903 0.507371
v 1.732274 -0.662912 0.274588
v 0.717531 -1.732274 0.000000
v 1.325825 -1.325825 0.000000
v 1.732274 -0.717531 0.000000
v 0.499920 -1.640403 -0.679477
v 0.499920 -1.255511 -1.255510
v 0.499920 -0.679478 -1.640403
v 0.499920 -0.000000 -1.775560
v 0.499920 -1.775560 0.000000
v 0.499920 -1.640403 0.679478
v 0.499920 -1.255510 1.255511
v 0.499920 -0.679477 1.640403
v 0.499920 0.000000 1.775560
v 0.500000 -0.000000 -0.000000
vn -0.3831 -0.6532 -0.6531
vn 0.6432 -0.5415 -0.5414
vn 0.6432 -0.7074 -0.2930
vn -0.3831 -0.8534 -0.3535
vn -0.3832 -0.8533 -0.3535
vn -0.7076 -0.6528 -0.2704
vn -0.7076 -0.4997 -0.4996
vn -0.3832 -0.6532 -0.6531
vn -0.7077 -0.6528 -0.2704
vn -0.9241 -0.3531 -0.1463
vn -0.9241 -0.2703 -0.2703
vn -0.7076 -0.4996 -0.4996
vn -0.9241 -0.2702 -0.2702
vn -0.9241 -0.3530 -0.1463
vn -0.9917 -0.1289 -0.0000
vn -0.3831 -0.3535 -0.8534
vn 0.6432 -0.2931 -0.7074
vn 0.6432 -0.5414 -0.5414
vn -0.3831 -0.6531 -0.6532
vn -0.3832 -0.6531 -0.6532
vn -0.7076 -0.4996 -0.4997
vn -0.7076 -0.2704 -0.6528
vn -0.3832 -0.6531 -0.6531
vn -0.3832 -0.3535 -0.8533
vn -0.7077 -0.4996 -0.4996
vn -0.9241 -0.1463 -0.3531
vn -0.9241 -0.1462 -0.3531
vn -0.3768 -0.1807 -0.9085
vn 0.6358 -0.1506 -0.7570
vn 0.6432 -0.2930 -0.7074
vn -0.3832 -0.3534 -0.8534
vn -0.7007 -0.1392 -0.6997
vn -0.3769 -0.1807 -0.9085
vn -0.7077 -0.2704 -0.6528
vn -0.9214 -0.0758 -0.3811
vn -0.7008 -0.1392 -0.6997
vn -0.3831 -0.3535 0.8534
vn 0.6432 -0.2930 0.7074
vn 0.6358 -0.1506 0.7570
vn -0.3768 -0.1807 0.9085
vn -0.3769 -0.1807 0.9085
vn -0.7007 -0.1392 0.6997
vn -0.7076 -0.2704 0.6528
vn -0.3832 -0.3534 0.8534
vn -0.7008 -0.1392 0.6997
vn -0.9214 -0.0758 0.3811
vn -0.9241 -0.1463 0.3531
vn -0.9241 -0.1462 0.3531
vn -0.9241 -0.1462 0.3530
vn -0.9917 -0.1288 -0.0000
vn -0.3831 -0.6531 0.6532
vn 0.6432 -0.5414 0.5415
vn -0.3832 -0.3535 0.8533
vn -0.7076 -0.4996 0.4997
vn -0.3832 -0.6531 0.6532
vn -0.7077 -0.2704 0.6528
vn -0.9241 -0.2703 0.2703
vn -0.7076 -0.4996 0.4996
vn -0.9241 -0.2702 0.2702
vn -0.9241 -0.1463 0.3530
vn -0.3831 -0.8534 0.3535
vn 0.6432 -0.7074 0.2931
vn 0.6432 -0.5414 0.5414
vn -0.3831 -0.6532 0.6531
vn -0.3832 -0.6532 0.6531
vn -0.7076 -0.4997 0.4996
vn -0.7076 -0.6528 0.2704
vn -0.3832 -0.6531 0.6531
vn -0.3832 -0.8533 0.3535
vn -0.7077 -0.4996 0.4996
vn -0.9241 -0.3531 0.1463
vn -0.9241 -0.3531 0.1462
vn -0.3831 -0.9237 -0.0000
vn 0.6432 -0.7657 -0.0000
vn 0.6432 -0.7074 0.2930
vn -0.3832 -0.8534 0.3534
vn -0.7076 -0.7066 -0.0000
vn -0.3832 -0.9237 -0.0000
vn -0.7077 -0.6528 0.2704
vn -0.9241 -0.3822 -0.0000
vn -0.9241 -0.3821 -0.0000
vn -0.3832 -0.8534 -0.3534
vn -0.7077 -0.7066 -0.0000
vn -0.9241 -0.3531 -0.1462
vn -0.9241 -0.3530 -0.1462
vn 0.6431 -0.7075 0.2930
vn 1.0000 -0.0000 -0.0000
vn 0.6431 -0.5415 0.5415
vn 0.6431 -0.7657 -0.0000
vn 0.6431 -0.7075 -0.2930
vn 0.6431 -0.5415 -0.5415
vn 0.6431 -0.7074 -0.2930
vn 0.6431 -0.2933 -0.7074
vn 0.6358 -0.1505 -0.7570
vn 0.6431 -0.2930 -0.7075
vn 0.6431 -0.2930 0.7074
vn 0.6431 -0.2930 0.7075
vn -0.6432 -0.7075 -0.2930
vn -0.6432 -0.5415 -0.5415
vn 0.3831 -0.6532 -0.6531
vn 0.3832 -0.6532 -0.6531
vn 0.3831 -0.8534 -0.3535
vn 0.7076 -0.4997 -0.4996
vn 0.7076 -0.6528 -0.2704
vn 0.3832 -0.8533 -0.3535
vn 0.3832 -0.6531 -0.6531
vn 0.9241 -0.2703 -0.2703
vn 0.9241 -0.3531 -0.1463
vn 0.7077 -0.6528 -0.2704
vn 0.7076 -0.4996 -0.4996
vn 0.9241 -0.3531 -0.1462
vn 0.9241 -0.2702 -0.2702
vn 0.9917 -0.1289 -0.0000
vn -0.6432 -0.5415 -0.5414
vn -0.6432 -0.2930 -0.7074
vn 0.3831 -0.3535 -0.8534
vn 0.3832 -0.3535 -0.8534
vn 0.3831 -0.6531 -0.6532
vn 0.7076 -0.2704 -0.6528
vn 0.7076 -0.4996 -0.4997
vn 0.3832 -0.6531 -0.6532
vn 0.3832 -0.3535 -0.8533
vn 0.9241 -0.1463 -0.3531
vn 0.7077 -0.4996 -0.4996
vn 0.9241 -0.1463 -0.3530
vn -0.6432 -0.2931 -0.7074
vn -0.6358 -0.1505 -0.7570
vn 0.3768 -0.1807 -0.9085
vn 0.7007 -0.1392 -0.6997
vn 0.3832 -0.3534 -0.8534
vn 0.3769 -0.1807 -0.9085
vn 0.9214 -0.0758 -0.3811
vn 0.7077 -0.2704 -0.6528
vn 0.7008 -0.1392 -0.6997
vn 0.9241 -0.1462 -0.3530
vn 0.9917 -0.1288 -0.0000
vn -0.6358 -0.1505 0.7570
vn -0.6432 -0.2930 0.7074
vn 0.3831 -0.3535 0.8534
vn 0.3832 -0.3534 0.8534
vn 0.3768 -0.1807 0.9085
vn 0.7076 -0.2704 0.6528
vn 0.7007 -0.1392 0.6997
vn 0.3769 -0.1807 0.9085
vn 0.9241 -0.1462 0.3531
vn 0.9214 -0.0758 0.3811
vn 0.7008 -0.1392 0.6997
vn 0.9241 -0.1463 0.3531
vn -0.6432 -0.2930 0.7075
vn -0.6432 -0.5415 0.5415
vn 0.3831 -0.6531 0.6532
vn 0.3832 -0.6531 0.6532
vn 0.7076 -0.4996 0.4997
vn 0.3832 -0.3535 0.8533
vn 0.3832 -0.6531 0.6531
vn 0.9241 -0.2703 0.2703
vn 0.7077 -0.2704 0.6528
vn 0.7076 -0.4996 0.4996
vn 0.9241 -0.2702 0.2702
vn -0.6432 -0.5414 0.5415
vn -0.6432 -0.7074 0.2930
vn 0.3831 -0.8534 0.3535
vn 0.3832 -0.8534 0.3535
vn 0.3831 -0.6532 0.6531
vn 0.7076 -0.6528 0.2704
vn 0.7076 -0.4997 0.4996
vn 0.3832 -0.6532 0.6531
vn 0.3832 -0.8533 0.3535
vn 0.9241 -0.3531 0.1463
vn 0.7077 -0.4996 0.4996
vn 0.9241 -0.3530 0.1463
vn -0.6432 -0.7074 0.2931
vn -0.6432 -0.7657 -0.0000
vn 0.3831 -0.9237 -0.0000
vn 0.3832 -0.9237 0.0001
vn 0.7076 -0.7066 -0.0000
vn 0.3832 -0.8534 0.3534
vn 0.3832 -0.9237 -0.0000
vn 0.9241 -0.3822 -0.0000
vn 0.7077 -0.6528 0.2704
vn 0.9241 -0.3530 0.1462
vn 0.9241 -0.3821 -0.0000
vn -0.6432 -0.7074 -0.2930
vn 0.3832 -0.8534 -0.3534
vn 0.7077 -0.7066 -0.0000
vn -1.0000 -0.0000 -0.0000
vn -0.6431 -0.7074 0.2930
vn -0.6431 -0.5415 0.5415
vn -0.6431 -0.7657 -0.0000
vn -0.6431 -0.7075 0.2930
vn -0.6431 -0.7075 -0.2930
vn -0.6431 -0.5415 -0.5415
vn -0.6431 -0.2930 -0.7074
vn -0.6358 -0.1506 -0.7570
vn -0.6431 -0.2930 -0.7075
vn -0.6431 -0.2930 0.7075
vt 0.742711 0.048611
vt 0.742188 0.020833
vt 0.785156 0.020833
vt 0.784633 0.048611
vt 0.784570 0.048611
vt 0.779667 0.125000
vt 0.747677 0.125000
vt 0.742773 0.048611
vt 0.779688 0.125000
vt 0.772340 0.208333
vt 0.755005 0.208333
vt 0.747656 0.125000
vt 0.754980 0.208334
vt 0.772363 0.208333
vt 0.763672 0.284722
vt 0.699742 0.048611
vt 0.699219 0.020833
vt 0.741663 0.048611
vt 0.741602 0.048611
vt 0.736698 0.125000
vt 0.704708 0.125000
vt 0.699805 0.048611
vt 0.736719 0.125000
vt 0.729371 0.208333
vt 0.712036 0.208333
vt 0.704687 0.125000
vt 0.712012 0.208334
vt 0.729395 0.208333
vt 0.720704 0.284722
vt 0.656774 0.048611
vt 0.656250 0.020833
vt 0.698695 0.048611
vt 0.698633 0.048611
vt 0.693729 0.125000
vt 0.661739 0.125000
vt 0.656836 0.048611
vt 0.693750 0.125000
vt 0.686402 0.208333
vt 0.669067 0.208333
vt 0.661719 0.125000
vt 0.669043 0.208334
vt 0.686426 0.208333
vt 0.677735 0.284722
vt 0.957555 0.048611
vt 0.957031 0.020833
vt 1.000000 0.020833
vt 0.999476 0.048611
vt 0.999414 0.048611
vt 0.994511 0.125000
vt 0.962521 0.125000
vt 0.957617 0.048611
vt 0.994531 0.125000
vt 0.987183 0.208333
vt 0.969848 0.208333
vt 0.962500 0.125000
vt 0.969824 0.208333
vt 0.987207 0.208333
vt 0.978516 0.284722
vt 0.914587 0.048611
vt 0.914062 0.020833
vt 0.956508 0.048611
vt 0.956445 0.048611
vt 0.951542 0.125000
vt 0.919552 0.125000
vt 0.914648 0.048611
vt 0.951563 0.125000
vt 0.944214 0.208333
vt 0.926879 0.208333
vt 0.919531 0.125000
vt 0.926855 0.208333
vt 0.944238 0.208333
vt 0.935547 0.284722
vt 0.871617 0.048611
vt 0.871094 0.020833
vt 0.913539 0.048611
vt 0.913477 0.048611
vt 0.908573 0.125000
vt 0.876583 0.125000
vt 0.871680 0.048611
vt 0.908594 0.125000
vt 0.901245 0.208333
vt 0.883910 0.208333
vt 0.876562 0.125000
vt 0.883887 0.208333
vt 0.901270 0.208334
vt 0.892578 0.284722
vt 0.828649 0.048611
vt 0.828125 0.020833
vt 0.870570 0.048611
vt 0.870508 0.048611
vt 0.865605 0.125000
vt 0.833615 0.125000
vt 0.828711 0.048611
vt 0.865625 0.125000
vt 0.858278 0.208333
vt 0.840943 0.208333
vt 0.833594 0.125001
vt 0.840918 0.208333
vt 0.858301 0.208333
vt 0.849609 0.284722
vt 0.785680 0.048611
vt 0.827601 0.048611
vt 0.827539 0.048611
vt 0.822635 0.125000
vt 0.790645 0.125000
vt 0.785742 0.048611
vt 0.822656 0.125001
vt 0.815307 0.208333
vt 0.797972 0.208333
vt 0.790625 0.125000
vt 0.797949 0.208333
vt 0.815332 0.208333
vt 0.806641 0.284722
vt 0.570312 0.020835
vt 0.591798 0.215278
vt 0.613281 0.020833
vt 0.570312 0.020834
vt 0.570312 0.020833
vt 0.591797 0.215278
vt 0.591797 0.215278
vt 0.613281 0.020834
vt 0.570312 0.020834
vt 0.591797 0.215278
vt 0.527344 0.020833
vt 0.548828 0.215278
vt 0.591798 0.215278
vt 0.634766 0.215278
s 0
usemtl m_136fef01-34a2-3584-8702-df4d1715b62c
f 265/557/389 290/558/390 289/559/391
f 265/557/389 289/559/391 262/560/392
f 262/561/393 263/562/394 266/563/395
f 262/561/393 266/563/395 265/564/396
f 263/565/397 264/566/398 267/567/399
f 263/565/394 267/567/399 266/568/400
f 267/569/401 264/570/402 261/571/403
f 268/572/404 291/573/405 290/558/390
f 268/572/404 290/558/406 265/574/407
f 265/575/408 266/576/409 269/577/410
f 265/575/411 269/577/410 268/578/412
f 266/579/413 267/580/399 270/581/414
f 266/579/400 270/581/414 269/582/410
f 270/583/415 267/584/401 261/585/403
f 271/586/416 292/587/417 291/573/418
f 271/586/416 291/573/418 268/588/404
f 268/589/419 269/590/410 272/591/420
f 268/589/419 272/591/420 271/592/421
f 269/593/422 270/594/414 273/595/423
f 269/593/410 273/595/423 272/596/424
f 273/597/423 270/598/415 261/599/403
f 277/600/425 296/601/426 297/602/427
f 277/600/425 297/602/427 274/603/428
f 274/604/429 275/605/430 278/606/431
f 274/604/429 278/606/431 277/607/432
f 275/608/433 276/609/434 279/610/435
f 275/608/433 279/610/436 278/611/431
f 279/612/437 276/613/434 261/614/438
f 280/615/439 295/616/440 296/601/426
f 280/615/439 296/601/426 277/617/425
f 277/618/441 278/619/431 281/620/442
f 277/618/441 281/620/442 280/621/443
f 278/622/444 279/623/435 282/624/445
f 278/622/431 282/624/445 281/625/446
f 282/626/447 279/627/448 261/628/403
f 283/629/449 294/630/450 295/616/440
f 283/629/449 295/616/451 280/631/452
f 280/632/453 281/633/454 284/634/455
f 280/632/456 284/634/455 283/635/457
f 281/636/458 282/637/445 285/638/459
f 281/636/446 285/638/459 284/639/455
f 285/640/460 282/641/447 261/642/403
f 286/643/461 293/644/462 294/630/463
f 286/643/461 294/630/463 283/645/449
f 283/646/464 284/647/455 287/648/465
f 283/646/464 287/648/465 286/649/466
f 284/650/467 285/651/459 288/652/468
f 284/650/455 288/652/468 287/653/465
f 288/654/469 285/655/460 261/656/403
f 262/657/392 289/559/391 293/644/462
f 262/657/392 293/644/462 286/658/461
f 286/659/466 287/660/465 263/661/394
f 286/659/466 263/661/394 262/662/470
f 287/663/471 288/664/468 264/665/398
f 287/663/465 264/665/472 263/666/394
f 264/667/473 288/668/469 261/669/403
f 294/670/474 298/671/475 295/672/476
f 293/673/477 298/671/475 294/672/474
f 289/674/478 298/675/475 293/672/477
f 290/674/479 298/676/475 289/677/480
f 291/678/481 298/679/475 290/672/479
f 292/680/482 298/681/475 291/674/483
f 295/674/476 298/682/475 296/672/484
f 296/672/485 298/683/475 297/587/427
f 327/559/486 328/558/487 303/557/488
f 327/559/486 303/557/489 300/560/490
f 304/563/491 301/562/492 300/561/493
f 304/563/491 300/561/493 303/564/494
f 305/567/495 302/566/496 301/565/497
f 305/567/495 301/565/492 304/568/498
f 302/570/499 305/569/500 299/571/501
f 328/558/502 329/573/503 306/572/504
f 328/558/502 306/572/505 303/574/506
f 307/577/507 304/576/508 303/575/509
f 307/577/507 303/575/509 306/578/510
f 308/581/511 305/580/495 304/579/512
f 308/581/511 304/579/498 307/582/507
f 305/584/500 308/583/513 299/585/501
f 329/573/514 330/587/515 309/586/516
f 329/573/514 309/586/516 306/588/504
f 310/591/517 307/590/507 306/589/518
f 310/591/517 306/589/518 309/592/519
f 311/595/520 308/594/511 307/593/521
f 311/595/520 307/593/507 310/596/522
f 308/598/523 311/597/520 299/599/524
f 335/602/525 334/601/526 315/600/527
f 335/602/525 315/600/528 312/603/529
f 316/606/530 313/605/531 312/604/532
f 316/606/530 312/604/532 315/607/528
f 317/610/533 314/609/534 313/608/535
f 317/610/536 313/608/535 316/611/530
f 314/613/534 317/612/533 299/614/501
f 334/601/537 333/616/538 318/615/539
f 334/601/537 318/615/540 315/617/527
f 319/620/541 316/619/530 315/618/542
f 319/620/541 315/618/542 318/621/543
f 320/624/544 317/623/536 316/622/545
f 320/624/544 316/622/530 319/625/546
f 317/627/533 320/626/547 299/628/501
f 333/616/548 332/630/549 321/629/550
f 333/616/548 321/629/551 318/631/552
f 322/634/553 319/633/554 318/632/555
f 322/634/553 318/632/555 321/635/556
f 323/638/557 320/637/544 319/636/558
f 323/638/557 319/636/546 322/639/553
f 320/641/547 323/640/559 299/642/501
f 332/630/560 331/644/561 324/643/562
f 332/630/560 324/643/563 321/645/550
f 325/648/564 322/647/553 321/646/565
f 325/648/564 321/646/565 324/649/566
f 326/652/567 323/651/557 322/650/568
f 326/652/567 322/650/553 325/653/564
f 323/655/569 326/654/570 299/656/501
f 331/644/561 327/559/571 300/657/490
f 331/644/561 300/657/572 324/658/562
f 301/661/492 325/660/564 324/659/566
f 301/661/492 324/659/566 300/662/572
f 302/665/499 326/664/567 325/663/573
f 302/665/496 325/663/564 301/666/492
f 326/668/570 302/667/499 299/669/501
f 336/671/574 332/670/575 333/672/576
f 336/671/574 331/673/577 332/672/578
f 336/675/574 327/674/579 331/672/577
f 336/676/574 328/674/580 327/677/579
f 336/679/574 329/678/581 328/672/580
f 336/681/574 330/680/582 329/674/583
f 336/682/574 333/674/576 334/672/584
f 336/683/574 334/672/584 335/587/525
