# Blender 4.2.0
# www.blender.org
mtllib Steam_bp.mtl
o base
v 1.265165 1.000000 0.265165
v 1.265165 3.000000 0.265165
v 1.375000 1.000000 -0.000000
v 1.375000 3.000000 -0.000000
v 1.265165 1.000000 -0.265165
v 1.265165 3.000000 -0.265165
v 1.000000 1.000000 -0.375000
v 1.000000 3.000000 -0.375000
v 0.734835 1.000000 -0.265165
v 0.734835 3.000000 -0.265165
v 0.625000 1.000000 -0.000000
v 0.625000 3.000000 -0.000000
v 0.734835 1.000000 0.265165
v 0.734835 3.000000 0.265165
v 1.000000 1.000000 0.375000
v 1.000000 3.000000 0.375000
v -0.734835 1.000000 0.265165
v -0.734835 3.000000 0.265165
v -0.625000 1.000000 -0.000000
v -0.625000 3.000000 -0.000000
v -0.734835 1.000000 -0.265165
v -0.734835 3.000000 -0.265165
v -1.000000 1.000000 -0.375000
v -1.000000 3.000000 -0.375000
v -1.265165 1.000000 -0.265165
v -1.265165 3.000000 -0.265165
v -1.375000 1.000000 -0.000000
v -1.375000 3.000000 -0.000000
v -1.265165 1.000000 0.265165
v -1.265165 3.000000 0.265165
v -1.000000 1.000000 0.375000
v -1.000000 3.000000 0.375000
v 0.500000 1.000000 0.375000
v 0.500000 1.000000 -0.375000
v 0.500000 0.000000 0.375000
v 0.500000 -0.000000 -0.375000
v -0.500000 1.000000 0.375000
v -0.500000 1.000000 -0.375000
v -0.500000 0.000000 0.375000
v -0.500000 -0.000000 -0.375000
v 0.625000 1.000000 0.500000
v 0.625000 0.000000 0.500000
v 0.625000 1.000000 -0.500000
v 0.625000 -0.000000 -0.500000
v 1.375000 0.000000 0.500000
v 1.375000 -0.000000 -0.500000
v -0.625000 1.000000 0.500000
v -0.625000 1.000000 -0.500000
v -0.625000 0.000000 0.500000
v -0.625000 -0.000000 -0.500000
v -1.375000 1.000000 0.500000
v -1.375000 1.000000 -0.500000
v -1.375000 0.000000 0.500000
v -1.375000 -0.000000 -0.500000
v -1.500000 1.000000 0.375000
v -1.500000 1.000000 -0.375000
v -1.500000 0.000000 0.375000
v -1.500000 -0.000000 -0.375000
v 1.375000 1.000000 -0.500000
v 1.375000 1.000000 0.500000
v 1.500000 1.000000 -0.375000
v 1.500000 1.000000 0.375000
v 1.500000 -0.000000 -0.375000
v 1.500000 0.000000 0.375000
v 1.155330 1.000000 0.375000
v 1.155330 1.125000 0.375000
v 1.375000 1.000000 0.155330
v 1.375000 1.125000 0.155330
v 1.375000 1.000000 -0.155330
v 1.375000 1.125000 -0.155330
v 1.155330 1.000000 -0.375000
v 1.155330 1.125000 -0.375000
v 0.844670 1.000000 -0.375000
v 0.844670 1.125000 -0.375000
v 0.625000 1.000000 -0.155330
v 0.625000 1.125000 -0.155330
v 0.625000 1.000000 0.155330
v 0.625000 1.125000 0.155330
v 0.844670 1.000000 0.375000
v 0.844670 1.125000 0.375000
v 0.870558 1.125000 0.312500
v 0.687500 1.125000 0.129442
v 1.312500 1.125000 0.129442
v 1.129442 1.125000 0.312500
v 1.312500 1.125000 -0.129442
v 1.129442 1.125000 -0.312500
v 0.870558 1.125000 -0.312500
v 0.687500 1.125000 -0.129442
v -0.844670 1.000000 0.375000
v -0.844670 1.125000 0.375000
v -0.625000 1.000000 0.155330
v -0.625000 1.125000 0.155330
v -0.625000 1.000000 -0.155330
v -0.625000 1.125000 -0.155330
v -0.844670 1.000000 -0.375000
v -0.844670 1.125000 -0.375000
v -1.155330 1.000000 -0.375000
v -1.155330 1.125000 -0.375000
v -1.375000 1.000000 -0.155330
v -1.375000 1.125000 -0.155330
v -1.375000 1.000000 0.155330
v -1.375000 1.125000 0.155330
v -1.155330 1.000000 0.375000
v -1.155330 1.125000 0.375000
v -1.129442 1.125000 0.312500
v -1.312500 1.125000 0.129442
v -0.687500 1.125000 0.129442
v -0.870558 1.125000 0.312500
v -0.687500 1.125000 -0.129442
v -0.870558 1.125000 -0.312500
v -1.129442 1.125000 -0.312500
v -1.312500 1.125000 -0.129442
vn 0.7071 -0.0000 0.7071
vn 1.0000 -0.0000 -0.0000
vn 0.7071 -0.0000 -0.7071
vn -0.0000 -0.0000 -1.0000
vn -0.7071 -0.0000 -0.7071
vn -1.0000 -0.0000 -0.0000
vn -0.7071 -0.0000 0.7071
vn -0.0000 -0.0000 1.0000
vn -0.8125 -0.4760 0.3366
vn -0.8125 0.4760 0.3366
vn -0.8125 0.4760 -0.3365
vn -0.8125 -0.4760 0.3365
vn -0.8125 0.4760 -0.3366
vn -0.8125 -0.4760 -0.3366
vn 0.2597 0.7345 0.6270
vn -0.2597 0.7345 0.6270
vn -0.2597 0.7345 -0.6270
vn 0.2597 0.7345 -0.6270
vn -0.2596 -0.7345 -0.6270
vn -0.2598 -0.7345 0.6270
vn 0.2597 -0.7345 0.6270
vn -0.2597 -0.7345 -0.6270
vn 0.2596 -0.7345 0.6270
vn 0.2598 -0.7345 -0.6270
vn -0.2596 -0.7345 0.6269
vn -0.2597 0.7345 0.6269
vn 0.2596 0.7345 0.6269
vn 0.2597 -0.7345 0.6269
vn 0.2598 0.7345 -0.6269
vn -0.2596 0.7345 -0.6269
vn -0.2596 -0.7345 -0.6269
vn 0.2596 0.7345 -0.6269
vn -0.2598 -0.7345 -0.6269
vn 0.2596 -0.7345 -0.6269
vn -0.2597 -0.7345 0.6269
vn -0.2596 0.7345 0.6270
vn -0.2597 0.7346 0.6269
vn -0.2597 -0.7345 0.6270
vn -0.2597 0.7345 -0.6269
vn -0.2597 -0.7345 -0.6269
vn -0.2597 -0.7346 -0.6269
vn 0.2596 0.7345 0.6270
vn -0.2598 0.7345 -0.6270
vn 0.2598 0.7345 0.6270
vn -0.2596 0.7345 -0.6270
vn 0.2596 -0.7345 0.6269
vn 0.2598 0.7345 0.6269
vn -0.2596 0.7345 0.6269
vn -0.2598 -0.7345 0.6269
vn 0.2596 -0.7345 -0.6270
vn -0.2596 -0.7345 0.6270
vn 0.2598 -0.7345 -0.6269
vn 0.2597 0.7345 -0.6269
vn -0.2598 0.7345 -0.6269
vn 0.2597 0.7345 0.6269
vn 0.2597 -0.7346 0.6269
vn 0.2597 -0.7345 -0.6269
vn 0.2596 0.7345 -0.6270
vn 0.2597 0.7346 -0.6269
vn 0.2597 -0.7345 -0.6270
vn -0.8125 0.4760 0.3365
vn -0.8125 -0.4760 -0.3365
vn 0.8125 -0.4760 -0.3366
vn 0.8125 0.4760 -0.3366
vn 0.8125 0.4760 0.3365
vn 0.8125 -0.4760 -0.3365
vn 0.8125 0.4760 0.3366
vn 0.8125 -0.4760 0.3366
vn 0.8125 0.4760 -0.3365
vn 0.8125 -0.4760 0.3365
vn 0.3827 -0.0000 0.9239
vn 0.9239 -0.0000 0.3827
vn 0.6269 0.7345 0.2597
vn 0.9239 -0.0000 -0.3827
vn 0.6269 0.7345 -0.2597
vn 0.3827 -0.0000 -0.9239
vn -0.3827 -0.0000 -0.9239
vn -0.9239 -0.0000 -0.3827
vn -0.6269 0.7345 -0.2597
vn -0.9239 -0.0000 0.3827
vn -0.6269 0.7345 0.2597
vn -0.3827 -0.0000 0.9239
vn 0.6270 0.7345 0.2597
vn -0.0000 1.0000 -0.0000
vn 0.6270 0.7345 0.2598
vn 0.6270 0.7345 -0.2597
vn 0.2598 0.7345 -0.6270
vn -0.6270 0.7345 -0.2597
vn -0.6270 0.7345 -0.2598
vn -0.6270 0.7345 0.2597
vn 0.2599 0.7345 0.6269
vn -0.2598 0.7345 0.6270
vn -0.2599 0.7345 -0.6269
vt 0.937500 0.250000
vt 1.000000 0.250000
vt 1.000000 0.500000
vt 0.937500 0.500000
vt 0.937500 0.000000
vt 1.000000 0.000000
vt 0.937500 0.375000
vt 0.750000 0.500000
vt 0.750000 0.375000
vt 0.250000 0.265625
vt 0.500000 0.265625
vt 0.500000 0.359375
vt 0.250000 0.359375
vt 0.500000 0.109375
vt 0.500000 0.015625
vt 0.250000 0.015625
vt 0.250000 0.109375
vt 0.500000 0.125000
vt 0.500000 0.250000
vt 0.250000 0.250000
vt 0.250000 0.125000
vt 0.500000 0.500000
vt 0.250000 0.500000
vt 0.250000 0.375000
vt 0.500000 0.375000
vt 0.531250 0.250000
vt 0.531250 0.375000
vt 0.531250 0.125000
vt 0.531250 0.000000
vt 0.218750 0.500000
vt 0.218750 0.375000
vt 0.718750 0.250000
vt 0.718750 0.375000
vt 0.718750 0.125000
vt 0.718750 0.000000
vt 0.031250 0.500000
vt 0.031250 0.375000
vt 0.218750 0.250000
vt 0.218750 0.125000
vt 0.531250 0.500000
vt 0.218750 0.000000
vt 0.031250 0.250000
vt 0.031250 0.125000
vt 0.718750 0.500000
vt 0.031250 0.000000
vt 0.000000 0.250000
vt 0.000000 0.125000
vt 0.000000 0.359375
vt 0.000000 0.265625
vt 0.000000 0.015625
vt 0.000000 0.109375
vt 0.937500 0.125000
vt 0.750000 0.250000
vt 0.750000 0.125000
vt 0.000000 0.500000
vt 0.000000 0.375000
vt 0.750000 0.265625
vt 0.750000 0.359375
vt 0.750000 0.109375
vt 0.750000 0.015625
vt 0.906250 0.968750
vt 0.984375 0.968750
vt 0.984375 0.984375
vt 0.906250 0.984375
vt 0.984375 0.984375
vt 0.977864 0.992188
vt 0.912761 0.992188
vt 0.906250 0.984375
vt 0.977865 0.992188
vt 0.912760 0.992188
vt 0.977864 0.992187
vt 0.912761 0.992187
s 0
usemtl m_a9330ee0-86c9-671e-17a0-757aad74204d
f 1/1/1 3/2/2 4/3/2
f 1/1/1 4/3/2 2/4/1
f 3/5/2 5/6/3 6/2/3
f 3/5/2 6/2/3 4/1/2
f 5/1/3 7/2/4 8/3/4
f 5/1/3 8/3/4 6/4/3
f 7/5/4 9/6/5 10/2/5
f 7/5/4 10/2/5 8/1/4
f 9/1/5 11/2/6 12/3/6
f 9/1/5 12/3/6 10/4/5
f 11/5/6 13/6/7 14/2/7
f 11/5/6 14/2/7 12/1/6
f 13/1/7 15/2/8 16/3/8
f 13/1/7 16/3/8 14/4/7
f 15/5/8 1/6/1 2/2/1
f 15/5/8 2/2/1 16/1/8
f 17/1/1 19/2/2 20/3/2
f 17/1/1 20/3/2 18/4/1
f 19/5/2 21/6/3 22/2/3
f 19/5/2 22/2/3 20/1/2
f 21/1/3 23/2/4 24/3/4
f 21/1/3 24/3/4 22/4/3
f 23/5/4 25/6/5 26/2/5
f 23/5/4 26/2/5 24/1/4
f 25/1/5 27/2/6 28/3/6
f 25/1/5 28/3/6 26/4/5
f 27/5/6 29/6/7 30/2/7
f 27/5/6 30/2/7 28/1/6
f 29/1/7 31/2/8 32/3/8
f 29/1/7 32/3/8 30/4/7
f 31/5/8 17/6/1 18/2/1
f 31/5/8 18/2/1 32/1/8
f 57/7/9 55/4/10 56/8/11
f 57/7/12 56/8/13 58/9/14
f 37/10/15 33/11/16 34/12/17
f 37/10/15 34/12/17 38/13/18
f 36/14/19 35/15/20 39/16/21
f 36/14/22 39/16/23 40/17/24
f 35/18/25 33/19/26 37/20/27
f 35/18/25 37/20/27 39/21/28
f 38/22/29 34/23/30 36/24/31
f 38/22/32 36/24/33 40/25/34
f 41/26/16 43/27/17 34/12/17
f 41/26/16 34/12/17 33/11/16
f 42/28/35 41/26/36 33/19/26
f 42/28/35 33/19/37 35/18/38
f 44/28/22 42/29/38 35/15/38
f 44/28/22 35/15/38 36/14/22
f 43/30/39 44/31/19 36/24/40
f 43/30/39 36/24/41 34/23/17
f 60/32/42 59/33/18 43/27/43
f 60/32/44 43/27/45 41/26/16
f 45/34/46 60/32/47 41/26/26
f 45/34/28 41/26/48 42/28/49
f 46/34/50 45/35/21 42/29/20
f 46/34/24 42/29/51 44/28/22
f 59/36/32 46/37/52 44/31/40
f 59/36/53 44/31/31 43/30/54
f 47/38/55 49/39/23 39/21/28
f 47/38/55 39/21/56 37/20/15
f 48/31/18 47/38/15 37/10/15
f 48/31/18 37/10/15 38/13/18
f 50/27/57 48/40/58 38/22/53
f 50/27/57 38/22/59 40/25/60
f 49/41/21 50/39/60 40/17/60
f 49/41/21 40/17/60 39/16/21
f 51/42/48 53/43/49 49/39/28
f 51/42/26 49/39/46 47/38/47
f 52/37/45 51/42/16 47/38/44
f 52/37/43 47/38/42 48/31/18
f 54/33/31 52/44/54 48/40/53
f 54/33/40 48/40/32 50/27/52
f 53/45/51 54/43/22 50/39/24
f 53/45/20 50/39/50 49/41/21
f 55/46/61 57/47/12 53/43/35
f 55/46/61 53/43/35 51/42/36
f 56/48/11 55/49/61 51/42/16
f 56/48/13 51/42/16 52/37/17
f 58/9/62 56/8/11 52/44/39
f 58/9/62 52/44/39 54/33/19
f 57/50/12 58/51/62 54/43/22
f 57/50/9 54/43/22 53/45/38
f 63/52/63 61/1/64 62/53/65
f 63/52/66 62/53/67 64/54/68
f 61/55/69 63/56/66 46/37/57
f 61/55/69 46/37/57 59/36/58
f 62/57/65 61/58/69 59/33/18
f 62/57/67 59/33/18 60/32/15
f 64/54/70 62/53/65 60/32/55
f 64/54/70 60/32/55 45/34/23
f 63/59/66 64/60/70 45/35/21
f 63/59/63 45/35/21 46/34/60
f 65/61/71 67/62/72 68/63/73
f 65/61/71 68/63/73 66/64/55
f 67/61/72 69/62/74 70/63/75
f 67/61/72 70/63/75 68/64/73
f 69/61/74 71/62/76 72/63/53
f 69/61/74 72/63/53 70/64/75
f 71/61/76 73/62/77 74/63/39
f 71/61/76 74/63/39 72/64/53
f 73/61/77 75/62/78 76/63/79
f 73/61/77 76/63/79 74/64/39
f 75/61/78 77/62/80 78/63/81
f 75/61/78 78/63/81 76/64/79
f 77/61/80 79/62/82 80/63/26
f 77/61/80 80/63/26 78/64/81
f 79/61/82 65/62/71 66/63/55
f 79/61/82 66/63/55 80/64/26
f 68/65/83 83/66/84 84/67/84
f 68/65/85 84/67/84 66/68/15
f 70/63/86 85/69/84 83/70/84
f 70/63/86 83/70/84 68/64/83
f 72/65/18 86/66/84 85/67/84
f 72/65/87 85/67/84 70/68/86
f 74/63/17 87/69/84 86/70/84
f 74/63/45 86/70/84 72/64/53
f 76/63/88 88/71/84 87/72/84
f 76/63/89 87/72/84 74/64/17
f 78/63/90 82/69/84 88/70/84
f 78/63/90 88/70/84 76/64/88
f 66/63/91 84/69/84 81/70/84
f 66/63/42 81/70/84 80/64/26
f 80/65/16 81/66/84 82/67/84
f 80/65/92 82/67/84 78/68/90
f 89/61/71 91/62/72 92/63/73
f 89/61/71 92/63/73 90/64/55
f 91/61/72 93/62/74 94/63/75
f 91/61/72 94/63/75 92/64/73
f 93/61/74 95/62/76 96/63/53
f 93/61/74 96/63/53 94/64/75
f 95/61/76 97/62/77 98/63/39
f 95/61/76 98/63/39 96/64/53
f 97/61/77 99/62/78 100/63/79
f 97/61/77 100/63/79 98/64/39
f 99/61/78 101/62/80 102/63/81
f 99/61/78 102/63/81 100/64/79
f 101/61/80 103/62/82 104/63/26
f 101/61/80 104/63/26 102/64/81
f 103/61/82 89/62/71 90/63/55
f 103/61/82 90/63/55 104/64/26
f 92/65/83 107/66/84 108/67/84
f 92/65/85 108/67/84 90/68/15
f 94/63/86 109/69/84 107/70/84
f 94/63/86 107/70/84 92/64/83
f 96/65/18 110/66/84 109/67/84
f 96/65/87 109/67/84 94/68/86
f 98/63/93 111/69/84 110/70/84
f 98/63/45 110/70/84 96/64/53
f 100/63/88 112/71/84 111/72/84
f 100/63/89 111/72/84 98/64/17
f 102/63/90 106/69/84 112/70/84
f 102/63/90 112/70/84 100/64/88
f 90/63/15 108/69/84 105/70/84
f 90/63/42 105/70/84 104/64/26
f 104/65/16 105/66/84 106/67/84
f 104/65/92 106/67/84 102/68/90
o press_head
v 1.000000 5.000000 -0.000000
v 1.155330 3.750000 0.375000
v 1.155330 5.000000 0.375000
v 1.375000 3.750000 0.155330
v 1.375000 5.000000 0.155330
v 1.375000 3.750000 -0.155330
v 1.375000 5.000000 -0.155330
v 1.155330 3.750000 -0.375000
v 1.155330 5.000000 -0.375000
v 0.844670 3.750000 -0.375000
v 0.844670 5.000000 -0.375000
v 0.625000 3.750000 -0.155330
v 0.625000 5.000000 -0.155330
v 0.625000 3.750000 0.155330
v 0.625000 5.000000 0.155330
v 0.844670 3.750000 0.375000
v 0.844670 5.000000 0.375000
v -1.000000 5.000000 -0.000000
v -0.844670 3.750000 0.375000
v -0.844670 5.000000 0.375000
v -0.625000 3.750000 0.155330
v -0.625000 5.000000 0.155330
v -0.625000 3.750000 -0.155330
v -0.625000 5.000000 -0.155330
v -0.844670 3.750000 -0.375000
v -0.844670 5.000000 -0.375000
v -1.155330 3.750000 -0.375000
v -1.155330 5.000000 -0.375000
v -1.375000 3.750000 -0.155330
v -1.375000 5.000000 -0.155330
v -1.375000 3.750000 0.155330
v -1.375000 5.000000 0.155330
v -1.155330 3.750000 0.375000
v -1.155330 5.000000 0.375000
v 0.625000 3.000000 0.500000
v 0.625000 3.000000 -0.500000
v 1.375000 3.000000 0.500000
v 1.375000 3.000000 -0.500000
v -0.625000 3.000000 0.500000
v -0.625000 3.000000 -0.500000
v -1.375000 3.000000 0.500000
v -1.375000 3.000000 -0.500000
v -1.500000 3.000000 0.375000
v -1.500000 3.000000 -0.375000
v 1.500000 3.000000 -0.375000
v 1.500000 3.000000 0.375000
v 0.500000 3.000000 0.375000
v -0.500000 3.000000 0.375000
v 0.500000 3.000000 -0.375000
v -0.500000 3.000000 -0.375000
v 0.500000 3.625000 0.375000
v 0.500000 3.625000 -0.375000
v -0.500000 3.625000 -0.375000
v -0.500000 3.625000 0.375000
v -0.500000 3.500000 0.375000
v -0.375000 3.500000 0.375000
v 0.375000 3.500000 0.375000
v 0.500000 3.500000 0.375000
v 0.500000 3.500000 -0.375000
v 0.375000 3.500000 -0.375000
v -0.375000 3.500000 -0.375000
v -0.500000 3.500000 -0.375000
v 0.375000 3.000000 0.375000
v 0.375000 3.000000 -0.375000
v -0.375000 3.000000 0.375000
v -0.375000 3.000000 -0.375000
v 0.625000 3.750000 0.500000
v 0.625000 3.750000 -0.500000
v 0.500000 3.750000 -0.375000
v 0.500000 3.750000 0.375000
v 1.375000 3.750000 0.500000
v 1.375000 3.750000 -0.500000
v 1.500000 3.750000 0.375000
v 1.500000 3.750000 -0.375000
v -1.375000 3.750000 -0.500000
v -1.375000 3.750000 0.500000
v -0.625000 3.750000 0.500000
v -0.625000 3.750000 -0.500000
v -0.500000 3.750000 0.375000
v -0.500000 3.750000 -0.375000
v -1.500000 3.750000 -0.375000
v -1.500000 3.750000 0.375000
v 0.375000 3.000000 0.375000
v 0.375000 3.000000 -0.375000
v -0.375000 3.000000 0.375000
v -0.375000 3.000000 -0.375000
v -0.312500 2.875000 0.312500
v -0.312500 2.875000 -0.312500
v 0.312500 2.875000 0.312500
v 0.312500 2.875000 -0.312500
vn 0.3827 -0.0000 0.9239
vn 0.9239 -0.0000 0.3827
vn 0.6269 0.7345 0.2597
vn 0.6270 0.7345 0.2596
vn 0.2597 0.7345 0.6269
vn 0.2597 0.7345 0.6270
vn 0.6270 0.7345 0.2597
vn -0.0000 1.0000 -0.0000
vn 0.9239 -0.0000 -0.3827
vn 0.6269 0.7345 -0.2596
vn 0.6269 0.7345 -0.2598
vn 0.6270 0.7345 -0.2597
vn 0.3827 -0.0000 -0.9239
vn 0.2597 0.7345 -0.6269
vn 0.2596 0.7345 -0.6270
vn 0.6269 0.7345 -0.2597
vn 0.2597 0.7345 -0.6270
vn -0.3827 -0.0000 -0.9239
vn -0.2596 0.7345 -0.6269
vn -0.2598 0.7345 -0.6269
vn -0.2597 0.7345 -0.6270
vn -0.9239 -0.0000 -0.3827
vn -0.6269 0.7345 -0.2597
vn -0.6270 0.7345 -0.2596
vn -0.2597 0.7345 -0.6269
vn -0.6270 0.7345 -0.2597
vn -0.9239 -0.0000 0.3827
vn -0.6269 0.7345 0.2596
vn -0.6269 0.7345 0.2598
vn -0.6270 0.7345 0.2597
vn -0.3827 -0.0000 0.9239
vn -0.2597 0.7345 0.6269
vn -0.2596 0.7345 0.6270
vn -0.6269 0.7345 0.2597
vn -0.2597 0.7345 0.6270
vn 0.2596 0.7345 0.6269
vn 0.2598 0.7345 0.6269
vn -0.8125 0.4760 -0.3366
vn -0.8125 0.4760 -0.3365
vn -0.8125 0.4760 0.3365
vn -0.2597 -0.7345 -0.6270
vn -0.2597 -0.7345 0.6270
vn 0.2596 0.7345 0.6270
vn -0.2598 0.7345 -0.6270
vn 0.2598 0.7345 0.6270
vn -0.2596 0.7345 -0.6270
vn 0.2596 -0.7345 -0.6270
vn 0.2597 -0.7345 0.6270
vn -0.2598 -0.7345 0.6270
vn 0.2598 -0.7345 -0.6270
vn -0.2596 -0.7345 0.6270
vn 0.8125 0.4760 0.3366
vn 0.8125 0.4760 0.3365
vn 0.8125 0.4760 -0.3365
vn 0.2597 -0.7345 -0.6270
vn -0.8125 -0.4760 0.3365
vn -0.8125 -0.4760 -0.3365
vn -0.8125 -0.4760 0.3366
vn 0.8125 -0.4760 -0.3365
vn 0.8125 -0.4760 0.3365
vn 0.8125 -0.4760 -0.3366
vn 0.2597 -0.7345 -0.6269
vn -0.0000 -0.0000 -1.0000
vn -0.2597 -0.7345 -0.6269
vn -0.2597 -0.7345 0.6269
vn -0.0000 -0.0000 1.0000
vn 0.2597 -0.7345 0.6269
vn 0.8125 0.3365 0.4760
vn 0.3365 0.8125 0.4760
vn 0.3365 0.8125 -0.4760
vn 0.8125 0.3365 -0.4760
vn -0.8125 0.3365 -0.4760
vn -0.3365 0.8125 -0.4760
vn -0.3365 0.8125 0.4760
vn -0.8125 0.3365 0.4760
vn -0.3366 0.8125 -0.4760
vn 0.3366 0.8125 -0.4760
vn 0.3366 0.8125 0.4760
vn -0.3366 0.8125 0.4760
vn 0.8125 0.3367 0.4760
vn -0.3367 0.8125 0.4760
vn -0.8125 0.3367 -0.4760
vn 0.3367 0.8125 -0.4760
vn -0.0000 -1.0000 -0.0000
vn -0.2596 -0.7345 -0.6270
vn -0.8125 0.4760 0.3366
vn -0.8125 0.3366 -0.4760
vn -0.8125 0.3366 0.4760
vn -0.8126 0.4760 0.3365
vn -0.2598 -0.7345 0.6269
vn 0.8125 0.4760 -0.3366
vn 0.8125 -0.4760 0.3366
vn 0.8126 -0.4760 0.3365
vn 0.2596 -0.7345 0.6270
vn 0.2598 -0.7345 -0.6269
vn 0.8125 0.3366 0.4760
vn 0.8125 0.3366 -0.4760
vn 0.8126 0.4760 -0.3365
vn -0.8125 -0.4760 -0.3366
vn -0.8126 -0.4760 -0.3365
vn 0.3927 -0.8316 0.3927
vn -0.3927 -0.8316 0.3926
vn -0.3927 -0.8316 -0.3927
vn 0.3927 -0.8316 -0.3926
vn -0.3927 -0.8317 0.3926
vn 0.3927 -0.8316 0.3926
vn 0.5774 -0.5774 0.5773
vn -0.3926 -0.8317 0.3926
vn -0.5774 -0.5774 0.5773
vn -0.3926 -0.8317 -0.3927
vn -0.3926 -0.8316 0.3927
vn -0.5773 -0.5774 0.5774
vn -0.3926 -0.8317 -0.3926
vn -0.5773 -0.5774 -0.5774
vn 0.3927 -0.8317 -0.3926
vn -0.3927 -0.8316 -0.3926
vn -0.5774 -0.5774 -0.5773
vn 0.3926 -0.8317 -0.3926
vn 0.5774 -0.5774 -0.5773
vn 0.3926 -0.8317 0.3927
vn 0.3926 -0.8316 -0.3927
vn 0.5773 -0.5774 -0.5774
vn 0.3926 -0.8317 0.3926
vn 0.5773 -0.5774 0.5774
vt 0.812500 1.000000
vt 0.812500 0.960938
vt 0.500000 0.960938
vt 0.500000 1.000000
vt 0.445082 0.906250
vt 0.500000 0.933709
vt 0.406250 0.953125
vt 0.312500 1.000000
vt 0.312500 0.960938
vt 0.000000 0.960938
vt 0.000000 1.000000
vt 0.500000 0.972541
vt 0.445082 1.000000
vt 0.367418 1.000000
vt 0.312500 0.972541
vt 0.312500 0.933709
vt 0.367418 0.906250
vt 0.593750 0.718750
vt 0.593750 0.843750
vt 0.562500 0.828125
vt 0.562500 0.734375
vt 0.562500 0.500000
vt 0.562500 0.625000
vt 0.531250 0.609375
vt 0.531250 0.515625
vt 0.781250 0.718750
vt 0.781250 0.843750
vt 0.750000 0.500000
vt 0.750000 0.625000
vt 0.218750 0.843750
vt 0.218750 0.718750
vt 0.250000 0.734375
vt 0.250000 0.828125
vt 0.218750 0.625000
vt 0.218750 0.500000
vt 0.250000 0.515625
vt 0.250000 0.609375
vt 0.031250 0.843750
vt 0.031250 0.718750
vt 0.031250 0.625000
vt 0.031250 0.500000
vt 0.000000 0.828125
vt 0.000000 0.734375
vt 0.000000 0.609375
vt 0.000000 0.515625
vt 0.812500 0.734375
vt 0.812500 0.828125
vt 0.781250 0.515625
vt 0.781250 0.609375
vt 0.500000 0.843750
vt 0.500000 0.906250
vt 0.250000 0.906250
vt 0.250000 0.843750
vt 0.500000 0.625000
vt 0.500000 0.687500
vt 0.250000 0.687500
vt 0.250000 0.625000
vt 0.281250 0.734375
vt 0.312500 0.734375
vt 0.312500 0.828125
vt 0.281250 0.828125
vt 0.531250 0.828125
vt 0.500000 0.828125
vt 0.500000 0.734375
vt 0.531250 0.734375
vt 0.281250 0.718750
vt 0.312500 0.718750
vt 0.500000 0.718750
vt 0.531250 0.718750
vt 0.531250 0.843750
vt 0.312500 0.843750
vt 0.281250 0.843750
vt 0.281250 0.515625
vt 0.281250 0.609375
vt 0.500000 0.609375
vt 0.500000 0.515625
vt 0.250000 0.937500
vt 0.218750 0.937500
vt 0.531250 0.625000
vt 0.031250 0.937500
vt 0.718750 0.625000
vt 0.718750 0.718750
vt 0.937500 0.625000
vt 0.937500 0.718750
vt 0.750000 0.718750
vt 0.000000 0.937500
vt 0.000000 0.843750
vt 0.718750 0.843750
vt 0.718750 0.937500
vt 0.531250 0.937500
vt 0.250000 0.718750
vt 0.500000 0.937500
vt 0.937500 0.843750
vt 0.937500 0.937500
vt 0.750000 0.937500
vt 0.750000 0.843750
vt 0.000000 0.718750
vt 0.000000 0.625000
vt 0.468750 0.523438
vt 0.468750 0.601562
vt 0.312500 0.601562
vt 0.312500 0.523438
vt 0.484375 0.507812
vt 0.296875 0.507812
vt 0.296875 0.617188
vt 0.484375 0.617188
s 0
usemtl m_a9330ee0-86c9-671e-17a0-757aad74204d
f 114/73/94 116/74/95 117/75/96
f 114/73/94 117/75/97 115/76/98
f 115/77/99 117/78/100 113/79/101
f 116/80/95 118/81/102 119/82/103
f 116/80/95 119/82/104 117/83/96
f 117/78/100 119/84/105 113/79/101
f 118/73/102 120/74/106 121/75/107
f 118/73/102 121/75/108 119/76/109
f 119/84/105 121/85/110 113/79/101
f 120/80/106 122/81/111 123/82/112
f 120/80/106 123/82/113 121/83/107
f 121/85/107 123/86/114 113/79/101
f 122/73/111 124/74/115 125/75/116
f 122/73/111 125/75/117 123/76/118
f 123/86/114 125/87/119 113/79/101
f 124/80/115 126/81/120 127/82/121
f 124/80/115 127/82/122 125/83/116
f 125/87/119 127/88/123 113/79/101
f 126/73/120 128/74/124 129/75/125
f 126/73/120 129/75/126 127/76/127
f 127/88/123 129/89/128 113/79/101
f 128/80/124 114/81/94 115/82/129
f 128/80/124 115/82/130 129/83/125
f 129/89/125 115/77/99 113/79/101
f 131/73/94 133/74/95 134/75/96
f 131/73/94 134/75/97 132/76/98
f 132/77/99 134/78/100 130/79/101
f 133/80/95 135/81/102 136/82/103
f 133/80/95 136/82/104 134/83/96
f 134/78/100 136/84/105 130/79/101
f 135/73/102 137/74/106 138/75/107
f 135/73/102 138/75/108 136/76/109
f 136/84/105 138/85/110 130/79/101
f 137/80/106 139/81/111 140/82/112
f 137/80/106 140/82/113 138/83/107
f 138/85/107 140/86/114 130/79/101
f 139/73/111 141/74/115 142/75/116
f 139/73/111 142/75/117 140/76/118
f 140/86/114 142/87/119 130/79/101
f 141/80/115 143/81/120 144/82/121
f 141/80/115 144/82/122 142/83/116
f 142/87/119 144/88/123 130/79/101
f 143/73/120 145/74/124 146/75/125
f 143/73/120 146/75/126 144/76/127
f 144/88/123 146/89/128 130/79/101
f 145/80/124 131/81/94 132/82/129
f 145/80/124 132/82/130 146/83/125
f 146/89/125 132/77/99 130/79/101
f 179/90/128 180/91/114 181/92/131
f 179/90/128 181/92/132 182/93/133
f 148/94/134 147/95/135 159/96/135
f 148/94/134 159/96/135 161/97/134
f 183/98/136 184/99/110 180/91/137
f 183/98/138 180/91/139 179/90/128
f 150/100/140 149/101/141 147/95/142
f 150/100/143 147/95/144 148/94/134
f 190/102/110 189/103/99 191/104/145
f 190/102/110 191/104/146 192/105/147
f 151/106/141 152/107/148 162/108/148
f 151/106/141 162/108/148 160/109/141
f 187/110/139 188/111/128 189/103/138
f 187/110/137 189/103/136 190/102/110
f 153/112/144 154/113/134 152/107/143
f 153/112/142 152/107/140 151/106/141
f 193/114/132 194/115/133 188/111/128
f 193/114/131 188/111/128 187/110/114
f 155/116/149 156/117/150 154/113/134
f 155/116/151 154/113/134 153/112/135
f 185/118/146 186/119/147 184/99/110
f 185/118/145 184/99/110 183/98/99
f 157/120/152 158/121/153 149/101/141
f 157/120/154 149/101/141 150/100/148
f 162/122/155 174/123/156 171/124/156
f 162/122/155 171/124/156 161/125/157
f 159/126/158 170/127/159 167/128/159
f 159/126/158 167/128/159 160/129/160
f 166/130/161 168/131/162 173/132/163
f 166/130/161 173/132/163 165/133/164
f 164/134/165 172/135/166 169/136/167
f 164/134/165 169/136/167 163/137/168
f 172/135/169 173/132/170 168/131/171
f 172/135/169 168/131/171 169/136/172
f 167/138/159 168/139/162 166/130/173
f 169/140/174 170/141/159 163/137/168
f 171/142/156 172/122/166 164/134/175
f 173/143/176 174/144/156 165/133/164
f 162/108/148 178/145/177 177/146/177
f 162/108/148 177/146/177 160/109/141
f 159/96/135 175/147/177 176/148/177
f 159/96/135 176/148/177 161/97/134
f 181/149/132 180/150/118 148/102/134
f 181/149/132 148/102/178 161/125/157
f 182/93/179 181/92/131 164/134/180
f 182/93/133 164/134/180 163/137/181
f 147/151/158 179/141/126 182/140/133
f 147/151/158 182/140/182 159/126/135
f 180/150/118 184/152/107 150/110/155
f 180/150/118 150/110/155 148/102/157
f 149/153/160 183/154/130 179/141/125
f 149/153/160 179/141/125 147/151/183
f 157/155/154 186/156/184 185/157/145
f 157/155/154 185/157/145 158/101/185
f 184/152/108 186/158/147 157/159/152
f 184/152/110 157/159/152 150/110/155
f 158/101/186 185/157/146 183/154/98
f 158/101/153 183/154/98 149/153/187
f 189/103/98 188/111/125 153/112/158
f 189/103/98 153/112/158 151/106/160
f 154/160/157 187/161/113 190/162/107
f 154/160/157 190/162/107 152/142/188
f 191/163/146 189/103/98 151/106/141
f 191/163/146 151/106/187 160/129/160
f 192/105/184 191/104/145 166/130/189
f 192/105/147 166/130/189 165/133/190
f 152/142/155 190/162/108 192/164/147
f 152/142/155 192/164/191 162/122/148
f 155/165/151 194/166/179 193/167/131
f 155/165/151 193/167/131 156/168/192
f 188/111/126 194/169/133 155/170/149
f 188/111/128 155/170/149 153/112/158
f 156/168/193 193/167/132 187/161/118
f 156/168/150 187/161/118 154/160/178
f 201/171/194 199/172/195 200/173/196
f 201/171/194 200/173/196 202/174/197
f 199/174/198 201/171/199 195/175/200
f 199/174/201 195/175/200 197/176/202
f 200/173/203 199/174/204 197/145/205
f 200/173/206 197/145/205 198/146/207
f 202/172/208 200/173/209 198/177/210
f 202/172/211 198/177/210 196/178/212
f 201/171/213 202/172/214 196/147/215
f 201/171/216 196/147/215 195/148/217
