# Blender 4.2.0
# www.blender.org
mtllib vampire.mtl
o mesh
v 0.187500 0.062500 0.500000
v 0.187500 0.062500 -0.375000
v -0.187500 0.062500 0.500000
v -0.187500 0.062500 -0.375000
v 0.187500 0.750000 -0.312500
v -0.187500 0.750000 -0.312500
v 0.250000 0.062500 -0.312500
v 0.187500 0.562500 0.500000
v -0.187500 0.562500 0.500000
v -0.187500 0.687500 -0.375000
v 0.187500 0.687500 -0.375000
v 0.250000 0.062500 0.187500
v 0.250000 0.062500 0.437500
v -0.187500 0.750000 0.187500
v 0.187500 0.750000 0.187500
v -0.187500 0.625000 0.437500
v 0.187500 0.625000 0.437500
v 0.250000 0.687500 -0.312500
v 0.250000 0.562500 0.437500
v 0.250000 0.687500 0.187500
v -0.250000 0.687500 -0.312500
v -0.250000 0.687500 0.187500
v -0.250000 0.062500 -0.312500
v -0.250000 0.062500 0.187500
v -0.250000 0.062500 0.437500
v -0.250000 0.562500 0.437500
vn -0.0000 -1.0000 -0.0000
vn -0.0000 -0.0000 1.0000
vn -0.0000 -0.0000 -1.0000
vn -0.0000 0.7071 0.7071
vn -0.0000 0.7071 -0.7071
vn -0.7071 -0.0000 0.7071
vn -0.7071 -0.0000 -0.7071
vn 0.7071 -0.0000 0.7071
vn 0.7071 -0.0000 -0.7071
vn 0.5774 0.5774 0.5774
vn -0.5774 0.5774 0.5774
vn -0.5774 0.5774 -0.5774
vn 0.5774 0.5774 -0.5774
vn 1.0000 -0.0000 -0.0000
vn -0.0000 1.0000 -0.0000
vn -0.0000 0.8944 0.4472
vn 0.7071 0.7071 -0.0000
vn 0.6667 0.6667 0.3333
vn -0.7071 0.7071 -0.0000
vn -0.6667 0.6667 0.3333
vn -1.0000 -0.0000 -0.0000
vt 0.968750 0.437500
vt 0.781250 0.000000
vt 0.968750 0.000000
vt 0.687500 0.250000
vt 0.500000 0.000000
vt 0.687500 0.000000
vt 0.781250 0.750000
vt 0.968750 0.750000
vt 0.500000 0.281250
vt 0.687500 0.281250
vt 0.500000 0.687500
vt 0.687500 0.656250
vt 0.687500 0.687500
vt 0.406250 0.000000
vt 0.437500 0.250000
vt 0.406250 0.250000
vt 0.031250 0.312500
vt 0.000000 0.000000
vt 0.031250 0.000000
vt 0.750000 0.031250
vt 0.781250 0.437500
vt 0.750000 0.406250
vt 0.437500 0.562500
vt 0.406250 0.312500
vt 0.437500 0.312500
vt 1.000000 0.406250
vt 1.000000 0.031250
vt 0.000000 0.312500
vt 0.031250 0.625000
vt 0.000000 0.625000
vt 0.859375 0.812500
vt 0.843750 0.781250
vt 0.875000 0.781250
vt 0.906250 0.781250
vt 0.890625 0.812500
vt 0.859375 0.843750
vt 0.843750 0.812500
vt 0.875000 0.812500
vt 0.906250 0.812500
vt 0.890625 0.843750
vt 0.281250 0.625000
vt 0.406250 0.562500
vt 0.281250 0.312500
vt 0.500000 0.406250
vt 0.500000 0.656250
vt 0.687500 0.406250
vt 0.468750 0.656250
vt 0.718750 0.394887
vt 0.687500 0.292615
vt 0.718750 0.281250
vt 0.718750 0.406250
vt 0.718750 0.656250
vt 0.500000 0.292614
vt 0.468752 0.394887
vt 0.468750 0.281250
vt 0.281250 0.000000
vt 0.500000 0.250000
vt 0.437500 0.000000
vt 0.468750 0.406250
vt 0.687502 0.406250
s 0
usemtl m_862503a9-19f3-50ab-01dd-2c85d27642de
f 1/1/1 4/2/1 2/3/1
f 8/4/2 3/5/2 1/6/2
f 11/7/3 4/1/3 10/8/3
f 16/9/4 8/4/4 17/10/4
f 5/11/5 10/12/5 6/13/5
f 25/14/6 9/15/6 26/16/6
f 21/17/7 4/18/7 23/19/7
f 23/20/1 3/21/1 25/22/1
f 19/23/8 1/24/8 13/25/8
f 13/26/1 2/3/1 7/27/1
f 7/28/9 11/29/9 18/30/9
f 17/31/10 8/32/10 19/33/10
f 26/33/11 9/34/11 16/35/11
f 6/36/12 10/37/12 21/38/12
f 18/38/13 11/39/13 5/40/13
f 20/41/14 7/17/14 18/29/14
f 19/42/14 12/43/14 20/41/14
f 14/44/15 5/12/15 6/45/15
f 16/9/16 15/46/16 14/44/16
f 20/47/17 5/44/17 15/45/17
f 17/48/18 20/49/18 15/50/18
f 21/12/19 14/51/19 6/52/19
f 22/53/20 16/54/20 14/55/20
f 23/19/21 22/43/21 21/17/21
f 24/56/21 26/16/21 22/43/21
f 1/1/1 3/21/1 4/2/1
f 8/4/2 9/57/2 3/5/2
f 11/7/3 2/21/3 4/1/3
f 16/9/4 9/57/4 8/4/4
f 5/11/5 11/45/5 10/12/5
f 25/14/6 3/58/6 9/15/6
f 21/17/7 10/28/7 4/18/7
f 23/20/1 4/2/1 3/21/1
f 19/23/8 8/42/8 1/24/8
f 13/26/1 1/1/1 2/3/1
f 7/28/9 2/17/9 11/29/9
f 20/41/14 12/43/14 7/17/14
f 19/42/14 13/24/14 12/43/14
f 14/44/15 15/46/15 5/12/15
f 16/9/16 17/10/16 15/46/16
f 20/47/17 18/59/17 5/44/17
f 17/48/18 19/60/18 20/49/18
f 21/12/19 22/46/19 14/51/19
f 22/53/20 26/44/20 16/54/20
f 23/19/21 24/56/21 22/43/21
f 24/56/21 25/14/21 26/16/21
