# Blender 4.4.3
# www.blender.org
o Base
v 0.437500 0.250000 0.437500
v 0.437500 0.250000 -0.437500
v 0.437500 0.062500 0.437500
v 0.437500 0.062500 -0.437500
v -0.437500 0.250000 0.437500
v -0.437500 0.250000 -0.437500
v -0.437500 0.062500 0.437500
v -0.437500 0.062500 -0.437500
v 0.428750 0.250000 0.428750
v 0.428750 0.250000 -0.428750
v -0.428750 0.250000 0.428750
v -0.428750 0.250000 -0.428750
v 0.428750 0.187500 0.428750
v 0.428750 0.187500 -0.428750
v -0.428750 0.187500 0.428750
v -0.428750 0.187500 -0.428750
v 0.500000 0.062500 0.500000
v 0.500000 0.062500 -0.500000
v 0.500000 0.000000 0.500000
v 0.500000 -0.000000 -0.500000
v -0.500000 0.062500 0.500000
v -0.500000 0.062500 -0.500000
v -0.500000 0.000000 0.500000
v -0.500000 -0.000000 -0.500000
v -0.468750 4.562500 -0.343750
v -0.468750 4.562500 -0.406250
v -0.468750 0.062500 -0.343750
v -0.468750 0.062500 -0.406250
v -0.500000 4.562500 -0.343750
v -0.500000 4.562500 -0.406250
v -0.500000 0.062500 -0.343750
v -0.500000 0.062500 -0.406250
v -0.493750 0.062500 -0.375000
v -0.493750 4.562500 -0.375000
v -0.500000 4.562500 -0.375000
v -0.500000 0.062500 -0.375000
v 0.500000 4.562500 -0.343750
v 0.500000 4.562500 -0.406250
v 0.500000 0.062500 -0.343750
v 0.500000 0.062500 -0.406250
v 0.468750 4.562500 -0.343750
v 0.468750 4.562500 -0.406250
v 0.468750 0.062500 -0.343750
v 0.468750 0.062500 -0.406250
v 0.500000 0.062500 -0.375000
v 0.500000 4.562500 -0.375000
v 0.493750 4.562500 -0.375000
v 0.493750 0.062500 -0.375000
v -0.468750 4.562500 0.343750
v -0.493750 0.062500 0.375000
v -0.493750 4.562500 0.375000
v -0.468750 0.062500 0.343750
v -0.500000 0.062500 0.343750
v -0.500000 4.562500 0.375000
v -0.500000 0.062500 0.375000
v -0.500000 4.562500 0.343750
v -0.468750 4.562500 0.406250
v -0.500000 4.562500 0.406250
v -0.468750 0.062500 0.406250
v -0.500000 0.062500 0.406250
v 0.500000 4.562500 0.343750
v 0.500000 0.062500 0.375000
v 0.500000 4.562500 0.375000
v 0.500000 0.062500 0.343750
v 0.468750 0.062500 0.343750
v 0.493750 4.562500 0.375000
v 0.493750 0.062500 0.375000
v 0.468750 4.562500 0.343750
v 0.500000 4.562500 0.406250
v 0.468750 4.562500 0.406250
v 0.500000 0.062500 0.406250
v 0.468750 0.062500 0.406250
vn 1.0000 -0.0000 -0.0000
vn -1.0000 -0.0000 -0.0000
vn -0.0000 1.0000 -0.0000
vn -0.0000 -0.0000 1.0000
vn -0.0000 -0.0000 -1.0000
vn -0.0000 -1.0000 -0.0000
vn 0.7809 -0.0000 0.6247
vn 0.7809 -0.0000 -0.6247
vn -0.7809 -0.0000 0.6247
vn -0.7809 -0.0000 -0.6247
vt 0.117188 0.945312
vt 0.062500 0.945312
vt 0.062500 0.933594
vt 0.117188 0.933594
vt 0.063047 0.945859
vt 0.116641 0.945859
vt 0.116641 0.999453
vt 0.063047 0.999453
vt 0.171328 0.945859
vt 0.117734 0.945859
vt 0.171875 0.945312
vt 0.171328 0.999453
vt 0.171875 1.000000
vt 0.117734 0.999453
vt 0.117188 1.000000
vt 0.063047 0.941406
vt 0.116641 0.941406
vt 0.116641 0.945312
vt 0.063047 0.945312
vt 0.062500 0.937500
vt 0.000000 0.937500
vt 0.000000 0.933594
vt 0.062500 1.000000
vt 0.000000 1.000000
vt 0.062500 0.871094
vt 0.000000 0.871094
vt 0.007812 0.871094
vt 0.003906 0.871094
vt 0.003906 0.621094
vt 0.007812 0.621094
vt 0.003906 0.870703
vt 0.007812 0.869141
vt 0.000000 0.621094
vt 0.000000 0.869141
s 1
f 2/1/1 1/2/1 3/3/1
f 2/1/1 3/3/1 4/4/1
f 7/4/2 5/1/2 6/2/2
f 7/4/2 6/2/2 8/3/2
f 15/5/3 13/6/3 14/7/3
f 15/5/3 14/7/3 16/8/3
f 3/4/4 1/1/4 5/2/4
f 3/4/4 5/2/4 7/3/4
f 6/1/5 2/2/5 4/3/5
f 6/1/5 4/3/5 8/4/5
f 9/9/3 11/10/3 5/1/3
f 9/9/3 5/1/3 1/11/3
f 10/12/3 9/9/3 1/11/3
f 10/12/3 1/11/3 2/13/3
f 12/14/3 10/12/3 2/13/3
f 12/14/3 2/13/3 6/15/3
f 11/10/3 12/14/3 6/15/3
f 11/10/3 6/15/3 5/1/3
f 13/16/5 15/17/5 11/18/5
f 13/16/5 11/18/5 9/19/5
f 14/16/2 13/17/2 9/18/2
f 14/16/2 9/18/2 10/19/2
f 16/16/4 14/17/4 10/18/4
f 16/16/4 10/18/4 12/19/4
f 15/16/1 16/17/1 12/18/1
f 15/16/1 12/18/1 11/19/1
f 18/20/1 17/21/1 19/22/1
f 18/20/1 19/22/1 20/3/1
f 23/3/2 21/20/2 22/21/2
f 23/3/2 22/21/2 24/22/2
f 21/21/3 17/20/3 18/23/3
f 21/21/3 18/23/3 22/24/3
f 20/25/6 19/3/6 23/22/6
f 20/25/6 23/22/6 24/26/6
f 19/3/4 17/20/4 21/21/4
f 19/3/4 21/21/4 23/22/4
f 22/20/5 18/21/5 20/22/5
f 22/20/5 20/22/5 24/3/5
f 26/27/7 34/28/7 33/29/7
f 26/27/7 33/29/7 28/30/7
f 32/29/2 36/30/2 35/27/2
f 32/29/2 35/27/2 30/28/2
f 30/28/3 35/31/3 34/32/3
f 30/28/3 34/32/3 26/27/3
f 27/29/4 25/28/4 29/26/4
f 27/29/4 29/26/4 31/33/4
f 30/27/5 26/28/5 28/29/5
f 30/27/5 28/29/5 32/30/5
f 27/33/8 33/29/8 34/28/8
f 27/33/8 34/28/8 25/26/8
f 25/31/3 34/28/3 35/26/3
f 25/31/3 35/26/3 29/34/3
f 29/28/2 35/26/2 36/33/2
f 29/28/2 36/33/2 31/29/2
f 38/28/1 46/26/1 45/33/1
f 38/28/1 45/33/1 40/29/1
f 44/33/9 48/29/9 47/28/9
f 44/33/9 47/28/9 42/26/9
f 42/26/3 47/34/3 46/31/3
f 42/26/3 46/31/3 38/28/3
f 39/30/4 37/27/4 41/28/4
f 39/30/4 41/28/4 43/29/4
f 42/28/5 38/26/5 40/33/5
f 42/28/5 40/33/5 44/29/5
f 39/29/1 45/30/1 46/27/1
f 39/29/1 46/27/1 37/28/1
f 37/32/3 46/27/3 47/28/3
f 37/32/3 47/28/3 41/31/3
f 41/28/10 47/28/10 48/29/10
f 41/28/10 48/29/10 43/29/10
f 49/27/7 51/28/7 50/29/7
f 49/27/7 50/29/7 52/30/7
f 53/29/2 55/30/2 54/27/2
f 53/29/2 54/27/2 56/28/2
f 56/28/3 54/31/3 51/32/3
f 56/28/3 51/32/3 49/27/3
f 59/29/4 57/28/4 58/26/4
f 59/29/4 58/26/4 60/33/4
f 56/27/5 49/28/5 52/29/5
f 56/27/5 52/29/5 53/30/5
f 59/33/8 50/29/8 51/28/8
f 59/33/8 51/28/8 57/26/8
f 57/31/3 51/28/3 54/26/3
f 57/31/3 54/26/3 58/34/3
f 58/28/2 54/26/2 55/33/2
f 58/28/2 55/33/2 60/29/2
f 61/28/1 63/26/1 62/33/1
f 61/28/1 62/33/1 64/29/1
f 65/33/9 67/29/9 66/28/9
f 65/33/9 66/28/9 68/26/9
f 68/26/3 66/34/3 63/31/3
f 68/26/3 63/31/3 61/28/3
f 71/30/4 69/27/4 70/28/4
f 71/30/4 70/28/4 72/29/4
f 68/28/5 61/26/5 64/33/5
f 68/28/5 64/33/5 65/29/5
f 71/29/1 62/30/1 63/27/1
f 71/29/1 63/27/1 69/28/1
f 69/32/3 63/27/3 66/28/3
f 69/32/3 66/28/3 70/31/3
f 70/28/10 66/28/10 67/29/10
f 70/28/10 67/29/10 72/29/10
o Bolter
v -0.093750 2.625000 0.162380
v 0.000000 1.625000 -0.000000
v 0.000000 1.625000 0.187500
v 0.093750 1.625000 0.162380
v 0.162380 1.625000 0.093750
v 0.187500 1.625000 -0.000000
v 0.162380 1.625000 -0.093750
v 0.093750 1.625000 -0.162380
v 0.000000 1.625000 -0.187500
v -0.093750 1.625000 -0.162380
v -0.162380 1.625000 -0.093750
v -0.187500 1.625000 -0.000000
v -0.162380 1.625000 0.093750
v -0.093750 1.625000 0.162380
v 0.000000 1.625000 0.187500
v 0.000000 2.625000 0.187500
v 0.093750 1.625000 0.162380
v 0.093750 2.625000 0.162380
v 0.162380 1.625000 0.093750
v 0.162380 2.625000 0.093750
v 0.187500 1.625000 -0.000000
v 0.187500 2.625000 -0.000000
v 0.162380 1.625000 -0.093750
v 0.162380 2.625000 -0.093750
v 0.093750 1.625000 -0.162380
v 0.093750 2.625000 -0.162380
v 0.000000 1.625000 -0.187500
v 0.000000 2.625000 -0.187500
v -0.093750 1.625000 -0.162380
v -0.093750 2.625000 -0.162380
v -0.162380 1.625000 -0.093750
v -0.162380 2.625000 -0.093750
v -0.187500 1.625000 -0.000000
v -0.187500 2.625000 -0.000000
v -0.162380 1.625000 0.093750
v -0.162380 2.625000 0.093750
v -0.093750 1.625000 0.162380
v 0.000000 1.687500 -0.000000
v 0.000000 1.812500 -0.000000
v 0.000000 1.687500 0.218750
v 0.000000 1.812500 0.218750
v 0.109375 1.687500 0.189443
v 0.109375 1.812500 0.189443
v 0.189443 1.687500 0.109375
v 0.189443 1.812500 0.109375
v 0.218750 1.687500 -0.000000
v 0.218750 1.812500 -0.000000
v 0.189443 1.687500 -0.109375
v 0.189443 1.812500 -0.109375
v 0.109375 1.687500 -0.189443
v 0.109375 1.812500 -0.189443
v 0.000000 1.687500 -0.218750
v 0.000000 1.812500 -0.218750
v -0.109375 1.687500 -0.189443
v -0.109375 1.812500 -0.189443
v -0.189443 1.687500 -0.109375
v -0.189443 1.812500 -0.109375
v -0.218750 1.687500 -0.000000
v -0.218750 1.812500 -0.000000
v -0.189443 1.687500 0.109375
v -0.189443 1.812500 0.109375
v -0.109375 1.687500 0.189443
v -0.109375 1.812500 0.189443
v 0.000000 1.687500 0.218750
v 0.000000 1.812500 0.218750
v 0.109375 1.687500 0.189443
v 0.109375 1.812500 0.189443
v 0.189443 1.687500 0.109375
v 0.189443 1.812500 0.109375
v 0.218750 1.687500 -0.000000
v 0.218750 1.812500 -0.000000
v 0.189443 1.687500 -0.109375
v 0.189443 1.812500 -0.109375
v 0.109375 1.687500 -0.189443
v 0.109375 1.812500 -0.189443
v 0.000000 1.687500 -0.218750
v 0.000000 1.812500 -0.218750
v -0.109375 1.687500 -0.189443
v -0.109375 1.812500 -0.189443
v -0.189443 1.687500 -0.109375
v -0.189443 1.812500 -0.109375
v -0.218750 1.687500 -0.000000
v -0.218750 1.812500 -0.000000
v -0.189443 1.687500 0.109375
v -0.189443 1.812500 0.109375
v -0.109375 1.687500 0.189443
v -0.109375 1.812500 0.189443
vn -0.0000 -1.0000 -0.0000
vn -0.0000 -0.0000 1.0000
vn 0.5000 -0.0000 0.8660
vn 0.8660 -0.0000 0.5000
vn 1.0000 -0.0000 -0.0000
vn 0.8660 -0.0000 -0.5000
vn 0.5000 -0.0000 -0.8660
vn -0.0000 -0.0000 -1.0000
vn -0.5000 -0.0000 -0.8660
vn -0.8660 -0.0000 -0.5000
vn -1.0000 -0.0000 -0.0000
vn -0.8660 -0.0000 0.5000
vn -0.5000 -0.0000 0.8660
vn -0.0000 1.0000 -0.0000
vt 0.892578 0.873430
vt 0.886719 0.875000
vt 0.886719 0.863281
vt 0.896868 0.869141
vt 0.898438 0.863281
vt 0.896868 0.857422
vt 0.892578 0.853132
vt 0.886719 0.851562
vt 0.880859 0.853132
vt 0.876570 0.857422
vt 0.875000 0.863281
vt 0.876570 0.869141
vt 0.880859 0.873430
vt 0.851562 0.894531
vt 0.859375 0.894531
vt 0.859375 0.957031
vt 0.851562 0.957031
vt 0.867188 0.894531
vt 0.867188 0.957031
vt 0.875000 0.894531
vt 0.875000 0.957031
vt 0.882812 0.894531
vt 0.882812 0.957031
vt 0.890625 0.894531
vt 0.890625 0.957031
vt 0.898438 0.894531
vt 0.898438 0.957031
vt 0.906250 0.894531
vt 0.906250 0.957031
vt 0.914062 0.894531
vt 0.914062 0.957031
vt 0.921875 0.894531
vt 0.921875 0.957031
vt 0.828125 0.894531
vt 0.835938 0.894531
vt 0.835938 0.957031
vt 0.828125 0.957031
vt 0.843750 0.894531
vt 0.843750 0.957031
vt 0.946289 0.857543
vt 0.939453 0.859375
vt 0.939453 0.845703
vt 0.896484 0.820312
vt 0.903320 0.822144
vt 0.896484 0.833984
vt 0.951293 0.852539
vt 0.908325 0.827148
vt 0.953125 0.845703
vt 0.910156 0.833984
vt 0.951293 0.838867
vt 0.908325 0.840820
vt 0.946289 0.833863
vt 0.903320 0.845825
vt 0.939453 0.832031
vt 0.896484 0.847656
vt 0.932617 0.833863
vt 0.889648 0.845825
vt 0.927613 0.838867
vt 0.884644 0.840820
vt 0.925781 0.845703
vt 0.882812 0.833984
vt 0.927613 0.852539
vt 0.884644 0.827148
vt 0.932617 0.857543
vt 0.889648 0.822144
vt 0.910156 0.902344
vt 0.917969 0.902344
vt 0.917969 0.910156
vt 0.910156 0.910156
vt 0.925781 0.902344
vt 0.925781 0.910156
vt 0.832031 0.902344
vt 0.839844 0.902344
vt 0.839844 0.910156
vt 0.832031 0.910156
vt 0.847656 0.902344
vt 0.847656 0.910156
vt 0.855469 0.902344
vt 0.855469 0.910156
vt 0.863281 0.902344
vt 0.863281 0.910156
vt 0.871094 0.902344
vt 0.871094 0.910156
vt 0.878906 0.902344
vt 0.878906 0.910156
vt 0.886719 0.902344
vt 0.886719 0.910156
vt 0.894531 0.902344
vt 0.894531 0.910156
vt 0.902344 0.902344
vt 0.902344 0.910156
s 1
f 76/35/11 75/36/11 74/37/11
f 77/38/11 76/35/11 74/37/11
f 78/39/11 77/38/11 74/37/11
f 79/40/11 78/39/11 74/37/11
f 80/41/11 79/40/11 74/37/11
f 81/42/11 80/41/11 74/37/11
f 82/43/11 81/42/11 74/37/11
f 83/44/11 82/43/11 74/37/11
f 84/45/11 83/44/11 74/37/11
f 85/46/11 84/45/11 74/37/11
f 86/47/11 85/46/11 74/37/11
f 75/36/11 86/47/11 74/37/11
f 87/48/12 89/49/13 90/50/13
f 87/48/12 90/50/13 88/51/12
f 89/49/13 91/52/14 92/53/14
f 89/49/13 92/53/14 90/50/13
f 91/52/14 93/54/15 94/55/15
f 91/52/14 94/55/15 92/53/14
f 93/54/15 95/56/16 96/57/16
f 93/54/15 96/57/16 94/55/15
f 95/56/16 97/58/17 98/59/17
f 95/56/16 98/59/17 96/57/16
f 97/58/17 99/60/18 100/61/18
f 97/58/17 100/61/18 98/59/17
f 99/60/18 101/62/19 102/63/19
f 99/60/18 102/63/19 100/61/18
f 101/62/19 103/64/20 104/65/20
f 101/62/19 104/65/20 102/63/19
f 103/64/20 105/66/21 106/67/21
f 103/64/20 106/67/21 104/65/20
f 105/68/21 107/69/22 108/70/22
f 105/68/21 108/70/22 106/71/21
f 107/69/22 109/72/23 73/73/23
f 107/69/22 73/73/23 108/70/22
f 109/72/23 87/48/12 88/51/12
f 109/72/23 88/51/12 73/73/23
f 114/74/11 112/75/11 110/76/11
f 113/77/24 115/78/24 111/79/24
f 116/80/11 114/74/11 110/76/11
f 115/78/24 117/81/24 111/79/24
f 118/82/11 116/80/11 110/76/11
f 117/81/24 119/83/24 111/79/24
f 120/84/11 118/82/11 110/76/11
f 119/83/24 121/85/24 111/79/24
f 122/86/11 120/84/11 110/76/11
f 121/85/24 123/87/24 111/79/24
f 124/88/11 122/86/11 110/76/11
f 123/87/24 125/89/24 111/79/24
f 126/90/11 124/88/11 110/76/11
f 125/89/24 127/91/24 111/79/24
f 128/92/11 126/90/11 110/76/11
f 127/91/24 129/93/24 111/79/24
f 130/94/11 128/92/11 110/76/11
f 129/93/24 131/95/24 111/79/24
f 132/96/11 130/94/11 110/76/11
f 131/95/24 133/97/24 111/79/24
f 134/98/11 132/96/11 110/76/11
f 133/97/24 135/99/24 111/79/24
f 112/75/11 134/98/11 110/76/11
f 135/99/24 113/77/24 111/79/24
f 136/100/12 138/101/13 139/102/13
f 136/100/12 139/102/13 137/103/12
f 138/101/13 140/104/14 141/105/14
f 138/101/13 141/105/14 139/102/13
f 140/106/14 142/107/15 143/108/15
f 140/106/14 143/108/15 141/109/14
f 142/107/15 144/110/16 145/111/16
f 142/107/15 145/111/16 143/108/15
f 144/110/16 146/112/17 147/113/17
f 144/110/16 147/113/17 145/111/16
f 146/112/17 148/114/18 149/115/18
f 146/112/17 149/115/18 147/113/17
f 148/114/18 150/116/19 151/117/19
f 148/114/18 151/117/19 149/115/18
f 150/116/19 152/118/20 153/119/20
f 150/116/19 153/119/20 151/117/19
f 152/118/20 154/120/21 155/121/21
f 152/118/20 155/121/21 153/119/20
f 154/120/21 156/122/22 157/123/22
f 154/120/21 157/123/22 155/121/21
f 156/122/22 158/124/23 159/125/23
f 156/122/22 159/125/23 157/123/22
f 158/124/23 136/100/12 137/103/12
f 158/124/23 137/103/12 159/125/23
o BoltsL
v 0.500000 0.343750 0.294194
v 0.500000 0.387944 0.250000
v 0.500000 0.299556 0.250000
v 0.500000 0.343750 0.205806
v 0.437500 0.343750 0.294194
v 0.437500 0.387944 0.250000
v 0.437500 0.299556 0.250000
v 0.437500 0.343750 0.205806
v 0.500000 0.343750 -0.205806
v 0.500000 0.387944 -0.250000
v 0.500000 0.299556 -0.250000
v 0.500000 0.343750 -0.294194
v 0.437500 0.343750 -0.205806
v 0.437500 0.387944 -0.250000
v 0.437500 0.299556 -0.250000
v 0.437500 0.343750 -0.294194
vn -1.0000 -0.0000 -0.0000
vn -0.0000 0.7071 0.7071
vn -0.0000 -0.7071 -0.7071
vn -0.0000 -0.7071 0.7071
vn -0.0000 0.7071 -0.7071
vt 0.015625 0.863281
vt 0.015625 0.867188
vt 0.011719 0.867188
vt 0.011719 0.863281
s 1
f 166/126/25 164/127/25 165/128/25
f 166/126/25 165/128/25 167/129/25
f 164/129/26 160/126/26 161/127/26
f 164/129/26 161/127/26 165/128/26
f 163/126/27 162/127/27 166/128/27
f 163/126/27 166/128/27 167/129/27
f 162/126/28 160/127/28 164/128/28
f 162/126/28 164/128/28 166/129/28
f 165/127/29 161/128/29 163/129/29
f 165/127/29 163/129/29 167/126/29
f 174/126/25 172/127/25 173/128/25
f 174/126/25 173/128/25 175/129/25
f 172/129/26 168/126/26 169/127/26
f 172/129/26 169/127/26 173/128/26
f 171/126/27 170/127/27 174/128/27
f 171/126/27 174/128/27 175/129/27
f 170/126/28 168/127/28 172/128/28
f 170/126/28 172/128/28 174/129/28
f 173/127/29 169/128/29 171/129/29
f 173/127/29 171/129/29 175/126/29
o BoltsR
v -0.437500 0.343750 0.294194
v -0.437500 0.387944 0.250000
v -0.437500 0.299556 0.250000
v -0.437500 0.343750 0.205806
v -0.500000 0.343750 0.294194
v -0.500000 0.387944 0.250000
v -0.500000 0.299556 0.250000
v -0.500000 0.343750 0.205806
v -0.437500 0.343750 -0.205806
v -0.437500 0.387944 -0.250000
v -0.437500 0.299556 -0.250000
v -0.437500 0.343750 -0.294194
v -0.500000 0.343750 -0.205806
v -0.500000 0.387944 -0.250000
v -0.500000 0.299556 -0.250000
v -0.500000 0.343750 -0.294194
vn 1.0000 -0.0000 -0.0000
vn -0.0000 0.7071 0.7071
vn -0.0000 -0.7071 -0.7071
vn -0.0000 -0.7071 0.7071
vn -0.0000 0.7071 -0.7071
vt 0.015625 0.867188
vt 0.011719 0.867188
vt 0.011719 0.863281
vt 0.015625 0.863281
s 1
f 177/130/30 176/131/30 178/132/30
f 177/130/30 178/132/30 179/133/30
f 180/132/31 176/133/31 177/130/31
f 180/132/31 177/130/31 181/131/31
f 179/133/32 178/130/32 182/131/32
f 179/133/32 182/131/32 183/132/32
f 178/133/33 176/130/33 180/131/33
f 178/133/33 180/131/33 182/132/33
f 181/130/34 177/131/34 179/132/34
f 181/130/34 179/132/34 183/133/34
f 185/130/30 184/131/30 186/132/30
f 185/130/30 186/132/30 187/133/30
f 188/132/31 184/133/31 185/130/31
f 188/132/31 185/130/31 189/131/31
f 187/133/32 186/130/32 190/131/32
f 187/133/32 190/131/32 191/132/32
f 186/133/33 184/130/33 188/131/33
f 186/133/33 188/131/33 190/132/33
f 189/130/34 185/131/34 187/132/34
f 189/130/34 187/132/34 191/133/34
o Engine
v 0.000000 2.562500 -0.000000
v 0.100481 2.750000 0.375000
v 0.087019 2.656250 0.324759
v 0.050241 2.587620 0.187500
v 0.274519 2.750000 0.274519
v 0.237741 2.656250 0.237740
v 0.137259 2.587620 0.137259
v 0.375000 2.750000 0.100481
v 0.324759 2.656250 0.087019
v 0.187500 2.587620 0.050240
v 0.375000 2.750000 -0.100481
v 0.324759 2.656250 -0.087019
v 0.187500 2.587620 -0.050241
v 0.274519 2.750000 -0.274519
v 0.237741 2.656250 -0.237741
v 0.137259 2.587620 -0.137260
v 0.100481 2.750000 -0.375000
v 0.087019 2.656250 -0.324760
v 0.050241 2.587620 -0.187500
v -0.100481 2.750000 -0.375000
v -0.087019 2.656250 -0.324760
v -0.050241 2.587620 -0.187500
v -0.274519 2.750000 -0.274519
v -0.237741 2.656250 -0.237741
v -0.137259 2.587620 -0.137260
v -0.375000 2.750000 -0.100481
v -0.324759 2.656250 -0.087019
v -0.187500 2.587620 -0.050241
v -0.375000 2.750000 0.100481
v -0.324759 2.656250 0.087019
v -0.187500 2.587620 0.050240
v -0.274519 2.750000 0.274519
v -0.237741 2.656250 0.237740
v -0.137259 2.587620 0.137259
v -0.100481 2.750000 0.375000
v -0.087019 2.656250 0.324759
v -0.050241 2.587620 0.187500
v 0.100481 2.750000 0.375000
v 0.100481 3.500000 0.375000
v 0.274519 2.750000 0.274519
v 0.274519 3.500000 0.274518
v 0.375000 2.750000 0.100481
v 0.375000 3.500000 0.100481
v 0.375000 2.750000 -0.100481
v 0.375000 3.500000 -0.100482
v 0.274519 2.750000 -0.274519
v 0.274519 3.500000 -0.274519
v 0.100481 2.750000 -0.375000
v 0.100481 3.500000 -0.375000
v -0.100481 2.750000 -0.375000
v -0.100481 3.500000 -0.375000
v -0.274519 2.750000 -0.274519
v -0.274519 3.500000 -0.274519
v -0.375000 2.750000 -0.100481
v -0.375000 3.500000 -0.100482
v -0.375000 2.750000 0.100481
v -0.375000 3.500000 0.100481
v -0.274519 2.750000 0.274519
v -0.274519 3.500000 0.274518
v -0.100481 2.750000 0.375000
v -0.100481 3.500000 0.375000
v 0.050241 3.662380 0.187500
v 0.087019 3.593750 0.324759
v 0.100481 3.500000 0.375000
v 0.137259 3.662380 0.137259
v 0.237741 3.593750 0.237740
v 0.274519 3.500000 0.274518
v 0.187500 3.662380 0.050240
v 0.324759 3.593750 0.087018
v 0.375000 3.500000 0.100481
v 0.187500 3.662380 -0.050241
v 0.324759 3.593750 -0.087019
v 0.375000 3.500000 -0.100482
v 0.137259 3.662380 -0.137260
v 0.237741 3.593750 -0.237741
v 0.274519 3.500000 -0.274519
v 0.050241 3.662380 -0.187500
v 0.087019 3.593750 -0.324760
v 0.100481 3.500000 -0.375000
v -0.050241 3.662380 -0.187500
v -0.087019 3.593750 -0.324760
v -0.100481 3.500000 -0.375000
v -0.137259 3.662380 -0.137260
v -0.237741 3.593750 -0.237741
v -0.274519 3.500000 -0.274519
v -0.187500 3.662380 -0.050241
v -0.324759 3.593750 -0.087019
v -0.375000 3.500000 -0.100482
v -0.187500 3.662380 0.050240
v -0.324759 3.593750 0.087018
v -0.375000 3.500000 0.100481
v -0.137259 3.662380 0.137259
v -0.237741 3.593750 0.237740
v -0.274519 3.500000 0.274518
v -0.050241 3.662380 0.187500
v -0.087019 3.593750 0.324759
v -0.100481 3.500000 0.375000
v 0.000000 3.437500 -0.000000
v 0.000000 3.468750 -0.000000
v 0.108854 3.437500 0.406250
v 0.108854 3.468750 0.406250
v 0.297396 3.437500 0.297395
v 0.297396 3.468750 0.297395
v 0.406250 3.437500 0.108854
v 0.406250 3.468750 0.108854
v 0.406250 3.437500 -0.108855
v 0.406250 3.468750 -0.108855
v 0.297396 3.437500 -0.297396
v 0.297396 3.468750 -0.297396
v 0.108854 3.437500 -0.406250
v 0.108854 3.468750 -0.406250
v -0.108854 3.437500 -0.406250
v -0.108854 3.468750 -0.406250
v -0.297396 3.437500 -0.297396
v -0.297396 3.468750 -0.297396
v -0.406250 3.437500 -0.108855
v -0.406250 3.468750 -0.108855
v -0.406250 3.437500 0.108854
v -0.406250 3.468750 0.108854
v -0.297396 3.437500 0.297395
v -0.297396 3.468750 0.297395
v -0.108854 3.437500 0.406250
v -0.108854 3.468750 0.406250
v 0.108854 3.437500 0.406250
v 0.108854 3.468750 0.406250
v 0.297396 3.437500 0.297395
v 0.297396 3.468750 0.297395
v 0.406250 3.437500 0.108854
v 0.406250 3.468750 0.108854
v 0.406250 3.437500 -0.108855
v 0.406250 3.468750 -0.108855
v 0.297396 3.437500 -0.297396
v 0.297396 3.468750 -0.297396
v 0.108854 3.437500 -0.406250
v 0.108854 3.468750 -0.406250
v -0.108854 3.437500 -0.406250
v -0.108854 3.468750 -0.406250
v -0.297396 3.437500 -0.297396
v -0.297396 3.468750 -0.297396
v -0.406250 3.437500 -0.108855
v -0.406250 3.468750 -0.108855
v -0.406250 3.437500 0.108854
v -0.406250 3.468750 0.108854
v -0.297396 3.437500 0.297395
v -0.297396 3.468750 0.297395
v -0.108854 3.437500 0.406250
v -0.108854 3.468750 0.406250
v 0.000000 2.781250 -0.000000
v 0.000000 2.812500 -0.000000
v 0.108854 2.781250 0.406250
v 0.108854 2.812500 0.406250
v 0.297396 2.781250 0.297395
v 0.297396 2.812500 0.297395
v 0.406250 2.781250 0.108854
v 0.406250 2.812500 0.108854
v 0.406250 2.781250 -0.108855
v 0.406250 2.812500 -0.108855
v 0.297396 2.781250 -0.297396
v 0.297396 2.812500 -0.297396
v 0.108854 2.781250 -0.406250
v 0.108854 2.812500 -0.406250
v -0.108854 2.781250 -0.406250
v -0.108854 2.812500 -0.406250
v -0.297396 2.781250 -0.297396
v -0.297396 2.812500 -0.297396
v -0.406250 2.781250 -0.108855
v -0.406250 2.812500 -0.108855
v -0.406250 2.781250 0.108854
v -0.406250 2.812500 0.108854
v -0.297396 2.781250 0.297395
v -0.297396 2.812500 0.297395
v -0.108854 2.781250 0.406250
v -0.108854 2.812500 0.406250
v 0.108854 2.781250 0.406250
v 0.108854 2.812500 0.406250
v 0.297396 2.781250 0.297395
v 0.297396 2.812500 0.297395
v 0.406250 2.781250 0.108854
v 0.406250 2.812500 0.108854
v 0.406250 2.781250 -0.108855
v 0.406250 2.812500 -0.108855
v 0.297396 2.781250 -0.297396
v 0.297396 2.812500 -0.297396
v 0.108854 2.781250 -0.406250
v 0.108854 2.812500 -0.406250
v -0.108854 2.781250 -0.406250
v -0.108854 2.812500 -0.406250
v -0.297396 2.781250 -0.297396
v -0.297396 2.812500 -0.297396
v -0.406250 2.781250 -0.108855
v -0.406250 2.812500 -0.108855
v -0.406250 2.781250 0.108854
v -0.406250 2.812500 0.108854
v -0.297396 2.781250 0.297395
v -0.297396 2.812500 0.297395
v -0.108854 2.781250 0.406250
v -0.108854 2.812500 0.406250
v 0.500000 3.156250 0.437500
v 0.500000 3.156250 -0.437500
v 0.500000 3.093750 0.437500
v 0.500000 3.093750 -0.437500
v 0.000000 3.156250 0.343750
v 0.000000 3.156250 -0.343750
v 0.000000 3.093750 0.343750
v 0.000000 3.093750 -0.343750
v 0.000000 3.093750 0.343750
v 0.000000 3.093750 -0.343750
v -0.500000 3.156250 0.437500
v -0.500000 3.156250 -0.437500
v -0.500000 3.093750 0.437500
v -0.500000 3.093750 -0.437500
v 0.050241 3.875000 0.187500
v 0.137259 3.875000 0.137259
v 0.187500 3.875000 0.050240
v 0.187500 3.875000 -0.050241
v 0.137259 3.875000 -0.137260
v 0.050241 3.875000 -0.187500
v -0.050241 3.875000 -0.187500
v -0.137259 3.875000 -0.137260
v -0.187500 3.875000 -0.050241
v -0.187500 3.875000 0.050240
v -0.137259 3.875000 0.137259
v -0.050241 3.875000 0.187500
v 0.083734 4.000000 0.312500
v 0.083734 4.187500 0.312500
v 0.228766 4.000000 0.228765
v 0.228766 4.187500 0.228765
v 0.312500 4.000000 0.083734
v 0.312500 4.187500 0.083734
v 0.312500 4.000000 -0.083735
v 0.312500 4.187500 -0.083735
v 0.228766 4.000000 -0.228766
v 0.228766 4.187500 -0.228766
v 0.083734 4.000000 -0.312500
v 0.083734 4.187500 -0.312500
v -0.083734 4.000000 -0.312500
v -0.083734 4.187500 -0.312500
v -0.228766 4.000000 -0.228766
v -0.228766 4.187500 -0.228766
v -0.312500 4.000000 -0.083735
v -0.312500 4.187500 -0.083735
v -0.312500 4.000000 0.083734
v -0.312500 4.187500 0.083734
v -0.228766 4.000000 0.228765
v -0.228766 4.187500 0.228765
v -0.083734 4.000000 0.312500
v -0.083734 4.187500 0.312500
v 0.000000 4.375000 -0.000000
v 0.050241 4.312500 0.187500
v 0.050241 4.375000 0.187500
v 0.137259 4.312500 0.137259
v 0.137259 4.375000 0.137259
v 0.187500 4.312500 0.050240
v 0.187500 4.375000 0.050240
v 0.187500 4.312500 -0.050241
v 0.187500 4.375000 -0.050241
v 0.137259 4.312500 -0.137260
v 0.137259 4.375000 -0.137260
v 0.050241 4.312500 -0.187500
v 0.050241 4.375000 -0.187500
v -0.050241 4.312500 -0.187500
v -0.050241 4.375000 -0.187500
v -0.137259 4.312500 -0.137260
v -0.137259 4.375000 -0.137260
v -0.187500 4.312500 -0.050241
v -0.187500 4.375000 -0.050241
v -0.187500 4.312500 0.050240
v -0.187500 4.375000 0.050240
v -0.137259 4.312500 0.137259
v -0.137259 4.375000 0.137259
v -0.050241 4.312500 0.187500
v -0.050241 4.375000 0.187500
v 0.050241 3.625000 0.187500
v 0.050241 3.875000 0.187500
v 0.137259 3.625000 0.137259
v 0.137259 3.875000 0.137259
v 0.187500 3.625000 0.050240
v 0.187500 3.875000 0.050240
v 0.187500 3.625000 -0.050241
v 0.187500 3.875000 -0.050241
v 0.137259 3.625000 -0.137260
v 0.137259 3.875000 -0.137260
v 0.050241 3.625000 -0.187500
v 0.050241 3.875000 -0.187500
v -0.050241 3.625000 -0.187500
v -0.050241 3.875000 -0.187500
v -0.137259 3.625000 -0.137260
v -0.137259 3.875000 -0.137260
v -0.187500 3.625000 -0.050241
v -0.187500 3.875000 -0.050241
v -0.187500 3.625000 0.050240
v -0.187500 3.875000 0.050240
v -0.137259 3.625000 0.137259
v -0.137259 3.875000 0.137259
v -0.050241 3.625000 0.187500
v -0.050241 3.875000 0.187500
v 0.050241 4.312500 0.187500
v 0.050241 4.375000 0.187500
v 0.137259 4.312500 0.137259
v 0.137259 4.375000 0.137259
v 0.187500 4.312500 0.050240
v 0.187500 4.375000 0.050240
v 0.187500 4.312500 -0.050241
v 0.187500 4.375000 -0.050241
v 0.137259 4.312500 -0.137260
v 0.137259 4.375000 -0.137260
v 0.050241 4.312500 -0.187500
v 0.050241 4.375000 -0.187500
v -0.050241 4.312500 -0.187500
v -0.050241 4.375000 -0.187500
v -0.137259 4.312500 -0.137260
v -0.137259 4.375000 -0.137260
v -0.187500 4.312500 -0.050241
v -0.187500 4.375000 -0.050241
v -0.187500 4.312500 0.050240
v -0.187500 4.375000 0.050240
v -0.137259 4.312500 0.137259
v -0.137259 4.375000 0.137259
v -0.050241 4.312500 0.187500
v -0.050241 4.375000 0.187500
v 0.083734 4.000000 0.312500
v 0.083734 4.187500 0.312500
v 0.228766 4.000000 0.228765
v 0.228766 4.187500 0.228765
v 0.312500 4.000000 0.083734
v 0.312500 4.187500 0.083734
v 0.312500 4.000000 -0.083735
v 0.312500 4.187500 -0.083735
v 0.228766 4.000000 -0.228766
v 0.228766 4.187500 -0.228766
v 0.083734 4.000000 -0.312500
v 0.083734 4.187500 -0.312500
v -0.083734 4.000000 -0.312500
v -0.083734 4.187500 -0.312500
v -0.228766 4.000000 -0.228766
v -0.228766 4.187500 -0.228766
v -0.312500 4.000000 -0.083735
v -0.312500 4.187500 -0.083735
v -0.312500 4.000000 0.083734
v -0.312500 4.187500 0.083734
v -0.228766 4.000000 0.228765
v -0.228766 4.187500 0.228765
v -0.083734 4.000000 0.312500
v -0.083734 4.187500 0.312500
v 0.500000 3.156250 0.437500
v 0.500000 3.156250 -0.437500
v 0.500000 3.093750 0.437500
v 0.500000 3.093750 -0.437500
v 0.000000 3.156250 0.343750
v 0.000000 3.156250 -0.343750
v 0.000000 3.093750 0.343750
v 0.000000 3.093750 -0.343750
v 0.000000 3.093750 0.343750
v 0.000000 3.093750 -0.343750
v -0.500000 3.156250 0.437500
v -0.500000 3.156250 -0.437500
v -0.500000 3.093750 0.437500
v -0.500000 3.093750 -0.437500
vn 0.2263 -0.4851 0.8446
vn 0.1772 -0.7290 0.6612
vn 0.4840 -0.7290 0.4840
vn 0.6183 -0.4851 0.6183
vn 0.0737 -0.9586 0.2751
vn 0.2014 -0.9586 0.2014
vn -0.0000 -1.0000 -0.0000
vn 0.6612 -0.7290 0.1772
vn 0.8446 -0.4851 0.2263
vn 0.2751 -0.9586 0.0737
vn 0.6612 -0.7290 -0.1772
vn 0.8446 -0.4851 -0.2263
vn 0.2751 -0.9586 -0.0737
vn 0.4840 -0.7290 -0.4840
vn 0.6183 -0.4851 -0.6183
vn 0.2014 -0.9586 -0.2014
vn 0.1772 -0.7290 -0.6612
vn 0.2263 -0.4851 -0.8446
vn 0.0737 -0.9586 -0.2751
vn -0.1772 -0.7290 -0.6612
vn -0.2263 -0.4851 -0.8446
vn -0.0737 -0.9586 -0.2751
vn -0.4840 -0.7290 -0.4840
vn -0.6183 -0.4851 -0.6183
vn -0.2014 -0.9586 -0.2014
vn -0.6612 -0.7290 -0.1772
vn -0.8446 -0.4851 -0.2263
vn -0.2751 -0.9586 -0.0737
vn -0.6612 -0.7290 0.1772
vn -0.8446 -0.4851 0.2263
vn -0.2751 -0.9586 0.0737
vn -0.4840 -0.7290 0.4840
vn -0.6183 -0.4851 0.6183
vn -0.2014 -0.9586 0.2014
vn -0.1772 -0.7290 0.6612
vn -0.2263 -0.4851 0.8446
vn -0.0737 -0.9586 0.2751
vn 0.2588 -0.0000 0.9659
vn 0.7071 -0.0000 0.7071
vn 0.9659 -0.0000 0.2588
vn 0.9659 -0.0000 -0.2588
vn 0.7071 -0.0000 -0.7071
vn 0.2588 -0.0000 -0.9659
vn -0.2588 -0.0000 -0.9659
vn -0.7071 -0.0000 -0.7071
vn -0.9659 -0.0000 -0.2588
vn -0.9659 -0.0000 0.2588
vn -0.7071 -0.0000 0.7071
vn -0.2588 -0.0000 0.9659
vn 0.1126 0.9005 0.4201
vn 0.1772 0.7290 0.6612
vn 0.4840 0.7290 0.4840
vn 0.3075 0.9005 0.3075
vn 0.2263 0.4851 0.8446
vn 0.6183 0.4851 0.6183
vn 0.6612 0.7290 0.1772
vn 0.4201 0.9005 0.1126
vn 0.8446 0.4851 0.2263
vn 0.6612 0.7290 -0.1772
vn 0.4201 0.9005 -0.1126
vn 0.8446 0.4851 -0.2263
vn 0.4840 0.7290 -0.4840
vn 0.3075 0.9005 -0.3075
vn 0.6183 0.4851 -0.6183
vn 0.1772 0.7290 -0.6612
vn 0.1126 0.9005 -0.4201
vn 0.2263 0.4851 -0.8446
vn -0.1772 0.7290 -0.6612
vn -0.1126 0.9005 -0.4201
vn -0.2263 0.4851 -0.8446
vn -0.4840 0.7290 -0.4840
vn -0.3075 0.9005 -0.3075
vn -0.6183 0.4851 -0.6183
vn -0.6612 0.7290 -0.1772
vn -0.4201 0.9005 -0.1126
vn -0.8446 0.4851 -0.2263
vn -0.6612 0.7290 0.1772
vn -0.4201 0.9005 0.1126
vn -0.8446 0.4851 0.2263
vn -0.4840 0.7290 0.4840
vn -0.3075 0.9005 0.3075
vn -0.6183 0.4851 0.6183
vn -0.1772 0.7290 0.6612
vn -0.1126 0.9005 0.4201
vn -0.2263 0.4851 0.8446
vn -0.0000 1.0000 -0.0000
vn -0.1843 -0.0000 0.9829
vn -0.0000 -0.0000 1.0000
vn -0.0000 -0.0000 -1.0000
vn -0.1843 -0.0000 -0.9829
vn 0.1843 -0.0000 0.9829
vn 0.1843 -0.0000 -0.9829
vn -0.1798 0.7193 0.6711
vn 0.1798 0.7193 0.6711
vn -0.4913 0.7193 0.4913
vn 0.4913 0.7193 0.4913
vn 0.6711 0.7193 0.1798
vn 0.6711 0.7193 -0.1798
vn 0.4913 0.7193 -0.4913
vn 0.1798 0.7193 -0.6711
vn -0.1798 0.7193 -0.6711
vn -0.4913 0.7193 -0.4913
vn -0.6711 0.7193 -0.1798
vn -0.6711 0.7193 0.1798
vn -0.6711 -0.7193 -0.1798
vn -0.6711 -0.7193 0.1798
vn -0.4913 -0.7193 0.4913
vn -0.1798 -0.7193 0.6711
vn -0.4913 -0.7193 -0.4913
vn -0.1798 -0.7193 -0.6711
vn 0.1798 -0.7193 0.6711
vn 0.4913 -0.7193 0.4913
vn 0.6711 -0.7193 0.1798
vn 0.6711 -0.7193 -0.1798
vn 0.4913 -0.7193 -0.4913
vn 0.1798 -0.7193 -0.6711
vt 0.850030 0.847656
vt 0.849189 0.844516
vt 0.858609 0.839078
vt 0.860907 0.841376
vt 0.846890 0.835938
vt 0.852329 0.832797
vt 0.843750 0.824219
vt 0.864047 0.829657
vt 0.867188 0.830499
vt 0.855469 0.827359
vt 0.864047 0.818780
vt 0.867188 0.817939
vt 0.855469 0.821079
vt 0.858609 0.809360
vt 0.860907 0.807061
vt 0.852329 0.815640
vt 0.849189 0.803921
vt 0.850030 0.800781
vt 0.846890 0.812500
vt 0.838311 0.803921
vt 0.837470 0.800781
vt 0.840610 0.812500
vt 0.828891 0.809360
vt 0.826593 0.807061
vt 0.835171 0.815640
vt 0.823453 0.818780
vt 0.820312 0.817939
vt 0.832031 0.821079
vt 0.823453 0.829657
vt 0.820312 0.830499
vt 0.832031 0.827359
vt 0.828891 0.839078
vt 0.826593 0.841376
vt 0.835171 0.832797
vt 0.838311 0.844516
vt 0.837470 0.847656
vt 0.840610 0.835938
vt 0.832031 0.750000
vt 0.843750 0.750000
vt 0.843750 0.796875
vt 0.832031 0.796875
vt 0.855469 0.750000
vt 0.855469 0.796875
vt 0.867188 0.750000
vt 0.867188 0.796875
vt 0.878906 0.750000
vt 0.878906 0.796875
vt 0.890625 0.750000
vt 0.890625 0.796875
vt 0.750000 0.750000
vt 0.761719 0.750000
vt 0.761719 0.796875
vt 0.750000 0.796875
vt 0.773438 0.750000
vt 0.773438 0.796875
vt 0.785156 0.750000
vt 0.785156 0.796875
vt 0.796875 0.750000
vt 0.796875 0.796875
vt 0.808594 0.750000
vt 0.808594 0.796875
vt 0.820312 0.750000
vt 0.820312 0.796875
vt 0.893765 0.894531
vt 0.896064 0.885953
vt 0.905484 0.891391
vt 0.899204 0.897671
vt 0.896905 0.882812
vt 0.907782 0.889093
vt 0.910922 0.900811
vt 0.902344 0.903110
vt 0.914062 0.899970
vt 0.910922 0.911689
vt 0.902344 0.909390
vt 0.914062 0.912530
vt 0.905484 0.921109
vt 0.899204 0.914829
vt 0.907782 0.923407
vt 0.896064 0.926547
vt 0.893765 0.917969
vt 0.896905 0.929688
vt 0.885186 0.926547
vt 0.887485 0.917969
vt 0.884345 0.929688
vt 0.875766 0.921109
vt 0.882046 0.914829
vt 0.873468 0.923407
vt 0.870328 0.911689
vt 0.878906 0.909390
vt 0.867188 0.912530
vt 0.870328 0.900811
vt 0.878906 0.903110
vt 0.867188 0.899970
vt 0.875766 0.891391
vt 0.882046 0.897671
vt 0.873468 0.889093
vt 0.885186 0.885953
vt 0.887485 0.894531
vt 0.884345 0.882812
vt 0.823161 0.928263
vt 0.819640 0.941406
vt 0.796875 0.928263
vt 0.796875 0.915120
vt 0.810018 0.918642
vt 0.796875 0.941406
vt 0.823161 0.928263
vt 0.819640 0.941406
vt 0.796875 0.928263
vt 0.796875 0.915120
vt 0.810018 0.918642
vt 0.822266 0.927799
vt 0.822266 0.941406
vt 0.796875 0.934603
vt 0.796875 0.916016
vt 0.810482 0.916016
vt 0.803679 0.941406
vt 0.810482 0.937500
vt 0.796875 0.937500
vt 0.803679 0.912109
vt 0.800396 0.928263
vt 0.823161 0.941406
vt 0.810018 0.941406
vt 0.796875 0.937884
vt 0.810018 0.915120
vt 0.800397 0.928263
vt 0.823161 0.941406
vt 0.810018 0.941406
vt 0.796875 0.937885
vt 0.810018 0.915120
vt 0.800781 0.941406
vt 0.800781 0.927799
vt 0.826172 0.934603
vt 0.796875 0.935547
vt 0.810482 0.935547
vt 0.928630 0.861857
vt 0.925108 0.875000
vt 0.902344 0.861857
vt 0.902344 0.848714
vt 0.915487 0.852235
vt 0.902344 0.875000
vt 0.928630 0.861857
vt 0.925108 0.875000
vt 0.902344 0.861857
vt 0.902344 0.848714
vt 0.915487 0.852235
vt 0.927734 0.861393
vt 0.927734 0.875000
vt 0.902344 0.868196
vt 0.902344 0.849609
vt 0.915951 0.849609
vt 0.909147 0.875000
vt 0.915951 0.867188
vt 0.902344 0.867188
vt 0.909147 0.841797
vt 0.905865 0.861857
vt 0.928630 0.875000
vt 0.915487 0.875000
vt 0.902344 0.871478
vt 0.915487 0.848714
vt 0.905866 0.861857
vt 0.928630 0.875000
vt 0.915487 0.875000
vt 0.902344 0.871479
vt 0.915487 0.848714
vt 0.910156 0.875000
vt 0.910156 0.861393
vt 0.935547 0.868196
vt 0.902344 0.865234
vt 0.915951 0.865234
vt 0.812500 0.941406
vt 0.812500 0.945312
vt 0.781250 0.945312
vt 0.781250 0.941406
vt 0.750000 0.941406
vt 0.750000 0.937500
vt 0.781250 0.937500
vt 0.750000 0.945312
vt 0.812500 0.937500
vt 0.874234 0.828125
vt 0.879672 0.831265
vt 0.871094 0.839844
vt 0.882812 0.836704
vt 0.882812 0.842984
vt 0.879672 0.848423
vt 0.874234 0.851562
vt 0.867954 0.851562
vt 0.862515 0.848423
vt 0.859375 0.842984
vt 0.859375 0.836704
vt 0.862515 0.831265
vt 0.867954 0.828125
vt 0.865860 0.820312
vt 0.876327 0.820312
vt 0.856796 0.825546
vt 0.885392 0.825546
vt 0.882812 0.836704
vt 0.890625 0.834610
vt 0.890625 0.845077
vt 0.885392 0.854142
vt 0.879672 0.848422
vt 0.876327 0.859375
vt 0.865860 0.859375
vt 0.856796 0.854142
vt 0.862515 0.848422
vt 0.851562 0.845077
vt 0.859375 0.836704
vt 0.851562 0.834610
vt 0.906250 0.908829
vt 0.914062 0.910922
vt 0.914062 0.917203
vt 0.906250 0.919296
vt 0.917203 0.922641
vt 0.911483 0.928360
vt 0.922641 0.925781
vt 0.920548 0.933594
vt 0.911483 0.899765
vt 0.917203 0.905484
vt 0.920548 0.894531
vt 0.922641 0.902344
vt 0.928921 0.925781
vt 0.931015 0.933594
vt 0.934360 0.922641
vt 0.940079 0.928360
vt 0.937500 0.917203
vt 0.945312 0.919296
vt 0.937500 0.910922
vt 0.945312 0.908829
vt 0.934360 0.905484
vt 0.940079 0.899765
vt 0.931015 0.894531
vt 0.928921 0.902344
vt 0.843750 0.941406
vt 0.851562 0.941406
vt 0.851562 0.957031
vt 0.843750 0.957031
vt 0.859375 0.941406
vt 0.859375 0.957031
vt 0.867188 0.941406
vt 0.867188 0.957031
vt 0.875000 0.941406
vt 0.875000 0.957031
vt 0.882812 0.941406
vt 0.882812 0.957031
vt 0.890625 0.941406
vt 0.890625 0.957031
vt 0.898438 0.941406
vt 0.898438 0.957031
vt 0.906250 0.941406
vt 0.906250 0.957031
vt 0.914062 0.941406
vt 0.914062 0.957031
vt 0.921875 0.941406
vt 0.921875 0.957031
vt 0.828125 0.941406
vt 0.835938 0.941406
vt 0.835938 0.957031
vt 0.828125 0.957031
vt 0.859375 0.902344
vt 0.867188 0.902344
vt 0.867188 0.906250
vt 0.859375 0.906250
vt 0.875000 0.902344
vt 0.875000 0.906250
vt 0.882812 0.902344
vt 0.882812 0.906250
vt 0.890625 0.902344
vt 0.890625 0.906250
vt 0.898438 0.902344
vt 0.898438 0.906250
vt 0.906250 0.902344
vt 0.906250 0.906250
vt 0.914062 0.902344
vt 0.914062 0.906250
vt 0.921875 0.902344
vt 0.921875 0.906250
vt 0.929688 0.902344
vt 0.929688 0.906250
vt 0.937500 0.902344
vt 0.937500 0.906250
vt 0.945312 0.902344
vt 0.945312 0.906250
vt 0.851562 0.902344
vt 0.851562 0.906250
vt 0.875000 0.972656
vt 0.886719 0.972656
vt 0.886719 0.984375
vt 0.875000 0.984375
vt 0.898438 0.972656
vt 0.898438 0.984375
vt 0.910156 0.972656
vt 0.910156 0.984375
vt 0.921875 0.972656
vt 0.921875 0.984375
vt 0.933594 0.972656
vt 0.933594 0.984375
vt 0.792969 0.972656
vt 0.804688 0.972656
vt 0.804688 0.984375
vt 0.792969 0.984375
vt 0.816406 0.972656
vt 0.816406 0.984375
vt 0.828125 0.972656
vt 0.828125 0.984375
vt 0.839844 0.972656
vt 0.839844 0.984375
vt 0.851562 0.972656
vt 0.851562 0.984375
vt 0.863281 0.972656
vt 0.863281 0.984375
vt 0.781250 0.951172
vt 0.812500 1.000000
vt 0.781250 0.994141
vt 0.750000 1.000000
s 1
f 193/134/35 194/135/36 197/136/37
f 193/134/35 197/136/37 196/137/38
f 194/135/36 195/138/39 198/139/40
f 194/135/36 198/139/40 197/136/37
f 198/139/40 195/138/39 192/140/41
f 196/137/38 197/136/37 200/141/42
f 196/137/38 200/141/42 199/142/43
f 197/136/37 198/139/40 201/143/44
f 197/136/37 201/143/44 200/141/42
f 201/143/44 198/139/40 192/140/41
f 199/142/43 200/141/42 203/144/45
f 199/142/43 203/144/45 202/145/46
f 200/141/42 201/143/44 204/146/47
f 200/141/42 204/146/47 203/144/45
f 204/146/47 201/143/44 192/140/41
f 202/145/46 203/144/45 206/147/48
f 202/145/46 206/147/48 205/148/49
f 203/144/45 204/146/47 207/149/50
f 203/144/45 207/149/50 206/147/48
f 207/149/50 204/146/47 192/140/41
f 205/148/49 206/147/48 209/150/51
f 205/148/49 209/150/51 208/151/52
f 206/147/48 207/149/50 210/152/53
f 206/147/48 210/152/53 209/150/51
f 210/152/53 207/149/50 192/140/41
f 208/151/52 209/150/51 212/153/54
f 208/151/52 212/153/54 211/154/55
f 209/150/51 210/152/53 213/155/56
f 209/150/51 213/155/56 212/153/54
f 213/155/56 210/152/53 192/140/41
f 211/154/55 212/153/54 215/156/57
f 211/154/55 215/156/57 214/157/58
f 212/153/54 213/155/56 216/158/59
f 212/153/54 216/158/59 215/156/57
f 216/158/59 213/155/56 192/140/41
f 214/157/58 215/156/57 218/159/60
f 214/157/58 218/159/60 217/160/61
f 215/156/57 216/158/59 219/161/62
f 215/156/57 219/161/62 218/159/60
f 219/161/62 216/158/59 192/140/41
f 217/160/61 218/159/60 221/162/63
f 217/160/61 221/162/63 220/163/64
f 218/159/60 219/161/62 222/164/65
f 218/159/60 222/164/65 221/162/63
f 222/164/65 219/161/62 192/140/41
f 220/163/64 221/162/63 224/165/66
f 220/163/64 224/165/66 223/166/67
f 221/162/63 222/164/65 225/167/68
f 221/162/63 225/167/68 224/165/66
f 225/167/68 222/164/65 192/140/41
f 223/166/67 224/165/66 227/168/69
f 223/166/67 227/168/69 226/169/70
f 224/165/66 225/167/68 228/170/71
f 224/165/66 228/170/71 227/168/69
f 228/170/71 225/167/68 192/140/41
f 226/169/70 227/168/69 194/135/36
f 226/169/70 194/135/36 193/134/35
f 227/168/69 228/170/71 195/138/39
f 227/168/69 195/138/39 194/135/36
f 195/138/39 228/170/71 192/140/41
f 229/171/72 231/172/73 232/173/73
f 229/171/72 232/173/73 230/174/72
f 231/172/73 233/175/74 234/176/74
f 231/172/73 234/176/74 232/173/73
f 233/175/74 235/177/75 236/178/75
f 233/175/74 236/178/75 234/176/74
f 235/177/75 237/179/76 238/180/76
f 235/177/75 238/180/76 236/178/75
f 237/179/76 239/181/77 240/182/77
f 237/179/76 240/182/77 238/180/76
f 239/183/77 241/184/78 242/185/78
f 239/183/77 242/185/78 240/186/77
f 241/184/78 243/187/79 244/188/79
f 241/184/78 244/188/79 242/185/78
f 243/187/79 245/189/80 246/190/80
f 243/187/79 246/190/80 244/188/79
f 245/189/80 247/191/81 248/192/81
f 245/189/80 248/192/81 246/190/80
f 247/191/81 249/193/82 250/194/82
f 247/191/81 250/194/82 248/192/81
f 249/193/82 251/195/83 252/196/83
f 249/193/82 252/196/83 250/194/82
f 251/195/83 229/171/72 230/174/72
f 251/195/83 230/174/72 252/196/83
f 253/197/84 254/198/85 257/199/86
f 253/197/84 257/199/86 256/200/87
f 254/198/85 255/201/88 258/202/89
f 254/198/85 258/202/89 257/199/86
f 256/200/87 257/199/86 260/203/90
f 256/200/87 260/203/90 259/204/91
f 257/199/86 258/202/89 261/205/92
f 257/199/86 261/205/92 260/203/90
f 259/204/91 260/203/90 263/206/93
f 259/204/91 263/206/93 262/207/94
f 260/203/90 261/205/92 264/208/95
f 260/203/90 264/208/95 263/206/93
f 262/207/94 263/206/93 266/209/96
f 262/207/94 266/209/96 265/210/97
f 263/206/93 264/208/95 267/211/98
f 263/206/93 267/211/98 266/209/96
f 265/210/97 266/209/96 269/212/99
f 265/210/97 269/212/99 268/213/100
f 266/209/96 267/211/98 270/214/101
f 266/209/96 270/214/101 269/212/99
f 268/213/100 269/212/99 272/215/102
f 268/213/100 272/215/102 271/216/103
f 269/212/99 270/214/101 273/217/104
f 269/212/99 273/217/104 272/215/102
f 271/216/103 272/215/102 275/218/105
f 271/216/103 275/218/105 274/219/106
f 272/215/102 273/217/104 276/220/107
f 272/215/102 276/220/107 275/218/105
f 274/219/106 275/218/105 278/221/108
f 274/219/106 278/221/108 277/222/109
f 275/218/105 276/220/107 279/223/110
f 275/218/105 279/223/110 278/221/108
f 277/222/109 278/221/108 281/224/111
f 277/222/109 281/224/111 280/225/112
f 278/221/108 279/223/110 282/226/113
f 278/221/108 282/226/113 281/224/111
f 280/225/112 281/224/111 284/227/114
f 280/225/112 284/227/114 283/228/115
f 281/224/111 282/226/113 285/229/116
f 281/224/111 285/229/116 284/227/114
f 283/228/115 284/227/114 287/230/117
f 283/228/115 287/230/117 286/231/118
f 284/227/114 285/229/116 288/232/119
f 284/227/114 288/232/119 287/230/117
f 286/231/118 287/230/117 254/198/85
f 286/231/118 254/198/85 253/197/84
f 287/230/117 288/232/119 255/201/88
f 287/230/117 255/201/88 254/198/85
f 293/233/41 291/234/41 289/235/41
f 292/236/120 294/237/120 290/238/120
f 295/239/41 293/240/41 289/241/41
f 294/242/120 296/243/120 290/238/120
f 297/244/41 295/245/41 289/246/41
f 296/244/120 298/245/120 290/246/120
f 299/242/41 297/243/41 289/238/41
f 298/239/120 300/240/120 290/241/120
f 301/236/41 299/237/41 289/238/41
f 300/233/120 302/234/120 290/235/120
f 303/247/41 301/248/41 289/249/41
f 302/250/120 304/251/120 290/252/120
f 305/238/41 303/253/41 289/254/41
f 304/255/120 306/256/120 290/257/120
f 307/238/41 305/258/41 289/259/41
f 306/260/120 308/261/120 290/262/120
f 309/263/41 307/264/41 289/265/41
f 308/263/120 310/264/120 290/265/120
f 311/260/41 309/261/41 289/262/41
f 310/238/120 312/258/120 290/259/120
f 313/255/41 311/256/41 289/257/41
f 312/238/120 314/253/120 290/254/120
f 291/250/41 313/251/41 289/252/41
f 314/247/120 292/248/120 290/249/120
f 315/266/72 317/267/73 318/250/73
f 315/266/72 318/250/73 316/251/72
f 317/266/73 319/267/74 320/250/74
f 317/266/73 320/250/74 318/251/73
f 319/266/74 321/267/75 322/250/75
f 319/266/74 322/250/75 320/251/74
f 321/266/75 323/267/76 324/250/76
f 321/266/75 324/250/76 322/251/75
f 323/266/76 325/267/77 326/250/77
f 323/266/76 326/250/77 324/251/76
f 325/266/77 327/267/78 328/250/78
f 325/266/77 328/250/78 326/251/77
f 327/266/78 329/267/79 330/250/79
f 327/266/78 330/250/79 328/251/78
f 329/266/79 331/267/80 332/250/80
f 329/266/79 332/250/80 330/251/79
f 331/266/80 333/267/81 334/250/81
f 331/266/80 334/250/81 332/251/80
f 333/266/81 335/267/82 336/250/82
f 333/266/81 336/250/82 334/251/81
f 335/266/82 337/267/83 338/250/83
f 335/266/82 338/250/83 336/251/82
f 337/266/83 315/267/72 316/250/72
f 337/266/83 316/250/72 338/251/83
f 343/268/41 341/269/41 339/270/41
f 342/271/120 344/272/120 340/273/120
f 345/274/41 343/275/41 339/276/41
f 344/277/120 346/278/120 340/273/120
f 347/279/41 345/280/41 339/281/41
f 346/279/120 348/280/120 340/281/120
f 349/277/41 347/278/41 339/273/41
f 348/274/120 350/275/120 340/276/120
f 351/271/41 349/272/41 339/273/41
f 350/268/120 352/269/120 340/270/120
f 353/282/41 351/283/41 339/284/41
f 352/285/120 354/286/120 340/287/120
f 355/273/41 353/288/41 339/289/41
f 354/290/120 356/291/120 340/292/120
f 357/273/41 355/293/41 339/294/41
f 356/295/120 358/296/120 340/297/120
f 359/298/41 357/299/41 339/300/41
f 358/298/120 360/299/120 340/300/120
f 361/295/41 359/296/41 339/297/41
f 360/273/120 362/293/120 340/294/120
f 363/290/41 361/291/41 339/292/41
f 362/273/120 364/288/120 340/289/120
f 341/285/41 363/286/41 339/287/41
f 364/282/120 342/283/120 340/284/120
f 365/301/72 367/302/73 368/285/73
f 365/301/72 368/285/73 366/286/72
f 367/301/73 369/302/74 370/285/74
f 367/301/73 370/285/74 368/286/73
f 369/301/74 371/302/75 372/285/75
f 369/301/74 372/285/75 370/286/74
f 371/301/75 373/302/76 374/285/76
f 371/301/75 374/285/76 372/286/75
f 373/301/76 375/302/77 376/285/77
f 373/301/76 376/285/77 374/286/76
f 375/301/77 377/302/78 378/285/78
f 375/301/77 378/285/78 376/286/77
f 377/301/78 379/302/79 380/285/79
f 377/301/78 380/285/79 378/286/78
f 379/301/79 381/302/80 382/285/80
f 379/301/79 382/285/80 380/286/79
f 381/301/80 383/302/81 384/285/81
f 381/301/80 384/285/81 382/286/80
f 383/301/81 385/302/82 386/285/82
f 383/301/81 386/285/82 384/286/81
f 385/301/82 387/302/83 388/285/83
f 385/301/82 388/285/83 386/286/82
f 387/301/83 365/302/72 366/285/72
f 387/301/83 366/285/72 388/286/83
f 391/303/121 389/304/121 393/305/122
f 391/303/121 393/305/122 395/306/121
f 394/306/123 390/307/124 392/308/124
f 394/306/123 392/308/124 396/309/124
f 397/306/125 393/305/122 399/310/125
f 397/306/125 399/310/125 401/307/125
f 400/303/126 394/306/123 398/309/126
f 400/303/126 398/309/126 402/311/126
f 441/312/120 443/313/120 439/314/120
f 443/313/120 445/315/120 439/314/120
f 445/315/120 447/316/120 439/314/120
f 447/316/120 449/317/120 439/314/120
f 449/317/120 451/318/120 439/314/120
f 451/318/120 453/319/120 439/314/120
f 453/319/120 455/320/120 439/314/120
f 455/320/120 457/321/120 439/314/120
f 457/321/120 459/322/120 439/314/120
f 459/322/120 461/323/120 439/314/120
f 461/323/120 463/324/120 439/314/120
f 463/324/120 441/312/120 439/314/120
f 462/324/127 438/325/127 416/326/128
f 462/324/127 416/326/128 440/312/128
f 460/323/129 436/327/129 438/325/127
f 460/323/129 438/325/127 462/324/127
f 440/312/128 416/326/128 418/328/130
f 440/312/128 418/328/130 442/313/130
f 444/329/131 420/330/131 422/331/132
f 444/329/131 422/331/132 446/316/132
f 442/313/130 418/328/130 420/330/131
f 442/313/130 420/330/131 444/329/131
f 446/316/132 422/331/132 424/332/133
f 446/316/132 424/332/133 448/333/133
f 448/333/133 424/332/133 426/334/134
f 448/333/133 426/334/134 450/318/134
f 450/318/134 426/334/134 428/335/135
f 450/318/134 428/335/135 452/319/135
f 430/336/136 454/337/136 452/319/135
f 430/336/136 452/319/135 428/335/135
f 454/337/136 430/336/136 432/338/137
f 454/337/136 432/338/137 456/321/137
f 458/339/138 434/340/138 436/327/129
f 458/339/138 436/327/129 460/323/129
f 456/321/137 432/338/137 434/340/138
f 456/321/137 434/340/138 458/339/138
f 431/341/139 411/342/139 412/343/140
f 431/341/139 412/343/140 433/344/140
f 433/344/140 412/343/140 413/345/141
f 433/344/140 413/345/141 435/346/141
f 435/346/141 413/345/141 414/347/142
f 435/346/141 414/347/142 437/348/142
f 429/349/143 410/350/143 411/342/139
f 429/349/143 411/342/139 431/341/139
f 427/351/144 409/352/144 410/350/143
f 427/351/144 410/350/143 429/349/143
f 437/348/142 414/347/142 403/353/145
f 437/348/142 403/353/145 415/354/145
f 415/354/145 403/353/145 404/355/146
f 415/354/145 404/355/146 417/356/146
f 417/356/146 404/355/146 405/357/147
f 417/356/146 405/357/147 419/358/147
f 419/358/147 405/357/147 406/359/148
f 419/358/147 406/359/148 421/360/148
f 421/360/148 406/359/148 407/361/149
f 421/360/148 407/361/149 423/362/149
f 425/363/150 408/364/150 409/352/144
f 425/363/150 409/352/144 427/351/144
f 408/364/150 425/363/150 423/362/149
f 408/364/150 423/362/149 407/361/149
f 464/365/72 466/366/73 467/367/73
f 464/365/72 467/367/73 465/368/72
f 466/366/73 468/369/74 469/370/74
f 466/366/73 469/370/74 467/367/73
f 468/369/74 470/371/75 471/372/75
f 468/369/74 471/372/75 469/370/74
f 470/371/75 472/373/76 473/374/76
f 470/371/75 473/374/76 471/372/75
f 472/373/76 474/375/77 475/376/77
f 472/373/76 475/376/77 473/374/76
f 474/375/77 476/377/78 477/378/78
f 474/375/77 477/378/78 475/376/77
f 476/377/78 478/379/79 479/380/79
f 476/377/78 479/380/79 477/378/78
f 478/379/79 480/381/80 481/382/80
f 478/379/79 481/382/80 479/380/79
f 480/381/80 482/383/81 483/384/81
f 480/381/80 483/384/81 481/382/80
f 482/383/81 484/385/82 485/386/82
f 482/383/81 485/386/82 483/384/81
f 484/387/82 486/388/83 487/389/83
f 484/387/82 487/389/83 485/390/82
f 486/388/83 464/365/72 465/368/72
f 486/388/83 465/368/72 487/389/83
f 488/391/72 490/392/73 491/393/73
f 488/391/72 491/393/73 489/394/72
f 490/392/73 492/395/74 493/396/74
f 490/392/73 493/396/74 491/393/73
f 492/395/74 494/397/75 495/398/75
f 492/395/74 495/398/75 493/396/74
f 494/397/75 496/399/76 497/400/76
f 494/397/75 497/400/76 495/398/75
f 496/399/76 498/401/77 499/402/77
f 496/399/76 499/402/77 497/400/76
f 498/401/77 500/403/78 501/404/78
f 498/401/77 501/404/78 499/402/77
f 500/403/78 502/405/79 503/406/79
f 500/403/78 503/406/79 501/404/78
f 502/405/79 504/407/80 505/408/80
f 502/405/79 505/408/80 503/406/79
f 504/407/80 506/409/81 507/410/81
f 504/407/80 507/410/81 505/408/80
f 506/409/81 508/411/82 509/412/82
f 506/409/81 509/412/82 507/410/81
f 508/411/82 510/413/83 511/414/83
f 508/411/82 511/414/83 509/412/82
f 510/415/83 488/391/72 489/394/72
f 510/415/83 489/394/72 511/416/83
f 512/417/72 514/418/73 515/419/73
f 512/417/72 515/419/73 513/420/72
f 514/418/73 516/421/74 517/422/74
f 514/418/73 517/422/74 515/419/73
f 516/421/74 518/423/75 519/424/75
f 516/421/74 519/424/75 517/422/74
f 518/423/75 520/425/76 521/426/76
f 518/423/75 521/426/76 519/424/75
f 520/425/76 522/427/77 523/428/77
f 520/425/76 523/428/77 521/426/76
f 522/429/77 524/430/78 525/431/78
f 522/429/77 525/431/78 523/432/77
f 524/430/78 526/433/79 527/434/79
f 524/430/78 527/434/79 525/431/78
f 526/433/79 528/435/80 529/436/80
f 526/433/79 529/436/80 527/434/79
f 528/435/80 530/437/81 531/438/81
f 528/435/80 531/438/81 529/436/80
f 530/437/81 532/439/82 533/440/82
f 530/437/81 533/440/82 531/438/81
f 532/439/82 534/441/83 535/442/83
f 532/439/82 535/442/83 533/440/82
f 534/441/83 512/417/72 513/420/72
f 534/441/83 513/420/72 535/442/83
f 540/443/120 536/304/120 537/444/120
f 540/443/120 537/444/120 541/445/120
f 539/304/41 538/444/41 542/445/41
f 539/304/41 542/445/41 543/443/41
f 546/310/120 540/443/120 541/445/120
f 546/310/120 541/445/120 547/446/120
f 545/443/41 544/445/41 548/446/41
f 545/443/41 548/446/41 549/310/41
o Press
v 0.000000 0.687500 -0.000000
v 0.046054 0.658193 0.171875
v 0.079768 0.578125 0.297696
v 0.092107 0.468750 0.343750
v 0.125821 0.658193 0.125821
v 0.217929 0.578125 0.217929
v 0.251642 0.468750 0.251642
v 0.171875 0.658193 0.046054
v 0.297696 0.578125 0.079767
v 0.343750 0.468750 0.092107
v 0.171875 0.658193 -0.046054
v 0.297696 0.578125 -0.079768
v 0.343750 0.468750 -0.092108
v 0.125821 0.658193 -0.125821
v 0.217929 0.578125 -0.217929
v 0.251642 0.468750 -0.251643
v 0.046054 0.658193 -0.171875
v 0.079768 0.578125 -0.297696
v 0.092107 0.468750 -0.343750
v -0.046054 0.658193 -0.171875
v -0.079768 0.578125 -0.297696
v -0.092107 0.468750 -0.343750
v -0.125821 0.658193 -0.125821
v -0.217929 0.578125 -0.217929
v -0.251642 0.468750 -0.251643
v -0.171875 0.658193 -0.046054
v -0.297696 0.578125 -0.079768
v -0.343750 0.468750 -0.092108
v -0.171875 0.658193 0.046054
v -0.297696 0.578125 0.079767
v -0.343750 0.468750 0.092107
v -0.125821 0.658193 0.125821
v -0.217929 0.578125 0.217929
v -0.251642 0.468750 0.251642
v -0.046054 0.658193 0.171875
v -0.079768 0.578125 0.297696
v -0.092107 0.468750 0.343750
v 0.000000 0.468750 -0.000000
v 0.100481 0.468750 0.375000
v 0.274519 0.468750 0.274519
v 0.375000 0.468750 0.100481
v 0.375000 0.468750 -0.100481
v 0.274519 0.468750 -0.274519
v 0.100481 0.468750 -0.375000
v -0.100481 0.468750 -0.375000
v -0.274519 0.468750 -0.274519
v -0.375000 0.468750 -0.100481
v -0.375000 0.468750 0.100481
v -0.274519 0.468750 0.274519
v -0.100481 0.468750 0.375000
v 0.100481 0.437500 0.375000
v 0.100481 0.468750 0.375000
v 0.274519 0.437500 0.274519
v 0.274519 0.468750 0.274519
v 0.375000 0.437500 0.100481
v 0.375000 0.468750 0.100481
v 0.375000 0.437500 -0.100481
v 0.375000 0.468750 -0.100481
v 0.274519 0.437500 -0.274519
v 0.274519 0.468750 -0.274519
v 0.100481 0.437500 -0.375000
v 0.100481 0.468750 -0.375000
v -0.100481 0.437500 -0.375000
v -0.100481 0.468750 -0.375000
v -0.274519 0.437500 -0.274519
v -0.274519 0.468750 -0.274519
v -0.375000 0.437500 -0.100481
v -0.375000 0.468750 -0.100481
v -0.375000 0.437500 0.100481
v -0.375000 0.468750 0.100481
v -0.274519 0.437500 0.274519
v -0.274519 0.468750 0.274519
v -0.100481 0.437500 0.375000
v -0.100481 0.468750 0.375000
v 0.000000 0.625000 0.125000
v 0.000000 1.625000 0.125000
v 0.062500 0.625000 0.108253
v 0.062500 1.625000 0.108253
v 0.108253 0.625000 0.062500
v 0.108253 1.625000 0.062500
v 0.125000 0.625000 -0.000000
v 0.125000 1.625000 -0.000000
v 0.108253 0.625000 -0.062500
v 0.108253 1.625000 -0.062500
v 0.062500 0.625000 -0.108253
v 0.062500 1.625000 -0.108253
v 0.000000 0.625000 -0.125000
v 0.000000 1.625000 -0.125000
v -0.062500 0.625000 -0.108253
v -0.062500 1.625000 -0.108253
v -0.108253 0.625000 -0.062500
v -0.108253 1.625000 -0.062500
v -0.125000 0.625000 -0.000000
v -0.125000 1.625000 -0.000000
v -0.108253 0.625000 0.062500
v -0.108253 1.625000 0.062500
v -0.062500 0.625000 0.108253
v -0.062500 1.625000 0.108253
v 0.437500 0.250000 0.437500
v 0.437500 0.250000 -0.437500
v -0.437500 0.250000 0.437500
v -0.437500 0.250000 -0.437500
v 0.428750 0.250000 0.428750
v -0.428750 0.250000 0.428750
v 0.428750 0.250000 -0.428750
v -0.428750 0.250000 -0.428750
v 0.428750 0.312500 0.428750
v -0.428750 0.312500 0.428750
v 0.428750 0.312500 -0.428750
v -0.428750 0.312500 -0.428750
v 0.437500 0.437500 0.437500
v 0.437500 0.437500 -0.437500
v 0.437500 0.250000 0.437500
v 0.437500 0.250000 -0.437500
v -0.437500 0.437500 0.437500
v -0.437500 0.437500 -0.437500
v -0.437500 0.250000 0.437500
v -0.437500 0.250000 -0.437500
v 0.437500 0.437500 0.437500
v 0.437500 0.437500 -0.437500
v 0.437500 0.250000 0.437500
v 0.437500 0.250000 -0.437500
v -0.437500 0.437500 0.437500
v -0.437500 0.437500 -0.437500
v -0.437500 0.250000 0.437500
v -0.437500 0.250000 -0.437500
v 0.437500 0.437500 0.437500
v 0.437500 0.437500 -0.437500
v -0.437500 0.437500 0.437500
v -0.437500 0.437500 -0.437500
vn 0.0903 0.9372 0.3370
vn 0.2467 0.9372 0.2467
vn -0.0000 1.0000 -0.0000
vn 0.1948 0.6582 0.7272
vn 0.5323 0.6582 0.5323
vn 0.2373 0.3996 0.8855
vn 0.6482 0.3996 0.6482
vn 0.3370 0.9372 0.0903
vn 0.7272 0.6582 0.1948
vn 0.8855 0.3996 0.2373
vn 0.3370 0.9372 -0.0903
vn 0.7272 0.6582 -0.1949
vn 0.8855 0.3996 -0.2373
vn 0.2467 0.9372 -0.2467
vn 0.5323 0.6582 -0.5323
vn 0.6482 0.3996 -0.6482
vn 0.0903 0.9372 -0.3370
vn 0.1948 0.6582 -0.7272
vn 0.2373 0.3996 -0.8855
vn -0.0903 0.9372 -0.3370
vn -0.1949 0.6582 -0.7272
vn -0.2373 0.3996 -0.8855
vn -0.2467 0.9372 -0.2467
vn -0.5323 0.6582 -0.5323
vn -0.6482 0.3996 -0.6482
vn -0.3370 0.9372 -0.0903
vn -0.7272 0.6582 -0.1948
vn -0.8855 0.3996 -0.2373
vn -0.3370 0.9372 0.0903
vn -0.7272 0.6582 0.1949
vn -0.8855 0.3996 0.2373
vn -0.2467 0.9372 0.2467
vn -0.5323 0.6582 0.5323
vn -0.6482 0.3996 0.6482
vn -0.0903 0.9372 0.3370
vn -0.1948 0.6582 0.7272
vn -0.2373 0.3996 0.8855
vn 0.2588 -0.0000 0.9659
vn 0.7071 -0.0000 0.7071
vn 0.9659 -0.0000 0.2588
vn 0.9659 -0.0000 -0.2588
vn 0.7071 -0.0000 -0.7071
vn 0.2588 -0.0000 -0.9659
vn -0.2588 -0.0000 -0.9659
vn -0.7071 -0.0000 -0.7071
vn -0.9659 -0.0000 -0.2588
vn -0.9659 -0.0000 0.2588
vn -0.7071 -0.0000 0.7071
vn -0.2588 -0.0000 0.9659
vn -0.0000 -0.0000 1.0000
vn 0.5000 -0.0000 0.8660
vn 0.8660 -0.0000 0.5000
vn 1.0000 -0.0000 -0.0000
vn 0.8660 -0.0000 -0.5000
vn 0.5000 -0.0000 -0.8660
vn -0.0000 -0.0000 -1.0000
vn -0.5000 -0.0000 -0.8660
vn -0.8660 -0.0000 -0.5000
vn -1.0000 -0.0000 -0.0000
vn -0.8660 -0.0000 0.5000
vn -0.5000 -0.0000 0.8660
vn -0.5773 -0.5774 0.5773
vn -0.5774 -0.5773 -0.5773
vn 0.5773 -0.5774 -0.5773
vn 0.5774 -0.5773 0.5773
vn -0.4082 -0.8165 -0.4082
vn -0.4082 -0.8165 0.4082
vn -0.0000 -1.0000 -0.0000
vn 0.4082 -0.8165 -0.4082
vn 0.4082 -0.8165 0.4082
vt 0.926706 0.874023
vt 0.931692 0.876902
vt 0.923828 0.884766
vt 0.928814 0.866160
vt 0.937449 0.871145
vt 0.929585 0.863281
vt 0.939556 0.869038
vt 0.934570 0.881887
vt 0.942434 0.879780
vt 0.945312 0.879009
vt 0.934570 0.887644
vt 0.942434 0.889751
vt 0.945312 0.890522
vt 0.931692 0.892629
vt 0.937449 0.898386
vt 0.939556 0.900493
vt 0.926706 0.895508
vt 0.928814 0.903372
vt 0.929585 0.906250
vt 0.920950 0.895508
vt 0.918843 0.903372
vt 0.918071 0.906250
vt 0.915964 0.892629
vt 0.910208 0.898386
vt 0.908100 0.900493
vt 0.913086 0.887644
vt 0.905222 0.889751
vt 0.902344 0.890522
vt 0.913086 0.881887
vt 0.905222 0.879780
vt 0.902344 0.879009
vt 0.915964 0.876902
vt 0.910208 0.871145
vt 0.908100 0.869038
vt 0.920950 0.874023
vt 0.918843 0.866160
vt 0.918071 0.863281
vt 0.869561 0.800781
vt 0.880439 0.807061
vt 0.863281 0.824219
vt 0.886719 0.817939
vt 0.886719 0.830499
vt 0.880439 0.841376
vt 0.869561 0.847656
vt 0.857001 0.847656
vt 0.846124 0.841376
vt 0.839844 0.830499
vt 0.839844 0.817939
vt 0.846124 0.807061
vt 0.857001 0.800781
vt 0.867188 0.904297
vt 0.878906 0.904297
vt 0.878906 0.906250
vt 0.867188 0.906250
vt 0.855469 0.867188
vt 0.859375 0.867188
vt 0.859375 0.929688
vt 0.855469 0.929688
vt 0.863281 0.867188
vt 0.863281 0.929688
vt 0.867188 0.867188
vt 0.867188 0.929688
vt 0.871094 0.867188
vt 0.871094 0.929688
vt 0.875000 0.867188
vt 0.875000 0.929688
vt 0.878906 0.867188
vt 0.878906 0.929688
vt 0.882812 0.867188
vt 0.882812 0.929688
vt 0.886719 0.867188
vt 0.886719 0.929688
vt 0.890625 0.867188
vt 0.890625 0.929688
vt 0.843750 0.867188
vt 0.847656 0.867188
vt 0.847656 0.929688
vt 0.843750 0.929688
vt 0.851562 0.867188
vt 0.851562 0.929688
vt 0.116641 0.945859
vt 0.116641 0.999453
vt 0.063047 0.999453
vt 0.063047 0.945859
vt 0.171328 0.999453
vt 0.171328 0.945859
vt 0.171875 0.945312
vt 0.171875 1.000000
vt 0.117734 0.999453
vt 0.117188 1.000000
vt 0.117734 0.945859
vt 0.117188 0.945312
vt 0.116641 0.937500
vt 0.063047 0.937500
vt 0.063047 0.933594
vt 0.116641 0.933594
vt 0.062500 0.945312
vt 0.062500 0.933594
vt 0.117188 0.933594
s 1
f 551/447/151 554/448/152 550/449/153
f 551/447/151 552/450/154 555/451/155
f 551/447/151 555/451/155 554/448/152
f 552/450/154 553/452/156 556/453/157
f 552/450/154 556/453/157 555/451/155
f 554/448/152 557/454/158 550/449/153
f 554/448/152 555/451/155 558/455/159
f 554/448/152 558/455/159 557/454/158
f 555/451/155 556/453/157 559/456/160
f 555/451/155 559/456/160 558/455/159
f 557/454/158 560/457/161 550/449/153
f 557/454/158 558/455/159 561/458/162
f 557/454/158 561/458/162 560/457/161
f 558/455/159 559/456/160 562/459/163
f 558/455/159 562/459/163 561/458/162
f 560/457/161 563/460/164 550/449/153
f 560/457/161 561/458/162 564/461/165
f 560/457/161 564/461/165 563/460/164
f 561/458/162 562/459/163 565/462/166
f 561/458/162 565/462/166 564/461/165
f 563/460/164 566/463/167 550/449/153
f 563/460/164 564/461/165 567/464/168
f 563/460/164 567/464/168 566/463/167
f 564/461/165 565/462/166 568/465/169
f 564/461/165 568/465/169 567/464/168
f 566/463/167 569/466/170 550/449/153
f 566/463/167 567/464/168 570/467/171
f 566/463/167 570/467/171 569/466/170
f 567/464/168 568/465/169 571/468/172
f 567/464/168 571/468/172 570/467/171
f 569/466/170 572/469/173 550/449/153
f 569/466/170 570/467/171 573/470/174
f 569/466/170 573/470/174 572/469/173
f 570/467/171 571/468/172 574/471/175
f 570/467/171 574/471/175 573/470/174
f 572/469/173 575/472/176 550/449/153
f 572/469/173 573/470/174 576/473/177
f 572/469/173 576/473/177 575/472/176
f 573/470/174 574/471/175 577/474/178
f 573/470/174 577/474/178 576/473/177
f 575/472/176 578/475/179 550/449/153
f 575/472/176 576/473/177 579/476/180
f 575/472/176 579/476/180 578/475/179
f 576/473/177 577/474/178 580/477/181
f 576/473/177 580/477/181 579/476/180
f 578/475/179 581/478/182 550/449/153
f 578/475/179 579/476/180 582/479/183
f 578/475/179 582/479/183 581/478/182
f 579/476/180 580/477/181 583/480/184
f 579/476/180 583/480/184 582/479/183
f 581/478/182 584/481/185 550/449/153
f 581/478/182 582/479/183 585/482/186
f 581/478/182 585/482/186 584/481/185
f 582/479/183 583/480/184 586/483/187
f 582/479/183 586/483/187 585/482/186
f 584/481/185 551/447/151 550/449/153
f 584/481/185 585/482/186 552/450/154
f 584/481/185 552/450/154 551/447/151
f 585/482/186 586/483/187 553/452/156
f 585/482/186 553/452/156 552/450/154
f 588/484/153 589/485/153 587/486/153
f 589/485/153 590/487/153 587/486/153
f 590/487/153 591/488/153 587/486/153
f 591/488/153 592/489/153 587/486/153
f 592/489/153 593/490/153 587/486/153
f 593/490/153 594/491/153 587/486/153
f 594/491/153 595/492/153 587/486/153
f 595/492/153 596/493/153 587/486/153
f 596/493/153 597/494/153 587/486/153
f 597/494/153 598/495/153 587/486/153
f 598/495/153 599/496/153 587/486/153
f 599/496/153 588/484/153 587/486/153
f 600/497/188 602/498/189 603/499/189
f 600/497/188 603/499/189 601/500/188
f 602/497/189 604/498/190 605/499/190
f 602/497/189 605/499/190 603/500/189
f 604/497/190 606/498/191 607/499/191
f 604/497/190 607/499/191 605/500/190
f 606/497/191 608/498/192 609/499/192
f 606/497/191 609/499/192 607/500/191
f 608/497/192 610/498/193 611/499/193
f 608/497/192 611/499/193 609/500/192
f 610/497/193 612/498/194 613/499/194
f 610/497/193 613/499/194 611/500/193
f 612/497/194 614/498/195 615/499/195
f 612/497/194 615/499/195 613/500/194
f 614/497/195 616/498/196 617/499/196
f 614/497/195 617/499/196 615/500/195
f 616/497/196 618/498/197 619/499/197
f 616/497/196 619/499/197 617/500/196
f 618/497/197 620/498/198 621/499/198
f 618/497/197 621/499/198 619/500/197
f 620/497/198 622/498/199 623/499/199
f 620/497/198 623/499/199 621/500/198
f 622/497/199 600/498/188 601/499/188
f 622/497/199 601/499/188 623/500/199
f 624/501/200 626/502/201 627/503/201
f 624/501/200 627/503/201 625/504/200
f 626/502/201 628/505/202 629/506/202
f 626/502/201 629/506/202 627/503/201
f 628/505/202 630/507/203 631/508/203
f 628/505/202 631/508/203 629/506/202
f 630/507/203 632/509/204 633/510/204
f 630/507/203 633/510/204 631/508/203
f 632/509/204 634/511/205 635/512/205
f 632/509/204 635/512/205 633/510/204
f 634/511/205 636/513/206 637/514/206
f 634/511/205 637/514/206 635/512/205
f 636/513/206 638/515/207 639/516/207
f 636/513/206 639/516/207 637/514/206
f 638/515/207 640/517/208 641/518/208
f 638/515/207 641/518/208 639/516/207
f 640/517/208 642/519/209 643/520/209
f 640/517/208 643/520/209 641/518/208
f 642/521/209 644/522/210 645/523/210
f 642/521/209 645/523/210 643/524/209
f 644/522/210 646/525/211 647/526/211
f 644/522/210 647/526/211 645/523/210
f 646/525/211 624/501/200 625/504/200
f 646/525/211 625/504/200 647/526/211
f 658/527/212 656/528/213 657/529/214
f 658/527/212 657/529/214 659/530/215
f 652/531/216 654/532/217 649/533/218
f 652/531/216 649/533/218 648/534/218
f 653/535/219 652/531/216 648/534/218
f 653/535/219 648/534/218 650/536/218
f 655/537/220 653/535/219 650/536/218
f 655/537/220 650/536/218 651/538/218
f 654/532/217 655/537/220 651/538/218
f 654/532/217 651/538/218 649/533/218
f 656/539/213 658/540/212 654/541/217
f 656/539/213 654/541/217 652/542/216
f 657/539/214 656/540/213 652/541/216
f 657/539/214 652/541/216 653/542/219
f 659/539/215 657/540/214 653/541/219
f 659/539/215 653/541/219 655/542/220
f 658/539/212 659/540/215 655/541/220
f 658/539/212 655/541/220 654/542/217
f 661/538/203 660/543/203 662/544/203
f 661/538/203 662/544/203 663/545/203
f 666/545/209 664/538/209 665/543/209
f 666/545/209 665/543/209 667/544/209
f 670/545/200 668/538/200 672/543/200
f 670/545/200 672/543/200 674/544/200
f 673/538/206 669/543/206 671/544/206
f 673/538/206 671/544/206 675/545/206
f 678/538/153 676/533/153 677/534/153
f 678/538/153 677/534/153 679/536/153
o Shaky
v 0.387944 0.812500 -0.343750
v 0.406250 0.812500 -0.362056
v 0.406250 0.812500 -0.387944
v 0.387944 0.812500 -0.406250
v 0.362056 0.812500 -0.406250
v 0.343750 0.812500 -0.387944
v 0.362056 0.812500 -0.343750
v 0.190059 0.427697 -0.075330
v 0.397872 0.781250 -0.361361
v 0.182857 0.414753 -0.096562
v 0.390671 0.768306 -0.382593
v 0.161913 0.414753 -0.111779
v 0.369727 0.768306 -0.397809
v 0.139495 0.427697 -0.112067
v 0.347309 0.781250 -0.398098
v 0.128735 0.446003 -0.097257
v 0.336549 0.799556 -0.383288
v 0.135936 0.458947 -0.076025
v 0.343750 0.812500 -0.362056
v 0.156881 0.458947 -0.060808
v 0.364694 0.812500 -0.346839
v 0.179299 0.446003 -0.060521
v 0.387112 0.799556 -0.346551
v 0.343750 3.375000 -0.387945
v 0.362056 3.375000 -0.406250
v 0.387944 3.375000 -0.406250
v 0.406250 3.375000 -0.387945
v 0.406250 3.375000 -0.362056
v 0.387944 3.375000 -0.343750
v 0.362056 3.375000 -0.343750
v 0.343750 3.375000 -0.362056
v 0.362056 3.562500 -0.343750
v 0.387944 3.562500 -0.343750
v 0.406250 3.562500 -0.362056
v 0.406250 3.562500 -0.387945
v 0.387944 3.562500 -0.406250
v 0.362056 3.562500 -0.406250
v 0.343750 3.562500 -0.387945
v 0.343750 3.562500 -0.362056
v 0.362056 3.562500 -0.343750
v 0.343750 3.375000 -0.387945
v 0.362056 3.375000 -0.406250
v 0.387944 3.375000 -0.406250
v 0.406250 3.375000 -0.387945
v 0.406250 3.375000 -0.362056
v 0.387944 3.375000 -0.343750
v 0.362056 3.375000 -0.343750
v 0.343750 3.375000 -0.362056
v 0.349112 3.500000 -0.437500
v 0.312500 3.500000 -0.400888
v 0.349112 3.437500 -0.437500
v 0.312500 3.437500 -0.400888
v 0.312500 3.500000 -0.349112
v 0.312500 3.437500 -0.349112
v 0.349112 3.500000 -0.312500
v 0.349112 3.437500 -0.312500
v 0.400888 3.500000 -0.312500
v 0.400888 3.437500 -0.312500
v 0.437500 3.500000 -0.349112
v 0.437500 3.437500 -0.349112
v 0.437500 3.500000 -0.400888
v 0.437500 3.437500 -0.400888
v 0.400888 3.500000 -0.437500
v 0.400888 3.437500 -0.437500
v 0.375000 3.562500 -0.375000
v 0.387944 3.562500 -0.343750
v 0.406250 3.562500 -0.362056
v 0.406250 3.562500 -0.387945
v 0.387944 3.562500 -0.406250
v 0.362056 3.562500 -0.406250
v 0.343750 3.562500 -0.387945
v 0.343750 3.562500 -0.362056
vn 0.9065 -0.2706 0.3241
vn 0.6936 -0.6533 -0.3036
vn 0.7708 -0.4847 -0.4135
vn 0.9093 -0.2651 0.3207
vn 0.0744 -0.6533 -0.7535
vn 0.1722 -0.4581 -0.8721
vn -0.5884 -0.2706 -0.7620
vn -0.5123 -0.1389 -0.8475
vn -0.9065 0.2706 -0.3241
vn -0.8837 0.3088 -0.3519
vn -0.6936 0.6533 0.3036
vn -0.8771 0.3845 0.2879
vn -0.0744 0.6533 0.7535
vn 0.5884 0.2706 0.7620
vn 0.4894 0.0250 0.8717
vn -0.9053 0.1754 -0.3868
vn -0.4019 -0.0017 -0.9157
vn 0.3228 -0.1213 -0.9387
vn 0.8804 -0.1505 -0.4498
vn 0.9265 -0.1279 0.3539
vn 0.3696 -0.1111 0.9225
vn -0.2540 -0.0760 0.9642
vn -0.9239 -0.0000 -0.3827
vn -0.3827 -0.0000 -0.9239
vn 0.3827 -0.0000 -0.9239
vn 0.9239 -0.0000 -0.3827
vn 0.9239 -0.0000 0.3827
vn 0.3827 -0.0000 0.9239
vn -0.3827 -0.0000 0.9239
vn -0.9239 -0.0000 0.3827
vn 0.8125 -0.4760 0.3366
vn 0.8951 -0.2476 0.3708
vn 0.3708 -0.2476 0.8951
vn 0.3366 -0.4760 0.8125
vn 0.8125 -0.4760 -0.3366
vn 0.8951 -0.2476 -0.3708
vn 0.3366 -0.4760 -0.8125
vn 0.3708 -0.2476 -0.8951
vn -0.3366 -0.4760 -0.8125
vn -0.3708 -0.2476 -0.8951
vn -0.8125 -0.4760 -0.3366
vn -0.8951 -0.2476 -0.3708
vn -0.8125 -0.4760 0.3366
vn -0.8951 -0.2476 0.3708
vn -0.3366 -0.4760 0.8125
vn -0.3708 -0.2476 0.8951
vn -0.3366 0.4760 -0.8125
vn -0.3708 0.2476 -0.8951
vn -0.8951 0.2476 -0.3708
vn -0.8125 0.4760 -0.3366
vn -0.8951 0.2476 0.3708
vn -0.8125 0.4760 0.3366
vn -0.3708 0.2476 0.8951
vn -0.3366 0.4760 0.8125
vn 0.3708 0.2476 0.8951
vn 0.3366 0.4760 0.8125
vn 0.8951 0.2476 0.3708
vn 0.8125 0.4760 0.3366
vn 0.8951 0.2476 -0.3708
vn 0.8125 0.4760 -0.3366
vn 0.3708 0.2476 -0.8951
vn 0.3366 0.4760 -0.8125
vn -0.0000 1.0000 -0.0000
vt 0.042969 0.839844
vt 0.044587 0.839844
vt 0.044587 0.871094
vt 0.042969 0.871094
vt 0.046875 0.839844
vt 0.048493 0.839844
vt 0.048493 0.871094
vt 0.046875 0.871094
vt 0.050781 0.839844
vt 0.052399 0.839844
vt 0.052399 0.871094
vt 0.050781 0.871094
vt 0.042969 0.804688
vt 0.044587 0.804688
vt 0.044587 0.835938
vt 0.042969 0.835938
vt 0.051072 0.827199
vt 0.052399 0.828125
vt 0.050781 0.828125
vt 0.050781 0.825906
vt 0.052315 0.826421
vt 0.052221 0.827387
vt 0.050781 0.824219
vt 0.051924 0.821408
vt 0.053329 0.822210
vt 0.052394 0.824219
vt 0.050781 0.821271
vt 0.052366 0.820946
vt 0.052362 0.823970
vt 0.050781 0.824184
vt 0.050781 0.822162
vt 0.052146 0.821292
vt 0.052377 0.824219
vt 0.050781 0.823389
vt 0.051784 0.822120
vt 0.052388 0.824049
vt 0.052399 0.824219
vt 0.052347 0.823391
vt 0.041016 0.699219
vt 0.041016 0.859375
vt 0.039872 0.859375
vt 0.039872 0.699219
vt 0.038253 0.859375
vt 0.038253 0.699219
vt 0.037109 0.859375
vt 0.037109 0.699219
vt 0.033677 0.699219
vt 0.033677 0.859375
vt 0.032059 0.859375
vt 0.032059 0.699219
vt 0.052734 0.699219
vt 0.052734 0.859375
vt 0.051590 0.859375
vt 0.051590 0.699219
vt 0.049972 0.859375
vt 0.049972 0.699219
vt 0.048828 0.859375
vt 0.048828 0.699219
vt 0.057115 0.699219
vt 0.057115 0.859375
vt 0.055497 0.859375
vt 0.055497 0.699219
vt 0.054688 0.863281
vt 0.052399 0.863281
vt 0.034486 0.863281
vt 0.031250 0.863281
vt 0.037444 0.863281
vt 0.035156 0.863281
vt 0.040681 0.863281
vt 0.042969 0.863281
vt 0.057924 0.863281
vt 0.049163 0.863281
vt 0.046875 0.863281
vt 0.039872 0.871094
vt 0.040681 0.867188
vt 0.042969 0.867188
vt 0.041016 0.871094
vt 0.055497 0.871094
vt 0.054688 0.867188
vt 0.057924 0.867188
vt 0.057115 0.871094
vt 0.048828 0.871094
vt 0.046875 0.867188
vt 0.049163 0.867188
vt 0.049972 0.871094
vt 0.052399 0.867188
vt 0.051590 0.871094
vt 0.052734 0.871094
vt 0.032059 0.871094
vt 0.031250 0.867188
vt 0.034486 0.867188
vt 0.033677 0.871094
vt 0.037109 0.871094
vt 0.035156 0.867188
vt 0.037444 0.867188
vt 0.038253 0.871094
vt 0.045731 0.859375
vt 0.046875 0.860519
vt 0.044922 0.861328
vt 0.046875 0.862137
vt 0.045731 0.863281
vt 0.044113 0.863281
vt 0.042969 0.862137
vt 0.042969 0.860519
vt 0.044113 0.859375
s 1
f 687/546/221 689/547/222 690/548/223
f 687/546/221 690/548/223 688/549/224
f 689/550/222 691/551/225 692/552/226
f 689/550/222 692/552/226 690/553/223
f 691/554/225 693/555/227 694/556/228
f 691/554/225 694/556/228 692/557/226
f 693/558/227 695/559/229 696/560/230
f 693/558/227 696/560/230 694/561/228
f 695/558/229 697/559/231 698/560/232
f 695/558/229 698/560/232 696/561/230
f 697/558/231 699/559/233 700/560/233
f 697/558/231 700/560/233 698/561/232
f 699/558/233 701/559/234 702/560/235
f 699/558/233 702/560/235 700/561/233
f 701/558/234 687/559/221 688/560/224
f 701/558/234 688/560/224 702/561/235
f 696/562/230 698/563/232 685/564/236
f 684/564/237 694/565/228 696/566/230
f 684/564/237 696/566/230 685/567/236
f 683/568/238 692/569/226 694/570/228
f 683/568/238 694/570/228 684/571/237
f 682/568/239 690/572/223 692/573/226
f 682/568/239 692/573/226 683/574/238
f 681/575/240 688/576/224 690/577/223
f 681/575/240 690/577/223 682/578/239
f 680/568/241 702/579/235 688/580/224
f 680/568/241 688/580/224 681/581/240
f 680/582/241 686/568/242 702/583/235
f 685/584/236 703/585/243 704/586/244
f 685/584/236 704/586/244 684/587/237
f 684/587/237 704/586/244 705/588/245
f 684/587/237 705/588/245 683/589/238
f 683/589/238 705/588/245 706/590/246
f 683/589/238 706/590/246 682/591/239
f 682/592/239 706/593/246 707/594/247
f 682/592/239 707/594/247 681/595/240
f 681/596/240 707/597/247 708/598/248
f 681/596/240 708/598/248 680/599/241
f 680/599/241 708/598/248 709/600/249
f 680/599/241 709/600/249 686/601/242
f 686/601/242 709/600/249 710/602/250
f 686/601/242 710/602/250 698/603/232
f 698/604/232 710/605/250 703/606/243
f 698/604/232 703/606/243 685/607/236
f 724/597/251 739/608/252 737/609/253
f 724/597/251 737/609/253 725/598/254
f 723/593/255 741/610/256 739/611/252
f 723/593/255 739/611/252 724/594/251
f 722/588/257 743/612/258 741/613/256
f 722/588/257 741/613/256 723/590/255
f 721/586/259 730/614/260 743/612/258
f 721/586/259 743/612/258 722/588/257
f 720/585/261 731/615/262 730/614/260
f 720/585/261 730/614/260 721/586/259
f 727/605/263 733/616/264 731/608/262
f 727/605/263 731/608/262 720/606/261
f 726/600/265 735/617/266 733/618/264
f 726/600/265 733/618/264 727/602/263
f 725/598/254 737/609/253 735/617/266
f 725/598/254 735/617/266 726/600/265
f 716/619/267 728/620/268 729/621/269
f 716/619/267 729/621/269 717/622/270
f 728/620/268 730/614/260 731/615/262
f 728/620/268 731/615/262 729/621/269
f 717/623/270 729/624/269 732/625/271
f 717/623/270 732/625/271 718/626/272
f 729/624/269 731/608/262 733/616/264
f 729/624/269 733/616/264 732/625/271
f 718/627/272 732/628/271 734/629/273
f 718/627/272 734/629/273 719/630/274
f 732/628/271 733/618/264 735/617/266
f 732/628/271 735/617/266 734/629/273
f 719/630/274 734/629/273 736/631/275
f 719/630/274 736/631/275 712/632/276
f 734/629/273 735/617/266 737/609/253
f 734/629/273 737/609/253 736/631/275
f 712/632/276 736/631/275 738/624/277
f 712/632/276 738/624/277 713/633/278
f 736/631/275 737/609/253 739/608/252
f 736/631/275 739/608/252 738/624/277
f 713/634/278 738/635/277 740/636/279
f 713/634/278 740/636/279 714/637/280
f 738/635/277 739/611/252 741/610/256
f 738/635/277 741/610/256 740/636/279
f 714/638/280 740/639/279 742/640/281
f 714/638/280 742/640/281 715/641/282
f 740/639/279 741/613/256 743/612/258
f 740/639/279 743/612/258 742/640/281
f 715/641/282 742/640/281 728/620/268
f 715/641/282 728/620/268 716/619/267
f 742/640/281 743/612/258 730/614/260
f 742/640/281 730/614/260 728/620/268
f 745/642/283 746/643/283 744/644/283
f 746/643/283 747/645/283 744/644/283
f 747/645/283 748/646/283 744/644/283
f 748/646/283 749/647/283 744/644/283
f 749/647/283 750/648/283 744/644/283
f 750/648/283 751/649/283 744/644/283
f 751/649/283 711/650/283 744/644/283
f 711/650/283 745/642/283 744/644/283
